<?xml version="1.0" encoding="UTF-8" standalone="no"?>
<!DOCTYPE svg PUBLIC "-//W3C//DTD SVG 20010904//EN"
"http://www.w3.org/TR/2001/REC-SVG-20010904/DTD/svg10.dtd">
<!-- Created with Sodipodi ("http://www.sodipodi.com/") -->
<svg
   width="48pt"
   height="48pt"
   viewBox="0 0 256 256"
   overflow="visible"
   enable-background="new 0 0 256 256"
   xml:space="preserve"
   xmlns="http://www.w3.org/2000/svg"
   xmlns:xml="http://www.w3.org/XML/1998/namespace"
   xmlns:a="http://ns.adobe.com/AdobeSVGViewerExtensions/3.0/"
   xmlns:sodipodi="http://sodipodi.sourceforge.net/DTD/sodipodi-0.dtd"
   xmlns:xlink="http://www.w3.org/1999/xlink"
   id="svg548"
   sodipodi:version="0.32"
   sodipodi:docname="/home/cschalle/gnome-themes-extras/Nuvola/icons/scalable/stock/stock_cut.svg"
   sodipodi:docbase="/home/cschalle/gnome-themes-extras/Nuvola/icons/scalable/stock">
  <defs
     id="defs627" />
  <sodipodi:namedview
     id="base" />
  <g
     id="Layer_2"
     stroke="#000000">
    <path
       fill="none"
       stroke="none"
       d="M256,256H0V0h256V256z"
       id="path550" />
  </g>
  <g
     id="Layer_1"
     stroke="#000000">
    <path
       opacity="0.2"
       stroke="none"
       d="M250.649,87.094l-91.126,21.09l34.723-87.103h-3.011c-36.763,0-64.184,59.122-78.207,97.863    l-2.301,0.533c0.49,5.385-1.375,10.402-3.894,15.4c1.538-6.049,2.61-12.186,3.05-18.347l-3.551,0.822l-0.936,0.784    c-8.287,6.94-16.428,13.421-21.128,16.862c-3.015-8.065-8.05-21.325-19.459-26.461c-6.004-2.702-12.761-2.644-20.086,0.173    C12.316,121.177,8.682,144.866,8.34,151.829l-0.007,0.15l0.002,0.25l0.013,0.254l0.041,0.688    c0.692,9.018,8.674,21.625,20.837,27.207c8.06,3.7,20.901,5.735,36.308-5.579l29.426-21.613c0,0-0.085,0.027-0.095,0.03    c0.349-0.232,0.76-0.529,1.396-1.004c1.963-1.484,3.981-3.011,5.093-2.823c0.107,0.018,0.36,0.082,0.753,0.303    c0.367-0.956,0.712-1.919,1.059-2.882c0.225,0.104,0.45,0.222,0.68,0.36c-0.699,2.438-1.122,4.014-1.255,4.518l-0.315,1.191    l0.909,0.834c2.105,1.93,3.607,3.689,4.517,5.27c0.011,0.074,0.016,0.135,0.017,0.172c0.017,1.128-1.796,2.892-3.55,4.599    l-1.15,1.129l-25.837,25.837c-13.58,13.579-14.109,26.257-12.163,34.502c2.928,12.399,12.737,20.806,18.767,22.815    c23.944,7.981,44.207-1.106,58.6-26.282c2.671-4.675,4.025-9.334,4.025-13.848c0-2.021-0.273-4.032-0.814-5.979    c-3.353-12.063-15.711-19.05-23.227-23.249c4.134-4.127,11.872-11.279,19.879-18.325l0.271-0.239    c-1.184-0.135-2.365-0.249-3.547-0.376l4.257-10.679c39.035-7.548,100.855-24.82,109.855-59.464l0.847-3.261L250.649,87.094z     M59.852,142.38c0.083,1.342,0.03,2.65-0.159,3.886c-0.69,4.504-2.99,8.486-6.308,10.924c-2.522,1.852-5.457,2.635-8.262,2.204    c-6.333-0.97-10.693-7.585-10.14-15.386l0.023-0.341l-0.021-0.338c-0.083-1.338-0.029-2.647,0.16-3.889    c1.266-8.271,7.803-14.159,14.571-13.124c6.333,0.968,10.691,7.582,10.137,15.385l-0.024,0.341L59.852,142.38z M122.71,213.689    c0,6.848-6.811,12.418-15.183,12.418s-15.183-5.57-15.183-12.418c0-6.846,6.811-12.416,15.183-12.416    S122.71,206.844,122.71,213.689z"
       id="path552" />
    <path
       fill="#333333"
       stroke="none"
       d="M39.282,103.715C6.311,116.399,2.608,140.603,2.259,147.719l-0.007,0.154l0.001,0.303    l0.014,0.296l0.041,0.696c0.714,9.297,8.92,22.321,21.419,28.058c8.303,3.812,21.518,5.921,37.316-5.683L90.47,149.93    l-0.133,0.058l1.441-1.036c1.367-1.033,3.642-2.754,4.329-2.638l1.391,0.61l0.462-0.936c4.445-11.564,7.083-22.818,7.841-33.449    l0.096-1.351l-5.104,1.182l-1.119,0.938c-7.465,6.253-15.124,12.381-20.017,16.032c-3.083-8.186-8.217-20.689-19.518-25.776    C53.882,100.748,46.865,100.799,39.282,103.715z M40.194,154.344c-5.815-0.891-9.811-7.049-9.294-14.326l0.028-0.408l-0.025-0.402    c-0.078-1.27-0.027-2.508,0.151-3.678c1.183-7.726,7.208-13.238,13.431-12.286c5.813,0.889,9.808,7.047,9.292,14.326l-0.029,0.408    l0.026,0.404c0.079,1.271,0.028,2.508-0.149,3.671c-0.65,4.244-2.805,7.987-5.911,10.27    C45.404,154.016,42.734,154.733,40.194,154.344z"
       id="path553" />
    <path
       fill="#330000"
       stroke="none"
       d="M101.25,113.291l-0.936,0.784c-8.287,6.941-16.428,13.421-21.128,16.862    c-3.014-8.065-8.05-21.325-19.459-26.461c-6.003-2.702-12.761-2.644-20.086,0.173C7.234,117.116,3.6,140.805,3.258,147.768    l-0.007,0.15l0.002,0.25l0.013,0.254l0.041,0.688c0.693,9.018,8.674,21.625,20.838,27.207c8.06,3.7,20.901,5.735,36.308-5.579    l29.426-21.613c0,0-0.085,0.027-0.095,0.03c0.349-0.231,0.76-0.528,1.396-1.004c1.963-1.484,3.981-3.011,5.094-2.823    c0.106,0.018,0.36,0.083,0.753,0.303c4.114-10.704,6.974-21.895,7.777-33.162L101.25,113.291z M54.771,138.318    c0.083,1.343,0.029,2.651-0.159,3.886c-0.69,4.504-2.989,8.486-6.308,10.924c-2.522,1.852-5.457,2.635-8.262,2.204    c-6.334-0.97-10.693-7.584-10.14-15.385l0.023-0.341l-0.021-0.338c-0.083-1.339-0.029-2.648,0.16-3.89    c1.266-8.271,7.803-14.159,14.571-13.124c6.333,0.968,10.691,7.582,10.138,15.384l-0.024,0.341L54.771,138.318z"
       id="path554" />
    <path
       fill="#333333"
       stroke="none"
       d="M100.992,153.641c0.615,0.988,0.645,1.465,0.645,1.471c0,0.001,0,0.001,0,0.001    c0,0.701-2.108,2.753-3.242,3.856l-1.16,1.139L71.392,185.95c-10.349,10.349-13.289,20.22-13.289,28.093    c0,2.705,0.347,5.174,0.86,7.346c3.017,12.774,13.174,21.453,19.424,23.535c24.454,8.15,45.124-1.093,59.784-26.735    c2.759-4.826,4.157-9.652,4.157-14.344c0-2.112-0.286-4.214-0.85-6.246c-3.319-11.941-14.909-18.913-22.54-23.201    c4.397-4.317,11.62-10.959,18.887-17.354l1.97-1.729l-2.245-0.254c-12.066-1.368-23.73-2.332-35.659-2.946l-1.911-0.098    L100.992,153.641z M88.263,209.628c0-6.295,6.362-11.416,14.183-11.416c7.821,0,14.184,5.121,14.184,11.416    c0,6.296-6.363,11.418-14.184,11.418C94.625,221.046,88.263,215.924,88.263,209.628z"
       id="path555" />
    <path
       fill="#330000"
       stroke="none"
       d="M137.438,156.053c-11.799-1.338-23.528-2.319-35.598-2.94    c0.716,1.151,0.793,1.795,0.796,1.98c0.017,1.128-1.797,2.892-3.551,4.599l-1.15,1.13l-25.836,25.836    c-13.58,13.579-14.109,26.257-12.163,34.502c2.928,12.399,12.737,20.807,18.767,22.815c23.944,7.981,44.207-1.106,58.6-26.282    c2.672-4.675,4.025-9.334,4.025-13.848c0-2.021-0.273-4.032-0.813-5.979c-3.354-12.063-15.711-19.049-23.227-23.248    c4.134-4.128,11.872-11.28,19.878-18.326L137.438,156.053z M117.629,209.628c0,6.848-6.811,12.418-15.184,12.418    c-8.372,0-15.183-5.57-15.183-12.418c0-6.846,6.811-12.416,15.183-12.416C110.818,197.212,117.629,202.782,117.629,209.628z"
       id="path556" />
    <path
       fill="#333333"
       stroke="none"
       d="M248.624,81.299l-3.282,0.76L104.57,114.638l0.079,0.869    c0.636,6.975-2.878,13.356-6.599,20.113l-4.069,7.673l1.759-0.01l0.876,0.013c1.34,0.226,3.619,1.509,6.854,6.342l1.023,1.527    l1.829-0.196c5.279-0.563,129.453-14.386,142.648-65.182l1.262-4.859L248.624,81.299z"
       id="path557" />
    <path
       fill="#444444"
       stroke="none"
       d="M245.567,83.033l-139.922,32.383c0.862,9.462-5.543,17.789-10,26.872    c0.378-0.036,0.755-0.042,1.136,0.021c2.234,0.376,4.765,2.654,7.521,6.771l0.687,1.025l1.227-0.132    c5.251-0.561,128.771-14.333,141.788-64.439l0.847-3.261L245.567,83.033z"
       id="path558" />
    <path
       fill="#CC0000"
       stroke="none"
       d="M105.646,115.416l-2.991,0.692l-0.375,0.313c-9.788,8.198-20.821,16.957-24.532,19.239    c-0.39-0.885-0.883-2.191-1.344-3.427c-2.838-7.596-7.589-20.31-17.934-24.967c-5.231-2.354-11.196-2.274-17.73,0.239    C10.06,119.309,6.635,141.422,6.316,147.918l-0.005,0.101l0.013,0.254l0.039,0.657c0.608,7.906,8.067,19.561,19.059,24.604    c7.313,3.357,19.013,5.168,33.219-5.265l29.426-21.613c0.001,0,1.278-0.956,1.278-0.956c2.271-1.718,4.281-3.22,6.302-3.413    C100.102,133.204,106.507,124.877,105.646,115.416z M57.826,138.126c0.097,1.565,0.033,3.093-0.188,4.54    c-0.813,5.303-3.554,10.016-7.522,12.929c-3.181,2.336-6.924,3.317-10.538,2.764h0c-7.923-1.214-13.396-9.222-12.729-18.628    l0.009-0.136l-0.008-0.134c-0.097-1.563-0.033-3.091,0.189-4.543c1.521-9.941,9.624-16.979,18.06-15.689    c7.924,1.211,13.396,9.22,12.729,18.627l-0.009,0.135L57.826,138.126z"
       id="path559" />
    <path
       fill="#FFCCCC"
       stroke="none"
       d="M102.923,118.543c-3.833,3.194-23.16,19.211-25.746,19.652    c-2.874,0.492-7.95-39.46-35.704-28.785c-24.975,9.607-32.528,26.571-33.12,38.607c0.013,0.253,0.024,0.51,0.043,0.757    c0.945,12.292,21.527,38.053,49.034,17.851c29.427-21.614,22.07-16.212,29.427-21.614c3.213-2.359,6.255-5.11,9.813-4.77    C99.885,132.967,104.23,125.891,102.923,118.543z M59.655,142.976c-1.696,11.072-10.822,18.866-20.386,17.399    c-9.011-1.38-15.187-10.479-14.457-20.789c-0.1-1.621-0.05-3.284,0.208-4.976c1.695-11.073,10.824-18.862,20.387-17.398    c9.01,1.377,15.187,10.479,14.456,20.789C59.963,139.621,59.914,141.285,59.655,142.976z"
       id="path560" />
    <path
       fill="#EEEEEE"
       stroke="none"
       d="M103.591,117.985c0,0-0.243,0.204-0.668,0.558c1.307,7.348-3.038,14.424-6.252,21.698    c2.709,0.259,5.717,2.31,9.328,7.704c0,0,127.219-13.607,140.029-62.925L103.591,117.985z"
       id="path561" />
    <linearGradient
       id="XMLID_1_"
       gradientUnits="userSpaceOnUse"
       x1="169.873"
       y1="105.0996"
       x2="176.0432"
       y2="137.0723">
      <stop
         offset="0"
         style="stop-color:#BBBBBB"
         id="stop563" />
      <stop
         offset="1"
         style="stop-color:#BBBBBB"
         id="stop564" />
      <a:midPointStop
         offset="0"
         style="stop-color:#BBBBBB"
         id="midPointStop565" />
      <a:midPointStop
         offset="0.5"
         style="stop-color:#BBBBBB"
         id="midPointStop566" />
      <a:midPointStop
         offset="1"
         style="stop-color:#BBBBBB"
         id="midPointStop567" />
    </linearGradient>
    <path
       fill="url(#XMLID_1_)"
       stroke="none"
       d="M103.591,121.047c0,0-0.019,0.016-0.024,0.021    c-1.308,6.616-3.243,13.113-5.154,19.584c2.252,0.852,4.73,3.028,7.585,7.294c0,0,121.468-13.001,138.959-59.616L103.591,121.047z    "
       id="path568" />
    <linearGradient
       id="XMLID_2_"
       gradientUnits="userSpaceOnUse"
       x1="171.6855"
       y1="83"
       x2="171.6855"
       y2="158.5">
      <stop
         offset="0"
         style="stop-color:#FFFFFF"
         id="stop570" />
      <stop
         offset="1"
         style="stop-color:#000000"
         id="stop571" />
      <a:midPointStop
         offset="0"
         style="stop-color:#FFFFFF"
         id="midPointStop572" />
      <a:midPointStop
         offset="0.5"
         style="stop-color:#FFFFFF"
         id="midPointStop573" />
      <a:midPointStop
         offset="1"
         style="stop-color:#000000"
         id="midPointStop574" />
    </linearGradient>
    <path
       opacity="0.2"
       fill="url(#XMLID_2_)"
       stroke="none"
       d="M103.591,121.047c0,0-0.019,0.016-0.024,0.021    c-1.308,6.616-3.243,13.113-5.154,19.584c2.252,0.852,4.73,3.028,7.585,7.294c0,0,121.468-13.001,138.959-59.616L103.591,121.047z    "
       id="path575" />
    <linearGradient
       id="XMLID_3_"
       gradientUnits="userSpaceOnUse"
       x1="8.4751"
       y1="142.3682"
       x2="103.5664"
       y2="142.3682">
      <stop
         offset="0"
         style="stop-color:#FF9999"
         id="stop577" />
      <stop
         offset="0.7978"
         style="stop-color:#FF3333"
         id="stop578" />
      <stop
         offset="1"
         style="stop-color:#CC3333"
         id="stop579" />
      <a:midPointStop
         offset="0"
         style="stop-color:#FF9999"
         id="midPointStop580" />
      <a:midPointStop
         offset="0.5"
         style="stop-color:#FF9999"
         id="midPointStop581" />
      <a:midPointStop
         offset="0.7978"
         style="stop-color:#FF3333"
         id="midPointStop582" />
      <a:midPointStop
         offset="0.5"
         style="stop-color:#FF3333"
         id="midPointStop583" />
      <a:midPointStop
         offset="1"
         style="stop-color:#CC3333"
         id="midPointStop584" />
    </linearGradient>
    <path
       fill="url(#XMLID_3_)"
       stroke="none"
       d="M77.177,141.256c-2.874,0.492-7.95-39.46-35.704-28.784    c-23.9,9.194-31.841,25.121-32.999,37.022c1.659,12.542,21.975,36.946,48.956,17.131c29.427-21.614,22.07-16.212,29.427-21.614    c3.725-2.735,7.22-6.002,11.555-4.359c1.911-6.471,3.846-12.968,5.154-19.584C103.049,121.5,80.017,140.771,77.177,141.256z     M59.871,138.207c0.026,0.501,0.039,1.006,0.032,1.516c-0.002,0.361-0.013,0.725-0.032,1.09c-0.005,0.084-0.001,0.166-0.007,0.249    c0.1,1.621,0.051,3.285-0.208,4.975c-1.696,11.073-10.822,18.866-20.386,17.4c-9.011-1.38-15.187-10.48-14.457-20.789    c-0.004-0.071-0.004-0.143-0.008-0.213c-0.026-0.501-0.039-1.003-0.032-1.511c0.003-0.359,0.013-0.72,0.032-1.082    c0.005-0.085,0.001-0.17,0.007-0.256c-0.1-1.621-0.05-3.284,0.208-4.976c1.695-11.073,10.824-18.862,20.387-17.398    c9.01,1.377,15.187,10.479,14.456,20.789C59.867,138.068,59.867,138.138,59.871,138.207z"
       id="path585" />
    <path
       opacity="0.2"
       stroke="none"
       d="M160.282,102.771l-46.64,10.794c-5.525,14.777-9.253,27.179-10.983,33.261    c0.539,0.683,1.085,1.42,1.643,2.254l0.687,1.025l1.227-0.132c1.794-0.191,17.405-1.928,37.693-6.128L160.282,102.771z"
       id="path586" />
    <path
       fill="#333333"
       stroke="none"
       d="M191.205,12.958h-3.01c-54.269,0-88.195,125.987-89.612,131.35l-0.47,1.777l1.355,1.242    c2.588,2.372,4.238,4.465,4.904,6.219l0.268,0.704l0.751-0.063c9.687-0.813,19.397,0.804,27.619,2.493l0.489,0.101l2.851-2.517    l56.331-141.306H191.205z"
       id="path587" />
    <path
       fill="#666666"
       stroke="none"
       d="M133.211,155.701c0.646-0.572,1.29-1.143,1.933-1.707l0.366-0.322l55.695-139.713h-3.01    c-53.513,0-87.236,125.273-88.646,130.606l-0.315,1.192l0.91,0.834c2.715,2.489,4.441,4.699,5.163,6.601    C114.608,152.41,123.909,153.79,133.211,155.701z"
       id="path588" />
    <path
       fill="#CC0000"
       stroke="none"
       d="M133.211,155.701c-9.302-1.911-18.603-3.291-27.904-2.51    c0.249,0.656,0.382,1.275,0.391,1.856c0.036,2.447-2.056,4.482-4.479,6.839l-1.139,1.118l-25.817,25.817    c-12.582,12.581-13.115,24.146-11.347,31.633c2.628,11.131,11.552,18.882,16.755,20.615c22.711,7.57,41.206-0.807,54.974-24.897    c2.413-4.222,3.623-8.35,3.623-12.328c0-1.75-0.234-3.472-0.703-5.16c-3.038-10.931-14.887-17.551-21.966-21.506    c-1.16-0.647-2.39-1.339-3.205-1.86C114.916,172.349,124.145,163.742,133.211,155.701z M120.69,209.628    c0,8.536-8.184,15.479-18.245,15.479c-10.06,0-18.244-6.943-18.244-15.479c0-8.534,8.185-15.478,18.244-15.478    C112.506,194.15,120.69,201.094,120.69,209.628z"
       id="path589" />
    <path
       fill="#FFCCCC"
       stroke="none"
       d="M131.351,154.63c-7.952-0.33-15.904-0.796-23.855-1.288    c1.236,4.729-2.622,7.757-5.972,11.106c-6.454,6.454,0,0-25.816,25.816c-24.133,24.132-4.138,45.955,4.61,48.87    c19.363,6.454,37.803,1.844,52.557-23.975c14.753-25.816-23.973-36.881-23.05-39.646    C110.559,173.305,125.399,159.93,131.351,154.63z M122.731,209.628c0,9.678-9.083,17.521-20.286,17.521    c-11.203,0-20.285-7.843-20.285-17.521c0-9.676,9.083-17.519,20.285-17.519C113.648,192.109,122.731,199.952,122.731,209.628z"
       id="path590" />
    <path
       fill="#FFFFFF"
       stroke="none"
       d="M133.795,152.462L188.195,16c-52.556,0-86.672,129.086-86.672,129.086    c3.601,3.301,5.376,5.975,5.972,8.256c7.952,0.492,15.904,0.958,23.855,1.288C132.851,153.293,133.795,152.462,133.795,152.462z"
       id="path591" />
    <linearGradient
       id="XMLID_4_"
       gradientUnits="userSpaceOnUse"
       x1="138.9619"
       y1="81.7217"
       x2="160.7008"
       y2="91.3207">
      <stop
         offset="0"
         style="stop-color:#DDDDDD"
         id="stop593" />
      <stop
         offset="1"
         style="stop-color:#BBBBBB"
         id="stop594" />
      <a:midPointStop
         offset="0"
         style="stop-color:#DDDDDD"
         id="midPointStop595" />
      <a:midPointStop
         offset="0.5"
         style="stop-color:#DDDDDD"
         id="midPointStop596" />
      <a:midPointStop
         offset="1"
         style="stop-color:#BBBBBB"
         id="midPointStop597" />
    </linearGradient>
    <path
       fill="url(#XMLID_4_)"
       stroke="none"
       d="M133.795,152.462l54.368-136.383c-51.377,3.322-84.599,129.007-84.599,129.007    c5.198,4.765,6.607,8.229,6.127,11.079c6.088,0.095,12.255,0.424,18.285,1.486C131.325,154.636,133.795,152.462,133.795,152.462z"
       id="path598" />
    <linearGradient
       id="XMLID_5_"
       gradientUnits="userSpaceOnUse"
       x1="147.6846"
       y1="85.5732"
       x2="160.7313"
       y2="91.3341">
      <stop
         offset="0"
         style="stop-color:#FFFFFF"
         id="stop600" />
      <stop
         offset="1"
         style="stop-color:#000000"
         id="stop601" />
      <a:midPointStop
         offset="0"
         style="stop-color:#FFFFFF"
         id="midPointStop602" />
      <a:midPointStop
         offset="0.5"
         style="stop-color:#FFFFFF"
         id="midPointStop603" />
      <a:midPointStop
         offset="1"
         style="stop-color:#000000"
         id="midPointStop604" />
    </linearGradient>
    <path
       opacity="0.2"
       fill="url(#XMLID_5_)"
       stroke="none"
       d="M184.933,16.47L129.86,151.196c0,0-2.472,2.15-5.828,5.138    c-4.702-0.918-9.496-1.373-14.271-1.615c0.03,0.5,0.009,0.982-0.07,1.446c6.088,0.095,12.255,0.424,18.285,1.486    c3.349-3.016,5.819-5.189,5.819-5.189l54.368-136.383C187.077,16.149,186.003,16.293,184.933,16.47z"
       id="path605" />
    <linearGradient
       id="XMLID_6_"
       gradientUnits="userSpaceOnUse"
       x1="154.583"
       y1="68.7451"
       x2="138.4187"
       y2="52.5808">
      <stop
         offset="0"
         style="stop-color:#DDDDDD"
         id="stop607" />
      <stop
         offset="1"
         style="stop-color:#FFFFFF"
         id="stop608" />
      <a:midPointStop
         offset="0"
         style="stop-color:#DDDDDD"
         id="midPointStop609" />
      <a:midPointStop
         offset="0.5"
         style="stop-color:#DDDDDD"
         id="midPointStop610" />
      <a:midPointStop
         offset="1"
         style="stop-color:#FFFFFF"
         id="midPointStop611" />
    </linearGradient>
    <path
       fill="url(#XMLID_6_)"
       stroke="none"
       d="M153.783,55.1c6.594-7.764,14.371-13.224,22.88-17.109l7.418-19.361    c-31.211,2.1-55.319,53.978-68.541,90.686C134.661,97.997,140.635,72.747,153.783,55.1z"
       id="path612" />
    <linearGradient
       id="XMLID_7_"
       gradientUnits="userSpaceOnUse"
       x1="80.1108"
       y1="183.7988"
       x2="150.5206"
       y2="225.1263">
      <stop
         offset="0"
         style="stop-color:#FF9999"
         id="stop614" />
      <stop
         offset="0.7584"
         style="stop-color:#FF3333"
         id="stop615" />
      <stop
         offset="1"
         style="stop-color:#CC3333"
         id="stop616" />
      <a:midPointStop
         offset="0"
         style="stop-color:#FF9999"
         id="midPointStop617" />
      <a:midPointStop
         offset="0.5"
         style="stop-color:#FF9999"
         id="midPointStop618" />
      <a:midPointStop
         offset="0.7584"
         style="stop-color:#FF3333"
         id="midPointStop619" />
      <a:midPointStop
         offset="0.5"
         style="stop-color:#FF3333"
         id="midPointStop620" />
      <a:midPointStop
         offset="1"
         style="stop-color:#CC3333"
         id="midPointStop621" />
    </linearGradient>
    <path
       fill="url(#XMLID_7_)"
       stroke="none"
       d="M127.976,157.651c-6.03-1.063-12.197-1.392-18.285-1.486    c-0.542,3.218-3.494,5.65-6.127,8.283c-6.454,6.454,0,0-25.817,25.816c-24.132,24.132-4.138,45.955,4.61,48.87    c4.725,1.574,9.394,2.484,13.968,2.595c13.405-0.395,25.931-7.99,36.548-26.569c14.753-25.816-23.973-36.881-23.05-39.646    C110.442,173.652,121.083,163.859,127.976,157.651z M124.772,209.628c0,9.678-9.083,17.521-20.286,17.521    c-0.344,0-0.68-0.03-1.021-0.045c-0.34,0.015-0.676,0.045-1.021,0.045c-11.203,0-20.285-7.843-20.285-17.521    c0-9.676,9.083-17.519,20.285-17.519c0.344,0,0.68,0.03,1.021,0.045c0.34-0.015,0.676-0.045,1.021-0.045    C115.689,192.109,124.772,199.952,124.772,209.628z"
       id="path622" />
    <path
       fill="#777777"
       stroke="none"
       d="M116.18,129.774c0,4.892,3.964,8.856,8.856,8.856c4.893,0,8.857-3.965,8.857-8.856    c0-4.891-3.964-8.856-8.857-8.856C120.144,120.918,116.18,124.883,116.18,129.774z"
       id="path623" />
    <path
       fill="#CC0000"
       stroke="none"
       d="M106.059,157.654h27.042v-3.572h-27.042V157.654z"
       id="path624" />
    <path
       fill="#CC0000"
       stroke="none"
       d="M95.912,142.538l2.125,0.556l7.361-28.136l-2.125-0.556L95.912,142.538z"
       id="path625" />
  </g>
</svg>
