<?xml version="1.0" encoding="UTF-8" standalone="no"?>
<!DOCTYPE svg PUBLIC "-//W3C//DTD SVG 20010904//EN"
"http://www.w3.org/TR/2001/REC-SVG-20010904/DTD/svg10.dtd">
<!-- Created with Sodipodi ("http://www.sodipodi.com/") -->
<svg
   width="48pt"
   height="48pt"
   viewBox="0 0 48 48"
   style="overflow:visible;enable-background:new 0 0 48 48"
   xml:space="preserve"
   xmlns="http://www.w3.org/2000/svg"
   xmlns:xap="http://ns.adobe.com/xap/1.0/"
   xmlns:xapGImg="http://ns.adobe.com/xap/1.0/g/img/"
   xmlns:rdf="http://www.w3.org/1999/02/22-rdf-syntax-ns#"
   xmlns:xml="http://www.w3.org/XML/1998/namespace"
   xmlns:xapMM="http://ns.adobe.com/xap/1.0/mm/"
   xmlns:pdf="http://ns.adobe.com/pdf/1.3/"
   xmlns:dc="http://purl.org/dc/elements/1.1/"
   xmlns:a="http://ns.adobe.com/AdobeSVGViewerExtensions/3.0/"
   xmlns:x="adobe:ns:meta/"
   xmlns:sodipodi="http://sodipodi.sourceforge.net/DTD/sodipodi-0.dtd"
   xmlns:xlink="http://www.w3.org/1999/xlink"
   id="svg1200"
   sodipodi:version="0.32"
   sodipodi:docname="/home/david/Desktop/temp/devices/gnome-dev-rw.svg"
   sodipodi:docbase="/home/david/Desktop/temp/devices/">
  <defs
     id="defs1230" />
  <sodipodi:namedview
     id="base" />
  <metadata
     id="metadata1201">
    <xpacket>begin='﻿' id='W5M0MpCehiHzreSzNTczkc9d'    </xpacket>
    <x:xmpmeta
       x:xmptk="XMP toolkit 3.0-29, framework 1.6">
      <rdf:RDF>
        <rdf:Description
           rdf:about="uuid:fcb5d78c-9a54-42bd-bb9d-02f7ab51e638">
          <pdf:Producer>
Adobe PDF library 5.00</pdf:Producer>
        </rdf:Description>
        <rdf:Description
           rdf:about="uuid:fcb5d78c-9a54-42bd-bb9d-02f7ab51e638" />
        <rdf:Description
           rdf:about="uuid:fcb5d78c-9a54-42bd-bb9d-02f7ab51e638" />
        <rdf:Description
           rdf:about="uuid:fcb5d78c-9a54-42bd-bb9d-02f7ab51e638">
          <xap:CreateDate>
2004-01-26T11:58:28+02:00</xap:CreateDate>
          <xap:ModifyDate>
2004-03-29T09:14:20Z</xap:ModifyDate>
          <xap:CreatorTool>
Adobe Illustrator 10.0</xap:CreatorTool>
          <xap:MetadataDate>
2004-02-17T10:43:20+01:00</xap:MetadataDate>
          <xap:Thumbnails>
            <rdf:Alt>
              <rdf:li
                 rdf:parseType="Resource">
                <xapGImg:format>
JPEG</xapGImg:format>
                <xapGImg:width>
256</xapGImg:width>
                <xapGImg:height>
256</xapGImg:height>
                <xapGImg:image>
/9j/4AAQSkZJRgABAgEASABIAAD/7QAsUGhvdG9zaG9wIDMuMAA4QklNA+0AAAAAABAASAAAAAEA
AQBIAAAAAQAB/+4ADkFkb2JlAGTAAAAAAf/bAIQABgQEBAUEBgUFBgkGBQYJCwgGBggLDAoKCwoK
DBAMDAwMDAwQDA4PEA8ODBMTFBQTExwbGxscHx8fHx8fHx8fHwEHBwcNDA0YEBAYGhURFRofHx8f
Hx8fHx8fHx8fHx8fHx8fHx8fHx8fHx8fHx8fHx8fHx8fHx8fHx8fHx8fHx8f/8AAEQgBAAEAAwER
AAIRAQMRAf/EAaIAAAAHAQEBAQEAAAAAAAAAAAQFAwIGAQAHCAkKCwEAAgIDAQEBAQEAAAAAAAAA
AQACAwQFBgcICQoLEAACAQMDAgQCBgcDBAIGAnMBAgMRBAAFIRIxQVEGE2EicYEUMpGhBxWxQiPB
UtHhMxZi8CRygvElQzRTkqKyY3PCNUQnk6OzNhdUZHTD0uIIJoMJChgZhJRFRqS0VtNVKBry4/PE
1OT0ZXWFlaW1xdXl9WZ2hpamtsbW5vY3R1dnd4eXp7fH1+f3OEhYaHiImKi4yNjo+Ck5SVlpeYmZ
qbnJ2en5KjpKWmp6ipqqusra6voRAAICAQIDBQUEBQYECAMDbQEAAhEDBCESMUEFURNhIgZxgZEy
obHwFMHR4SNCFVJicvEzJDRDghaSUyWiY7LCB3PSNeJEgxdUkwgJChgZJjZFGidkdFU38qOzwygp
0+PzhJSktMTU5PRldYWVpbXF1eX1RlZmdoaWprbG1ub2R1dnd4eXp7fH1+f3OEhYaHiImKi4yNjo
+DlJWWl5iZmpucnZ6fkqOkpaanqKmqq6ytrq+v/aAAwDAQACEQMRAD8A9U4q7FXYq7FXYq7FXYq7
FXYq7FXYq7FXYq7FXYq7FXYq7FXYq7FXYq7FXYq7FXYq7FXYq7FXYq7FXYq7FXYq7FXYq7FXYq7F
XYq7FXYq7FXYq7FXYq7FXYq7FXYq7FXYq7FXYq7FXYq7FXYq7FXYq7FXYq7FXYq7FXYq7FXYq7FX
Yq7FXYq7FXYq7FXYqlmt+Z/LuhQ+trOpW9ghFV9eRUZv9RSeTfQMuxafJkNQiS2Y8M5/SCXnOuf8
5L/l9YFk09brVZBsGhj9KL6WmKN9yHNrh7Bzy+qo/jyc/H2VllzqLCNT/wCcrNacsNL0G2tx+y11
LJP9JCCD9ebDH7Ow/imT7tv1uZDseP8AFI/j5scu/wDnJP8AM2ckxS2dqD0ENuCB/wAjTJmVHsLT
jnZ+LfHsrCO8/FLm/P8A/NosSNcCgmoUWlnQewrCTlv8jaX+b9sv1s/5NwfzftP618X/ADkF+bCM
S2srKCOj2tqAP+BiXE9i6b+b9p/Wp7NwfzftKbWX/OTf5iwN+/isLte4khdTTboY5E/VlE+wMB5c
Q+P7GqXZOI8rDKdJ/wCcrV+FdX8vkfzTWk9fujkX/jfMPJ7O/wA2fzH4+5xp9j/zZfNn2gfn5+We
sFUOotpszdIr9DDT5yAvCP8Ag81mbsbUQ/h4vdv+1wsnZ2aPS/cz+0vLS8t0uLSeO4t5BWOaJldG
HiGUkHNbKJiaIouFKJBoquRQ7FXYq7FXYq7FXYq7FXYq7FXYq7FXYq7FXYq7FXYq7FXYq7FWD+ef
zj8l+UOdvd3JvNUUbada0eQH/ixq8I/9ka+xzY6TsvNn3AqPefxu5mn0OTLuBQ73gvm//nIrzzrb
SQ6Wy6HYsSFW2PK4K/5U7CoPugXOk03YmHHvL1nz5fL9du6wdmY4fV6j+Ojz6y03zJ5j1B/qlvda
rfSHlM6h53JP7Ttv97HNpKePFHciI+TnGUYDegGf6F/zjp591ALJe/V9LiO5Ez+pLQ/5MQZfvYZr
c3bWGPK5OJk7Rxx5bs50v/nFzRkCnU9Xubhv2hbpHAP+G9c5rsnb8v4Ygfb+pxJ9qnoGSWn/ADjt
+XEAAls5bqneW4mFf+RRizFl23nPI18A0HtPImC/kZ+WiqFGixUGwrJOT95krlX8r5/533fqYfyh
k71k35EflnKAG0ZBTpwmuU/4jKMI7Yzj+L7v1JHaOTv+5JdS/wCcb/IkwpbfWbUnvHOT/wAnVlzJ
x9uZRzo/Bux9py6sT1b/AJximALaVq52rxjuIw1fD40K/wDEMzcfbo/ii5UO0onmwHX/AMl/zB0Y
M76f9dhXrLZky/chCyn/AIDNjh7Swz5Gve5cNVjlyLH9I8xeavK98zabe3Wl3SH97EpaOpHaSNvh
b5MMyMuDHmHqAkGeTFDIPUAXsXkz/nKC+hMdr5tshcxbA6jZgJKPd4TRG9+JX5ZotV7Pg74jXkf1
uqz9kA7wPwL3by35s8ueZbH67od/FewCnPgaOhPaSNqOh9mGc5n02TEamKLpsuGeM1IUm2UNTsVd
irsVdirsVdirsVdirsVdirsVdirsVdirsVS7zB5i0Xy9pkup6xdpZ2cXWRzuzdlRRuzHsBvluHBP
LLhgLLZixSmaiLL5p/Mf/nIfX9eaXT/LnPSNINVM4NLuZfd1P7oHwQ1/yu2dboexIY/Vk9UvsH63
f6XsyMN5+qX2MB8peQ/Nfm67MWj2bzqD+/u5PhhQn+eQ7V9hVvbNlqNXjwi5mvLq52bPDGPUXvXk
3/nGzy5pwjufMcx1a8G5t1rHbKfCg+N6e5p/k5zmq7dnLbGOEfa6fP2pI7Q2es6dpOmabbJa2FrF
a20f2IYUVEHyVQBmlnllM3I2XXTySkbJReQYOxV2KtYq7FVOT7WSDMLMKW1XkQp6HriSpNJd5j8l
+VvMlv6GtabDeAAqkjLSVAevCRaOn+xOTwavJiNwkQuLUTgfSXifnb/nGOeJJLzyhdmcCrfoy7Kh
+54xTfCp8AHp7tnQaTt4HbKK8x+r8e522DtUHaYrzePRS+bPJmvVQ3OjaxamhBBjele4Ozo1PdWz
eEYs8Okol2ZEMsekol9Aflp/zkZpuqmLS/NvDT9QNFj1JfhtpT0/eA/3THx+z/q9M5nX9hyh6sXq
j3df2/e6TV9lmPqhuO7q9sVlZQykFSKgjcEHOfdQ7FXYq7FXYq7FXYq7FXYq7FXYq7FXYq7FWJ/m
J+ZGg+SNK+t37eteygiy05GAlmYd+/FB+0x/E7Zm6LQz1Eqjy6nucnS6WWaVDl3vkjzl548y+ddY
+uapK0rFuFnZRV9KIMdkiTfc+P2j3zt9LpMenhUfiXp8GnhijUXqf5Zf847S3Sw6t5xDQwGjw6Qp
KyMOo9dhun+oN/Ejpmn1/bQj6cW57/1OBqu0gPTDn3voHT9O0/TbOKysLeO1tIRxigiUIij2AzmZ
zlM3I2XSTmZGzuURkGLsKuxS1irq4q7FXYqpMfiOTDMLcUqsI6t9GRkwmVXIMHYqkXm7yR5a826f
9S1uzWcKD6FwPhmhLftRyDdeg26HuDmTptXkwyuBr7i3YdRPGbiXy/8Amd+TGveS3e9hJ1HQGaiX
yL8cXL7K3Cj7O+3IfCfYmmdfoO1IZ9j6Z936nodLro5duUu79SZflL+eOp+VJIdJ1lnvvLhIRN+U
tqK/aj/mQd0/4HwNPaXZMc3qhtk+/wDHe1a3s8ZPVHaf3vqfTNTsNUsINQ0+dLmyuUEkE8ZqrKf8
9x2zjsmOUJGMhRDzk4GJo80TkGLsVdirsVdirsVdirsVdirsVdirEfzK/MbSfI+hNfXNJr+eqadY
A0aWQdSfBErVm+jqRmdoNDLUTofT1Pc5Wl0ss0qHLqXyDrGseZPOfmRru7aS/wBWv5BHFFGCepok
USD7Kr2GdxixY8GOhtEPUY8cMUKGwD6O/KX8l9P8rRR6rq6pd+YHFQaco7ao+zH4v4v9A268v2j2
pLN6Y7Q+/wDHc6XWa0z9MdovVOWaanXU7ljS01yxpadyw0tO5Y0tNcsaWncsaTTuWNLTXLGlpSLb
5OmdNcsaTSJT4VAystJ5t8sFLTuWNLTuWNLSyaOGeF4Z41lhlUpJG4DKysKEMDsQRhBINhRY3D5t
/OL8jn0cTeYfLETSaSKyXunj4nt96l4+7ReI6r1+z9nq+zO1vEqGT6uh7/2u+0Wu4/TP6vvYz+Un
5s6j5I1RYLhnuPLty3+mWY+Ixk7etCCRRx3HRh70Iyu0uzY6iNjbIOR/QW3W6IZo2PqfXemalYap
p9vqFhMtxZXSCWCZPssrCoP9hzh5wMJGMhRDzEomJo8wicixdirsVdirsVdirsVdirsVSrzR5l0v
y1oV1rWpyenaWq1IH2nY7JGg7szbDLtPgllmIR5lsw4pZJCI5l8X+cvNut+dfMsup3nKSe4YRWdo
lWEcdaRwxj6fpO/fO+0umhp8fCOnM/peswYY4oUH0P8Ak7+U8HlOwXU9UjWTzFdL8ZNGFtGw/ukO
45fzsPkNuvM9p9onNLhj9A+11Gs1fiGh9P3vTuWamnAp3LGlp3LGlp3LGlprljS07ljS07ljSady
w0tNcsaWnF9jjS0o8snTZS6M1cfecBRLkiOWV01U7ljS07ljS07ljS07ljS00SCCDuD2xWnzV+eH
5RroksnmXQoqaRM9b60QbW0jHZkA6ROT0/ZPsRTq+yu0fEHhz+roe/8Aa7zQ6vj9Mvq+9C/kX+bE
nlfU10PVZSfL98/ws3S2mY09QeCN+39/jj2x2d4sfEgPWPtH60do6PxBxx+ofa+rVZXUMpqrCoI6
EHONebbxV2KuxV2KuxV2KuxV2Kvk38+/zJbzP5iOkafNy0LSXKRlT8M1wPhkl26hfsp7VP7Wdr2P
oPBx8cvrl9g7npuztL4cOI/VJlv/ADj7+WSwwJ5x1aI+vKCNHgcU4IdmuCD3font8XcEYfbOus+F
Hl/F+r9bR2hqbPBH4/qe5E0zQOsC3ljSadyxpadyw0tNcsaWncsaTTuWNLTuWNLTXLGlp3LGlpa7
/CcICQFPlkqZ0qwnYnxyMmE1XlkKYU7lhpadyxpadyxpadyxpaa5Y0tLZ7e3u7aW2uY1mt5laOaJ
xyVkYUZWB6gg4gmJsc1sg2HyF+a3kI+TvM0lrbkyaVdVl0+U1JC1+KJj/NGdvlQ987bs/V+Pjs/U
Ob0elzeJCzze0/8AOPH5ltq2mf4Z1OXlf2Cj6pIx3kg6AfNOn3ZzfbWh8KfiR+mX2H9rpO09LwS4
x9Mvve1Zo3VuxV2KuxV2KuxV2KvOPz28+N5V8mvDaScNW1cta2hB+JEp++lH+qpoD2Zhm17I0fjZ
bP0x3P6A5/Z2n8TJv9MXzh+VXkZ/OPm23sJQRptsPrOpuKj9yhHwAgijSMQgpuK17Z1faGr8DESP
qOw9/wCx3+rz+HC+vR9hRxRRRpFEixxRqEjjQBVVVFAqgdABnEE3zecWymlMlFnFT5ZKmVO5Y0tN
csaWncsaTTuWNLTuWNLTXLDS07ljS07ljS0skf4cIDKIWcslTKkSpoAPDKi1EO5Y0incsaWncsaW
ncsaWncsaWmjIAKk0GGkiKCvL6X+6jPFT1I6nLseIcy5GLCOZYb5/wDKMPmny3caeQBdp+9sZT+z
Mo+Hf+Vvst7HNhpNQcUwenVzcU+E2+aNB1jUvLPmKC/iVorywlIlhaqn4TxkjbwqKjOj1GCOfGYn
lIf2Fzc2IZIGJ6vtrytr9pr2iWupWzh0njV6/wCsKg07fLx2zzzJjMJGJ5h4+cDEkHmE2yDF2Kux
V2KuxV2Kvjj87/OLeZvP160T8tP0wmxsgDVSIiRI47fHJyNfCmd32TpfCwC/qluXquz8Hh4h3nd7
n+Rfk5fLvka3uZk46jrXG9uW2qImH+jx18BGeVD0LHOf7W1Pi5iB9MNh+n8eTq9dm48h7o7freh5
rXEU5Vqhp1G+GJ3ZRO6F5ZbTdTXLGk07lhpadyxpaa5Y0tO5Y0tO5Y0tO5Y0mmuWNLSyRumSAZRD
ojV6+GMllyV+WQpqp3LGlp3LGk07ljS07ljS0secLt1OERZCFqDSljUnLBFsEUG7cmJ8ctAbwKC3
Cl8+/nr5VGneYI9at042uqg+tToLhPtf8GtG9zXOh7Mz8UOE84/c52nnYruZj/zjV5zZVuPL9y/w
wn1LcE/7qkbcD/UkNf8AZZpvaDS8MxkH8Wx9/wDZ9zqO1sFSEx1fQ+c66d2KuxV2KuxVjH5m+Zv8
NeRdX1ZH4XEcBjtD39eb93ER/qs3L6MzNBg8XNGPS9/cHI0mLxMgi+Rfy58s/wCJ/O2laO45W88w
kvOo/wBHiBlm3HQsiED3Izt9dn8HDKfWtvf0eo1WXw8Zk+0TSuwoOwHYZwgeZDWFK3FKGmi4nkPs
n8MtiW6ErUTkmbsKuxVrFLsVQl5qlpa7O3KT/fa7n6fDLseGUuTfi08p8uSUT+YbpiREixr2J+I/
0/DMuOkiOe7nQ0MRz3QravqJ6zn6AB+oZYMEO5tGmx9za6xqAIrLyp2IB/hidPDuU6XH3I+z8xBT
xuItj1dP6HKMmk7i42XQ39JTu3uYLiPnC4dfbt8xmFOBiaLrp45RNEKmRYuxVokAVOwxVReYnZdh
45MRbBFTyTNSlf8AZH05KIZxCkFZjQCpydsiVZbVj9o09u+QM2ByBiv5q+V49b8jahBGnK6tU+uW
p6n1IAWIHuycl+nMrQagwyg9DszwZSJh85+QNdOiebdOvS3GEyCG48PSl+Bq/KvL6M3/AGlp/FwS
j15j4ObrcXiYiOr7Z0i7+t6fFKTV6cX/ANZdvx655+8kjMVdirsVdirwn/nKnXTFpGi6Gjb3U0l3
Oo/lgXglfYmVvuzo/Z3DcpT7hXz/ALHc9j47lKXdskn/ADi7oXK81zX5EIEMUdhbvtxJlb1ZfpUR
p/wWZPb+baMPj+pv7VyfTH4voDObdS7ClbilogEUPTCqGlhK7ruMsjJujO1LJs3Yq1ilJtX1gxk2
9sfjGzyDt7D3zMwae95OfptLfqlySEkkkk1J6k5nuycASaDcntipKITTr9xVYHp4lSP15RLU4xzk
HHlq8Q5yCyW0uohWSF0HiVIH35OOaEuRBZwzwl9MgfipZY3KttdT20okhbiw6+BHgRkJwEhRa8mM
TFFlWnajFew8l+GRf7xPD+zNXmxGB8nTZ8BxnyRDyBfc+GVgNQjagzFuuTAbAKW4Uu4yNsg2/mPT
DYC2BzXJaqN2PI+HbAZoOQ9FUKqigFBkLYEuxVaQCKEVB6jCl8deddFGiebNV0tRxjtrhxCP+KmP
OL/hGGdppsviY4y7w7zFLiiC+rvye186r5Xs5XblJLbo7/8AGRB6cn4jOB1mHw8so9xeR1OPgySj
3Fn2YzS7FXYq7FXyd/zkrqhvPzJe1r8OnWcEHHwLgzn8Jhna9hY+HT3/ADiT+j9D0vZUKw33n9j1
v/nH3S0sfyvs5wCH1O5uLuSvir/V1/4WEZpe2MnFqSP5oA/T+l1+vneY+QA/S9FzWOI7Clbil2FW
jilSeFW3GxyQkzEqUWide1R4jJiTMSBS3V742tt8B/eyfCnt4nMnBj4peTl6bDxy35BixJJqeubR
3KL07TZb2Sg+GJftyeHsPfMbU6kYh5uJq9XHDHvl0DJrSwtbVQIkAbu53Y/Tmiy6ieQ7l5vPqp5T
6j8OiIylx3Yqlt/oltcKWiAim7EfZPzGZ2n10obHeLsdL2jPGal6osbmhkhlaKReLqaEHN5CYkLH
J6THkE4iUeRX2d1JazrKh6bMPEHqMGSAkKKMuMTjRZRG6yIrpurCoPzzWEUadNIUaKqImPXYZDiY
GS8RoO1T74LY8RbwIdilbhS7FWjhS+bv+chNMFt53ivFHw39pG7t4yRs0Z/4VVzpuyJ3iruLtNHK
4V3M7/5xv1YnSBbE7W108QH+TMA3/EmzQdvY+HUX/OiP1fodN2rCst94e+ZpXWOxV2KuxV8U/nBe
G7/M3zFKTXjdtD/yIAi/40z0DsyPDp4Dy+/d63RRrDH3Pqf8vLeO3/L3yxGgop0y1lI95Ylkb8Wz
j9ZK88z/AEi6DObyz/rFPsx2t2FK3FLsKtHFLWFWsUsM1+5M+pSgH4Iv3aj5fa/HNzpYcMB5u/0W
PhxjzQEcbSSLGgqzkKo9ztl0pCIJPRyZyEQSeQZjaW0dtbpCnRRufE9znM5spnIyLx+fMckzIsV/
MP8AMrR/JlmhnX61qc4ra6ejBWK9ObtQ8ErtWm56d6ZvZ/Z09QdtojmW7SaOWY90e94VqH56/mRd
3Bliv47GMgAW9vBEUFO9ZVlf/hs6jH2LpoiuG/eXew7NwxHK028qf85CeaLC4WPzAi6tZM37yRVS
G4RTQHhwCxtxAJ4stSf2hmPquwsUx+79Evs/H4pqz9l45D0+kvoPSNX07WNNt9S02dbmyuV5wyr0
I6EEHcEHYg7g7HOSzYZY5GMhRDz+THKEjGXMIXzBZCS3+sqP3kWze6n+mZvZ+fhlwnkfvdl2VqOG
fAeUvvY5m7eiZF5buC9vJCesZqvybt94zXayFEHvdVr4VIHvTfMRwGsUtYVdilbhS7FWjhS8R/5y
VtKxaDdgfZa5ic/6wjZf+Itm97Fl9Q936XP0J5hLf+ce70x3epw1+x6Mqj3qa/8AEcxPaOO8D7/0
OH2zHeJ976mBBFR0Oc06R2KuxV2Kvhbz7Ks3nrzHMoIWTVL1wD1o1w5z0XRisMB/Rj9z2OmFY4/1
R9z7P0iBoND0uBgA0VnAjAdKrGBtnCTNzkf6ReYJuRPmUTkVdhStxS7CrRxS1hVrFLz6di88jnqz
MT9JzfxFAPTwFRARmhxh9Sjr0UM33DMXXyrEXD7SlWE+bKs595Z8f/mRrl1rXnfV7ud+apcyW9uA
TxWGBjHGFBJp8K1NO5Jz0LQYRjwxiO77S9hpcQhjAHc9L8l/lRp72ERubVLm7kA9V5QX+MipRE6f
D45yut7XyzmeCXDDpToNT2jklI8JqKRfm7+Uk3laxg1u3iEVjPKIJog1eMjKWUgVJAPE5tuxu0p5
Scc9yBYLn9m62WQmEtz3p7/zjZ5gk9bVfL8jkx8FvrZKbLQiKbf35R7ZT7Q4BUcnw/SP0sO2MQoT
+D3KeMSQyRno6lfvFM5mEuGQPc6XHPhkD3FhOdU9qm3ltyL117NGfvBGYmsHp+Lg68ege9kea51L
WKWsKuxStwpdirRwpeRf85IIp8taXIR8a3pUH2aJif8AiIzcdjH95L3ObovqPuYV+Q8hXzBep2eE
E/McsfaIeiB8y09sD0x976ztG5WkLfzRqfvAzlHQKuKuxV2Kvhfz/EsPnvzJEtQqapeqtfAXDgZ6
LojeGB/ox+57HTG8cf6o+59naPO1xoOlXDMGaazgcsOhLRg1FPnnCZBU5D+kXmCKkR5lE5FXYUrc
Uuwq0cUtYVaxS8+uEKXEqHqrsD9Bpm/gbAL08DcQUZocgTUo69Gqv3jbMXXRvEXD7SheE+TKs595
Z8hfmboFzonnjVrWZOMc073VqwBCtDOxdOP+rXifcHPQezs4y4IyHdR94ev0mUTxg+T2f8pvzg8m
iwij168XTdQtouDGZWMchru6OoIqw7HfOZ1vY2WMycY4on7HR6ns3JGR4BcWLfnz+b+j+are20Dy
+zT6bbyi5ub1lZBLIqlUWNWAbivM1JG56dN9r2P2ZPCTOe0jtTn9naKWMmUuaN/5xt8uSqdU8xTR
lUdVsrOQkjkOQkm27iqx7/MeOY3tDqBUcY95/R+lp7YyihD4vbp5BHBJIeiKW+4Vzm8ceKQHe6bF
DikB3lhWdS9qm3ltK3sjdljP3kjMTWH0/FwdefQPeyPNc6lrFLWFXYpW4UuxVo4UvIf+ckJFHlrS
4/2mvSwHssTA/wDEhm57GHrl7nN0X1H3MJ/IlSfMN0/YRAH5kN/TB7RH0QHmWntg+mPvfWWm/wDH
Otf+MMf/ABEZyjoERirsVdir4s/OSzaz/M/zFEwoWuvW+idFlHX2fO/7LlxaeB8vu2et0Mrwx9z6
k/Lq5S5/LjyxKhqq6dbRH5xRLGfxQ5x+sjWomP6Refzis0x5p9lDB2FK3FLsKtHFLWFVpIG5NB44
pDDNehWPUpGQ1SX4wfc9fxzc6WVwF9HoNHInGL6ICN2jdXU0ZSGU+43y+UQRRciURIEHkWY2d1Hd
W6zJ3+0PA9xnM5sRxyMS8fqMBxTMSx3z9+XmjectOWC8JgvYAxs75AC8ZI6EGnJCeq1+RGZWg7Qn
p5WN4nmG3SauWE7bjueE6v8AkJ+YNlcmOztotTgJPCeCaOPau3JZmjINPCo986jF23p5Dc8J8x+p
3uPtPDIbmk38q/8AOO/mG6uI5vMU0enWYNZLaJhLcNQ/ZqtY1qP2uTfLMfU9v44isY4j8h+tpz9r
QA9HqP2PfdJ0rT9J06303ToVt7K1QRwxLXYDxJ3JJ3JO5OcplyyySMpGyXQZMkpyMpcygvMN8EhF
qh+OTd/ZR/XM7s7BcuM8g7TsrTcUuM8hy97Hs3T0LIvLduUtpJyN5WovyX+3NdrJ3IDudTr53IDu
TfMRwWsUtYVdilbhS7FWjhS8Q/5yVuwI9BswdybmZx8hGq/rbN72LH6j7nP0I5lJ/wAhLc/XNRnp
/vtQfDir1/4kMxfaOW8B7/0OH2zLeI976nsl42cC9OMaD7lGcy6RWxV2KuxV8pf85MaWbT8xVvAP
g1GyhmLf5UZaEj6FjXOz7BycWCv5sj+t6Xsqd4q7i9X/AOcd9TS+/K2C1UUfS7q4t2r35v8AWK/d
Pmn7ax8OpJ/nAH9H6HXdox4c9/zh+z9D0XNY4rsKVuKXYVUpJoo/tsB7d8kIks4xJ5IWXUD0jX6T
/TLY4u9ujh70JJLJIauxOWiIDfGIHJCX2ny3kJ9FC0sfxLTw7jLcWUQO/Jvw5xjO/Isd6ZsXaIrT
9Qms5eSfEjfbjPQ/25j6jTxyijzcbVaSOaNHn0LJbTUrS6A9NwH7xts39uaPNpp4+Y2ebz6PJiO4
270VmO4rRIAqTQDqTiAoFpZf67bwgpbkSy+I+yPp75sNPoJS3lsPtdppezJzNz9MftY5LLJLI0kh
5OxqxObqMREUOT0MICIAHIKlnayXVwsKdW+0fAdzgyTERZY5cghGyzGKJIYliQURAAPozTykSbLo
ZSMjZXYENYpawq7FK3Cl2KtHCl82/wDOQepi688R2an4dPtI43XwkkLSn/hXXOm7IhWK+8u00cah
feyf8iNOZdFeam9zK5U/MrGPxjOaDt7Jxaiv5sR+v9Lpu1Z3lruD6RUBVCjoBQZpXWOxV2KuxV4b
/wA5UaEZ9B0fW0WrWVw9tMR/JcLyUn2DRU+nOi9ns1TlDvF/L+13HY+SpGPekH/OLGvLFq2s6BKx
peQpd26k/CGgJSQAeLLKp/2OZPtDhuMZjoa+bf2vj9MZ9z6BYEMQeoznA6oFaSBudhhSh5b2FNl+
M+3T78sGMltjiJQct7M+wPAeA/rlscYDfHEAh6165Y2uwpRdtp7y0aT4E8O5ymeUDk0ZM4Gw5pnH
FHGnFF4jMYyJ5uHKRJssf1/y8Zi13Zr+9O8sQ/a/yl98z9Lq69MuTtNFruH0z5dCxVlKkqwoRsQe
ubV3ILsVVVvLtBRZ5FHgHYfxyo4YHnEfJqOnxnnGPyC2SeeX+8kZ/wDWJP68lHHGPIAMoYox+kAL
Mm2Kttaz3MojhUsx6+AHiTkJzERZa8mSMBZZVpumxWUXEfFK394/j7D2zV5sxmfJ0ufOch8kXlTS
1irWKWsKuxStwpdiq1iACSaAbknpTCl8c+cda/TfmrVNUBJS6uHaGvX0geMY/wCAAztNNj8PHGPc
HeYo8MQH0j+UmiGz03TbVlo8YQyD3jXm3/D1zgdZm8TLKfef7HkdRk48kpd5euZjNLsVdirsVY3+
Y3lr/EvkjV9GUVnuIC1sP+L4iJYvvdAMy9Dn8LNGfcfs6uRpcvh5BJ8feQPMjeV/Omla01RHZzgX
QoSfRkBjmFPH02anvnc6zB42GUO8be/o9RqcXiYzHvfZl5qKsQ8Aqrioc9D7imcPjxd7z2LDtul8
k0sh+NifbtmQIgOVGIHJZkmTWKV0UUkrcUFTgMgOaJSA5pnbWEcVGf45PwHyzGnlJ5OHkzE7Dkis
qaXYq1iqA1DRLC+q0qcZe0qbN9Pj9OX4tTOHLk5ODVzx8jt3MVutDljldYZBKqkgE/CTT782sNSC
N9ndY9WCNxSmdD1UH+4P0Ff65L8zj72f5vF3rk0HVGO8XEeLMv8AXAdVAdUHWYx1R9t5YoQ1zLX/
ACI/+aj/AEyiet/mhxsnaH80fNOLe2gt4/ThQIvt3+Z75hymZGy6+eSUjZKpkWLWFLWKtYpawq7F
K3Cl2KsL/N3zGNC8jX8qNxur1fqVr48pgQxH+rGGYe+Z3Z+HxMo7hu5GmhxTD5t8l6UdT8yWcBXl
FG/rTeHCP4qH5mi/Tm/7T1HhYJHqdh8XO1uXw8RPXk+v/I+n+jEXI/ukCf7JvibOAeSZZirsVdir
sVdir47/AD18nny35+vGhTjp+q1vrQgfCDIT6qCm3wyV28CM7rsjVeLgF/VHY/oep7Pz+JiHfHZ6
7+SHm4eYPJqafO1dQ0XjbSeJhp+4fp/KpT/Y175qO1NP4eXiH0y3/W4uqx8E76FnZ65gtbsKom2s
JJaM/wAEf4n5ZVPKA1ZMwjy5plFFHEvFBQZjSkTzcOUiea/Ah2KuxVrFVO6l9KB37gbfM7DJwjZp
njjxSASJRycDxIGZp5OyJoJrmK4TWFWsUtYVaxS1hS1irWKWsKuxStwpdir5s/Pnzcur+aF0m2k5
2WjgxsR0Ny397/wNAnzBzp+ytPwY+I85fc7XR4+GN96Y/kp5cPB9UmXec/u6jpFGf+Nn/Vmm7f1X
FMYxyjz9/wDZ97qu1s9yEB0+99M6LaG106JCKO/xv82/oM591COxV2KuxV2KuxV51+efkNvNfkyR
7SPnq2klrqyAFWdQP30Q/wBdRUeLKM2nZOs8HLv9Mtj+gud2fqPCyb/Seb5n/LXznJ5S81W2okk2
Mv7jUIx3gcirAUO6EBx40p3zr9dpvGxmPXp73o9Ri4411fWyBLuOK4tGE0U6q8ciEMrKwqrAjYgj
vnH3w7F0olw80fbaekfxSfG/h2GUTyk8nHyZieSKyppdirsVdirsVaxVLtWl+xEP9Zv1DMnBHq5e
mjzKCthWdB71+7fLp8nIyH0lMsxnEawq1ilrCrWKWsKWsVaxS1hV2KVuFLEvzN86xeU/LE12jD9I
3FYNOjNCTKR9un8sY+I/QO+Zmh0xzZK/hHNuwYuOVdHy5o2mXet6zFaKxaW4ctNMdyF+07mvX+Jz
p9VqI4MRmen4DtM+YYoGR6Pqv8v/AC5DDFbwJHwgjVSV8I0FEX6c89yTM5GR5l5CcjIknmXpWQYu
xV2KuxV2KuxV2Kvk78/fy3byz5jOs2EVNE1dy6hR8MNwd5I/YN9pfpHbO07G1/iw4JfXH7Q9L2bq
vEjwn6o/cyv/AJx4/M6IonkzV5aSbnRrh6UYdWtmPiNzHX3X+UHE7a0B/vY/536/1tPaWlP95H4/
re9MKZzjqAtwpdirsVdirsVaxVIrmX1Z3fsTt8h0zPhGhTssceEUushWevgCcjk5IynZH5Q4zWFW
sUtYVaxS1hS1irWKWsKuxSoXd3bWdrNd3Uiw21ujSTSuaKqKKsST4DJRiSaHNIFvkz8xvO915v8A
MMl81UsYaxafbn9iIHqR/M/Vvu7Z2Gj0owwrr1d1gxCEa6vQ/wApfJLWtv8AXbuOlzcgNICN0i6p
H826t/ZnLds6/wAafBH6I/aXQdparxJcI+mP3vorQ9O+pWYDCk0nxSe3gv0ZpXWphirsVdirsVdi
rsVdiqVeaPLWl+ZdCutG1OPna3S0JH2kYbq6nsyncZbgzyxTE48w2YsphISjzD4w84+Utb8leZZN
Ouy0c9u4lsryOq80BqksbDcHb6DnfaTVQ1GPiHxD1mnzxzQsfEPo38mvzag836eNL1V1j8x2iD1O
ii6RR/fIooA386j5jbYcv2n2ccEuKP0H7PL9TpNboziPFH6fuelEUzVOEC1hS7FXYq7FUNfy+nbN
T7TfCPpyzFG5NuGNySXM12CLsBu5+QyrK05jyReUtDWFWsUtYVaxS1hS1irWKWsKtMyqCzEKqglm
JoABuSScUvnL85vzUXX5m0DRZSdEgYG5uFqBcyoainjEhAK+J38M6bs3QeGOOf1fd+12ml0/D6pc
/uST8tvJUuq3kWo3UfK1jf8A0aJhtLIp+0f8hO/v9OY/bPaXhjwoH1nn5D9ZcftLW8A4I/Uefk+n
fJ3l9IkWd1rHGaqT+3J/N8hnIPOsvxV2KuxV2KuxV2KuxV2KuxViH5l/lzpfnfQ2s7gCK/hBawva
VaNz2PSqtTcZmaLWy08+Icuo73J0uplhlY5dXyFqml+Y/JvmP0J/UsNVsJA8MyEjcH4ZI27qf7Dn
c4c2PUY7G8T+KL1GPJDNCxuC+kPyl/Oqw82RppGslLTzEoon7MV0B+1FU7SAfaT6V2qF5ftHsuWH
1Q3h9zpNZoTj9Ud4/c9QK0+Wai3BBW4UuxV2KpVqsvKVYx0QVPzOZWCO1ubp40LQOXuQjrEUiJ8T
lGXm4+Y7ojK2prCrWKWsKtYpawpaxVrFKyaWGGGSeeRIbeFTJNPIwSNEUVZnZqBQB1JwjfYc1t88
fm1+cp11ZdC8uu0ejV43d5uj3VP2QDRki9ju3enTOk7P7N8P15Pq6Du/a7PS6Th9Uufd3ftYf5J8
k3OvXKzzqyaajUJH2pW/kT+JyXafaYwDhjvkP2eZRrtcMQofX9z6V8meUkRERUEUUahX4iioo6Rp
nFSkZGzuS8zKRJs83oscaRRrHGoVEFFUdgMihdirsVdirsVdirsVdirsVdirsVYf+Y35a6J510sw
XSiK+iBNpeKPjRqd/EHuMy9HrJ6efFH4jvcjT6mWKVxfJPm/yX5g8n6sbPUomjZWrb3SVCOBuGVu
x9s7bR63HqI3Hn1D02n1UM0bHyep/lp/zkTPaLFpXnIvcWygLFrCAvKgGwE6KKyCn7a/F4hq1zV6
/sQS9WLY/wA39Thars0HfHz7n0BYX+n6lZx3unXMV3aTCsU8LiSNgDQ0ZSRsds5qcJQNSFF08gYm
iN1YgjAha7BVLHoBU/RiAkCykErmSRnPVjXNhEUKdpEUKWYUpjaikC+9T+OY8+bi5D6lXIMGsKtY
pawq1ilrClrFUl82+cvLflKy+s65diF2Xlb2MdHupv8AUjqNtqcmovvl2n0+TMagL8+gZY4SyGoC
/Po+bPzE/NnXvOUhtiPqGho1YdNiYkMQah5329RvDag7Dueo0XZ0MG/1T7/1dzt9PpY49+cu/wDU
s8l/l3d6vJFdX6NHZMQY4RtJN/zSvv8Ad45hdpdsRxXDHvP7B+1xdb2iMfphvL7n0P5P8mLGkapG
sUUQC1UALGtPsoPHOQnMyJJNkvOykZGzzejW9vDbwrDCvFF6D+JyKFTFXYq7FXYq7FXYq7FXYq7F
XYq7FXYqk/mfyponmXTXsNVt1micUViPiU+IOWYssscuKJohnDJKBuJovmT8xfyK17y5K91patfa
YTVeO7qPD3+XX551Wh7cjP05fTLv6fs+532l7UjLbJse/ow3yr5582eUL1pNHvJLb4v9Is3HKGQg
iokibavw05CjDsRm21GlxZ4+oX5/tdhlwQyj1C3u/k7/AJyU8t6iq2/mW3bSLqgH1mMNNbMaAV+E
GSOpJ2IYAdWzndT2FkjvjPEPkfx+KdRm7MnHeG/3vUBqem6npq3Ol3kN5bTEhJ7eRZYzxNGAZCRs
RQ5qo45QlUgQQ4mOJjL1DkgHglX9mo8RvmSJBzRMFTyTJNYhxjUeAH6sxTzcOR3bwIawq1ilrCq5
IZZD8ClvkMBkBzQZAc0n8yebPKfliPlr+qwWclAVtQfVuGB6Uhj5PT3pTLcGDJl/u4k+fT5ssYnk
+gX9zxrzh/zklfTBrXyhZ/o+I7fpK7CyXJ6fYj+KKP6eX0ZvNN2IOeU8XkOX6z9jsMXZ3XIb8hye
SJFr/mPU5JCZ9R1Cchpp5GaRz2DSSOfAU3ObfJlxYIb1GI/GznznDFHeoh6d5L/KiKJ0ub8Ld3Sm
tD/cRn6ftt/nTvnLa/tueT04/TH7T+p0Wr7TlPaG0fte4+W/Jixqss4KIepIo7j2/lXNE6pmcUUc
MaxxKERRRVHTFV2KuxV2KuxV2KuxV2KuxV2KuxV2KuxV2KuxVbJHHIjRyKHjYUZGFQR4EHFXmnnr
8jfLfmEPcWsYtbwjYg8fuah+5gR8sztJ2hlwfSdu48nK0+syYvpO3c8E81fk15q0OZgkRuI9+Kmi
OR7b8H/2LfRnR6bt7FPafoP2O5wdq45bS9J+xiVre+YPL96XtZ7rS7wCjGNngcivQ04kj55t/wB3
mj0lH5uw9GQdJBnWi/8AOQPn2wAS9a31SPkCTcRBJAv8qtD6Y+llOYGXsjDLlcfx5uPPQwPLZmmm
/wDOSuiy7atolxBTobaSO4r9Eggp95zCn2JMfTIfHb9bRLQSH0lmFl/zkL+VF0gaeW6sWPVJrdyR
/wAiDKPxzXS7G1UeVH4/rpwD2fqByo/jzRg/PD8nWH/HcZfb6ref9UTkP5L1f837Y/rR+T1P837R
+tY/54/k+oNNakenQLa3W/3xDCOy9X/N+0frSNHqP5v2j9aU3/8Azkb+WVsxW3t9QvzQ0eOJUSvv
6skbf8Ll0OxdSeZiPx7myPZ+c8yAxbVv+cpJaOmieXYom/3VcXkpl/4KKNY6f8jMzMfYH8+Z+H4/
Q3w7KP8AFI/BgPmL87vzJ1wNHLqz2Nsxr9XsALYD25p+9I9i5zZYOydPj5Rs+e/7HLxaDFDpfv3Y
rp2ha5q8pa0tpbgux5zHZKnrykai1+nMjPq8WEeuQHl+xuy6jHj+o0zvy7+UEszq+pSmYjc21vUL
/s5DT8B9OaDVe0B5Yh8T+p1OftfpAfEvYPK35cxxQrFbWyQ24/ZQcUr4s/VjnPZs08kuKZsunyZZ
TNyNl6LpXlyxsVU8RJIv2TSir/qrlTBNcVdirsVdirsVdirsVdirsVdirsVdirsVdirsVdirsVdi
qyeCCeMxTxrLE32kcBlP0HFWI67+VvlnVY2X0hFX/dbKJY6/6r1p9ByzHllA3EkHyZQnKJuJp5rr
3/OONqxZ7SKnflayFT/wEvIfdmzw9t6iHMiXvH6qc7H2nmjzN+9gup/kXq1qxCTyR/5E0B/4kpP6
s2GP2i/nQ+RcyHbH86P2pDP+VHmWIkLJbP1oObqfuZBmXH2gwHmJD4D9bfHtbEehQ5/LLzUP91xH
/nqMs/l3T95+TP8AlTD3n5Ll/LDzSWoVgUeJk2/AHAe3dP5/JT2rh8/kjLb8pNckIEt1bpXsnOQ/
dxX9eUz9ocQ5Rkfk1S7Xx9AU90/8lFYg3NxcTDwjjEI+9+eYWT2imfpiB79/1ONPtiX8MQPx8GZ6
F+TenxMrQ6arsP8Adkoac18fiqg+jNbm7U1GTnKh5bOFk12afOXy2Z/pn5ccQpuCFAp8LGtPkq7f
ec15LiMpsfLWl2igCP1COnIDiPko2xVNQABQCgHQYq7FXYq7FXYq7FXYq7FXYq7FXYq7FXYq7FXY
q7FXYq7FXYq7FXYq7FXYq4gEUIqD1BxVDS6Xp0v95bRt78QD+GKoVvLOgsamzT6OQ/UcVa/wvoI/
481+9v64qqpoOkJ9m2X6Sx/WcVREdjZRf3cEanxCiv34qr4q7FXYq7FXYq7FXYq7FXYq7FXYq7FX
Yq7FXYq7FXYq7FXYq7FXYq7FXYq7FXYq7FXYq7FXYq7FXYq7FXYq7FXYq7FXYq7FXYq7FXYq7FXY
q7FXYq//2Q==</xapGImg:image>
              </rdf:li>
            </rdf:Alt>
          </xap:Thumbnails>
        </rdf:Description>
        <rdf:Description
           rdf:about="uuid:fcb5d78c-9a54-42bd-bb9d-02f7ab51e638">
          <xapMM:DocumentID>
uuid:b1cc40c7-fd26-4b10-a704-6b74f4ea75bc</xapMM:DocumentID>
        </rdf:Description>
        <rdf:Description
           rdf:about="uuid:fcb5d78c-9a54-42bd-bb9d-02f7ab51e638">
          <dc:format>
image/svg+xml</dc:format>
          <dc:title>
            <rdf:Alt>
              <rdf:li
                 xml:lang="x-default">
mime.ai</rdf:li>
            </rdf:Alt>
          </dc:title>
        </rdf:Description>
      </rdf:RDF>
    </x:xmpmeta>
    <xpacket>end='w'    </xpacket>
  </metadata>
  <g
     id="Layer_1">
    <path
       style="opacity:0.2;"
       d="M22.086,4.396L22.086,4.396c-5.454,0.671-10.319,3.427-13.701,7.758c-3.381,4.33-4.874,9.719-4.203,15.173     c0.671,5.453,3.426,10.319,7.757,13.701c8.941,6.979,21.893,5.385,28.874-3.555c3.376-4.324,4.865-9.712,4.193-15.173     c-0.672-5.459-3.425-10.325-7.749-13.702C32.928,5.217,27.539,3.725,22.086,4.396 M23.817,25.814     c-0.31-0.242-0.487-0.608-0.487-1.004c0-0.285,0.092-0.555,0.268-0.779c0.208-0.268,0.51-0.438,0.848-0.479     c0.336-0.042,0.669,0.05,0.935,0.259c0.268,0.208,0.438,0.509,0.479,0.846c0.042,0.338-0.051,0.671-0.259,0.938     C25.17,26.146,24.37,26.245,23.817,25.814z"
       id="path1203" />
    <path
       style="opacity:0.2;"
       d="M21.524,4.114L21.524,4.114C16.07,4.786,11.205,7.541,7.823,11.872c-3.381,4.33-4.874,9.719-4.203,15.173     c0.671,5.453,3.426,10.319,7.757,13.701c8.941,6.979,21.893,5.385,28.874-3.555c3.376-4.324,4.865-9.712,4.193-15.173     c-0.672-5.459-3.425-10.325-7.749-13.702C32.365,4.936,26.977,3.443,21.524,4.114 M23.255,25.533     c-0.31-0.242-0.487-0.608-0.487-1.004c0-0.285,0.092-0.555,0.268-0.779c0.208-0.268,0.51-0.438,0.848-0.479     c0.336-0.042,0.669,0.05,0.936,0.259c0.267,0.208,0.437,0.509,0.478,0.846c0.042,0.338-0.051,0.671-0.259,0.938     C24.607,25.865,23.808,25.964,23.255,25.533z"
       id="path1204" />
    <path
       style="fill:#7E00B3;"
       d="M21.243,3.552L21.243,3.552C15.789,4.223,10.923,6.979,7.542,11.31c-3.381,4.33-4.874,9.719-4.203,15.173     c0.671,5.453,3.426,10.319,7.757,13.701c8.941,6.979,21.893,5.385,28.874-3.555c3.376-4.324,4.865-9.712,4.193-15.173     c-0.672-5.459-3.425-10.325-7.749-13.702C32.084,4.373,26.695,2.881,21.243,3.552 M22.974,24.971     c-0.31-0.242-0.487-0.608-0.487-1.004c0-0.285,0.092-0.555,0.268-0.779c0.208-0.268,0.51-0.438,0.848-0.48     c0.336-0.041,0.669,0.051,0.936,0.26c0.267,0.208,0.437,0.509,0.478,0.846c0.042,0.338-0.05,0.671-0.258,0.938     C24.326,25.303,23.526,25.401,22.974,24.971z"
       id="path1205" />
    <linearGradient
       id="XMLID_3_"
       gradientUnits="userSpaceOnUse"
       x1="4.6367"
       y1="23.9688"
       x2="42.875"
       y2="23.9688">
      <stop
         offset="0"
         style="stop-color:#FFEBFF"
         id="stop1207" />
      <stop
         offset="1"
         style="stop-color:#FFCCFF"
         id="stop1208" />
      <a:midPointStop
         offset="0"
         style="stop-color:#FFEBFF"
         id="midPointStop1209" />
      <a:midPointStop
         offset="0.5"
         style="stop-color:#FFEBFF"
         id="midPointStop1210" />
      <a:midPointStop
         offset="1"
         style="stop-color:#FFCCFF"
         id="midPointStop1211" />
    </linearGradient>
    <path
       style="fill:url(#XMLID_3_);"
       d="M8.687,12.203c-6.498,8.323-5.019,20.338,3.303,26.835     c8.323,6.498,20.337,5.02,26.835-3.304c6.498-8.322,5.018-20.337-3.305-26.835S15.184,3.88,8.687,12.203 M25.902,25.645     c-0.924,1.185-2.639,1.396-3.823,0.472c-1.183-0.925-1.395-2.639-0.47-3.823c0.924-1.184,2.639-1.396,3.822-0.471     C26.615,22.746,26.827,24.461,25.902,25.645z"
       id="path1212" />
    <path
       style="fill:#FFFFFF;"
       d="M26.139,25.342c0.906-1.16,0.679-2.856-0.504-3.781c-1.184-0.924-2.883-0.731-3.789,0.429     c-0.04,0.05-0.075,0.103-0.11,0.156c0.948-1.05,2.563-1.207,3.695-0.323s1.372,2.49,0.582,3.663     C26.057,25.438,26.1,25.393,26.139,25.342 M12.464,38.431c-8.271-6.457-9.887-18.229-3.656-26.379     c-0.041,0.051-0.082,0.101-0.122,0.152c-6.498,8.323-5.019,20.338,3.303,26.835c8.323,6.498,20.337,5.02,26.835-3.304     c0.039-0.051,0.078-0.104,0.118-0.154C32.547,43.602,20.736,44.89,12.464,38.431z"
       id="path1213" />
    <path
       style="opacity:0.3;fill:#FF88FF;"
       d="M35.521,8.899c-2.782-2.172-5.978-3.452-9.24-3.884l-0.978,6.973l-1.299,9.271     c0.503,0.045,1,0.229,1.428,0.563c0.354,0.277,0.618,0.624,0.795,1.007l8.538-3.453l6.668-2.696     C40.213,13.713,38.229,11.014,35.521,8.899z"
       id="path1214" />
    <path
       style="opacity:0.7;fill:#FFFFFF;"
       d="M39.523,13.15c-1.08-1.575-2.416-3.013-4.003-4.251c-1.665-1.3-3.478-2.28-5.365-2.951     c-1.57,4.299-2.998,8.209-2.998,8.209s-1.212,3.317-2.63,7.201c0.319,0.094,0.626,0.246,0.905,0.463     c0.197,0.155,0.366,0.333,0.509,0.525C30.023,19.583,35.765,15.697,39.523,13.15z"
       id="path1215" />
    <path
       style="opacity:0.3;fill:#FF79FF;"
       d="M23.174,26.626c-0.387-0.084-0.762-0.251-1.095-0.51c-0.405-0.318-0.694-0.729-0.864-1.178l-8.801,3.559     l-6.404,2.59c1.213,3.034,3.219,5.796,5.98,7.951c2.688,2.099,5.759,3.364,8.906,3.837l0.98-6.989L23.174,26.626z"
       id="path1216" />
    <path
       style="opacity:0.7;fill:#FFFFFF;"
       d="M22.079,26.116c-0.2-0.158-0.372-0.34-0.516-0.536c-3.474,2.352-6.464,4.377-6.464,4.377     s-3.375,2.285-7.119,4.82c1.083,1.579,2.421,3.021,4.009,4.261c1.625,1.269,3.39,2.231,5.228,2.9     c1.588-4.348,3.963-10.852,5.627-15.405C22.575,26.438,22.316,26.301,22.079,26.116z"
       id="path1217" />
    <path
       style="fill:#FF8BFF;"
       d="M18.077,19.535c-2.445,3.131-1.886,7.668,1.245,10.113c3.131,2.445,7.668,1.887,10.111-1.244     c2.445-3.131,1.887-7.668-1.244-10.113C25.059,15.846,20.522,16.404,18.077,19.535 M25.902,25.645     c-0.924,1.185-2.639,1.396-3.823,0.472c-1.183-0.925-1.395-2.639-0.47-3.823c0.924-1.184,2.639-1.396,3.822-0.471     C26.615,22.746,26.827,24.461,25.902,25.645z"
       id="path1218" />
    <path
       style="fill:#E6E6E6;"
       d="M20.044,21.071c-1.597,2.046-1.233,5.012,0.813,6.609s5.012,1.232,6.609-0.813     c1.598-2.047,1.233-5.012-0.814-6.61C24.606,18.659,21.642,19.024,20.044,21.071 M25.902,25.645     c-0.924,1.185-2.639,1.396-3.823,0.472c-1.183-0.925-1.395-2.639-0.47-3.823c0.924-1.184,2.639-1.396,3.822-0.471     C26.615,22.746,26.827,24.461,25.902,25.645z"
       id="path1219" />
    <rect
       x="2.842"
       y="2.632"
       style="opacity:0.5;fill:none;adobe-blending-mode:overlay;"
       width="42.14"
       height="42.141"
       id="rect1220" />
    <linearGradient
       id="XMLID_4_"
       gradientUnits="userSpaceOnUse"
       x1="23.9126"
       y1="16.2363"
       x2="23.9126"
       y2="8.4939">
      <stop
         offset="0"
         style="stop-color:#FFCCFF"
         id="stop1222" />
      <stop
         offset="1"
         style="stop-color:#FFFFFF"
         id="stop1223" />
      <a:midPointStop
         offset="0"
         style="stop-color:#FFCCFF"
         id="midPointStop1224" />
      <a:midPointStop
         offset="0.5"
         style="stop-color:#FFCCFF"
         id="midPointStop1225" />
      <a:midPointStop
         offset="1"
         style="stop-color:#FFFFFF"
         id="midPointStop1226" />
    </linearGradient>
    <path
       style="opacity:0.7;fill:url(#XMLID_4_);"
       d="M23.912,5.307c-7.798,0-14.143,3.792-14.143,8.454     c0,3.138,2.901,5.939,7.362,7.395c0.24-0.566,0.549-1.113,0.946-1.62c2.445-3.13,6.981-3.689,10.112-1.245     c1.021,0.799,1.765,1.821,2.224,2.944c4.576-1.438,7.642-4.311,7.642-7.474C38.055,9.099,31.71,5.307,23.912,5.307z"
       id="path1227" />
    <polyline
       id="_x3C_Slice_x3E_"
       style="fill:none;"
       points="0,48 0,0 48,0 48,48 " />
  </g>
</svg>
