<?xml version="1.0" encoding="UTF-8" standalone="no"?>
<!DOCTYPE svg PUBLIC "-//W3C//DTD SVG 20010904//EN"
"http://www.w3.org/TR/2001/REC-SVG-20010904/DTD/svg10.dtd">
<!-- Created with Sodipodi ("http://www.sodipodi.com/") -->
<svg
   width="48pt"
   height="48pt"
   viewBox="0 0 48 48"
   style="overflow:visible;enable-background:new 0 0 48 48"
   xml:space="preserve"
   xmlns="http://www.w3.org/2000/svg"
   xmlns:xap="http://ns.adobe.com/xap/1.0/"
   xmlns:xapGImg="http://ns.adobe.com/xap/1.0/g/img/"
   xmlns:rdf="http://www.w3.org/1999/02/22-rdf-syntax-ns#"
   xmlns:xml="http://www.w3.org/XML/1998/namespace"
   xmlns:xapMM="http://ns.adobe.com/xap/1.0/mm/"
   xmlns:pdf="http://ns.adobe.com/pdf/1.3/"
   xmlns:dc="http://purl.org/dc/elements/1.1/"
   xmlns:a="http://ns.adobe.com/AdobeSVGViewerExtensions/3.0/"
   xmlns:x="adobe:ns:meta/"
   xmlns:sodipodi="http://sodipodi.sourceforge.net/DTD/sodipodi-0.dtd"
   xmlns:xlink="http://www.w3.org/1999/xlink"
   id="svg548"
   sodipodi:version="0.32"
   sodipodi:docname="/home/david/Desktop/temp/devices/cdaudio_unmount.svg"
   sodipodi:docbase="/home/david/Desktop/temp/devices/">
  <defs
     id="defs619">
    <linearGradient
       id="XMLID_7_"
       gradientUnits="userSpaceOnUse"
       x1="4.6367"
       y1="23.9688"
       x2="42.875"
       y2="23.9688">
      <stop
         offset="0"
         style="stop-color:#E6EDFF"
         id="stop555" />
      <stop
         offset="1"
         style="stop-color:#B3CAFF"
         id="stop556" />
      <a:midPointStop
         offset="0"
         style="stop-color:#E6EDFF"
         id="midPointStop557" />
      <a:midPointStop
         offset="0.5"
         style="stop-color:#E6EDFF"
         id="midPointStop558" />
      <a:midPointStop
         offset="1"
         style="stop-color:#B3CAFF"
         id="midPointStop559" />
    </linearGradient>
    <linearGradient
       id="XMLID_8_"
       gradientUnits="userSpaceOnUse"
       x1="23.9126"
       y1="16.2363"
       x2="23.9126"
       y2="8.4939">
      <stop
         offset="0"
         style="stop-color:#E1E1FF"
         id="stop570" />
      <stop
         offset="1"
         style="stop-color:#FFFFFF"
         id="stop571" />
      <a:midPointStop
         offset="0"
         style="stop-color:#E1E1FF"
         id="midPointStop572" />
      <a:midPointStop
         offset="0.5"
         style="stop-color:#E1E1FF"
         id="midPointStop573" />
      <a:midPointStop
         offset="1"
         style="stop-color:#FFFFFF"
         id="midPointStop574" />
    </linearGradient>
    <linearGradient
       id="XMLID_9_"
       gradientUnits="userSpaceOnUse"
       x1="34.876"
       y1="2.7866"
       x2="34.876"
       y2="35.8433">
      <stop
         offset="0"
         style="stop-color:#003333"
         id="stop579" />
      <stop
         offset="1"
         style="stop-color:#006600"
         id="stop580" />
      <a:midPointStop
         offset="0"
         style="stop-color:#003333"
         id="midPointStop581" />
      <a:midPointStop
         offset="0.5"
         style="stop-color:#003333"
         id="midPointStop582" />
      <a:midPointStop
         offset="1"
         style="stop-color:#006600"
         id="midPointStop583" />
    </linearGradient>
    <linearGradient
       id="XMLID_10_"
       gradientUnits="userSpaceOnUse"
       x1="34.8262"
       y1="34.8984"
       x2="34.8262"
       y2="3.7334">
      <stop
         offset="0"
         style="stop-color:#009933"
         id="stop586" />
      <stop
         offset="1"
         style="stop-color:#00FF00"
         id="stop587" />
      <a:midPointStop
         offset="0"
         style="stop-color:#009933"
         id="midPointStop588" />
      <a:midPointStop
         offset="0.5"
         style="stop-color:#009933"
         id="midPointStop589" />
      <a:midPointStop
         offset="1"
         style="stop-color:#00FF00"
         id="midPointStop590" />
    </linearGradient>
    <linearGradient
       id="XMLID_11_"
       gradientUnits="userSpaceOnUse"
       x1="34.543"
       y1="5.626"
       x2="34.543"
       y2="48.4093">
      <stop
         offset="0"
         style="stop-color:#FFFFFF"
         id="stop594" />
      <stop
         offset="0.382"
         style="stop-color:#00FF00"
         id="stop595" />
      <stop
         offset="0.4331"
         style="stop-color:#00FB02"
         id="stop596" />
      <stop
         offset="0.4874"
         style="stop-color:#00EE09"
         id="stop597" />
      <stop
         offset="0.5432"
         style="stop-color:#00D913"
         id="stop598" />
      <stop
         offset="0.5997"
         style="stop-color:#00BB22"
         id="stop599" />
      <stop
         offset="0.6517"
         style="stop-color:#009933"
         id="stop600" />
      <stop
         offset="0.8258"
         style="stop-color:#006600"
         id="stop601" />
      <a:midPointStop
         offset="0"
         style="stop-color:#FFFFFF"
         id="midPointStop602" />
      <a:midPointStop
         offset="0.5"
         style="stop-color:#FFFFFF"
         id="midPointStop603" />
      <a:midPointStop
         offset="0.382"
         style="stop-color:#00FF00"
         id="midPointStop604" />
      <a:midPointStop
         offset="0.6947"
         style="stop-color:#00FF00"
         id="midPointStop605" />
      <a:midPointStop
         offset="0.6517"
         style="stop-color:#009933"
         id="midPointStop606" />
      <a:midPointStop
         offset="0.5"
         style="stop-color:#009933"
         id="midPointStop607" />
      <a:midPointStop
         offset="0.8258"
         style="stop-color:#006600"
         id="midPointStop608" />
    </linearGradient>
    <radialGradient
       id="XMLID_12_"
       cx="89.6172"
       cy="-108.3198"
       r="86.1859"
       fx="89.6172"
       fy="-108.3198"
       gradientTransform="matrix(0.1549 -0.0046 -0.0046 0.1384 14.9051 35.9821)"
       gradientUnits="userSpaceOnUse">
      <stop
         offset="0.393300"
         style="stop-color:#ffffff;stop-opacity:1;"
         id="stop611" />
      <stop
         offset="0.730300"
         style="stop-color:#00ff00;stop-opacity:1;"
         id="stop612" />
      <a:midPointStop
         offset="0.3933"
         style="stop-color:#FFFFFF"
         id="midPointStop613" />
      <a:midPointStop
         offset="0.5"
         style="stop-color:#FFFFFF"
         id="midPointStop614" />
      <a:midPointStop
         offset="0.7303"
         style="stop-color:#00E100"
         id="midPointStop615" />
    </radialGradient>
    <radialGradient
       xlink:href="#XMLID_12_"
       id="radialGradient687"
       cx="26.5847034"
       cy="28.0960636"
       fx="26.5847034"
       fy="28.0960636"
       r="6.91240168"
       gradientUnits="userSpaceOnUse"
       gradientTransform="matrix(1.058454,-3.143250e-2,-3.143250e-2,0.945707,0.000000,0.000000)"
       spreadMethod="pad" />
    <linearGradient
       xlink:href="#XMLID_12_"
       id="linearGradient688"
       x1="30.1895237"
       y1="28.2469044"
       x2="30.0617733"
       y2="32.3384056"
       gradientUnits="userSpaceOnUse"
       gradientTransform="matrix(1.058454,-3.143252e-2,-3.143252e-2,0.945707,0.000000,0.000000)"
       spreadMethod="pad" />
  </defs>
  <sodipodi:namedview
     id="base" />
  <metadata
     id="metadata549">
    <xpacket>begin='﻿' id='W5M0MpCehiHzreSzNTczkc9d'    </xpacket>
    <x:xmpmeta
       x:xmptk="XMP toolkit 3.0-29, framework 1.6">
      <rdf:RDF>
        <rdf:Description
           rdf:about="uuid:292a2b9a-b589-47ff-ab24-f0af7ed1dd7a">
          <pdf:Producer>
Adobe PDF library 6.66</pdf:Producer>
        </rdf:Description>
        <rdf:Description
           rdf:about="uuid:292a2b9a-b589-47ff-ab24-f0af7ed1dd7a" />
        <rdf:Description
           rdf:about="uuid:292a2b9a-b589-47ff-ab24-f0af7ed1dd7a" />
        <rdf:Description
           rdf:about="uuid:292a2b9a-b589-47ff-ab24-f0af7ed1dd7a">
          <xap:CreateDate>
2004-03-29T11:15:39+02:00</xap:CreateDate>
          <xap:ModifyDate>
2004-03-29T09:18:13Z</xap:ModifyDate>
          <xap:CreatorTool>
Illustrator</xap:CreatorTool>
          <xap:MetadataDate>
2004-03-29T11:15:39+02:00</xap:MetadataDate>
          <xap:Thumbnails>
            <rdf:Alt>
              <rdf:li
                 rdf:parseType="Resource">
                <xapGImg:format>
JPEG</xapGImg:format>
                <xapGImg:width>
256</xapGImg:width>
                <xapGImg:height>
256</xapGImg:height>
                <xapGImg:image>
/9j/4AAQSkZJRgABAgEASABIAAD/7QAsUGhvdG9zaG9wIDMuMAA4QklNA+0AAAAAABAASAAAAAEA
AQBIAAAAAQAB/+4ADkFkb2JlAGTAAAAAAf/bAIQABgQEBAUEBgUFBgkGBQYJCwgGBggLDAoKCwoK
DBAMDAwMDAwQDA4PEA8ODBMTFBQTExwbGxscHx8fHx8fHx8fHwEHBwcNDA0YEBAYGhURFRofHx8f
Hx8fHx8fHx8fHx8fHx8fHx8fHx8fHx8fHx8fHx8fHx8fHx8fHx8fHx8fHx8f/8AAEQgBAAEAAwER
AAIRAQMRAf/EAaIAAAAHAQEBAQEAAAAAAAAAAAQFAwIGAQAHCAkKCwEAAgIDAQEBAQEAAAAAAAAA
AQACAwQFBgcICQoLEAACAQMDAgQCBgcDBAIGAnMBAgMRBAAFIRIxQVEGE2EicYEUMpGhBxWxQiPB
UtHhMxZi8CRygvElQzRTkqKyY3PCNUQnk6OzNhdUZHTD0uIIJoMJChgZhJRFRqS0VtNVKBry4/PE
1OT0ZXWFlaW1xdXl9WZ2hpamtsbW5vY3R1dnd4eXp7fH1+f3OEhYaHiImKi4yNjo+Ck5SVlpeYmZ
qbnJ2en5KjpKWmp6ipqqusra6voRAAICAQIDBQUEBQYECAMDbQEAAhEDBCESMUEFURNhIgZxgZEy
obHwFMHR4SNCFVJicvEzJDRDghaSUyWiY7LCB3PSNeJEgxdUkwgJChgZJjZFGidkdFU38qOzwygp
0+PzhJSktMTU5PRldYWVpbXF1eX1RlZmdoaWprbG1ub2R1dnd4eXp7fH1+f3OEhYaHiImKi4yNjo
+DlJWWl5iZmpucnZ6fkqOkpaanqKmqq6ytrq+v/aAAwDAQACEQMRAD8A9U4q7FXYq7FXYq7FXYq7
FXYq7FXYq7FXYq7FXYq7FXYq7FXYq7FXYq7FXYq7FXYq7FXYq7FXYq7FXYq7FXYq7FXYq7FXYq7F
XYq7FXYq7FXYq7FXYq7FXYq7FXYq7FXYq7FUkl88eTItY/Q0uuWKasW4fUWuIhNzO3Dhyry/yeuG
iw8SN1e6d4GbsVdirsVdirsVdirsVdirsVdirsVdirsVdirsVdirsVdirsVdirsVS3WvMvl/RIfV
1fUbexQiq+vIqM3+qpPJvoGW48M5moglBNPPda/5yN8hWJZLBbrVJBsGij9KP/gpSjfcpzY4+x80
udRYHIGGal/zlDrLlhpmh28A/Za5lef7wgg/XmbDsOP8Uj8PwWJyseuv+cifzInJMctpag9orcED
/kaZMyI9j4B3n4o8QoBvz3/NQsSNaCgmoUWtpQe28ROWfyVp/wCb9p/WjjK6L8+vzTQktq6yg9mt
bUD/AIWJcT2Vp/5v2n9a8ZTWy/5yR/MCBv38Vjdr3EkLqe3QxyJ+rKZdjYTy4gnxCybSv+col+Fd
W0Ej+aW1nr90ci/8b5i5Ow/5svmGQysouvz08l6t5b1RNL1FtN1prO4/R6XsZiIuPSb0v3ilotnp
+3mDk7LzQ6WPL8Wsp7Gub48trC6vra9vEYyzWvGacGpcoxIeSvU8WpX51zXZdTHHOMZfx2AfPu+O
/wAnn8uoEJxjL+Pa/Pu+O76j/wCcefzlk8wWaeWdeuOesWiAWtxIfiniXYVJ+069D3PXxyc407vT
ZuIUeb3LIOU7FXYq7FXYq7FXYq7FXYq7FXYq7FXYq7FXYq7FXYq7FXYqwrzt+bvk7ynzgurj63qa
9NPtaPID/wAWN9mP/ZGvscztN2flzbgVHvLGUwHhvmz/AJyC87ay0kOmsuiWTVCrbnlOV/yp2Fa+
6Bc3un7JxQ3l6j9nyajkJYFa2Gv6/fObeG51O9kPKVwHmck/tO2/3k5sTKEB0AYM20X8hfO+oBXu
hDp8Z3Ikb1JKH/JjDL97DMLJ2lijy3Wmaab/AM42aeoB1HU7iZu4hWOEf8N6xzDn2v3BlwlkFr+Q
PkaED1bZ7ineSeXf/kWY8ol2rkK8BRy/kn5BVQo0yOg23eYn7zJlf8p5O9eBZL+R/kCQUOmoKdOM
k6/8RkGEdp5O/wC5eBJtS/5x88pyClsZrcn+SYn7vUWTL8fasuq8BYvqf/OOt4oLadqBNK0SZFav
+yUqf+FzLh2pE80cJYTrf5Ued9JBaWwNzEvWS2q/3IQsh/4HMzHq8c+RQxDye8mked0tLmMxLOz2
s0MikGko+BWU/wCVxzz32n0t4Zgc4HiHw/Y8v29p+LBKucfUPh+xNPPnkrW/ImvwatppaG2Ypc2V
1FusfP4kKt3Ru1f9U5j9l685AMeX+8q/Kcf5w/T+KPZ2tntjybZQAQek49JD9L6W/Jf84dO886UL
S5ZYPMVog+t2pNPUUbetH4qe47fidoRT1WDOJjzel4G92KuxV2KuxV2KuxV2KuxV2KuxV2KuxV2K
uxV2Kpfr3mDR9A02TUtXuktLSLq7nct2VFG7MewGWYsMskuGIsoJp85/mH+f2u640th5e56TpRqp
nBpdSj3ZT+7Hspr79s6TSdkwhvP1S+xplkvkwPyv5K8zeabsxaTaPOAf310/wxIT/PIe/sKn2zY5
tRDELkWFPbvKP/OPGhWCpceYJjqV0NzbpVLdT8h8T09zT2zSZ+1pHaAoMxB6lp+j6Xp1ultY2sVt
An2Io0CqPkAAM1c8spGyWfCEZlaWsVdhVrFXYoUpPtZMJWYVbRA7BSKg9flgJpXzN/zlLoj6X540
nzBar6Yv7cDkBt9Ys3Ar/wAA8f3ZjziJxMTyLrNfiB2PKQp7DoFho/n38trKG8VXpEY4pSAxQEAq
CO6mMryHf50zmtNpxm04hI1kxExEhzBH7Kt0uj0sdVo4wkay4SYiQ5xMeXwqrD5v88eQfNH5deYV
1DTnlgjt5PUtLyEtyj32PLuhrSv0Nvmz0WvJl4WX05R8pecf1MtNrJwn4WX05R8pecf0h7R+VH/O
Sum6yINH84FLDVdkj1MUW2nPT94P91Of+B/1embcYuL6efd+r9XP3vR4NUJbHm91VgwDKag7gjoR
lDluxV2KuxV2KuxV2KuxV2KuxV2KuxV2KuxVi3n/APMTQ/Jel/Wr5vWvJQRZ6ehAllYd/wDJQftM
f17Zl6TRzzyocupYylT5T83+dfMfnLV/repymRieNpZx19KIMdkjTfc+PU986zT6aGGNR+bQZW9K
/Lj8g5rtYtU82Bobc0eLS1JWRh/xcw3X/VG/jTpmu1nagj6cfPvTGNveNP06w060js7GCO2tYhxj
hiUKoHsBmhnOUjZNltARGRVrFXVxVrCrq4q1irWKFFz8RyYS1XCqvaruW+gZXMpDyn/nJ/y/+kvy
5/SKJWbR7qKcsOvpSn0XH/BOhPyytxdZG4X3JJ/zjN5hNx5dn0x3Ja3NVXsOB3P/AAMiD6M0I/d6
qcekwJj7i87oZ+HqskOkwJj7pfoet63o+ma1YvZahEJYmBAO3JSRSqk1/oe+W6jDDNGpfA9R5h2O
r02PUR4Zj3HqD3gvmP8AM78i9S0OV7/Rk9exY8jGoNB7L14n/JP+xPbK8OvngIhn3j0n/wAV3e/9
rqBnyaYiOf1Q6ZP+K7j5/tVfyi/P3WPJ80eieYhLe+X1PpitTcWlDT4K7sg7ofo8D0ByjILPPv7/
AH/r+93+n1m2+4731fo2taVrWmwanpN1He2FyvOG4iPJSPA9ww6FTuDsd8pIdpGQIsI3FLsVdirs
VdirsVdirsVdirsVdirFPzF/MHS/JWiNe3NJr6aqafYg0aVx1J8EWtWb+JGZej0ks86HLqWMpU+T
dX1fzD5v8wtd3bPfapfOEiiQE0qfgjjTso7DOux44YYUNohoJt9AflZ+UFj5cjj1TVVS61thUd47
ev7Mfi3i/wBA99FrtecnpjtFlGL0/lmqpsdyxpWuWNK7lhpWuWNK1yxpDuWNK1yw0ruWNKoFt8nS
WuWGkI2IcUA798oluWSW+a9Gj13yzqmjOBTULWa3UnorOhCN/sWocFMZx4okPlf/AJx+1qTSvOb6
fNyT1yEaM7fFUxEH/ZOCflmi7THDkx5PPhP+dy+15DWfu82LJ/S4T/ncvtfUvq48TteNbIY5EaOR
Q8bghkYAgg9QQcBIIookQRR3Dyf8xfyO0nXA97pI+r338opvQdiacvkx+R7Zi4/E05vFvD+Yf96e
jqDpcmA3g3j/ADD/AL09Pc8c0jW/zF/KnW2e0d4YS9J7aQM9pPTtIhpRqDrsw7GmbfS67HmG20hz
ieYc/RdpCR9O0hziefyfS/5Yfnn5W88Klkx/Rev0+LTZmBElOpgkook/1dm9qb5mO/w6mM9uRekY
uQ7FXYq7FXYq7FXYq7FXYqlnmbzHpnlzRLrWNSk4WtqtSB9p2Oyog7sx2GW4cMskhGPMoJp8eeb/
ADXrPnLzHJqV5yeadhFaWqVYRx1pHFGPp+k752WnwRww4Q45Nvdvyn/LCHy1ZpqGoxq+vXK/GTQi
3Rh/dodxy/mYfIbddLrtZ4hofSPtSA9NBAFBsBmrbXcsaV3LGla5YaV3LGkNcsaV3LGla5YaV3LG
lWltjhpVHlk6VfD8UgHYbnIy5KEZyymmTuWNK+P/ADzYt5U/O694VjgnuxcxMNh6d6OZp7I8hH0Z
qu1MPHhmOtWPhu8x2zg4scwOfMfDd7b53856lo/l6y16yXlbkCW6iorEhlVuO/gvKtCOnXNDPLkn
wcBA4u/3bB1eo1WWQxnGRHj7+8iwF3lT82PLGvwrxuFgnoOaMfhB9yaFf9kAPc5ac5gayjgP2H3F
uj2hwnhyjw5f7E+4/rZglwroHRgyMKqwNQQe4OXCbmjJYsJT5h8t6Nr9q1vqECvyXiJKDkB4GuxH
scpy44zN8pDkRzcbUaeGXc7SHKQ5h89ef/yb1by/Ob/R+U1qrck9OvJSDUFD1B/yTv4E5l6ftKUD
w5vhLp8e77mvHrZ4jw5uXSY5fHuP2M1/KT/nJG5tpIdC88yNLBURwa21TJGegW67sP8AizqP2q9R
uhK3pdPrOkvm+k4J4Z4Y54JFlhlUPFKhDKysKhlI2IIyTsl+KuxV2KuxV2KuxV2Kvlj89PzFbzL5
gOk2EvLRNKconE/DNcDZ5duoX7Ke1T+1nV9l6PwocR+qX3NE5WyX8jPy7WGBPNmqRfv5QRpMLinF
Ds05B7t0T237ilPaOqs+HH4/qQA9nj2JOacsoqnLI0zdyxpDXLDStcsaV3LGla5YaV3LGla5Y0ru
WNIWu3wnCAqjyydJRNrspbx2GVzSFblkKS7ljSvnT/nKnQimo6J5gjFPWjeyncbUaJvVi+k+o/3Z
j54ut18ORT3RbiLzL+VTRyAMyREtU7jbnJ/wruucVOJhExHPHLb4G/ueJMTHDKA54pGvgeK/k+db
PTtSbVxYWdRqCSOkfFvTPOOtQGJWh+HbfOrjw5YjaxIPS4wM0RtYkGW6T+ZHnvytcC3ujKOJq0M4
KMe1dxxb5spzX5eyoXcCcZ8uXycHJ2UIH92TjP2f6U7PUPLH596LfcIdTT6tMduWyiv0nif+CHyz
AyYc+P6hxDvj+pxpSz4vrjxDvj/xP6no9pqul6pbt9XljuYWX406/Cf5kO9D7jKhljMbbsoZ4ZRs
QR+OYeS/mj+UMFwkmraKvCZatLH4j/KPf/W6jvXqLNNqpafbni+2Pu8vJpx5Jabl6sXd1j7vJLPy
T/Oi/wDJ9+nlrzE7NoDyGNTJUvZyE70/4rLfaXt1HfOjx5BIAjkXqNHrBQ3uJ5F9ZQzRTxJNC4ki
kAZHU1BBy13C/FXYq7FXYq7FXnn53+eG8seUHhtJOGq6rytrQg/EiU/fSj/VU0B7MRmx7M0vi5LP
0x3YTlQfPP5ZeS282eaYbKUH9HW4+sai4qP3KEfACCN5GIUU6Vr2zpNZqPChY+o8mkB9VpHHHGsc
aCONFCoigBVVRQKAOgAzmGS5TTFMW+WCmTXLDStcsaV3LGla5YaV3LGkNcsaV3LGla5YaVZI3w4Q
FU+RJp3OSpUavwqF8MpLJdywUl3LGkPOvz80P9L/AJa6gyryn01o76L29I8ZD/yKd8qzRuLj6uN4
z5PM/wAg9XSTT7zS5aELX4T3WvID6eb/AHZyHaEOHMT0mPu2eL1MeDUHunH7Rt9zzzzjbyaB58km
TcwzpOtOhKNR/wDgmQ5suyst4gOsTXy/Y5vZGWsYHWBr5fsfTWk6L5X81eWo/wBKWcV0pApKyjlR
hsa9+9K50AiJB64gSG+4eWed/wAgrBbl38t3Bi25fVpzUVPYN2ywdncUbB3cDLpY36dnnK3HnnyN
fKsqy26ofgVixiP+ow6VHgc0mt7LiT6xwy/nB02r7NjI2Rwy/nDm9c8j/nDp2tKtpqX7i8INSaUP
0DYj3H0jvnP58GTD9W8f536+51OTxMP95vH+cP0jp9zF/wA4/IUKL+n9MUemwrKqbgrSvbbYbr7V
8Bl3Z+p8OXAfoly8j+ostHm8GYj/AJOfLyP6j0Zr/wA41/mdLc2p8qapMXktRWxkc7+l04/7A7fK
nhnSQL2WizcQ4TzD6CybnOxV2KuxV2KvkX86PNzeY/PV40T8rDTibKzANVIiJEjjt8clTXwpnYdm
6fw8Q7zuXHmbL2X8mfKa6B5Lt55U46hrHG9uW2qI2H+jx18BGeVD0LHNTr8/iZT3R2/X+PJIFBnJ
zDVacKhbyw0za5Y0ruWNK1yw0hrljSu5Y0rXLGldyw0rXLGlU5W6ZIBW7feSvZd8EuSQi+WVUl3L
GldyxpUNqNpBf2FzYzisF3E8Eo8UkUq34HExsIIsU+Tfy0uZvL3n2bTblgjxyyW09egeFij/AHLz
zle1sfpEv5p+/Z4ztXHQjL+ZL7DsU2/PbS+OoW2oqNpBxeg6VFBX6YyfpzF7Jy+uUe8X8tnH7NyV
llH+cAfls9A/IzXvrXl2GGR6tChiap6elsv/AAornZ6Q3EPZ6efFjDNLmX1p3k/mO3y6DNzCNClJ
tA6hp1jqFs9tfQJcQOKNHIAwwyiJCixeCfmd+X6+WdQgvtJLjT7gkotTyhlTcqG60puvfNPq+y/S
ZQ3HUOFm0wINcu5PPy/8/rqVk/lzWnqJUKxStuARuG+g7sv0jvnC67ReFvH6D/sf2PKa3SeEDX90
f9if1fj3wu2uZfKPnqG7hJWG3mEi07wSfaHvRSR8xm50Oo8TGJderu+y9ZxwjPr1/S+3PLmqLqWk
QXIbkxUBz13A/pmyerTPFXYq7FWNfmR5j/w55J1bVUfhcRwmO1Pf15v3cZH+qzcvozK0eHxMsY9G
MjQfKP5feXP8SectL0lxW3mm53Z3/uIgZJdx0JRSB7nOt1ebw8Zl16e9oiLL66c1YmlB2A6AZygD
MrDkkLThVYRhSCtwpdilrFDWFXYqlup69p+n/DK/Ob/fKbt9Ph9OZOHSzycuSscuvOl/ISLeNIV7
E/G340H4ZsIdnQHM2i0A/mLWm63TD5BR+oZkDSYh0VdH5l1lCCbjmB2ZVP8ACuA6PGeipxpvnYIe
F7BsessX/NJ/rmJm7Ov6T80gsps760vIRLbSiRO5HUHwI6jNXkxSgakKZK+Vq7FVrMFFSaDCAr5X
/N6yGg/m1Lfxjhb3rRXy+6yDhN97o+abtLBYlH+cPx9rz3auDjEo/wA4fj7WWfmPb/pnySt0KvLG
nqEgftAAuf8Ago+P05yWjy8OYHz+95TS56yQl5/fsftYj+S+uPaX1xYlqI7LKB7fZf8AADO/7Ml6
iHuNHPYxe8hSxoBX5Zv7cpVW1Y/aNPbvkDNjbH/zC8vR6p5SvYUXlcW6/Wbc9TziBJA/1l5L9OWY
MpEwoO75muopLWdLu3YxsrBgy9VYbgjNP252cInjA9EuY8/2uDrNOK5ek80081XUep2Gm6qoAkdX
guAOzpQ0/EnOQ0EDinPH05h0HZ2M4ZzxHlzD6f8AyC1tr7ylZo7cm9BVJ8WiPA/STXN5E2HttPLi
xgvU8k3OxV2KvEP+cn9bMWk6PoiNvczSXcyj+WFeCV9iZT92b3sTFcpT7tmrIUk/5xs0WtzrWuup
Aiijsbd/2SZW9SX6VEaf8FmR2vk+mHxYxe4HNOlacKFpwqtOFC04WQLWLJrFDWFWM+Y/MxgZrOyb
96NpZh+z/kr7+ObLSaPi9UuXchiDMzMWYksTUk7knNuArgCSABUnoBiSqNi0XV5RVLOWh6EoQPxp
mPLWYo85D5poqU+nahbryntpI1/mZCB99KZOGoxz+mQPxRSHy1URY391Yzie2co46jsR4EdxleXF
GYqSvQtE1q31S25r8E6UE0XgfEexzQanTHFKujIFGyzqm3VvDKIxtSUI8jOasfkMtApDxP8A5yU0
Xnp+ka0i7wSvaTMPCVfUjr7Axt9+YHaENhJ1+ujsCo+TL39L+R/QctI6xlCtAald1X/ZSIc8+1kP
DzEef7Q+f6qHBklHz+/cfa8w8sS/ofzpFC/2BM1u3uCaJ95452XZ+feMu97DQZ+Lhl/OD6k02VZb
CCRe6gGniNjnTg27Uog5JC0gEUO4PUYVfMHm/Rl07XtT0wDjHFM4iHgjHlH/AMKRmzy4xnwmJ/iH
2/2s5R4o0xcXLCwks26GVZV9iqsrffUfdnnMsdTvqAQ6I4/3gl5Efc+kP+ca7iRdHtkaoQvKEr3U
s/T/AGTZm4vpeg0X92HvmWOW7FXYq+Wv+ci9TN3+YrWtfh0+0ggp4FwZz+Eozq+x4VhvvJ/U0ZDu
9Q/IzTVsvy0spgCH1K4uLqSvir+gv/CwjNb2jPizn+iAP0pHJnZzDVacKFpwqtOFC04VaOKgtVws
gUp8yaqdPsD6ZpcTfBF7eLfRmVo8HiT35BJefkkmp3J6nN+hMtE0S41SfivwQJ/ezEbD2Hicw9Zr
I4Y77y6BIFs607SLDT0C28QDftSndz82zmM+qyZT6j8OjYBSNzHS7FUj1jyrY3qtJbqLe56gqKIx
/wApR+sZs9L2nPGal6o/axMWDXNtPbTvBOhSWM0ZTnS48kZxEo7gtarpuoTWF2lxETts6j9pT1GD
NiGSNFWfwypNEksZ5I4DKfY75oJRINFXNIi96nwGIDEzAYd+aelHWfIurWwFZIoTcwgbnlbkS7e5
ClfpyrVY+LGQ4uouUS8b/J/VGU3ViSa/bjA+Va/Rwb78897ax8pD8U8R21joiQ7vu/Yx78wrFtO8
0tNCCgfjLEfAqfh/4UKc2HZebixjy/tc/sjNeKv5p+w7h9A+QdTS/wBBhkU7FVdfkw/szucE+KIL
1V2LZIcvQtOFXhv50WAg81x3Kj4by2R2P+WhKH/hVXNno5XCmyHJd+XP5aaB5usjJMCl7Dcek45s
qSKwBWvE7bmm2c32xpojNYH1C0jS457kPoPyX5CXQPTFESOEBYoo+gAFAPx+nNcBTlxiAKDMsUux
V2Kvjf8ANq7N3+ZHmCUmvG7aH/kSBF/xpnaaCNYI+5x5830r5GgSDyH5ajQUB0y2lI95Yw7fi2c5
nN5Zn+kWfQJycrQtOFC04VWnChacKrTihacKsA8z3rXOrSryrHB+6Qdhx+1/w2b/AEWPhxjz3ZBL
YIZJpo4YxWSRgij3Y0GZE5iIJPIJem6dYQ2NnHbRDZB8Td2bux+ecZqMxyzMi2gMb8//AJjaT5Qt
E9ZfrWpTittYqwUkdObnfile9N+3fMjRaGWc90R1RKVPEr/86/zCu7gyx36WaEUEFvDHwH0yCR/v
bOhh2XgiKq/e0mZTXyx+fPmaxnWPXFXVbNm+NwqRTopoDwKBUagqaMNz+0Mp1HZGOQ9HpP2JGQve
dJ1bT9X06DUdOmW4s7heUUq/cQQdwQdiD0Oc1lxSxyMZCiG4G0o85aWs1mL6Nf31vs5HeMn/AI1O
bPsnU8M+A8pfexkGE50jBk/le7eS1ktmYn0SCgP8rdvvGazW46kJd7VNOTmG1rHRXUowDKwIZT0I
PbCr5d0eF/LX5g3OmyV4QXElv1pyRG5If9mq/jnD9q6f0yieheX7Xw3jP9E/sTn82NPLW1tehfij
Yxu1a17E/wDEBmm7DykXE+75On7CykSMT7viP7WVfkbrHq6aLR2+KJmi3/4JfwoM9C7NyXCu57nT
yuHuesnNm2rThV5R+ettWPR7kDoZ42PzCMv6jmfojzDOC38hrwx3moxV+z6Uqj3qf+ac1nbkd4H3
/ocnE+ngQRUdDmhbXYq7FXYq+JfPMol87eYJVFBJqV4wB60adzncaUVij/VH3ONLm+u9PhaDR9Mh
YANFZwIwHSqoBtnJ3cpHzLaVU4WK04ULThVacKFpwqtOKFpwq8vuXL3Mrnqzsx+ZNc6eAoAMk08p
wrJrkJbcRhnp7hSB+JzB7UnWA+bKPN6DnKNr5M/MHWrnWPOOq3cz8lW4khgAJosMLFIwKk/srU+9
TnbaPEMeKMR3ONI2Xofk/wDK+yksovXtluLqQD1XlBf4yK8ET28c5zVdp5JzPCeGPSm6MAk/5q/l
VceWLKDWYYxHZTSiCWMMDxdlLKQKkgHic2XZWulkJhPc97CcaTv/AJx212T19U0KRyY+C3tunZSC
I5d/fkmV9t4hUZ/BOM9HtF1CJ7WaEiokRkI/1hTNDinwyB7i2l5XncNKa+XLqGC8kM0ixxtGas5C
ioIPU+2YeurgB82vJyT465ov/Vwtv+R0f9c1PiR7w08Q70RHNDMvOJ1kT+ZCGH3jJg2m3z3+eGnN
pfnyDVYlot7FFPXsZYT6bD/gVX7857tbF6/6wdXrsV2P5wTbXoE1XyizIqkmJWRq1Pw/AP8Agmo2
cLpj4WqI79/1/peE0svC1G+3I/oP6WM/k/qxs9eeAmglCuo/ykPT6a533ZmSpEPoOjluQ+jwwZQw
3BFQfY50TmNHCrzX88UU6Fp70+IXVAfYxtX9WZmi+osoMf8AySkK69dp2eIfhXMTtwemPvcnE+qr
RuVpC380an7wM5xuVcVdirsVfE3nuJYvPHmGJdlTU7xVr4C4cDO40pvFD+qPucaXN9dadM0+iaVc
MQzTWcDlh0JaMGop885IipSHmW0qpyTFacKFpwqtOFC04VWnFC04VeX3UZjuZo26o7KfmDTOngbi
CyTPynMsWuQcthIGSvuVNPxGYXacOLAfJlHm9Czk218n/mLoVxovnPVLWVeKSTvcWxpQNDMxdKfK
vE+4OdtoswyYokdzjSFF7B+VX5seUFso49cu10+/t4uBMoYo5ru6OARuOx3zn9V2VkjImA4otsZh
jX55fmzpPme3ttC0Fmm06CUXFzeMrIJJFUqixqwDcV5GpI3Py32PZegliJnPn3MZytF/848eX5Vb
UtfljKxuos7VzUchyEk1B3FVTf55T23mFRh8U4x1ZZ59/OPyv5U9SzVjqOsKCPqVuRSNu3rSbhPl
u3tnMzzxie9pz6yGPbmXz7e+dPOeuyMloz20HT07WqAf60pPL/hvow6vt3NPnLgHcPxbpNR2jX1S
4fx81FfInme7cSXGzuKh5i5J/wBkRT8c0WXtKF+o7+f7XU5O1sQO9/j3ok/lhrdK+rF/wS/81ZR/
KmLv+1p/lnH+CEP/AIG81Wchlta806yQM4I7/aAA/HLsfaOMnYt2PtbFI7X+Pcl+uXXmq5ggi1ma
5uYrXl6DTsZeHOnICQltjxG1czDqvEABldOdDVxycpWz/wAhXa3vlv6sxUOlYiW/yl4A/wCxCg5z
faUODNGfn9/4Ly3amPw8/F5/f+CwawlOkecI3Hwok9PYJL0+4NnT6DNUoy/Hc9X2fmsRl+O59P6L
ci40yCQGvw8fu6fhnZROzvCjDk0PNfzxdRoWnp+0bokfIRsD+vMzRfUWUGO/kop/xBcN2EYB+kN/
TMTtw+mPvcnE+qdN/wCOda/8YY/+IjOcbkRirsVdir45/N6za0/MrX4mFC1z630TIso/4nnZ9nyv
BH3OPPm+lfIs6XP5eeWZkNQun28RPvFGsZ/FDnN6gVmmP6RbOgTc5FitOFC04VWnChacKrTihaxA
BJNB45IK8/8AMtusWrSuhrHN+8BHiftfjm+0c7xi+jIJbDK8MqSxmjxsGU+BBqMyZREgQeRS9N0z
UIb+yjuYz9oUdf5WHUZxmpwHFMxLaDaReevIGkeb9PEN0TBewg/VL1ACyE9mG3JCeq/qy3R62WCW
28TzCJRt4jqv5HefbO4MdrbRajBU8J4JY02rtyWVo2Bp4VHvnQ4+1sEhueFqOMpt5Y/ILX7qeOXX
5U0+0BrJBEwlnah+zVaxrUd+R+WU6jtnHEej1H7EjGeqv+Zv5n2/l+2XyR5JpbC0X0Lq8hNTGehi
ibc+pU/G/UH/ACq05DWayUpEk79S4Gs1nD6Y/EsM8kflhfa3Os94CEb4zzrT5ufn/memaLJqSTww
5vLZNVPLLgxfP8fjue7eXvIvlXRoUHoi4lQbM3wqPko/V09sMNPDnM8R+z8e9y8HZ2GO+T1y+z8e
9ka3tnbJxtoo4FAoFjVUFP8AYgZkjJCAqIA9zsI5IYxUAI+4Ul1/qcUqFZQrqeqsAR+OY2bMJCju
4ufPGQo7hg2v2tmh9e2UR1NHjX7O/cDtnO63BAeqOzyPaelxj1wFd4SOZIZxSdFlFAPiG9B2DfaA
+RzFx58kORdZDNOPVCabpFhpssz2gKLOKNFQUBqpLVH+r4Zk6jWnLDhI3cjPrDkjUubAPzDszDrf
1hek45EgUHL7W3y5U+jOh7Py8WMPTdkZuLHX4/Fvbvyx1cX+gRMTVmRXI/yqUbO90mTjgC9dGXFE
FmBzLS8o/PW5HDR7YHcmeRh8uCr+s5n6IcyzghvyPgP1y+np/IoPyV6/8SGa3tyW8B7/ANDk4n0/
ZLxs4F6cY0H3KM0DarYq7FXYq+Xf+cjtMNr+YK3YHw6hZwylv8qMtCR9AjXOq7GneGu4/taMg3en
/kJqKX35YRWyij6XdTwN78n9ev3T5rO04cOov+cB+r9DKP0s5OYqFpwoWnCq04UKUs0UY+NgPbvk
oxJVBy6geka/Sf6ZdHF3qg5JZJDV2Jy4RAVAappM+oW5FvGXnhqygeHcfTl+HOMZ3OxUMRIIND1z
bMkfo+tXWmT84/jib+9hJ2YfwPvmLq9JHNGjz6FINM603XdN1BR6MoWU9YX2cH5d/ozmNRosmI7j
bv6NgNphmKlgP5y+eX8q+VitnJw1bUi1vZn9pFp+8lH+oCAPcjKNRk4Y+ZcPW5/DhtzLwbyT5eSY
/pS9Ustf3SmvxE969f8AP3zm9dquAUObwnamt4Rwh7Rot7Fa2ESR0BZQz023I9vAbDMHBm4Y+ZYa
PMIQHedyjzrW32su/MuV+bQ8utbfayuWpapatLrnWevxZjT1LiZNWkt7qDTfDXatTmLOZk6vUZjP
ZCeplXA4nC71MeBeFi/5g2huNLiuRUtA1DtsFr4+/I/dm77KnQId72NlqVfD9P607/I7WQA9gzbx
uQB/kybj/hq53fZGW4cPc9zpJ3Cu57Oc3bkPDPznvxcebEtlO1nbojDwdyZD/wAKy5s9JGoX3tkO
TLfyS09hpTzU3uJGKn5lUH4xnOf7Yneau4D9blYxs+i1AVQo6AUGapm7FXYq7FXin/OTuiGbQ9J1
pFq1nO9tKR/JOvJSfYNFT6c3nYmWpyj3i/k15AkX/OMeuLHqusaDKx43kKXUCk7BoSUkAHiyyj/g
cyO2sXpjMdDTHGej291KsVPUGhzTg2pUyQBU7DJIQs19Amynmfbp9+WxxEqg5r6d9geC+A/rl0cY
CEMTXrlirThVHWekyzUeWscfh+0coyZwNhzZCKcwwxQoEjUKo8Mw5SJNlmAxXzV5SNwzX+np+/NW
ngH7f+Uv+V4jvm10Ov4fRPl0KCGDMrKxVgVYGhB2IObsG2LsVRMep6lGvGO7mRfBZGA/A5TLT4zz
jH5BbeOfmVqV3rHnNbSeaSVbZY4FLsWpzAdyK/634Zwvb2QfmDGIoQAH6f0uh7SzVIn+aGT26JbW
8Vui8BEoBXYUanxDbwO3yzhtSTKZeB1BMpm0ZDqUsaha1UdMxzA9GMZyAVf0s575WRNPiyU31J27
4+HMsTORUGuWbqckMLAgrfVyfAvC71ceBeF3q48C8KG1RUn0q7jfcenUDtUsFr9zHMvRipuVo/TO
/wAc2L/ldcSReYmCmgaKpp4h1Uf8SzsuyZfvCPJ77Qn1EeT6RilDwJKTQMoYntuK51Ic98zeZtU/
S3mHUNQBqlxO7RePpg8U/wCFAzd448MQG4B9EflRoxtbHT7ZloycTJ8415N/w9c4rVZfEySl3lyo
ig9ayhLsVdirsVY9+YXlz/EfkzVtIUVmuIC1sP8Ai6IiSL73QDMnSZvDyxl5okLD5K8ieYm8tecN
L1hqiO0nAuRQk+i4Mcwp48GanvnXarD4uMx7x/Y48TRfWuo6kjOJLcVRxs56H3FM5jDi2otskrlm
lkPxsT7dsyhEDkwUjklaOFV0UEsz8I1LN+r54JSA3KgJzZ6VFDR5KSS/gPlmHkzmWw5MxFG5Qydh
Q7FUq1fy3pep1aaPhP2nj2b6ex+nMrBrJ4+R27kUwW+8tTwzulvKsyKSAT8JNPvH45u8esBG4pha
gfL2sg0+rH6GU/xyz83j70cQeG+arWew/MS7hul4SCdSVP8AxZGGX8GGee9sG9ROu95rtQfWyme4
Vp5GU1VmLKfEE1Bzl549y8dkj6j71P1sj4bHhd62Phrwu9bHw14Xetj4a8LvWx8NeF3rY+GvC71s
fDXhQHmDUBa6RMeVHnHBBtuP+ugPuOZWmxUbc7Q4CZhBflhYO+oS3dPhBWNT8jzb/iIzqux8e5l8
HtdDHnJ7B5/1n9C+SJiG43NxEtnB48pFox/2KBjnW6aHFIeTmgWXinlHTTqGv2kJXlGjerL4cY/i
ofmaDMvtDN4eGR68vm5EBZfWPkfT/RiLkf3SBP8AZN8TZxjkMsxV2KuxV2KuxV8kfnb5SPl3z1dt
EnGw1St7akD4R6hPqoKbfDJXbwIzr+zNR4mId8dnHmKL1D8nPNA17ygthM1b/SONu/iYqfuH6fyr
w/2Ne+YOtxeHkscpfgs4mwy8gg0PUZShacKEZZ6ZLPR5KpF49z8spyZhHlzSIpxDBFCnCNeI7+J+
eYkpEndmAqZFWsUuwodiqHvZ/QtZJO4FF+Z2GTxx4pAIJYuo5Oo8SBm0PJpTQ5isXh//ADkB5SnW
5tvNNohMZVbe/K/ssp/dSH51419h45ou19ObGQe4ut1+L+L5sQ0jVBf2SmtbmIcZF7kDuPl+r5Zz
08d7vI6nTcMkT6+V+G4nA718fDXgd6+PhrwO9fHw14Hevj4a8DvXx8NeB0tzDbwme5bhENwK0Zvl
1+/JDC2Y8BkWKXdxe6/qaQwLsTSJOgAHVj8hmXhxGchGPN3+k0tbD6i9l/L3yultDCgWsUQqzEfa
qakn/WP4Z2Wk04xxER0ejhAQiIhiX5weZF1LX102B+VrpgKNToZ2/vP+BoF+dc6HSY+GN97ZEJx+
T3l8kNqMq7zH4K/77jP/ABs/6s0nbOo4piA/h+9ycY6vpLRbQ2unRIRR3+N/m39BmlbEdirsVdir
sVdirz/87PI7eaPJ8j2sfPVdKLXVmAKs6gfvYh/rqKj/ACgM2HZuq8LJv9MtiwnGw+b/AMvPN0nl
bzNb35JNlJ+4v4x3hcipGx3QgMPGlO+dPqsHiQrr0aYmi+oPTW7SO4tCJoplDo6EFWVhVWBG1CO+
c+J8OxbSEws9Ljio8tHk7D9kZj5M5OwURR2UsnYodirWKXYUOxVJten/ALuAH/Lb9QzL0seZYTKV
24rOg96/dvmVPk1picx2KG1Cws9QsZ7G8iE1rcoY5om6MrChwTgJAg8iiUQRRfNXnvyBrPknVDd2
pabSJH/0W7ArxBNRFNTow8eh6jwHK63RSwmxvDv/AFui1ejrn9KBtNbsrtQsrfV7jpU/YJ/z8Puz
DBBdJl0pijPSnYj0x6ta09P4jQd6D4h9IyXC4/h9ym0jqSrAgjqDscaCOBuP1pTSNGcjsoJ/Vjwp
EL5LuLqvKR1iXcEudwR4qKsPpGPCFGNA3Wv2VsCIB9Ym7MacR07bj9f0ZEkOTj0hPl+O5L7ez1rz
Bc1FWQH4pWqI1+nufxy7T6aeY+kbd7ttNoyfpHxepeSfy/SBQFQkmhmncULfPwXwXOn0eijiG3Pv
d3iwxxjbmy/zjr1r5R8tSSQkfXZqxWamlWlI+2R4IN/uHfNzp8PFKujYBZeDaTp1zrGqxWqsTJO/
KWU7kL1dzXNlqM4xYzI9G6IsvpzyB5diijt4Vj4woqsy+EaCiL9OcTOZkSTzLkvSsirsVdirsVdi
rsVdir5Z/PX8u28ueYDq9jFTRtVcuoUfDDcHd4/YN9pfpHbOq7K1niQ4D9UfuaJxpk/5BfmRFwXy
hqslJKk6RO3Rh1a3Y+I6pX3X+UZR2rpD/eR+P62WOXR7ey0PtmkBZrcKuxQ7FWsUuwoaxVi17P69
zJL2J+H5DYZtMceGIDSS6yFZq+AODJyQUccpYrThVRurW2uoJLe5iWaCVSskUgDKynqCDgIBFFBF
vIfN/wCQttM73Xlyb0Cak2MpqnyRjuPpzT6jseMt4GvLo4OXQxO8dnmt/wCTfOejyGOW2lUDpwNQ
fkpofwzVZOz88Ol+5wMnZ8usbQiz+aoKqIrhCeo9Jh+pco8LKP4ZfJxvyNfwyHzap5puGJ9C4Ynq
3pEf8MVxGHMf4ZfJI0F/wn7VeDyh5lvWHqrwB6GV6/8ACryP4ZkY+zc0uYr3uXj7Pn0AiyzQPyoe
R1a4V7lh+yQUQfMD4j9ObTT9jxG8vV9znY9DGP1bvTdE8jWtmiGYKAn2YkAAHypsPozdY8IiKDl3
WwZG7WljaPI5WC2gRpJHOyqqirMSfYZeB0Y83zl5382XHmXW3u2qlpFWOyhP7MYPUj+Zup+7tm6w
4uCNdWwCnoH5W+Tmt4Rd3UdLicBpARusfVY/m3U/2ZzXams8WfDH6Y/aXJhGn0LoenfUrMBhSaT4
pPbwX6M1TNMMVdirsVdirsVdirsVSvzN5c03zHol1o+opztrlaEj7SMN1dT/ADKdxlmHLLHISjzC
CLfHvm3yrrXk7zFJp90WjmgcSWd2lV5qDVJY2HQ/qOdlptRHPCx8Q45FF9BflF+acPmywGm6m6x+
YLVBz6KLlFH96gFAG/nUfMbbDQ6/QnEeKP0H7G2MrehspBzXgsmsKHYq1il2FCD1Sf0bNyPtP8C/
T1/DLcEbkiR2Y3myaUVYDdz8hlWVBRRypC04VaOFC04qpyxRSrwkRXU9VYAj7jhVLZvLehymr2cd
fFRx/VTHhC2VEeVdBBr9VX6a48AWyiItH0yH+7tkHzFf11yQiEWiQqqKKAAOgGwySGj0JJoBuSdg
AOpJwoeIfmn+YiaxIdE0iXlpUTA3NwtQLiRTUAeMSkVHid/DNnpdPw+qXP7v2toFJZ+X3k+XU7uO
/uI+Vsjf6PGRtI4PU/5K5h9qa7gHhx+o8/JthG930n5O8vpEizutY4zVSf25P5vkM5luZfirsVdi
rsVdirsVdirsVdirE/zH/L3TPOeitazgRX8ILWN5SrRuex8VbuMytJqpYZ8Q5dR3sZRt8nalpvmH
yj5g9CcSWOqWMgeGZCRuD8Lo3cH+w512LLDPCxvEtBBBfQv5WfnFY+aY00rWClr5gUUX9mK5A7x1
Ozj9pPpXuF0Gu7POL1R3h9zbGdvSGQj5ZrgWVLcKGsUuwoSLXJ+U6wg7Rip+Z/szN00aFtcylmZT
BG2IpET4nKMnNBVzkELThVo4ULTiq04ULThVacKFpwqtYqscksjrFDCpkmmkYJGiKKszs1AqjxOJ
NKBbxT8yvzTGqpJougOyaWfhu72hR7n/ACVBoyRex3bvTpmz0ukI9U+fQd37WwCmMeT/ACfca1cL
NMrLYK1CR9qVv5E/ich2h2gMI4Y/X9zZCFvonyb5SVVRAgjjjAVyooEUdI0985OUiTZ5t70WONIo
1jjUKiCiqOwGBV2KuxV2KuxV2KuxV2KuxV2KuxViX5hflzo3nLTDDcqIr6IE2t2o+JGp38R4jMnS
6qeGVx+XeiUbfKnmvyfr3lPVTaajE0bK1YLlK8HA3DK3jnWaXVwzxuPxDjyiQ9N/Ln8/57RY9M83
lp7ZQFi1ZQWlWmwE6DdxT9ofF4hq1zX6vsoH1Y+fd+pnHJ3vdbK8sNRtI7zT7iO6tZRWOeFg6NQ0
NGWo65o5AxNSFFsXkEHfFVruqIztsqgkn2GEC0MVnlaWV5G6uSfvzaxFCmkqeSQmFqKW6+9T+OY8
+aCqHIoWnCrRwoWnFVpwoWnCq04VS7zH5h0HyzaC6126FuWXlBZJR7qb/UjqKDb7TUXDjEshqAvz
6BkId7wbz3+Zus+am+qqv1DRUasWnxsTyI6PO+3qP+A7DNvp9JHHud5d/wCpkt8oeQ7rVJI7m9Ro
7RiDHENnl/5pX3/28w9f2mMfphvL7mcYW998oeTQioqIsccYCllACxr/ACoPHOZlIyNnct70W3t4
beFYYV4ovQfxORVUxV2KuxV2KuxV2KuxV2KuxV2KuxV2KpR5m8q6N5j057HVIFljYUViPiU+IOTx
5JQPFE0VIfNv5g/knrnl2V7nTla900mqld3X29/l1+edFo+14y9OTY9/T9jTLH3MR8sedPNPlS8M
mk3j23xfv7RxyhcgioeJtq7UqKMOxGbPNp8eYeoX5sASHt3lL/nIny7qCrb+YrdtKuaAfWYw01sx
oN9h6kdTXajADq2aTP2TOO8DxD7WwZB1ejS3+nanpgn0u8hureYkLPA6yxnifiAZCR1FDmDjiYy9
QqmRFjZJpLO4TqlR4rvmcMgLWYlQII2OTYppGOMaDwAzGPNi44oWnCrRwoWnFV8VrcTf3UbP7gbf
fglMDmUiJKX69rflry4nPzBqsFk9ARaKfVuWB6Uij5NT36YcfHk/u4k+fIMvD73lfmj8/rghrbyl
ZfUU6fpK7Cy3J6bpH8UUf/DfRmwxdmXvlN+Q5ftTYHJ5eset6/qTyEzahfzHlNPIxdz2q7sfbuc2
E8mPDHeoxUAl6N5Q/LFEdbi8C3NyprQ/3EZ+n7Z/zp3zntZ2tLJ6YemP2tscdc3tXlvyYsarLOCi
HqSKO49v5VzTtjM4oo4Y1jiUIiiiqOmKrsVdirsVdirsVdirsVdirsVdirsVdirsVdiq2SOORGjk
UPGwoyMKgjwIOKvN/O/5JeXteDz2aC2uz0oafc1D9zAj5Zl6bW5MP0nbu6MTEF4Z5n/KPzPokzAR
GaP9kGiuR7b8G/2LfRm90/bGOW0/SfsajjLFra813Q7wvbTXOm3Y2YozwvTwNONRmz9GQdJD5sNw
zTR/z0872ICXbQalHUEmeMI4XwVovTH0spzFn2djPLZkJll1h/zkLo022q6LNEB0Nu6T1+iQQ0+/
MWXZkh9Mv0MuNl1p+en5UXaBpmubJj+xLA9R/wAiDKMwT2dqY8qPx/WtxRH/ACt38nW/6XTp7fV7
v/qicH5PVfzftH60VFY/5u/k+taaxK9OgW3ud/viGEaPVfzR8x+taill7+fP5YWzFbe11C+O9HSN
USvv6kkbf8LlkeztSeZiPx7l9LG9T/5yT4h10Ty5BEw/u57yQyn6Y0VKf8jMyIdkE/XM/BeIdAwj
X/zm/MTWg0cuqvZ27f7osQLcD25p+9I9i5zNxdnYYco2fPdBmSxiw0XWNVkLWtvJOWJ5THZanryd
tq/Tl2bU48Q9RA/HcgRJZroH5VSzOrahIZSOtvBUL/spDT8PvzTajtrpjHxP6mwY+96x5Y/LtUiW
OC3WKAfsoOKV8WbqxzSZMspm5Gy2AU9E0ry5Y2KqeIkkX7JpRV/1VytKa4q7FXYq7FXYq7FXYq7F
XYq7FXYq7FXYq7FXYq7FXYq7FVk8EE8ZinjWWJvtI4DKfoOKsS1z8r/LeqIVEQhr+wyiWOv+q9af
QcnDJKBuJpSHnOuf849REs9pF78raQqf+Ak5D7s2GLtbNHmeL3sDjDCNS/JbVrViFlkj/wAmaE/8
SU/wzNh25/Oj8ix8JJJ/yy8wxkgSW7+A5Op/4ZBmTHtrCeYkPx72PhlDn8u/Mo/3XEf+egyf8r4O
8/JfDK5fy68yE0KwqPEybfgDgPbGDz+S+GUXb/lfrMhAluYEr2Tm5+7iuVS7bx9BIp8Mp1Yfk/yI
NxNPKPBEEQ+9ueYuTtyZ+mIHv3/UkY2YaJ+UVmhVodPVmH+7JA0x+e9UGYGXtHNPnL5bMxABnem/
lwVCm4IUCnwsa0+Srt95zCtkymx8taXaKAI/UI6cgOI+SjbFU1AAFAKAdBirsVdirsVdirsVdirs
VdirsVdirsVdirsVdirsVdirsVdirsVdirsVdiriARQioPUHFUNLpenS/wB5bRt78QD+GKoVvLOg
samzT6OQ/UcVa/wvoI/481+9v64qqpoOkJ9m2X6Sx/WcVREdjZRf3cEanxCiv34qr4q7FXYq7FXY
q7FXYq7FXYq7FXYq7FXYq7FXYq7FXYq7FXYq7FXYq7FXYq7FXYq7FXYq7FXYq7FXYq7FXYq7FXYq
7FXYq7FXYq7FXYq7FXYq7FXYq//Z</xapGImg:image>
              </rdf:li>
            </rdf:Alt>
          </xap:Thumbnails>
        </rdf:Description>
        <rdf:Description
           rdf:about="uuid:292a2b9a-b589-47ff-ab24-f0af7ed1dd7a">
          <xapMM:DocumentID>
uuid:ce23f475-4bf6-4bdd-833c-54ddec35cd9d</xapMM:DocumentID>
        </rdf:Description>
        <rdf:Description
           rdf:about="uuid:292a2b9a-b589-47ff-ab24-f0af7ed1dd7a">
          <dc:format>
image/svg+xml</dc:format>
          <dc:title>
            <rdf:Alt>
              <rdf:li
                 xml:lang="x-default">
mime.ai</rdf:li>
            </rdf:Alt>
          </dc:title>
        </rdf:Description>
      </rdf:RDF>
    </x:xmpmeta>
    <xpacket>end='w'    </xpacket>
  </metadata>
  <path
     style="font-size:12;opacity:0.2;"
     d="M22.086,4.396L22.086,4.396c-5.454,0.671-10.319,3.427-13.701,7.758c-3.381,4.33-4.874,9.719-4.203,15.173     c0.671,5.453,3.426,10.319,7.757,13.701c8.941,6.979,21.893,5.385,28.874-3.555c3.376-4.324,4.865-9.712,4.193-15.173     c-0.672-5.459-3.425-10.325-7.749-13.702C32.928,5.217,27.539,3.725,22.086,4.396 M23.817,25.814     c-0.31-0.242-0.487-0.608-0.487-1.004c0-0.285,0.092-0.555,0.268-0.779c0.208-0.268,0.51-0.438,0.848-0.479     c0.336-0.042,0.669,0.05,0.935,0.259c0.268,0.208,0.438,0.509,0.479,0.846c0.042,0.338-0.051,0.671-0.259,0.938     C25.17,26.146,24.37,26.245,23.817,25.814z"
     id="path551" />
  <path
     style="font-size:12;opacity:0.2;"
     d="M21.524,4.114L21.524,4.114C16.07,4.786,11.205,7.541,7.823,11.872c-3.381,4.33-4.874,9.719-4.203,15.173     c0.671,5.453,3.426,10.319,7.757,13.701c8.941,6.979,21.893,5.385,28.874-3.555c3.376-4.324,4.865-9.712,4.193-15.173     c-0.672-5.459-3.425-10.325-7.749-13.702C32.365,4.936,26.977,3.443,21.524,4.114 M23.255,25.533     c-0.31-0.242-0.487-0.608-0.487-1.004c0-0.285,0.092-0.555,0.268-0.779c0.208-0.268,0.51-0.438,0.848-0.479     c0.336-0.042,0.669,0.05,0.936,0.259c0.267,0.208,0.437,0.509,0.478,0.846c0.042,0.338-0.051,0.671-0.259,0.938     C24.607,25.865,23.808,25.964,23.255,25.533z"
     id="path552" />
  <path
     style="font-size:12;fill:#3a3aa9;"
     d="M21.243,3.552L21.243,3.552C15.789,4.223,10.923,6.979,7.542,11.31c-3.381,4.33-4.874,9.719-4.203,15.173     c0.671,5.453,3.426,10.319,7.757,13.701c8.941,6.979,21.893,5.385,28.874-3.555c3.376-4.324,4.865-9.712,4.193-15.173     c-0.672-5.459-3.425-10.325-7.749-13.702C32.084,4.373,26.695,2.881,21.243,3.552 M22.974,24.971     c-0.31-0.242-0.487-0.608-0.487-1.004c0-0.285,0.092-0.555,0.268-0.779c0.208-0.268,0.51-0.438,0.848-0.48     c0.336-0.041,0.669,0.051,0.936,0.26c0.267,0.208,0.437,0.509,0.478,0.846c0.042,0.338-0.05,0.671-0.258,0.938     C24.326,25.303,23.526,25.401,22.974,24.971z"
     id="path553" />
  <path
     style="font-size:12;fill:url(#XMLID_7_);"
     d="M8.687,12.203c-6.498,8.323-5.019,20.338,3.303,26.835     c8.323,6.498,20.337,5.02,26.835-3.304c6.498-8.322,5.018-20.337-3.305-26.835S15.184,3.88,8.687,12.203 M25.902,25.645     c-0.924,1.185-2.639,1.396-3.823,0.472c-1.183-0.925-1.395-2.639-0.47-3.823c0.924-1.184,2.639-1.396,3.822-0.471     C26.615,22.746,26.827,24.461,25.902,25.645z"
     id="path560" />
  <path
     style="font-size:12;fill:#ffffff;"
     d="M26.139,25.342c0.906-1.16,0.679-2.856-0.504-3.781c-1.184-0.924-2.883-0.731-3.789,0.429     c-0.04,0.05-0.075,0.103-0.11,0.156c0.948-1.05,2.563-1.207,3.695-0.323s1.372,2.49,0.582,3.663     C26.057,25.438,26.1,25.393,26.139,25.342 M12.464,38.431c-8.271-6.457-9.887-18.229-3.656-26.379     c-0.041,0.051-0.082,0.101-0.122,0.152c-6.498,8.323-5.019,20.338,3.303,26.835c8.323,6.498,20.337,5.02,26.835-3.304     c0.039-0.051,0.078-0.104,0.118-0.154C32.547,43.602,20.736,44.89,12.464,38.431z"
     id="path561" />
  <path
     style="font-size:12;opacity:0.3;fill:#9b95ff;"
     d="M35.521,8.899c-2.782-2.172-5.978-3.452-9.24-3.884l-0.978,6.973l-1.299,9.271     c0.503,0.045,1,0.229,1.428,0.563c0.354,0.277,0.618,0.624,0.795,1.007l8.538-3.453l6.668-2.696     C40.213,13.713,38.229,11.014,35.521,8.899z"
     id="path562" />
  <path
     style="font-size:12;opacity:0.7;fill:#ffffff;"
     d="M39.523,13.15c-1.08-1.575-2.416-3.013-4.003-4.251c-1.665-1.3-3.478-2.28-5.365-2.951     c-1.57,4.299-2.998,8.209-2.998,8.209s-1.212,3.317-2.63,7.201c0.319,0.094,0.626,0.246,0.905,0.463     c0.197,0.155,0.366,0.333,0.509,0.525C30.023,19.583,35.765,15.697,39.523,13.15z"
     id="path563" />
  <path
     style="font-size:12;opacity:0.3;fill:#9b95ff;"
     d="M23.174,26.626c-0.387-0.084-0.762-0.251-1.095-0.51c-0.405-0.318-0.694-0.729-0.864-1.178l-8.801,3.559     l-6.404,2.59c1.213,3.034,3.219,5.796,5.98,7.951c2.688,2.099,5.759,3.364,8.906,3.837l0.98-6.989L23.174,26.626z"
     id="path564" />
  <path
     style="font-size:12;opacity:0.7;fill:#ffffff;"
     d="M22.079,26.116c-0.2-0.158-0.372-0.34-0.516-0.536c-3.474,2.352-6.464,4.377-6.464,4.377     s-3.375,2.285-7.119,4.82c1.083,1.579,2.421,3.021,4.009,4.261c1.625,1.269,3.39,2.231,5.228,2.9     c1.588-4.348,3.963-10.852,5.627-15.405C22.575,26.438,22.316,26.301,22.079,26.116z"
     id="path565" />
  <path
     style="font-size:12;fill:#9b95ff;"
     d="M18.077,19.535c-2.445,3.131-1.886,7.668,1.245,10.113c3.131,2.445,7.668,1.887,10.111-1.244     c2.445-3.131,1.887-7.668-1.244-10.113C25.059,15.846,20.522,16.404,18.077,19.535 M25.902,25.645     c-0.924,1.185-2.639,1.396-3.823,0.472c-1.183-0.925-1.395-2.639-0.47-3.823c0.924-1.184,2.639-1.396,3.822-0.471     C26.615,22.746,26.827,24.461,25.902,25.645z"
     id="path566" />
  <path
     style="font-size:12;fill:#e6e6e6;"
     d="M20.044,21.071c-1.597,2.046-1.233,5.012,0.813,6.609s5.012,1.232,6.609-0.813     c1.598-2.047,1.233-5.012-0.814-6.61C24.606,18.659,21.642,19.024,20.044,21.071 M25.902,25.645     c-0.924,1.185-2.639,1.396-3.823,0.472c-1.183-0.925-1.395-2.639-0.47-3.823c0.924-1.184,2.639-1.396,3.822-0.471     C26.615,22.746,26.827,24.461,25.902,25.645z"
     id="path567" />
  <rect
     x="2.842"
     y="2.632"
     style="font-size:12;opacity:0.5;fill:none;"
     width="42.14"
     height="42.141"
     id="rect568" />
  <path
     style="font-size:12;opacity:0.7;fill:url(#XMLID_8_);"
     d="M23.912,5.307c-7.798,0-14.143,3.792-14.143,8.454     c0,3.138,2.901,5.939,7.362,7.395c0.24-0.566,0.549-1.113,0.946-1.62c2.445-3.13,6.981-3.689,10.112-1.245     c1.021,0.799,1.765,1.821,2.224,2.944c4.576-1.438,7.642-4.311,7.642-7.474C38.055,9.099,31.71,5.307,23.912,5.307z"
     id="path575" />
  <path
     style="font-size:12;opacity:0.2;"
     d="M31.151,3.436c-0.336,0.154-0.553,0.491-0.553,0.86l0.032,0.244c0,0,5.299,19.774,5.465,20.393     c-0.753-0.224-1.553-0.37-2.391-0.425c-1.6-0.104-3.107,0.132-4.136,0.646c0.009-0.004,0.019-0.01,0.027-0.014     c-2.04,0.837-3.735,2.601-4.319,4.492c-0.145,0.47-0.218,0.939-0.218,1.398c0,0.787,0.222,1.535,0.64,2.164     c0.887,1.461,2.399,2.516,4.256,2.966c1.788,0.433,3.826,0.286,5.737-0.414c0.013-0.005,0.027-0.011,0.027-0.011     c2.4-0.999,4.002-2.368,4.644-3.964c0.206-0.513,0.311-1.041,0.311-1.571c0-0.574-0.124-1.161-0.367-1.746     c-0.004-0.014-3.813-14.229-3.995-14.908c0.42,0.168,1.072,0.429,1.072,0.429c1.366,0.526,2.914,1.123,4.213,2.04     c1.425,1.007,2.319,2.252,2.735,3.806c0.126,0.47,0.583,0.766,1.063,0.689s0.822-0.501,0.794-0.987     c-0.303-5.299-3.525-7.394-6.938-9.611c-2.42-1.573-4.92-3.198-6.926-6.148C32.066,3.381,31.572,3.243,31.151,3.436z"
     id="path576" />
  <path
     style="font-size:12;opacity:0.2;"
     d="M30.776,3.248c-0.336,0.154-0.553,0.491-0.553,0.86l0.032,0.244c0,0,5.299,19.774,5.465,20.393     c-0.753-0.224-1.553-0.37-2.391-0.425c-1.6-0.104-3.107,0.132-4.136,0.646c0.009-0.004,0.019-0.01,0.027-0.013     c-2.04,0.837-3.735,2.601-4.319,4.492c-0.145,0.47-0.218,0.939-0.218,1.398c0,0.787,0.221,1.535,0.64,2.164     c0.887,1.461,2.399,2.516,4.256,2.966c1.788,0.433,3.826,0.286,5.737-0.414c0.013-0.005,0.027-0.011,0.027-0.011     c2.4-0.999,4.002-2.368,4.644-3.964c0.206-0.513,0.311-1.041,0.311-1.571c0-0.574-0.124-1.161-0.367-1.746     c-0.004-0.014-3.813-14.229-3.995-14.908c0.42,0.168,1.072,0.429,1.072,0.429c1.366,0.526,2.914,1.123,4.213,2.04     c1.425,1.007,2.319,2.252,2.735,3.806c0.126,0.47,0.583,0.766,1.063,0.689s0.822-0.501,0.794-0.987     c-0.303-5.299-3.525-7.394-6.938-9.611c-2.42-1.573-4.92-3.198-6.926-6.148C31.691,3.193,31.197,3.056,30.776,3.248z"
     id="path577" />
  <path
     style="font-size:12;fill:url(#XMLID_9_);"
     d="M30.401,2.873c-0.336,0.154-0.553,0.491-0.553,0.86l0.032,0.244     c0,0,5.299,19.774,5.465,20.393c-0.753-0.224-1.553-0.37-2.391-0.425c-1.6-0.104-3.107,0.132-4.136,0.646     c0.009-0.004,0.019-0.01,0.027-0.013c-2.04,0.837-3.735,2.601-4.319,4.492c-0.145,0.47-0.218,0.939-0.218,1.398     c0,0.787,0.221,1.535,0.64,2.164c0.887,1.461,2.399,2.516,4.256,2.966c1.788,0.433,3.826,0.286,5.737-0.414     c0.013-0.005,0.027-0.011,0.027-0.011c2.4-0.999,4.002-2.368,4.644-3.964c0.206-0.513,0.311-1.041,0.311-1.571     c0-0.574-0.124-1.161-0.367-1.746c-0.004-0.014-3.813-14.229-3.995-14.908c0.42,0.168,1.072,0.429,1.072,0.429     c1.366,0.526,2.914,1.123,4.213,2.04c1.425,1.007,2.319,2.252,2.735,3.806c0.126,0.47,0.583,0.766,1.063,0.689     s0.822-0.501,0.794-0.987c-0.303-5.299-3.525-7.394-6.938-9.611c-2.42-1.573-4.92-3.198-6.926-6.148     C31.316,2.818,30.822,2.681,30.401,2.873z"
     id="path584" />
  <path
     style="font-size:12;fill:url(#XMLID_10_);"
     d="M34.045,11.157c2.217,1.748,8.883,2.183,10.403,7.858     c-0.474-8.293-8.655-7.858-13.701-15.282l5.967,22.271c-2.096-1.313-5.712-1.47-7.52-0.566c-2.947,1.188-4.961,4.493-3.503,6.676     c1.573,2.623,5.303,3.492,8.879,2.184c3.142-1.309,5.179-3.492,4.038-6.11L34.045,11.157z"
     id="path591" />
  <path
     style="font-size:12;fill:#ffffff;"
     d="M37.082,25.905c0.009,0.032,0.013,0.065,0.013,0.099c0,0.118-0.056,0.232-0.154,0.306     c-0.126,0.093-0.296,0.099-0.428,0.017c-2.062-1.292-5.535-1.355-7.148-0.549c-0.009,0.005-0.018,0.009-0.027,0.013     c-1.704,0.688-3.113,2.128-3.59,3.672c-0.197,0.64-0.313,1.583,0.261,2.44c0.004,0.005,0.007,0.011,0.01,0.016     c0.704,1.174,1.93,2.023,3.452,2.392c1.534,0.371,3.296,0.24,4.963-0.368c2.019-0.842,3.405-1.988,3.903-3.227     c0.141-0.351,0.212-0.71,0.212-1.075c0-0.427-0.097-0.861-0.288-1.301c-0.008-0.018-0.014-0.035-0.019-0.054l-4.563-17.03     c-0.009-0.033-0.013-0.065-0.013-0.098c0-0.126,0.063-0.246,0.171-0.318c0.137-0.09,0.316-0.083,0.444,0.019     c0.61,0.481,1.617,0.869,2.783,1.318c1.438,0.554,3.068,1.182,4.501,2.195c0.774,0.548,1.417,1.159,1.935,1.838     c-0.331-0.868-0.806-1.648-1.438-2.37c-1.139-1.304-2.688-2.311-4.33-3.377c-1.99-1.293-4.198-2.732-6.122-4.978     C32.443,8.594,37.082,25.905,37.082,25.905z"
     id="path592" />
  <path
     style="font-size:12;fill:url(#XMLID_11_);"
     d="M37.082,25.905c0.009,0.032,0.013,0.065,0.013,0.099c0,0.118-0.056,0.232-0.154,0.306     c-0.126,0.093-0.296,0.099-0.428,0.017c-2.062-1.292-5.535-1.355-7.148-0.549c-0.009,0.005-0.018,0.009-0.027,0.013     c-1.704,0.688-3.113,2.128-3.59,3.672c-0.197,0.64-0.313,1.583,0.261,2.44c0.004,0.005,0.007,0.011,0.01,0.016     c0.704,1.174,1.93,2.023,3.452,2.392c1.534,0.371,3.296,0.24,4.963-0.368c2.019-0.842,3.405-1.988,3.903-3.227     c0.141-0.351,0.212-0.71,0.212-1.075c0-0.427-0.097-0.861-0.288-1.301c-0.008-0.018-0.014-0.035-0.019-0.054l-4.563-17.03     c-0.009-0.033-0.013-0.065-0.013-0.098c0-0.126,0.063-0.246,0.171-0.318c0.137-0.09,0.316-0.083,0.444,0.019     c0.61,0.481,1.617,0.869,2.783,1.318c1.438,0.554,3.068,1.182,4.501,2.195c0.774,0.548,1.417,1.159,1.935,1.838     c-0.331-0.868-0.806-1.648-1.438-2.37c-1.139-1.304-2.688-2.311-4.33-3.377c-1.99-1.293-4.198-2.732-6.122-4.978     C32.443,8.594,37.082,25.905,37.082,25.905z"
     id="path609" />
  <ellipse
     style="font-size:12;fill:url(#linearGradient688);"
     cx="30.612"
     cy="27.525"
     rx="3.503"
     ry="1.878"
     id="ellipse616"
     transform="translate(1.080386,0.154341)" />
  <polyline
     id="_x3C_Slice_x3E_"
     style="font-size:12;fill:none;"
     points="0,48 0,0 48,0 48,48 " />
</svg>
