<?xml version="1.0" encoding="UTF-8" standalone="no"?>
<!DOCTYPE svg PUBLIC "-//W3C//DTD SVG 1.0//EN"
"http://www.w3.org/TR/2001/REC-SVG-20010904/DTD/svg10.dtd">
<!-- Created with Inkscape (http://www.inkscape.org/) -->
<svg
   xmlns="http://www.w3.org/2000/svg"
   xmlns:xlink="http://www.w3.org/1999/xlink"
   version="1.0"
   x="0.0000000"
   y="0.0000000"
   width="60.000000"
   height="60.000000"
   viewBox="0 0 48 48"
   id="svg548"
   xml:space="preserve">
  <defs
     id="defs588" />
  <metadata
     id="metadata549">
    <xpacket
   id="xpacket9">begin='﻿' id='W5M0MpCehiHzreSzNTczkc9d'    </xpacket>

    <x:xmpmeta
   x:xmptk="XMP toolkit 3.0-29, framework 1.6"
   id="xmpmeta12">
      
    <metadata
   id="metadata168">
  <rdf:RDF
     id="RDF14">
        <rdf:Description
   rdf:about="uuid:bc9ca7ae-e8d0-4100-a835-6cdddab735be"
   id="Description16">
          <pdf:Producer
   id="Producer18">
Adobe PDF library 5.00</pdf:Producer>

        </rdf:Description>

        <rdf:Description
   rdf:about="uuid:bc9ca7ae-e8d0-4100-a835-6cdddab735be"
   id="Description22" />

        <rdf:Description
   rdf:about="uuid:bc9ca7ae-e8d0-4100-a835-6cdddab735be"
   id="Description24" />

        <rdf:Description
   rdf:about="uuid:bc9ca7ae-e8d0-4100-a835-6cdddab735be"
   id="Description26">
          <xap:CreateDate
   id="CreateDate28">
2004-01-26T11:58:28+02:00</xap:CreateDate>

          <xap:ModifyDate
   id="ModifyDate31">
2004-03-29T09:16:10Z</xap:ModifyDate>

          <xap:CreatorTool
   id="CreatorTool34">
Adobe Illustrator 10.0</xap:CreatorTool>

          <xap:MetadataDate
   id="MetadataDate37">
2004-02-17T10:40:03+01:00</xap:MetadataDate>

          <xap:Thumbnails
   id="Thumbnails40">
            <rdf:Alt
   id="Alt42">
              <rdf:li
   rdf:parseType="Resource"
   id="li44">
                <xapGImg:format
   id="format46">
JPEG</xapGImg:format>

                <xapGImg:width
   id="width49">
256</xapGImg:width>

                <xapGImg:height
   id="height52">
256</xapGImg:height>

                <xapGImg:image
   id="image55">
/9j/4AAQSkZJRgABAgEASABIAAD/7QAsUGhvdG9zaG9wIDMuMAA4QklNA+0AAAAAABAASAAAAAEA
AQBIAAAAAQAB/+4ADkFkb2JlAGTAAAAAAf/bAIQABgQEBAUEBgUFBgkGBQYJCwgGBggLDAoKCwoK
DBAMDAwMDAwQDA4PEA8ODBMTFBQTExwbGxscHx8fHx8fHx8fHwEHBwcNDA0YEBAYGhURFRofHx8f
Hx8fHx8fHx8fHx8fHx8fHx8fHx8fHx8fHx8fHx8fHx8fHx8fHx8fHx8fHx8f/8AAEQgBAAEAAwER
AAIRAQMRAf/EAaIAAAAHAQEBAQEAAAAAAAAAAAQFAwIGAQAHCAkKCwEAAgIDAQEBAQEAAAAAAAAA
AQACAwQFBgcICQoLEAACAQMDAgQCBgcDBAIGAnMBAgMRBAAFIRIxQVEGE2EicYEUMpGhBxWxQiPB
UtHhMxZi8CRygvElQzRTkqKyY3PCNUQnk6OzNhdUZHTD0uIIJoMJChgZhJRFRqS0VtNVKBry4/PE
1OT0ZXWFlaW1xdXl9WZ2hpamtsbW5vY3R1dnd4eXp7fH1+f3OEhYaHiImKi4yNjo+Ck5SVlpeYmZ
qbnJ2en5KjpKWmp6ipqqusra6voRAAICAQIDBQUEBQYECAMDbQEAAhEDBCESMUEFURNhIgZxgZEy
obHwFMHR4SNCFVJicvEzJDRDghaSUyWiY7LCB3PSNeJEgxdUkwgJChgZJjZFGidkdFU38qOzwygp
0+PzhJSktMTU5PRldYWVpbXF1eX1RlZmdoaWprbG1ub2R1dnd4eXp7fH1+f3OEhYaHiImKi4yNjo
+DlJWWl5iZmpucnZ6fkqOkpaanqKmqq6ytrq+v/aAAwDAQACEQMRAD8A9U4q7FXYq7FXYq7FXYq7
FXYq7FXYq7FXYq7FXYq7FXYq7FXYq7FXYq7FXYq7FXYq7FXYq7FXYq7FXYq7FXYq7FXYq7FXYq7F
XYq7FXYq7FXYq7FXYq7FXYq7FXYq7FXYq7FXYq7FXYq7FXYq7FXYq7FXYq7FXYq7FXYq7FXYq7FX
Yq7FXYq7FXYq7FXYqluteZfL+iQ+rq+o29ihFV9eRUZv9VSeTfQMtx4ZzNRBKCaee61/zkb5CsSy
WC3WqSDYNFH6Uf8AwUpRvuU5scfY+aXOosDkDDNS/wCcodZcsNM0O3gH7LXMrz/eEEH68zYdhx/i
kfh+CxOVj11/zkT+ZE5JjltLUHtFbggf8jTJmRHsfAO8/FHiFAN+e/5qFiRrQUE1Ci1tKD23iJyz
+StP/N+0/rRxldF+fX5poSW1dZQezWtqB/wsS4nsrT/zftP614ymtl/zkj+YEDfv4rG7XuJIXU9u
hjkT9WUy7GwnlxBPiFk2lf8AOUS/CuraCR/NLaz1+6ORf+N8xcnYf82XzDIZWd6F+en5casVQ6gd
OmbpFfIYfvkBeIf8HmBl7Lzw6X7vxbITDOrW7tbuBLi0mjuIJBVJomDow9mUkHMCUSDR2ZquBXYq
7FXYq7FXYq7FXYq7FXYq7FXYq7FXYq7FXYq7FXYq7FXYqwrzt+bvk7ynzgurj63qa9NPtaPID/xY
32Y/9ka+xzO03Z+XNuBUe8sZTAeG+bP+cgvO2stJDprLolk1Qq255Tlf8qdhWvugXN7p+ycUN5eo
/Z8mo5CXnyQaxq91JMFmvbhiGmnYtIasaVkdq037sc2XpiK5NZPeyvRvyl1m+Cvd6hp+nRnciW5j
kkof8mMsv3sMxsmsjHkCfgjjHezPTfyN8nqAdR8zJM3cQy28I/4YzHMOfaM+kPsKbHeGQWv5RflN
CB6t1BcU7yXx3/5FvHmPLX5z0PyTt3hHD8tfyhVQo+oUG290xP3mXIfnc/dL5fsXbvCyX8sfygkF
CbEU6cbt1/4jMMI1uful8v2Lt3hJtR/J78s5BS11SK3Pil6h+71PUy/Hr8vWJ+S7d4Yvqf5LaWoL
ad5ktTStEmkhav8AsldT/wALmVDXXzifkUWGJ6l+Wfm2zhNxFbLqFqCR9YsnEykjqABRz/wOZMdT
A7XRVLNJ8weZvLV6zabeXOm3Kn97GrMlSO0kZ+FvkwyWTDDIPUAQyBIeueT/APnJa9iMdt5qshcR
7A6haAJIPd4TRG9+JX5Zp9R2KDvjNeR/WzGTvex6d+YPkjUNOXUbfW7MWjGheWZISrH9l1lKMp9i
M009JljLhMTbZxjvRcfmzytKgki1mxdD0dbmEg026hsgdPkH8MvkV4x3r/8AE/lr/q7WX/SRF/zV
g8DJ/NPyXiHe1/ijy1/1drL/AKSIv+asfAyfzT8k8Qd/ijyz/wBXey/6SIv+asfAyfzT8l4giLPV
9KvWK2d7BcsOohlSQj/gScjLHKPMELaLyCXYq7FXYq7FXYq7FXYq7FXYq7FUv17zBo+gabJqWr3S
WlpF1dzuW7KijdmPYDLMWGWSXDEWUE0+c/zD/P7XdcaWw8vc9J0o1Uzg0upR7sp/dj2U19+2dJpO
yYQ3n6pfY0yyXyYH5X8leZvNN2YtJtHnAP766f4YkJ/nkPf2FT7Zsc2ohiFyLCnt3lL/AJx40GwV
LnzDMdSuRuYFqlup+j4mp7mntmkz9rSO0BTMQS/ynJF+auieY/K0FpbaJotjNEbO9s4ySUMzNEpi
JC8ikXxEEfLL9TejlDISZSI3B937XBxy/MCUeQHVaf8AnE7T/wDqZJv+kVf+quD/AERS/mfb+xf5
LH877Gj/AM4maf8A9TJN/wBIq/8AVXH/AERy/mfb+xf5MH877Fp/5xK07/qZZv8ApFX/AKq4f9Ec
v5n2/sT/ACYP5zR/5xI07/qZZv8ApFX/AKq4/wCiOX8z7f2J/k0fzlp/5xG07/qZZv8ApEX/AKq4
/wCiOX8z7f2J/k4d7R/5xE07/qZpv+kRf+quP+iOX8z7f2J/k8d60/8AOIWnEbeZpq/8wi/9Vcf9
Ecv5n2/sT/J473nv5P6zqnkn82P8NX8pS0urt9K1CAk+mZg5jikAO394BRv5Tmz7Qxxz6fxI8wOI
NGAmE+E+59T+YPJvljzDB6Or6dDdAAqkjLxkQH+SRaOv0HORxanJjNxLtDEF89/nL+VGh+SdJOt2
Oq0gkkEcGmXW8zuxrSF1HxBRueQ2H7RNBnRdna6WeXAY/ENGWoC0m/LH/nHfWfPWkN5g1i/fR7K4
P+49fR9WSZB1k4lk4x/y/wA3Xpub9d2xHTy4IjiI5tGPAZ+osyP/ADhxpv8A1NE3/SIn/VXMH/RH
L+YPn+xt/KDvWn/nDbTf+ppm/wCkRP8Aqrj/AKI5fzPt/Yn8oO9o/wDOGum/9TTN/wBIaf8AVXH/
AERy/mD5/sT+VHe0f+cM9M/6mmb/AKQ0/wCquP8Aojl/M+39i/lvNK9T/wCcNdWi/eaP5ohllU1j
W5tngoRuP3kckx69+OWw9o4n6ofI3+pfy/cWP30P/OTH5UKbl7q6vNFgI5SiT9JWXAeKycpIV9+K
fPMiJ0Or2oCX+lP7ftX1xerflN/zk75f83XMOjeYIU0XXpiI4GDE2lw52CozfFG5PRGJr2YnbNTr
+xJ4RxQ9UPtDbDLfN7bmjbXYq7FXYq7FXYq7FXYqxbz/APmJofkvS/rV83rXkoIs9PQgSysO/wDk
oP2mP69sy9Jo555UOXUsZSp8p+b/ADr5j85av9b1OUyMTxtLOOvpRBjskab7nx6nvnWafTQwxqPz
aDK3pX5cfkHNdrFqnmwNDbmjxaWpKyMP+LmG6/6o38adM12s7UEfTj596Yxt7xp+nWGnWkdnYwR2
1rEOMcMShVA9gM0M5ykbJstoCS/mJqp0ryLrt+sgikisphC7GgEjqUj+nmwp75fosfHmjHzDTqJc
OMnyeFfk1+a2h+SfLlzaXOkX95d3ly073FsiGPgEVEQFmU/CVY/TnQdqdnT1GQESiAB1dZo9THFG
qJtn3/Qzfl7/AKl7Vv8AkXF/zXmt/kGf8+DmfyjH+aUPJ/zlX5Qjco+jakrrsVYQgj6DJkh7PZf5
0ft/Uj+UYdxTnRf+clPyx1O4WCae60tnPFXvYQEqelWhaYL82oMoy9h6iAsAS9x/XTbDXYz5PT7a
6trq3jubWVJ7eZQ8M0TB0dWFQystQQfEZqJRINHYuWDapgSptcwrcpbFqTyI8iJ4rGVVz9BkX78P
CatFqmBL5F/5yd8tT6D+YsHmC05RRazGlzHKu3G6tuKScfegjf5nOz7DzjJgMD/Dt8D+C6vVwqd9
76G038yNCf8ALi0876jOtvYSWiz3NN6TD4HhQbcm9UFFHc5zc9FPxziiLN/g/JzhlHBxF4n5R8v6
5+ePnqTzV5jje38m6Y/p2llUhXCmot0batftTOP9UU247zUZoaDD4cN8suZ/T+pxoROWVn6X07DD
DBCkMKLFDEoSONAFVVUUCqBsAB0GcqSSbLnsT/MT8z/LvkWyhm1JZru8uSfqunWiiS4kVSA70JUK
i13Yn265l6PQzzmo7AdTya55BF55/wBDX+Wv+pa1n/kVF/1UzZfyBk/nwa/zA7ipT/8AOXXlC3AM
/l/V4g32eaQrWnhWTCPZ/IeUo/av5gdyrp//ADl9+W1xKI7ux1OyBP8AetFDIgHv6cpf7lOCfs9n
HIxPz/UkZ4vVvKfnjyn5usWvfLupw6jAlBKIyRJGW6CSJwsiVptyUZqNRpcmE1MU2xkDyTwgEUPT
KGT5e/5yV/IfTbLT5vO/lS1FqsB5a1p0IpHxY0+sxIPscT9tRtT4tqGvU9jdqSkfCyG+4/oaMkOo
Zx/zjF+al15w8rTaNq8xm1zQgiNO5q89q9RFIxO7OhUo5/1SdzmD21oRhycUfpl9hZ45WHtOaRsd
irsVdirsVdirFPzF/MHS/JWiNe3NJr6aqafYg0aVx1J8EWtWb+JGZej0ks86HLqWMpU+TdX1fzD5
v8wtd3bPfapfOEiiQE0qfgjjTso7DOux44YYUNohoJt9AflZ+UFj5cjj1TVVS61thUd47ev7Mfi3
i/0D30Wu15yemO0WUYvT+Waqmx3LGleQf85Ma2LXyXaaYrUk1K7UsvjFbqXb/hymbvsPFeUy/mj7
/wAF1/aM6gB3l6j5G0Q6H5O0bSWXhLZ2cMc46fveAMp+lyTml1eXxMspd5LnYYcMAPJPGZVUsxAU
CpJ2AAzHbXxHYRDz5+a7GRDLDrGozXDx1K/uOTS8K1BUcF49c73LI6bS7c4xA+PJ5+A8XLv1L1HX
f+cedDa1Y2kdzYTAEpIr+vHX/LUljT5MM0eLtvNE+qpB2EtDA8tkb/ziprGp+l5i8vXEvrWWmyRS
2wrVUeVpFlCH+VzGG+dT3yXtBjj6Mg5y/YjQSO8e579nOOxYB+aHmyHyxrHk6/lcJBcaobK7JNP9
HuYWR2P+Sj8HPyzY6DTnLHJEdI38Qf7WjNPhMT5s/wA1ze8l/wCcm/K41j8tJr+NK3WiTJeIR1MT
H0pl+XFw5/1c3HYefgz10lt+pxtVC4X3Pnv8sfLfmz8xriw8lrdSReWNLme+vHA+CFZaBv8AWd6E
Rg9KsenLOk12fHpgctfvJbDz/HVw8UTP09H2hoeiaXoek2uk6Vbra2FnGIoIU6BR3J6lid2J3J3O
cPlyyySMpGyXaRiAKCSfmP8AmJofkPy5LrGptzlNUsbFWAkuJqbIvWgHVm7D6Ab9Fo56ifDH4nuY
5MgiLLz3/nG3Uda80DzN561yT1b/AFS7jsodqJFBap6giiH7KAz09yKmprmx7ahHFwYYcoi/if7G
rASbkXteaNyHyZ/zmL5hFz5r0XQkaqabaPcyAdpLt6cT7hIFP0513s7hrHKf8418v7XE1B3pOvJn
/OOvlPW/IejalcWcsl3e2iTzXltcsGLyDkRwLMgKV47L2zB1XbOeGaQifSDyI/BbI4YkMN0ny9qX
5Vfn35a07TLySW31We2gdZQFkNtez/V5I5lGzcacgaAVAPbNidQNZo5ykKMb+YF7MeHhkH2XnHOS
k/nSG3n8n67DcqrW8mn3SzK/2ShhYNX2pl2mJGSJHPiH3oPJ8jf84h3NxF+assUdTFcaZcJOK0AV
XicEg9fiUDOv9oADp/8AOH6XHxc32jnFOS7FXYq7FXYqlnmbzHpnlzRLrWNSk4WtqtSB9p2Oyog7
sx2GW4cMskhGPMoJp8eeb/Nes+cvMcmpXnJ5p2EVpapVhHHWkcUY+n6TvnZafBHDDhDjk292/Kf8
sIfLVmmoajGr69cr8ZNCLdGH92h3HL+Zh8ht10uu1niGh9I+1ID00EAUGwGattdyxpXcsaV4X+aA
Pmb87PKvlhTzt7QxSXCdac39ecf8iIlzoND+60mTJ1P9g+0ur1Przxi+h85Z27FPzX1z9Cfl1r+o
BuEi2jwwt3ElxSFCPk0gOZnZ+LxM8I+f3btOpnw4yXy1+SOv+V/L/mubWfMF4LWG2tnW3HCSRnkk
IHwiNXOwBzr+1cOTLjEIC993UaScYyuTP/N/5/XvmFW8ueQNOupb+/rAt4yUlowoTBGhYg0/bYjj
1p3Gv0/ZIx+vMRQ6frcnJqzL0wD1D8lPyzbyJ5WaC8KvrWouJ9RdDVVIFI4VPcRgnfxJ7UzTdqa7
8xksfTHl+ty9Ng8OO/MvQc1rkvj/AP5yU/MS08z+bIdK0yVZtL0JXiE6GqS3MhHrMpGxVeCoD7Ej
Y52vYmjOLHxS+qf3dHVavLxSocg+kvym82f4q/L7R9Xd+d00IgvTXf6xB+7kJ8ORXl8jnL9oafwc
0o9L29xdhhnxRBZFrWlwato99pdwKwX9vLbSg/yTIUb8GzFxZDCQkOYNtkhYpj35Yfl7pnkXyrb6
Raqr3jAS6ndgbzXBHxNU78V6IOw965k67WS1GQyPLoO4MMWMQFJr5u826J5T0C61zWZvRs7ZegoX
kc/ZjjUkcnY9B/DKtPp55piEeZZSkIiy+FPzK/MXW/PnmOXV9SJjgWsdhYqxMdvDXZVr+0aVZu59
qAd7otHDTw4Y/E97rZzMjZfYv5D6B+hPyn8vW7Jxmubf69N4k3bGZa+4R1X6M4vtXLx6iR7jXy2c
/DGohn2a9tfAX52a+uvfmx5ivC4MCXhtI2H2fTtALcEex9PlnoPZuLw9NEdav57uDM3JmH5df85D
SeQ7O60+O3bV9PkUtbWpYxLFP05ByGIVv2gFzB1fY/jkG+E9fc2xy0z/APJryJ5y85+fT+bHnuI2
4HxaNYupSp48YnSNt0hiU/BXdm+L3bA7R1WLDh/L4vifx1P7GUIkmy+js5tveMf85P8A5l2nlryR
P5dtpQdc8wxtbrEp+KK0b4Z5XA6B1rGvjU/ynN12JojlyiZ+mH39P1teSVCmA/8AOHHlCcXurea5
0KxNF9Rs2IPxVdXmPyqqgH2OZvtFqQeHEPef0McI6vqXOYbnYq7FXYq7FXyx+en5it5l8wHSbCXl
omlOUTifhmuBs8u3UL9lPap/azq+y9H4UOI/VL7micrZL+Rn5drDAnmzVIv38oI0mFxTih2acg92
6J7b9xSntHVWfDj8f1IAezx7EnNOWUVTlkaZu5Y0hrlhpXiX5SKPMv56eZvMjfvLfTxMttJ13Zhb
Qn6YI2zd9pnwtHDH1l/aftdbpfXnlLu/sfQucw7ZIvOvk3SvOGhtouqyTpZPIkr/AFdwjMYzVQSV
fau/TMjS6qWCfHGr82vLiExRYLZ/84y/ldBIHmhvLxQa+nNcsFPt+6ETfjmxl27qDyIHw/W440OM
PQPL3lDyv5chMOh6Xb6erCjtCgDuP8uQ1d/9kc1ubU5MpuciXJhjjHkKRGt6/omhWD6hrF7DYWad
Zp3CAn+Va7sx7AbnIYsM8h4YiymUhEWXzP8Am/8A85IT65bz6D5Q9S10uYGO61NgUnnU7FYl6xo3
cn4iPDOq7O7FGMieXeXd0Drs+r4to8kj/LT8mLjVbSfUNbhaNZYJBaWrAhl5oQJnHYivwL475Zr+
1OGXDj6Hc/oXDprFyZp/zin5insNT8weR788JonN5bxk9JIiILlRX5RkfI5h9v4hKMM0fd+kNukl
RMS+j85lzkHrGr6bo2l3OqanOtrYWcZluJ36Kq/LcnsANycnjxynIRiLJQSALL4p/ND8xvMP5rec
IbPT4pBpiSGHRtMB332M0vbmwFWJ2RdvEnuNFo4aPEZSO/8AEf0fjm6/JM5Dsu84/l5Fos/lLybb
ESaxrUyy31xSpZ55Ft4Qm1fTVvU4+PXIaTWHJ4mY/RHkPdufjyZTx1Uer7btbaG1tYbWBeEMCLFE
vgqAKo+4ZxEpEmy56rgV4y//ADif+V0ty1xPLqc0kjF5edynxMxqSeMQO5983X8vZwKHD8v2tPgx
Zb5V/JH8r/K8qT6ZoUDXiGq3l1yupQ38ymYuEP8AqAZiZ+08+XaUjXcNvuZjGAzh3VFLuQqKCWYm
gAHUk5gM3iX5qf8AOUPlTyxHLp/llotf1zdfURq2UDdKySKf3hH8sZ+bDN5oexMmXfJ6I/aWqWQD
k+dvLHlXzv8Am55ul1XVJ5ZoZZV/SOqyCiqop+5gFOPLjsqKKL3zf6rVYdFj4YjfpH9JaoxMi+2/
JnlfT/LPl+10mxhEEECBVjHYDsT3PcnuanOIy5ZZJGUtyXJApPMrS7FXYq7FXnn53+eG8seUHhtJ
OGq6rytrQg/EiU/fSj/VU0B7MRmx7M0vi5LP0x3YTlQfPP5ZeS282eaYbKUH9HW4+sai4qP3KEfA
CCN5GIUU6Vr2zpNZqPChY+o8mkB9VpHHHGscaCONFCoigBVVRQKAOgAzmGS5TTFMW+WCmTXLDSoL
WrmS30e/uI24yQ28siMOoZUJB/DJ443IA97GZoF8v/lb+cUn5f2moQwaQmoTahIjyzvMYiFiUhVo
Eeu7sevfOp7Q7M/MkEyrh8nTabVeEDtds4P/ADlvqH/UtQ/9JTf9Us13+hyP8/7P2uV/KR/mrT/z
lzqH/UtQ/wDSW3/VLD/ocj/P+z9qf5RP81RuP+cudZK/uPLtsjeL3Ejj7giYR7OQ6zPyX+UD3Mb1
b/nJj81NWrb6d9W05nqFFlbmSUg+8xn391AzJx9h6aG8rPvP6qYHWZJcmOr5L/M/zlei81hrli3/
AB+apI4Kg70VH5SU8Aq0y6Wu02AVGvdFAw5Jmz9r1byH+SGlaS8d7ODe3qkMLudaRofGGLff/KNf
ozT6ntPJm2Hpi5mLTxjvzL1uztIbWIRQj5nuT4nMCnIfPvnVm/Ln8+NL8yoPT028kSS4I2X0nHoX
Qp3Ijfn/AK2bvSj8xpJY/wCKPL7x+pw8noyCT6ruLq2traS6uJUhtoUMss7sFRUUVLMx2AA3rnJC
JJoc3YW+Nvzy/OO+/MDWk0HQvU/w7bTBLWFQed5cVKrMV68d6Rp9J3NB2vZfZw00OOf118h+Obr8
2XjNDk9N/JH8oIdAsxqWpIH1W4Ueu+x9Ndj6CHfav22HU7ZqO0tec8qH0D7fNyMWLhHm86/NbzuP
Lv8AzkL+mms11BNAW2SCzd/TQn6qJFowD04STcunUZttFpfE0fBfDx39/wCxqnKp2yI/85n6n/1K
sP8A0mP/ANUsxf8AQ3H+f9n7Wf5jyWn/AJzR1P8A6lWH/pMf/qjj/obj/PPy/anx/JZL/wA5pavw
Ij8rW6v+yzXbsB8wI1/XiPZuP88/L9qfG8kk1X/nMX8w7hGTT9N02wB/3YUlmkG3YtIqfemX4/Z7
COZkV8UvOPM/5j/mf5z5R61q93dWzfatFIt7b6YohHEae4rmfi02nwfSAD8z+tgZEvSvyn/5x0st
ahg1XWbr6/C4V00+1LLHQgEetMeLU8VWnzzTa7t6QJhjFHvP6A2xxd76l8t+UtM0O0hgtoY4lgUL
DDEoSKMeCKKffnMznKRuRslupPMirsVdirsVdir5F/Ojzc3mPz1eNE/Kw04myswDVSIiRI47fHJU
18KZ2HZun8PEO87lx5my9l/JnymugeS7eeVOOoaxxvbltqiNh/o8dfARnlQ9CxzU6/P4mU90dv1/
jySBQZycw1WnCoW8sNM2uWNKp3Eaz28sLgMkqMjKwqpDChBHhhGyGD/8qr8vf9WrTP8ApGj/AOaM
u/M5v58vmWvwYfzR8mv+VV+Xv+rVpn/SLF/zRj+Zzfz5fMr4MP5o+Tv+VVeXf+rTpn/SLF/zRj+Z
zfz5fMr4UO4fJyflZ5eVgy6XpqkdGW1iqP8AhMTqc38+XzKfCh3D5JtZeTbK1XjEUhTukEaoNvl/
TKpEy5m2QAHJNbbSNPtzVY+bj9p/iP3dMHClFSN0GTAVu33kr2XfBLkkPK/+clfK41TyYurRJW50
mQSEgVJib4XHyoeR+WZ/ZGbgzV0lt+pp1Ebj7njfnL88PMPmLyHonk+LnBBaWyQ6tKD8V28LcYV2
34BFRj/M/wAhXc6bsuGPNLKep28u/wDHc48sxMQHon5G/k61iI9d1mKmoyLWKNh/vPGw6UP+7WHX
+UbeOartPtDxTwQ+gfb+xvw4q3PN75GqRosaDiiiiqOwzT05DENc/Lby9q+q3Go3WladPPcEF5Z7
aKSRiqhaszISenjl0dRliKEpAe8oMR3JXL+U/lJNv0JpJbw+pw/9U8sjqM5/jl/pijhj3IZ/yn8q
7sdF0kAbn/RIQP8Ak3lg1Gb+fL5ljQ7kml/LHy00jMukaYFJ2AtYht/wGZkcmUD6pfMtRIRVr5F0
y2fnDBbQMDXlFAin7wFwEyPMlbeb/ml5Pi0zVYtRiBa3vgfUPQCZOvT+ZaH78zNMARR6JBehf845
ebvSE+gTNRIj6kA/4rkND/wMh/4bNP2zp+GQmOu3xb8Z6PoHNI2OxV2KuxV2Ksa/MjzH/hzyTq2q
o/C4jhMdqe/rzfu4yP8AVZuX0ZlaPD4mWMejGRoPlH8vvLn+JPOWl6S4rbzTc7s7/wBxEDJLuOhK
KQPc51urzeHjMuvT3tERZfXTmrE0oOwHQDOUAZlYckhacKrCMKQVuFLsUtYoawq7FUt1PXtP0/4Z
X5zf75Tdvp8PpzJw6WeTlyVjl150v5CRbxpCvYn42/Gg/DNhDs6A5m0WgH8xa03W6YfIKP1DMgaT
EOiro/MusoQTccwOzKp/hXAdHjPRU403zsEPC9g2PWWL/mk/1zEzdnX9J+aQWQTfo/W9LmhjdJ4J
1KMCKjfsyn8Qc1c8coGjsWTBNB/JXyxperNf2+mQ281arMWabifGJXZgh+VMuy67NkjwylswjiiD
YD0e3t4reFYol4oo2/qcxWa5mCipNBhAVDS3JOybDx75ZGDElRyxCXajdihhQ7/tn+GZGGHUsJy6
JcFZjQCpzItrVVtWP2jT275AzY2x/wDMLy9HqnlK9hReVxbr9Ztz1POIEkD/AFl5L9OWYMpEwoO7
xTyNrR0bzTYXhbjD6gin/wCMcvwN91a/RmXr8PiYZDrz+TfE0X2ZpF39b0+KUmr04v8A6y7fj1zi
3IRmKuxV2KuxV4h/zk/rZi0nR9ERt7maS7mUfywrwSvsTKfuze9iYrlKfds1ZCkn/ONmi1uda111
IEUUdjbv+yTK3qS/SojT/gsyO18n0w+LGL3A5p0rThQtOFVpwoWnCyBaxZNYoawqxnzH5mMDNZ2T
fvRtLMP2f8lffxzZaTR8Xqly7kMQZmZizEliaknck5twFcASQAKk9AMSVRsWi6vKKpZy0PQlCB+N
Mx5azFHnIfNNFSn07ULdeU9tJGv8zIQPvpTJw1GOf0yB+KKQ+WqiLG/urGcT2zlHHUdiPAjuMry4
ozFSV6FomtW+qW3NfgnSgmi8D4j2OaDU6Y4pV0ZAo2WdU26t4ZRGNqShHkZzVj8hloFIWHbJIQlx
cyMCkHfrJ0H0ZbCAG5a5TQi2qjdzyOWmbUSqhVUUAoMjaGjhQtIBFDuD1GFXzH5p0v8ARPmPUNPU
cUgnYRD/AIrY8o/+FIzdYpcUQW4HZ9S/lFrp1Py1aO7cnkgRm/4yJ+7k/EZxWqxcGSUe4uVE2GeZ
Ql2KuxV2Kvlr/nIvUzd/mK1rX4dPtIIKeBcGc/hKM6vseFYb7yf1NGQ7vUPyM01bL8tLKYAh9SuL
i6kr4q/oL/wsIzW9oz4s5/ogD9KRyZ2cw1WnChacKrThQtOFWjioLVcLIFKfMmqnT7A+maXE3wRe
3i30ZlaPB4k9+QSXn5JJqdyepzfoTLRNEuNUn4r8ECf3sxGw9h4nMPWayOGO+8ugSBbOtO0iw09A
tvEA37Up3c/Ns5jPqsmU+o/Do2AUjcx0uxVI9Y8q2N6rSW6i3ueoKiiMf8pR+sZs9L2nPGal6o/a
xMWDXNtPbTvBOhSWM0ZTnS48kZxEo7gtarpuoTWF2lxETts6j9pT1GDNiGSNFWfwypNEksZ5I4DK
fY75oJRINFXNIi96nwGIDEzAQ8jl+vTwywCmoyJUzkmC04VaOFC04VWnCrw386LAQea47lR8N5bI
7H/LQlD/AMKq5s9HK4U2Q5PQP+ceNVJ0wWxO0Fy0YHtMAf8AiRzn+2IVmvvA/U5WM7Pd81TN2Kux
V2Kvjf8ANq7N3+ZHmCUmvG7aH/kSBF/xpnaaCNYI+5x5830r5GgSDyH5ajQUB0y2lI95Yw7fi2c5
nN5Zn+kWfQJycrQtOFC04VWnChacKrTihacKsA8z3rXOrSryrHB+6Qdhx+1/w2b/AEWPhxjz3ZBL
YIZJpo4YxWSRgij3Y0GZE5iIJPIJem6dYQ2NnHbRDZB8Td2bux+ecZqMxyzMi2gMb8//AJjaT5Qt
E9ZfrWpTittYqwUkdObnfile9N+3fMjRaGWc90R1RKVPEr/86/zCu7gyx36WaEUEFvDHwH0yCR/v
bOhh2XgiKq/e0mZTXyx+fPmaxnWPXFXVbNm+NwqRTopoDwKBUagqaMNz+0Mp1HZGOQ9HpP2JGQve
dJ1bT9X06DUdOmW4s7heUUq/cQQdwQdiD0Oc1lxSxyMZCiG4G0o85aWs1mL6Nf31vs5HeMn/AI1O
bPsnU8M+A8pfexkGE50jBk/le7eS1ktmYn0SCgP8rdvvGazW46kJd7VNOTmG1rThVacKFpwq0cKF
pwqtOFXlH5621Y9HuQOhnjY/MIy/qOZ+iPMM4LfyGvDHeajFX7PpSqPep/5pzWduR3gff+hycT6e
BBFR0OaFtdirsVdir4l88yiXzt5glUUEmpXjAHrRp3OdxpRWKP8AVH3ONLm+u9PhaDR9MhYANFZw
IwHSqoBtnJ3cpHzLaVU4WK04ULThVacKFpwqtOKFpwq8vuXL3Mrnqzsx+ZNc6eAoAMk08pwrJrkJ
bcRhnp7hSB+JzB7UnWA+bKPN6DnKNr5M/MHWrnWPOOq3cz8lW4khgAJosMLFIwKk/srU+9TnbaPE
MeKMR3ONI2Xofk/8r7KSyi9e2W4upAPVeUF/jIrwRPbxznNV2nknM8J4Y9KbowCT/mr+VVx5YsoN
ZhjEdlNKIJYwwPF2UspAqSAeJzZdla6WQmE9z3sJxpO/+cdtdk9fVNCkcmPgt7bp2UgiOXf35Jlf
beIVGfwTjPR7RdQie1mhIqJEZCP9YUzQ4p8Mge4tpeV53DSnHlZyL+RezRn7wRmHrR6B72E+TKDm
saVpwqtOFC04VaOFC04VWnCrzX88UU6Fp70+IXVAfYxtX9WZmi+osoMf/JKQrr12nZ4h+FcxO3B6
Y+9ycT6qtG5WkLfzRqfvAznG5VxV2KuxV8Tee4li88eYYl2VNTvFWvgLhwM7jSm8UP6o+5xpc311
p0zT6JpVwxDNNZwOWHQlowainzzkiKlIeZbSqnJMVpwoWnCq04ULThVacULThV5fdRmO5mjbqjsp
+YNM6eBuILJM/Kcyxa5By2EgZK+5U0/EZhdpw4sB8mUeb0LOTbXyf+YuhXGi+c9UtZV4pJO9xbGl
A0MzF0p8q8T7g522izDJiiR3ONIUXsH5Vfmx5QWyjj1y7XT7+3i4Eyhijmu7o4BG47HfOf1XZWSM
iYDii2xmGNfnl+bOk+Z7e20LQWabToJRcXN4ysgkkVSqLGrANxXkakjc/LfY9l6CWImc+fcxnK0X
/wA48eX5VbUtfljKxuos7VzUchyEk1B3FVTf55T23mFRh8U4x1eyXkwgtJpiaCNGev8AqiuaLFDi
mI95bS8szt2lOfKyE38jdljP3kjMPWn0D3sJ8mTnNY0rThVacKFpwq0cKFpwqtOFXmv54uo0LT0/
aN0SPkI2B/XmZovqLKDHfyUU/wCILhuwjAP0hv6ZiduH0x97k4n1Tpv/ABzrX/jDH/xEZzjciMVd
irsVfHP5vWbWn5la/EwoWufW+iZFlH/E87Ps+V4I+5x5830r5FnS5/LzyzMhqF0+3iJ94o1jP4oc
5vUCs0x/SLZ0CbnIsVpwoWnCq04ULThVacULWIAJJoPHJBXn/mW3WLVpXQ1jm/eAjxP2vxzfaOd4
xfRkEthleGVJYzR42DKfAg1GZMoiQIPIpem6ZqEN/ZR3MZ+0KOv8rDqM4zU4DimYltBtIvPXkDSP
N+niG6JgvYQfql6gBZCezDbkhPVf1Zbo9bLBLbeJ5hEo28R1X8jvPtncGO1totRgqeE8EsabV25L
K0bA08Kj3zocfa2CQ3PC1HGU28sfkFr91PHLr8qafaA1kgiYSztQ/ZqtY1qO/I/LKdR2zjiPR6j9
iRjPV7ppWlWGk6dBp2nwiCztlCRRL2HiSdySdyT1znMuWU5GUuZbQKSXznqqxWosI2/ezUMtOyA1
/wCGObTsnTGUvEPIcvexkWF50bBk/le2KWsk5G8rUX/VX+0nNZrZ3IDuaplOTmG1rThVacKFpwq0
cKFpwqtOFXlH563I4aPbA7kzyMPlwVf1nM/RDmWcEN+R8B+uX09P5FB+SvX/AIkM1vbkt4D3/ocn
E+n7JeNnAvTjGg+5RmgbVbFXYq7FXy7/AM5HaYbX8wVuwPh1CzhlLf5UZaEj6BGudV2NO8Ndx/a0
ZBu9P/ITUUvvywitlFH0u6ngb35P69funzWdpw4dRf8AOA/V+hlH6WcnMVC04ULThVacKFKWaKMf
GwHt3yUYkqg5dQPSNfpP9Muji71Qckskhq7E5cIgKgNU0mfULci3jLzw1ZQPDuPpy/DnGM7nYqGI
kEGh65tmSP0fWrrTJ+cfxxN/ewk7MP4H3zF1ekjmjR59CkGmdabrum6go9GULKesL7OD8u/0ZzGo
0WTEdxt39GwG0wzFS0zKoJYgAdSemEC1SDWPNtnaq0VmRcXHTkN41+Z7/Rm00nZc5m5+mP2sTJhM
881xM80zF5ZDVmPc50kICIAHINapY2ct5cpBH1b7TeC9zgyZBCNlBNM4hhSGJIoxREAVR8s0kpEm
y0Fs4ELThVacKFpwq0cKFpwqtOFXhn5z34uPNiWynazt0Rh4O5Mh/wCFZc2ekjUL72yHJlv5Jaew
0p5qb3EjFT8yqD8YznP9sTvNXcB+tysY2fRagKoUdAKDNUzdirsVdirxT/nJ3RDNoek60i1azne2
lI/knXkpPsGip9ObzsTLU5R7xfya8gSL/nGPXFj1XWNBlY8byFLqBSdg0JKSADxZZR/wOZHbWL0x
mOhpjjPR7e6lWKnqDQ5pwbUqZIAqdhkkIWa+gTZTzPt0+/LY4iVQc19O+wPBfAf1y6OMBCGJr1yx
VpwqjrPSZZqPLWOPw/aOUZM4Gw5shFOYYYoUCRqFUeGYcpEmyzAYr5q8pG4Zr/T0/fmrTwD9v/KX
/K8R3za6HX8Pony6FBDBmVlYqwKsDQg7EHN2DbF2KomPU9SjXjHdzIvgsjAfgcplp8Z5xj8gtqc1
3dz/AN/NJL/rsW/WcnDFCP0gBbUsmqtaWdxdzCKBCzHqewHiT2yE8giLKCWYaXpcVhBxHxTP/eSe
PsPbNRnznIfJqJtGHKWK04ULThVacKFpwq0cKFpwqsYgAkmgG5Jwq+Y/M2qfpbzDqGoA1S4ndovH
0weKf8KBm6xx4YgNwD6I/KjRja2On2zLRk4mT5xryb/h65xWqy+JklLvLlRFB61lCXYq7FXYqx78
wvLn+I/JmraQorNcQFrYf8XRESRfe6AZk6TN4eWMvNEhYfJXkTzE3lrzhpesNUR2k4FyKEn0XBjm
FPHgzU9867VYfFxmPeP7HHiaL611HUkZxJbiqONnPQ+4pnMYcW1Ftklcs0sh+NifbtmUIgcmCkck
rRwquiglmfhGpZv1fPBKQG5UBObPSooaPJSSX8B8sw8mcy2HJmIo3KGTsKHYqlWr+W9L1OrTR8J+
08ezfT2P05lYNZPHyO3cimC33lqeGd0t5VmRSQCfhJp94/HN3j1gI3FMLUD5e1kGn1Y/Qyn+OWfm
8fejiC6Py3rDneHgPFmUfqJOA6zGOq8QTG08o0Ia7mr/AJEf/NR/pmPPX/zQxM08trS3tY/TgjCJ
7dT8z3zBnMyNlgSqHIoWnCq04ULThVacKFpwq0cKFpwqxX8ydcGkeUryRWpcXQ+q2/jylBDH6E5H
L9PDimExG7w/yjpp1DX7SEryjRvVl8OMfxUPzNBmX2hm8PDI9eXzciAsvrHyPp/oxFyP7pAn+yb4
mzjHIZZirsVdirsVdir5I/O3ykfLvnq7aJONhqlb21IHwj1CfVQU2+GSu3gRnX9majxMQ747OPMU
XqH5OeaBr3lBbCZq3+kcbd/ExU/cP0/lXh/sa98wdbi8PJY5S/BZxNhl5BBoeoylC04UIyz0yWej
yVSLx7n5ZTkzCPLmkRTiGCKFOEa8R38T88xJSJO7MBUyKtYpdhQ7FUPez+haySdwKL8zsMnjjxSA
QSxdRydR4kDNoeTSmhzFYrThVo4ULTiq04ULThVacKFpwqtOFC04VaOFC04VeFfnB5kXUtfXTYH5
WumAo1Ohnb+8/wCBoF+dc2mkx8Mb72yITj8nvL5IbUZV3mPwV/33Gf8AjZ/1ZpO2dRxTEB/D97k4
x1fSWi2htdOiQijv8b/Nv6DNK2I7FXYq7FXYq7FXn/52eR280eT5HtY+eq6UWurMAVZ1A/exD/XU
VH+UBmw7N1XhZN/plsWE42Hzf+Xnm6Tyt5mt78kmyk/cX8Y7wuRUjY7oQGHjSnfOn1WDxIV16NMT
RfUHprdpHcWhE0Uyh0dCCrKwqrAjahHfOfE+HYtpCYWelxxUeWjydh+yMx8mcnYKIo7KWTsUOxVr
FLsKHYqk2vT/AN3AD/lt+oZl6WPMsJlK7cVnQe9fu3zKnya0xOY7FacKtHChacVWnChacKrThQtO
FVpwoWnCrRwoY15981R+XNBluVYfXp6xWKHeshH2qeCDc/d3y/Bi45V0SBb5/wBJ0651jVYrVWJk
nflLKdyF6u5rmx1GcYsZkejfEWX055A8uxRR28Kx8YUVWZfCNBRF+nOJnMyJJ5lyXpWRV2KuxV2K
uxV2KuxV8s/nr+XbeXPMB1exipo2quXUKPhhuDu8fsG+0v0jtnVdlazxIcB+qP3NE40yf8gvzIi4
L5Q1WSklSdInbow6tbsfEdUr7r/KMo7V0h/vI/H9bLHLo9vZaH2zSAs1uFXYodirWKXYUNYqxa9n
9e5kl7E/D8hsM2mOPDEBpJdZCs1fAHBk5IKOOUsVpwq0cKFpxVacKFpwqtOFC04VWnChacKqVzPD
bwSXE7iOCFGklkY0VVUVJJPgMIUB83+d/Nlx5l1t7tqpaRVjsoT+zGD1I/mbqfu7ZusOLgjXVsAp
6B+Vvk5reEXd1HS4nAaQEbrH1WP5t1P9mc12prPFnwx+mP2lyYRp9C6Hp31KzAYUmk+KT28F+jNU
zTDFXYq7FXYq7FXYq7FUr8zeXNN8x6JdaPqKc7a5WhI+0jDdXU/zKdxlmHLLHISjzCCLfHvm3yrr
Xk7zFJp90WjmgcSWd2lV5qDVJY2HQ/qOdlptRHPCx8Q45FF9BflF+acPmywGm6m6x+YLVBz6KLlF
H96gFAG/nUfMbbDQ6/QnEeKP0H7G2MrehspBzXgsmsKHYq1il2FCD1Sf0bNyPtP8C/T1/DLcEbki
R2Y3myaUVYDdz8hlWVBRRypC04VaOFC04qtOFC04VWnChacKrThQtPQkmgG5J2AA6knCrxD80/zE
TWJDomkS8tKiYG5uFqBcSKagDxiUio8Tv4Zs9Lp+H1S5/d+1tApLPy+8ny6ndx39xHytkb/R4yNp
HB6n/JXMPtTXcA8OP1Hn5NsI3u+k/J3l9IkWd1rHGaqT+3J/N8hnMtzL8VdirsVdirsVdirsVdir
sVYn+Y/5e6Z5z0VrWcCK/hBaxvKVaNz2PirdxmVpNVLDPiHLqO9jKNvk7UtN8w+UfMHoTiSx1Sxk
DwzISNwfhdG7g/2HOuxZYZ4WN4loIIL6F/Kz84rHzTGmlawUtfMCii/sxXIHeOp2cftJ9K9wug13
Z5xeqO8PubYzt6QyEfLNcCypbhQ1il2FCRa5PynWEHaMVPzP9mZumjQtrmUszKYI2xFIifE5Rk5o
KucghacKtHChacVWnChacKrThQtOFVrFVjklkdYoYVMk00jBI0RRVmdmoFUeJxJpQLeKfmV+aY1V
JNF0B2TSz8N3e0KPc/5Kg0ZIvY7t3p0zZ6XSEeqfPoO79rYBTGPJ/k+41q4WaZWWwVqEj7UrfyJ/
E5DtDtAYRwx+v7myELfRPk3ykqqiBBHHGArlRQIo6Rp75ycpEmzzb3oscaRRrHGoVEFFUdgMCrsV
dirsVdirsVdirsVdirsVdirEvzC/LnRvOWmGG5URX0QJtbtR8SNTv4jxGZOl1U8Mrj8u9Eo2+VPN
fk/XvKeqm01GJo2VqwXKV4OBuGVvHOs0urhnjcfiHHlEh6b+XP5/z2ix6Z5vLT2ygLFqygtKtNgJ
0G7in7Q+LxDVrmv1fZQPqx8+79TOOTve62V5YajaR3mn3Ed1ayisc8LB0ahoaMtR1zRyBiakKLYv
IIO+KrXdURnbZVBJPsMIFoYrPK0sryN1ck/fm1iKFNJU8khMLUUt196n8cx580FUORQtOFWjhQtO
KrThQtOFVpwql3mPzDoPlm0F1rt0LcsvKCySj3U3+pHUUG32mouHGJZDUBfn0DIQ73g3nv8AM3Wf
NTfVVX6hoqNWLT42J5EdHnfb1H/Adhm30+kjj3O8u/8AUyW+UPId1qkkdzeo0doxBjiGzy/80r7/
AO3mHr+0xj9MN5fczjC3vvlDyaEVFRFjjjAUsoAWNf5UHjnMykZGzuW96Lb28NvCsMK8UXoP4nIq
qYq7FXYq7FXYq7FXYq7FXYq7FXYq7FUo8zeVdG8x6c9jqkCyxsKKxHxKfEHJ48koHiiaKkPm38wf
yT1zy7K9zpyte6aTVSu7r7e/y6/POi0fa8ZenJse/p+xplj7mI+WPOnmnypeGTSbx7b4v39o45Qu
QRUPE21dqVFGHYjNnm0+PMPUL82AJD27yl/zkT5d1BVt/MVu2lXNAPrMYaa2Y0G+w9SOprtRgB1b
NJn7JnHeB4h9rYMg6vRpb/TtT0wT6XeQ3VvMSFngdZYzxPxAMhI6ihzBxxMZeoVTIixsk0lncJ1S
o8V3zOGQFrMSoEEbHJsU0jHGNB4AZjHmxccULThVo4ULTiq+K1uJv7qNn9wNvvwSmBzKRElL9e1v
y15cTn5g1WCyegItFPq3LA9KRR8mp79MOPjyf3cSfPkGXh97yvzR+f1wQ1t5SsvqKdP0ldhZbk9N
0j+KKP8A4b6M2GLsy98pvyHL9qbA5PL1j1vX9SeQmbUL+Y8pp5GLue1Xdj7dzmwnkx4Y71GKgEvR
vKH5YojrcXgW5uVNaH+4jP0/bP8AnTvnPaztaWT0w9MftbY465vavLfkxY1WWcFEPUkUdx7fyrmn
bGZxRRwxrHEoRFFFUdMVXYq7FXYq7FXYq7FXYq7FXYq7FXYq7FXYq7FVskcciNHIoeNhRkYVBHgQ
cVeb+d/yS8va8Hns0FtdnpQ0+5qH7mBHyzL02tyYfpO3d0YmILwzzP8AlH5n0SZgIjNH+yDRXI9t
+Df7Fvoze6ftjHLafpP2NRxli1tea7od4XtprnTbsbMUZ4Xp4GnGozZ+jIOkh82G4Zpo/wCennex
AS7aDUo6gkzxhHC+CtF6Y+llOYs+zsZ5bMhMsusP+chdGm21XRZogOht3Sev0SCGn35iy7MkPpl+
hlxsutPz0/Ki7QNM1zZMf2JYHqP+RBlGYJ7O1MeVH4/rW4oj/lbv5Ot/0unT2+r3f/VE4Pyeq/m/
aP1oqKx/zd/J9a01iV6dAtvc7/fEMI0eq/mj5j9a1FLL38+fywtmK29rqF8d6Okaolff1JI2/wCF
yyPZ2pPMxH49y+ljep/85J8Q66J5cgiYf3c95IZT9MaKlP8AkZmRDsgn65n4LxDoGEa/+c35ia0G
jl1V7O3b/dFiBbge3NP3pHsXOZuLs7DDlGz57oMyWMWGi6xqsha1t5JyxPKY7LU9eTttX6cuzanH
iHqIH47kCJLNdA/KqWZ1bUJDKR1t4Khf9lIafh9+abUdtdMY+J/U2DH3vWPLH5dqkSxwW6xQD9lB
xSvizdWOaTJllM3I2WwCnomleXLGxVTxEki/ZNKKv+quVpTXFXYq7FXYq7FXYq7FXYq7FXYq7FXY
q7FXYq7FXYq7FXYqsnggnjMU8ayxN9pHAZT9BxViWuflf5b1RCoiENf2GUSx1/1XrT6Dk4ZJQNxN
KQ851z/nHqIlntIvflbSFT/wEnIfdmwxdrZo8zxe9gcYYRqX5LatasQsskf+TNCf+JKf4Zmw7c/n
R+RY+Ekk/wCWXmGMkCS3fwHJ1P8AwyDMmPbWE8xIfj3sfDKHP5d+ZR/uuI/89Bk/5Xwd5+S+GVy/
l15kJoVhUeJk2/AHAe2MHn8l8Mou3/K/WZCBLcwJXsnNz93Fcql23j6CRT4ZTqw/J/kQbiaeUeCI
Ih97c8xcnbkz9MQPfv8AqSMbMNE/KKzQq0OnqzD/AHZIGmPz3qgzAy9o5p85fLZmIAM7038uCoU3
BCgU+FjWnyVdvvOYVsmU2PlrS7RQBH6hHTkBxHyUbYqmoAAoBQDoMVdirsVdirsVdirsVdirsVdi
rsVdirsVdirsVdirsVdirsVdirsVdirsVcQCKEVB6g4qhpdL06X+8to29+IB/DFUK3lnQWNTZp9H
IfqOKtf4X0Ef8ea/e39cVVU0HSE+zbL9JY/rOKoiOxsov7uCNT4hRX78VV8VdirsVdirsVdirsVd
irsVdirsVdirsVdirsVdirsVdirsVdirsVdirsVdirsVdirsVdirsVdirsVdirsVdirsVdirsVdi
rsVdirsVdirsVdirsVf/2Q==</xapGImg:image>

              </rdf:li>

            </rdf:Alt>

          </xap:Thumbnails>

        </rdf:Description>

        <rdf:Description
   rdf:about="uuid:bc9ca7ae-e8d0-4100-a835-6cdddab735be"
   id="Description62">
          <xapMM:DocumentID
   id="DocumentID64">
uuid:ba49724e-26a3-4f81-88df-5d8645e75a7d</xapMM:DocumentID>

        </rdf:Description>

        <rdf:Description
   rdf:about="uuid:bc9ca7ae-e8d0-4100-a835-6cdddab735be"
   id="Description68">
          <dc:format
   id="format70">
image/svg+xml</dc:format>

          <dc:title
   id="title73">
            <rdf:Alt
   id="Alt75">
              <rdf:li
   xml:lang="x-default"
   id="li77">
mime.ai</rdf:li>

            </rdf:Alt>

          </dc:title>

        </rdf:Description>

      <cc:Work
   rdf:about=""
   id="Work238">
  <dc:format
     id="format239">image/svg+xml</dc:format>
  <dc:type
     id="type241"
     rdf:resource="http://purl.org/dc/dcmitype/StillImage" />
</cc:Work>
</rdf:RDF>
</metadata>
</x:xmpmeta>

    <xpacket
   id="xpacket85">end='w'    </xpacket>

  </metadata>
  <g
     id="Layer_1">
    <path
       d="M 22.086000,4.3960000 L 22.086000,4.3960000 C 16.632000,5.0670000 11.767000,7.8230000 8.3850000,12.154000 C 5.0040000,16.484000 3.5110000,21.873000 4.1820000,27.327000 C 4.8530000,32.780000 7.6080000,37.646000 11.939000,41.028000 C 20.880000,48.007000 33.832000,46.413000 40.813000,37.473000 C 44.189000,33.149000 45.678000,27.761000 45.006000,22.300000 C 44.334000,16.841000 41.581000,11.975000 37.257000,8.5980000 C 32.928000,5.2170000 27.539000,3.7250000 22.086000,4.3960000 M 23.817000,25.814000 C 23.507000,25.572000 23.330000,25.206000 23.330000,24.810000 C 23.330000,24.525000 23.422000,24.255000 23.598000,24.031000 C 23.806000,23.763000 24.108000,23.593000 24.446000,23.552000 C 24.782000,23.510000 25.115000,23.602000 25.381000,23.811000 C 25.649000,24.019000 25.819000,24.320000 25.860000,24.657000 C 25.902000,24.995000 25.809000,25.328000 25.601000,25.595000 C 25.170000,26.146000 24.370000,26.245000 23.817000,25.814000 z "
       style="opacity:0.20000000;"
       id="path551" />
    <path
       d="M 21.524000,4.1140000 L 21.524000,4.1140000 C 16.070000,4.7860000 11.205000,7.5410000 7.8230000,11.872000 C 4.4420000,16.202000 2.9490000,21.591000 3.6200000,27.045000 C 4.2910000,32.498000 7.0460000,37.364000 11.377000,40.746000 C 20.318000,47.725000 33.270000,46.131000 40.251000,37.191000 C 43.627000,32.867000 45.116000,27.479000 44.444000,22.018000 C 43.772000,16.559000 41.019000,11.693000 36.695000,8.3160000 C 32.365000,4.9360000 26.977000,3.4430000 21.524000,4.1140000 M 23.255000,25.533000 C 22.945000,25.291000 22.768000,24.925000 22.768000,24.529000 C 22.768000,24.244000 22.860000,23.974000 23.036000,23.750000 C 23.244000,23.482000 23.546000,23.312000 23.884000,23.271000 C 24.220000,23.229000 24.553000,23.321000 24.820000,23.530000 C 25.087000,23.738000 25.257000,24.039000 25.298000,24.376000 C 25.340000,24.714000 25.247000,25.047000 25.039000,25.314000 C 24.607000,25.865000 23.808000,25.964000 23.255000,25.533000 z "
       style="opacity:0.20000000;"
       id="path552" />
    <path
       d="M 21.243000,3.5520000 L 21.243000,3.5520000 C 15.789000,4.2230000 10.923000,6.9790000 7.5420000,11.310000 C 4.1610000,15.640000 2.6680000,21.029000 3.3390000,26.483000 C 4.0100000,31.936000 6.7650000,36.802000 11.096000,40.184000 C 20.037000,47.163000 32.989000,45.569000 39.970000,36.629000 C 43.346000,32.305000 44.835000,26.917000 44.163000,21.456000 C 43.491000,15.997000 40.738000,11.131000 36.414000,7.7540000 C 32.084000,4.3730000 26.695000,2.8810000 21.243000,3.5520000 M 22.974000,24.971000 C 22.664000,24.729000 22.487000,24.363000 22.487000,23.967000 C 22.487000,23.682000 22.579000,23.412000 22.755000,23.188000 C 22.963000,22.920000 23.265000,22.750000 23.603000,22.708000 C 23.939000,22.667000 24.272000,22.759000 24.539000,22.968000 C 24.806000,23.176000 24.976000,23.477000 25.017000,23.814000 C 25.059000,24.152000 24.967000,24.485000 24.759000,24.752000 C 24.326000,25.303000 23.526000,25.401000 22.974000,24.971000 z "
       style="fill:#3a3aa9;"
       id="path553" />
    <linearGradient
       x1="4.6367002"
       y1="23.968800"
       x2="42.875000"
       y2="23.968800"
       id="XMLID_4_"
       gradientUnits="userSpaceOnUse">
      <stop
         style="stop-color:#e6edff;stop-opacity:1.0000000;"
         offset="0.0000000"
         id="stop555" />
      <stop
         style="stop-color:#b3caff;stop-opacity:1.0000000;"
         offset="1.0000000"
         id="stop556" />
      <a:midPointStop
         offset="0"
         style="stop-color:#E6EDFF"
         id="midPointStop557" />
      <a:midPointStop
         offset="0.5"
         style="stop-color:#E6EDFF"
         id="midPointStop558" />
      <a:midPointStop
         offset="1"
         style="stop-color:#B3CAFF"
         id="midPointStop559" />
    </linearGradient>
    <path
       d="M 8.6870000,12.203000 C 2.1890000,20.526000 3.6680000,32.541000 11.990000,39.038000 C 20.313000,45.536000 32.327000,44.058000 38.825000,35.734000 C 45.323000,27.412000 43.843000,15.397000 35.520000,8.8990000 C 27.197000,2.4010000 15.184000,3.8800000 8.6870000,12.203000 M 25.902000,25.645000 C 24.978000,26.830000 23.263000,27.041000 22.079000,26.117000 C 20.896000,25.192000 20.684000,23.478000 21.609000,22.294000 C 22.533000,21.110000 24.248000,20.898000 25.431000,21.823000 C 26.615000,22.746000 26.827000,24.461000 25.902000,25.645000 z "
       style="fill:url(#XMLID_4_);"
       id="path560" />
    <path
       d="M 26.139000,25.342000 C 27.045000,24.182000 26.818000,22.486000 25.635000,21.561000 C 24.451000,20.637000 22.752000,20.830000 21.846000,21.990000 C 21.806000,22.040000 21.771000,22.093000 21.736000,22.146000 C 22.684000,21.096000 24.299000,20.939000 25.431000,21.823000 C 26.563000,22.707000 26.803000,24.313000 26.013000,25.486000 C 26.057000,25.438000 26.100000,25.393000 26.139000,25.342000 M 12.464000,38.431000 C 4.1930000,31.974000 2.5770000,20.202000 8.8080000,12.052000 C 8.7670000,12.103000 8.7260000,12.153000 8.6860000,12.204000 C 2.1880000,20.527000 3.6670000,32.542000 11.989000,39.039000 C 20.312000,45.537000 32.326000,44.059000 38.824000,35.735000 C 38.863000,35.684000 38.902000,35.631000 38.942000,35.581000 C 32.547000,43.602000 20.736000,44.890000 12.464000,38.431000 z "
       style="fill:#ffffff;"
       id="path561" />
    <path
       d="M 35.521000,8.8990000 C 32.739000,6.7270000 29.543000,5.4470000 26.281000,5.0150000 L 25.303000,11.988000 L 24.004000,21.259000 C 24.507000,21.304000 25.004000,21.488000 25.432000,21.822000 C 25.786000,22.099000 26.050000,22.446000 26.227000,22.829000 L 34.765000,19.376000 L 41.433000,16.680000 C 40.213000,13.713000 38.229000,11.014000 35.521000,8.8990000 z "
       style="opacity:0.29999998;fill:#9b95ff;"
       id="path562" />
    <path
       d="M 39.523000,13.150000 C 38.443000,11.575000 37.107000,10.137000 35.520000,8.8990000 C 33.855000,7.5990000 32.042000,6.6190000 30.155000,5.9480000 C 28.585000,10.247000 27.157000,14.157000 27.157000,14.157000 C 27.157000,14.157000 25.945000,17.474000 24.527000,21.358000 C 24.846000,21.452000 25.153000,21.604000 25.432000,21.821000 C 25.629000,21.976000 25.798000,22.154000 25.941000,22.346000 C 30.023000,19.583000 35.765000,15.697000 39.523000,13.150000 z "
       style="opacity:0.69999999;fill:#ffffff;"
       id="path563" />
    <path
       d="M 23.174000,26.626000 C 22.787000,26.542000 22.412000,26.375000 22.079000,26.116000 C 21.674000,25.798000 21.385000,25.387000 21.215000,24.938000 L 12.414000,28.497000 L 6.0100000,31.087000 C 7.2230000,34.121000 9.2290000,36.883000 11.990000,39.038000 C 14.678000,41.137000 17.749000,42.402000 20.896000,42.875000 L 21.876000,35.886000 L 23.174000,26.626000 z "
       style="opacity:0.29999998;fill:#9b95ff;"
       id="path564" />
    <path
       d="M 22.079000,26.116000 C 21.879000,25.958000 21.707000,25.776000 21.563000,25.580000 C 18.089000,27.932000 15.099000,29.957000 15.099000,29.957000 C 15.099000,29.957000 11.724000,32.242000 7.9800000,34.777000 C 9.0630000,36.356000 10.401000,37.798000 11.989000,39.038000 C 13.614000,40.307000 15.379000,41.269000 17.217000,41.938000 C 18.805000,37.590000 21.180000,31.086000 22.844000,26.533000 C 22.575000,26.438000 22.316000,26.301000 22.079000,26.116000 z "
       style="opacity:0.69999999;fill:#ffffff;"
       id="path565" />
    <path
       d="M 18.077000,19.535000 C 15.632000,22.666000 16.191000,27.203000 19.322000,29.648000 C 22.453000,32.093000 26.990000,31.535000 29.433000,28.404000 C 31.878000,25.273000 31.320000,20.736000 28.189000,18.291000 C 25.059000,15.846000 20.522000,16.404000 18.077000,19.535000 M 25.902000,25.645000 C 24.978000,26.830000 23.263000,27.041000 22.079000,26.117000 C 20.896000,25.192000 20.684000,23.478000 21.609000,22.294000 C 22.533000,21.110000 24.248000,20.898000 25.431000,21.823000 C 26.615000,22.746000 26.827000,24.461000 25.902000,25.645000 z "
       style="fill:#9b95ff;"
       id="path566" />
    <path
       d="M 20.044000,21.071000 C 18.447000,23.117000 18.811000,26.083000 20.857000,27.680000 C 22.903000,29.277000 25.869000,28.912000 27.466000,26.867000 C 29.064000,24.820000 28.699000,21.855000 26.652000,20.257000 C 24.606000,18.659000 21.642000,19.024000 20.044000,21.071000 M 25.902000,25.645000 C 24.978000,26.830000 23.263000,27.041000 22.079000,26.117000 C 20.896000,25.192000 20.684000,23.478000 21.609000,22.294000 C 22.533000,21.110000 24.248000,20.898000 25.431000,21.823000 C 26.615000,22.746000 26.827000,24.461000 25.902000,25.645000 z "
       style="fill:#e6e6e6;"
       id="path567" />
    <rect
       width="42.139999"
       height="42.140999"
       x="2.8420000"
       y="2.6320000"
       style="opacity:0.49999997;fill:none;"
       id="rect568" />
    <linearGradient
       x1="23.912600"
       y1="16.236300"
       x2="23.912600"
       y2="8.4939003"
       id="XMLID_5_"
       gradientUnits="userSpaceOnUse">
      <stop
         style="stop-color:#e1e1ff;stop-opacity:1.0000000;"
         offset="0.0000000"
         id="stop570" />
      <stop
         style="stop-color:#ffffff;stop-opacity:1.0000000;"
         offset="1.0000000"
         id="stop571" />
      <a:midPointStop
         offset="0"
         style="stop-color:#E1E1FF"
         id="midPointStop572" />
      <a:midPointStop
         offset="0.5"
         style="stop-color:#E1E1FF"
         id="midPointStop573" />
      <a:midPointStop
         offset="1"
         style="stop-color:#FFFFFF"
         id="midPointStop574" />
    </linearGradient>
    <path
       d="M 23.912000,5.3070000 C 16.114000,5.3070000 9.7690000,9.0990000 9.7690000,13.761000 C 9.7690000,16.899000 12.670000,19.700000 17.131000,21.156000 C 17.371000,20.590000 17.680000,20.043000 18.077000,19.536000 C 20.522000,16.406000 25.058000,15.847000 28.189000,18.291000 C 29.210000,19.090000 29.954000,20.112000 30.413000,21.235000 C 34.989000,19.797000 38.055000,16.924000 38.055000,13.761000 C 38.055000,9.0990000 31.710000,5.3070000 23.912000,5.3070000 z "
       style="opacity:0.69999999;fill:url(#XMLID_5_);"
       id="path575" />
    <g
       style="opacity:0.20000000;"
       id="g576">
      <path
         d="M 45.882000,9.8210000 C 45.725000,9.2430000 45.384000,8.6870000 44.897000,8.2130000 C 44.131000,7.4700000 43.066000,6.9750000 41.725000,6.7420000 C 41.448000,6.6950000 41.152000,6.6570000 40.846000,6.6330000 C 40.584000,6.6120000 40.336000,6.6130000 40.096000,6.6130000 L 39.903000,6.6130000 L 38.126000,6.6110000 L 36.350000,6.6110000 L 35.831000,6.6140000 C 35.447000,6.6180000 35.084000,6.6220000 34.725000,6.6070000 L 34.640000,6.6030000 C 34.431000,6.5900000 34.144000,6.5730000 33.836000,6.6690000 L 33.834000,6.6700000 C 33.466000,6.7850000 33.271000,7.0460000 33.177000,7.1710000 C 33.177000,7.1710000 33.163000,7.1890000 33.163000,7.1900000 L 33.020000,7.3620000 L 32.946000,7.4500000 L 31.800000,8.8130000 L 31.485000,9.1850000 C 31.216000,9.5010000 30.939000,9.8280000 30.672000,10.164000 C 30.672000,10.164000 30.611000,10.243000 30.560000,10.311000 C 30.487000,10.081000 30.413000,9.8500000 30.331000,9.6200000 L 30.148000,9.1130000 C 30.017000,8.7540000 29.893000,8.4150000 29.789000,8.0730000 L 29.748000,7.9310000 C 29.694000,7.7480000 29.634000,7.5400000 29.542000,7.3280000 L 29.546000,7.3360000 L 29.542000,7.3260000 C 29.324000,6.7640000 28.908000,6.6400000 28.679000,6.6160000 L 28.412000,6.6110000 L 28.382000,6.6130000 C 28.380000,6.6130000 17.591000,6.6130000 17.591000,6.6130000 C 17.591000,6.6130000 17.591000,7.0050000 17.591000,7.4240000 C 17.531000,7.4240000 17.470000,7.4240000 17.410000,7.4240000 L 17.410000,7.4220000 C 17.407000,7.4370000 17.403000,7.4520000 17.399000,7.4670000 C 17.035000,7.3770000 16.716000,7.2990000 16.716000,7.2990000 L 16.395000,8.6020000 L 16.380000,8.6530000 C 16.345000,8.7680000 16.293000,8.9410000 16.293000,9.1500000 C 16.293000,9.1500000 16.325000,9.2230000 16.336000,9.2470000 C 16.241000,9.3730000 16.175000,9.5240000 16.150000,9.6950000 L 16.161000,9.6390000 L 16.069000,10.020000 L 15.445000,12.627000 L 15.237000,13.506000 L 15.174000,13.775000 L 15.040000,14.329000 L 15.018000,14.400000 C 14.977000,14.532000 14.915000,14.732000 14.915000,14.965000 L 14.915000,15.865000 L 18.029000,15.865000 L 19.544000,15.869000 L 19.779000,15.870000 C 20.436000,15.872000 21.017000,15.831000 21.555000,15.745000 C 22.734000,15.557000 23.802000,15.181000 24.732000,14.629000 C 25.631000,14.094000 26.313000,13.485000 26.770000,12.813000 C 26.783000,12.846000 27.450000,14.734000 27.450000,14.734000 L 27.622000,15.223000 C 27.756000,15.611000 27.895000,16.012000 28.049000,16.408000 L 28.058000,16.429000 L 28.169000,16.738000 L 28.197000,16.849000 C 28.297000,17.310000 28.679000,17.609000 29.141000,17.592000 L 29.937000,17.114000 C 30.178000,16.820000 30.436000,16.538000 30.709000,16.240000 C 30.709000,16.240000 31.051000,15.864000 31.052000,15.864000 L 32.283000,14.474000 L 32.933000,13.738000 L 33.674000,12.901000 C 33.674000,12.901000 33.796000,12.762000 33.972000,12.565000 C 33.908000,12.839000 33.846000,13.100000 33.846000,13.100000 L 33.641000,13.963000 L 33.587000,14.169000 C 33.530000,14.379000 33.467000,14.617000 33.442000,14.885000 L 33.355000,15.865000 L 37.002000,15.865000 L 37.450000,15.867000 C 38.471000,15.872000 39.528000,15.878000 40.594000,15.647000 C 41.185000,15.520000 41.762000,15.336000 42.308000,15.101000 C 42.914000,14.840000 43.442000,14.506000 43.877000,14.211000 C 44.833000,13.569000 45.550000,12.625000 45.844000,11.621000 C 46.024000,11.014000 46.036000,10.390000 45.882000,9.8210000 M 21.814000,11.999000 C 21.683000,12.073000 21.527000,12.132000 21.334000,12.197000 C 21.066000,12.288000 20.851000,12.345000 20.655000,12.378000 C 20.525000,12.399000 20.389000,12.411000 20.250000,12.420000 C 20.323000,12.113000 20.406000,11.763000 20.406000,11.763000 C 20.406000,11.763000 20.767000,10.236000 20.805000,10.076000 C 21.010000,10.080000 21.212000,10.088000 21.408000,10.109000 C 21.600000,10.130000 22.564000,10.259000 22.618000,10.764000 C 22.621000,10.794000 22.622000,10.823000 22.622000,10.852000 C 22.623000,11.329000 22.215000,11.774000 21.814000,11.999000 M 39.139000,12.382000 C 39.017000,12.400000 38.890000,12.408000 38.764000,12.415000 C 38.787000,12.316000 38.810000,12.217000 38.834000,12.120000 L 38.929000,11.721000 L 39.000000,11.417000 L 39.139000,10.832000 L 39.187000,10.643000 C 39.233000,10.467000 39.279000,10.267000 39.315000,10.059000 C 39.709000,10.074000 40.086000,10.115000 40.438000,10.215000 C 40.739000,10.300000 40.941000,10.406000 41.039000,10.529000 C 41.103000,10.612000 41.138000,10.726000 41.138000,10.854000 C 41.138000,10.864000 41.138000,10.874000 41.138000,10.884000 C 41.121000,11.302000 40.825000,11.713000 40.347000,11.984000 C 40.190000,12.073000 40.009000,12.151000 39.811000,12.215000 C 39.549000,12.300000 39.323000,12.356000 39.139000,12.382000 M 29.182000,17.593000 C 29.167000,17.594000 29.155000,17.592000 29.141000,17.593000 L 29.132000,17.595000 L 29.182000,17.593000 z "
         id="path577" />
    </g>
    <linearGradient
       x1="-210.54539"
       y1="1156.9980"
       x2="-186.93770"
       y2="1139.5234"
       id="XMLID_6_"
       gradientUnits="userSpaceOnUse"
       gradientTransform="matrix(1.000000,0.000000,0.000000,-1.000000,224.5000,1156.500)">
      <stop
         style="stop-color:#0053bd;stop-opacity:1.0000000;"
         offset="0.0000000"
         id="stop579" />
      <stop
         style="stop-color:#00008d;stop-opacity:1.0000000;"
         offset="1.0000000"
         id="stop580" />
      <a:midPointStop
         offset="0"
         style="stop-color:#0053BD"
         id="midPointStop581" />
      <a:midPointStop
         offset="0.5"
         style="stop-color:#0053BD"
         id="midPointStop582" />
      <a:midPointStop
         offset="1"
         style="stop-color:#00008D"
         id="midPointStop583" />
    </linearGradient>
    <path
       d="M 33.834000,5.9650000 C 33.466000,6.0800000 33.271000,6.3410000 33.177000,6.4660000 C 33.177000,6.4660000 33.163000,6.4840000 33.163000,6.4850000 L 33.020000,6.6570000 L 32.946000,6.7450000 L 31.800000,8.1080000 L 31.485000,8.4800000 C 31.216000,8.7960000 30.939000,9.1230000 30.672000,9.4590000 C 30.672000,9.4590000 30.611000,9.5380000 30.560000,9.6060000 C 30.487000,9.3760000 30.413000,9.1450000 30.331000,8.9140000 L 30.148000,8.4070000 C 30.017000,8.0480000 29.893000,7.7100000 29.789000,7.3670000 L 29.748000,7.2250000 C 29.694000,7.0420000 29.634000,6.8340000 29.542000,6.6220000 L 29.546000,6.6300000 L 29.542000,6.6190000 C 29.324000,6.0580000 28.908000,5.9340000 28.679000,5.9090000 L 28.412000,5.9050000 L 28.382000,5.9070000 C 28.380000,5.9070000 17.591000,5.9070000 17.591000,5.9070000 C 17.591000,5.9070000 17.591000,6.3570000 17.591000,6.8070000 C 17.153000,6.7000000 16.716000,6.5920000 16.716000,6.5920000 L 16.395000,7.8950000 L 16.380000,7.9470000 C 16.345000,8.0620000 16.293000,8.2360000 16.293000,8.4440000 C 16.293000,8.4440000 16.325000,8.5170000 16.336000,8.5410000 C 16.241000,8.6670000 16.175000,8.8180000 16.150000,8.9890000 L 16.161000,8.9330000 L 16.069000,9.3140000 L 15.445000,11.921000 L 15.237000,12.800000 L 15.174000,13.069000 L 15.040000,13.624000 L 15.019000,13.696000 C 14.978000,13.828000 14.916000,14.027000 14.916000,14.261000 L 14.916000,15.161000 L 18.030000,15.161000 L 19.545000,15.165000 L 19.780000,15.165000 C 20.437000,15.168000 21.018000,15.126000 21.556000,15.040000 C 22.735000,14.852000 23.803000,14.475000 24.733000,13.923000 C 25.632000,13.389000 26.314000,12.780000 26.771000,12.107000 C 26.784000,12.139000 27.451000,14.028000 27.451000,14.028000 L 27.623000,14.517000 C 27.757000,14.906000 27.896000,15.307000 28.050000,15.703000 L 28.059000,15.724000 L 28.170000,16.032000 L 28.198000,16.143000 C 28.300000,16.618000 28.704000,16.924000 29.183000,16.887000 L 29.133000,16.888000 C 29.133000,16.888000 29.809000,16.603000 29.879000,16.475000 L 29.938000,16.409000 C 30.179000,16.115000 30.437000,15.833000 30.710000,15.535000 C 30.710000,15.535000 31.052000,15.158000 31.053000,15.158000 L 32.284000,13.768000 L 32.934000,13.032000 L 33.675000,12.195000 C 33.675000,12.195000 33.797000,12.057000 33.973000,11.859000 C 33.909000,12.133000 33.847000,12.393000 33.847000,12.393000 L 33.642000,13.257000 L 33.588000,13.462000 C 33.531000,13.672000 33.468000,13.911000 33.443000,14.178000 L 33.356000,15.159000 L 37.003000,15.159000 L 37.451000,15.161000 C 38.472000,15.166000 39.529000,15.171000 40.595000,14.941000 C 41.186000,14.814000 41.763000,14.629000 42.309000,14.395000 C 42.915000,14.135000 43.443000,13.800000 43.878000,13.506000 C 44.834000,12.863000 45.551000,11.920000 45.845000,10.916000 C 46.024000,10.309000 46.035000,9.6860000 45.881000,9.1170000 C 45.724000,8.5390000 45.383000,7.9830000 44.896000,7.5090000 C 44.130000,6.7660000 43.065000,6.2720000 41.724000,6.0390000 C 41.447000,5.9920000 41.151000,5.9540000 40.845000,5.9290000 C 40.583000,5.9080000 40.335000,5.9090000 40.095000,5.9100000 L 39.902000,5.9100000 L 38.125000,5.9080000 L 36.350000,5.9080000 L 35.831000,5.9100000 C 35.447000,5.9140000 35.084000,5.9170000 34.725000,5.9020000 L 34.640000,5.8970000 C 34.431000,5.8840000 34.144000,5.8670000 33.836000,5.9630000 L 33.836000,5.9630000 L 33.834000,5.9650000 M 18.269000,9.9750000 C 18.269000,9.9750000 18.574000,9.9750000 18.811000,9.9750000 C 18.737000,10.288000 18.233000,12.418000 18.233000,12.418000 C 18.233000,12.418000 18.068000,13.127000 18.015000,13.360000 C 17.999000,13.360000 17.465000,13.360000 16.956000,13.360000 C 16.973000,13.290000 16.990000,13.218000 16.990000,13.218000 L 17.199000,12.340000 C 17.199000,12.340000 17.610000,10.619000 17.764000,9.9750000 C 18.008000,9.9750000 18.269000,9.9750000 18.269000,9.9750000 L 18.269000,9.9750000 M 20.406000,11.058000 C 20.406000,11.058000 20.767000,9.5310000 20.805000,9.3710000 C 21.010000,9.3750000 21.212000,9.3830000 21.408000,9.4040000 C 21.600000,9.4250000 22.564000,9.5540000 22.618000,10.059000 C 22.621000,10.088000 22.622000,10.118000 22.622000,10.147000 C 22.622000,10.624000 22.215000,11.069000 21.814000,11.293000 C 21.683000,11.368000 21.527000,11.426000 21.334000,11.492000 C 21.066000,11.583000 20.851000,11.640000 20.655000,11.673000 C 20.525000,11.694000 20.389000,11.706000 20.250000,11.715000 C 20.324000,11.408000 20.406000,11.058000 20.406000,11.058000 L 20.406000,11.058000 M 24.796000,7.7090000 C 24.796000,7.7090000 25.244000,7.7090000 25.427000,7.7090000 C 25.427000,7.9470000 25.427000,8.4200000 25.427000,8.4200000 C 25.427000,8.7140000 25.498000,8.9470000 25.559000,9.1410000 C 25.599000,9.2690000 25.625000,9.4090000 25.640000,9.5800000 C 25.650000,9.6740000 25.654000,9.7680000 25.654000,9.8580000 C 25.654000,10.170000 25.602000,10.451000 25.498000,10.698000 C 25.250000,11.287000 24.667000,11.867000 23.811000,12.375000 C 23.407000,12.616000 22.961000,12.811000 22.486000,12.965000 C 22.556000,12.932000 22.625000,12.904000 22.695000,12.865000 C 23.769000,12.263000 24.424000,11.219000 24.424000,10.145000 C 24.424000,10.053000 24.419000,9.9600000 24.409000,9.8670000 C 24.293000,8.7850000 23.475000,8.0050000 22.183000,7.7080000 C 23.392000,7.7090000 24.796000,7.7090000 24.796000,7.7090000 M 31.187000,11.749000 L 31.436000,11.425000 L 31.603000,11.213000 L 31.812000,10.936000 L 32.082000,10.581000 C 32.332000,10.268000 32.601000,9.9520000 32.859000,9.6460000 L 33.179000,9.2670000 L 34.325000,7.9060000 L 34.389000,7.8310000 C 34.389000,7.8310000 34.444000,7.7630000 34.499000,7.6960000 C 34.510000,7.6960000 34.645000,7.7050000 34.645000,7.7050000 C 34.874000,7.7150000 35.103000,7.7180000 35.330000,7.7180000 C 35.109000,7.8430000 34.970000,8.0170000 34.897000,8.1080000 C 34.897000,8.1080000 34.876000,8.1330000 34.876000,8.1340000 C 34.871000,8.1400000 33.969000,9.1490000 33.969000,9.1490000 L 32.323000,11.004000 L 31.585000,11.840000 L 30.930000,12.580000 L 29.711000,13.955000 C 29.711000,13.955000 29.513000,14.171000 29.436000,14.257000 C 29.398000,14.148000 29.359000,14.042000 29.322000,13.930000 L 29.146000,13.430000 L 27.944000,10.033000 L 27.682000,9.3010000 C 27.682000,9.3010000 27.401000,8.5160000 27.392000,8.4910000 C 27.390000,8.4850000 27.386000,8.4710000 27.386000,8.4710000 C 27.275000,8.0790000 27.097000,7.8490000 26.909000,7.7120000 C 27.442000,7.7120000 27.806000,7.7120000 28.011000,7.7120000 C 28.012000,7.7190000 28.065000,7.8930000 28.065000,7.8930000 C 28.183000,8.2840000 28.322000,8.6620000 28.456000,9.0280000 L 28.632000,9.5150000 C 28.816000,10.035000 28.977000,10.578000 29.133000,11.105000 C 29.187000,11.287000 29.238000,11.481000 29.253000,11.668000 C 29.290000,12.174000 29.708000,12.571000 30.205000,12.571000 L 30.814000,12.504000 L 31.068000,11.939000 C 31.093000,11.886000 31.130000,11.827000 31.187000,11.749000 L 31.185000,11.749000 L 31.187000,11.749000 M 35.598000,12.811000 L 36.012000,11.066000 L 36.174000,10.361000 L 36.241000,10.061000 C 36.241000,10.061000 36.250000,10.023000 36.263000,9.9700000 C 36.418000,9.9720000 36.623000,9.9740000 36.623000,9.9740000 C 36.623000,9.9740000 36.991000,9.9740000 37.321000,9.9740000 C 37.283000,10.137000 37.244000,10.302000 37.244000,10.302000 L 37.176000,10.600000 L 37.081000,10.996000 C 36.969000,11.466000 36.852000,11.954000 36.752000,12.444000 C 36.752000,12.444000 36.612000,13.126000 36.564000,13.361000 C 36.263000,13.361000 36.003000,13.361000 35.467000,13.361000 C 35.527000,13.105000 35.598000,12.811000 35.598000,12.811000 L 35.598000,12.811000 M 38.834000,11.415000 L 38.929000,11.015000 L 39.000000,10.712000 L 39.139000,10.127000 L 39.187000,9.9380000 C 39.233000,9.7620000 39.279000,9.5620000 39.315000,9.3540000 C 39.709000,9.3680000 40.086000,9.4100000 40.438000,9.5100000 C 40.739000,9.5940000 40.941000,9.7000000 41.039000,9.8240000 C 41.103000,9.9070000 41.138000,10.020000 41.138000,10.149000 C 41.138000,10.158000 41.138000,10.168000 41.138000,10.178000 C 41.121000,10.596000 40.825000,11.007000 40.347000,11.278000 C 40.190000,11.367000 40.009000,11.445000 39.811000,11.509000 C 39.550000,11.595000 39.325000,11.652000 39.140000,11.677000 C 39.018000,11.695000 38.891000,11.703000 38.765000,11.710000 C 38.787000,11.611000 38.810000,11.511000 38.834000,11.415000 L 38.834000,11.415000 M 41.233000,12.846000 C 42.257000,12.266000 42.894000,11.296000 42.937000,10.251000 C 42.938000,10.217000 42.939000,10.184000 42.939000,10.149000 C 42.939000,9.6170000 42.768000,9.1090000 42.453000,8.7090000 C 42.109000,8.2730000 41.611000,7.9680000 40.929000,7.7750000 C 40.858000,7.7550000 40.790000,7.7430000 40.720000,7.7270000 C 40.963000,7.7480000 41.197000,7.7760000 41.416000,7.8140000 C 42.391000,7.9830000 43.139000,8.3150000 43.638000,8.8010000 C 43.896000,9.0510000 44.070000,9.3230000 44.142000,9.5900000 C 44.171000,9.6990000 44.186000,9.8160000 44.186000,9.9370000 C 44.186000,10.091000 44.162000,10.249000 44.116000,10.411000 C 43.938000,11.017000 43.485000,11.601000 42.872000,12.013000 C 42.506000,12.260000 42.066000,12.539000 41.597000,12.741000 C 41.399000,12.827000 41.192000,12.902000 40.984000,12.970000 C 41.066000,12.929000 41.154000,12.890000 41.233000,12.846000 L 41.233000,12.846000 z "
       style="fill:url(#XMLID_6_);"
       id="path584" />
    <path
       d="M 17.410000,6.7190000 C 19.812000,6.7190000 22.214000,6.7190000 24.616000,6.7190000 C 25.812000,6.7190000 27.007000,6.7190000 28.203000,6.7190000 C 28.269000,6.7190000 28.336000,6.7100000 28.403000,6.7170000 C 28.483000,6.7250000 28.507000,6.8250000 28.535000,6.8910000 C 28.626000,7.0990000 28.681000,7.3220000 28.747000,7.5390000 C 28.909000,8.0730000 29.116000,8.5960000 29.302000,9.1230000 C 29.492000,9.6630000 29.655000,10.208000 29.817000,10.755000 C 29.891000,11.005000 29.952000,11.250000 29.971000,11.508000 C 29.974000,11.541000 30.002000,11.576000 30.026000,11.576000 C 30.042000,11.529000 30.062000,11.484000 30.084000,11.440000 C 30.138000,11.334000 30.204000,11.233000 30.272000,11.136000 C 30.410000,10.942000 30.564000,10.761000 30.710000,10.571000 C 30.874000,10.358000 31.030000,10.138000 31.197000,9.9270000 C 31.558000,9.4740000 31.938000,9.0380000 32.310000,8.5940000 C 32.692000,8.1400000 33.074000,7.6860000 33.456000,7.2320000 C 33.538000,7.1340000 33.624000,7.0390000 33.701000,6.9370000 C 33.762000,6.8580000 33.823000,6.7640000 33.923000,6.7320000 C 34.105000,6.6750000 34.318000,6.7030000 34.504000,6.7110000 C 35.057000,6.7350000 35.614000,6.7160000 36.168000,6.7160000 C 36.760000,6.7160000 37.351000,6.7160000 37.943000,6.7160000 C 38.535000,6.7160000 39.127000,6.7170000 39.718000,6.7190000 C 40.009000,6.7200000 40.301000,6.7110000 40.592000,6.7340000 C 40.860000,6.7560000 41.125000,6.7880000 41.390000,6.8350000 C 42.366000,7.0040000 43.364000,7.3620000 44.086000,8.0630000 C 44.425000,8.3940000 44.704000,8.8000000 44.829000,9.2610000 C 44.947000,9.6920000 44.924000,10.147000 44.799000,10.572000 C 44.547000,11.431000 43.928000,12.174000 43.194000,12.669000 C 42.737000,12.976000 42.278000,13.259000 41.772000,13.478000 C 41.273000,13.692000 40.754000,13.857000 40.224000,13.971000 C 39.105000,14.213000 37.959000,14.169000 36.822000,14.169000 C 35.935000,14.169000 35.048000,14.169000 34.159000,14.169000 C 34.183000,13.900000 34.274000,13.637000 34.337000,13.375000 C 34.404000,13.088000 34.473000,12.800000 34.541000,12.513000 C 34.679000,11.931000 34.817000,11.349000 34.956000,10.767000 C 35.034000,10.436000 35.108000,10.104000 35.183000,9.7710000 C 35.218000,9.6120000 35.256000,9.4560000 35.298000,9.2980000 C 35.321000,9.2150000 35.340000,9.0930000 35.398000,9.0250000 C 35.426000,8.9900000 35.494000,8.9860000 35.535000,8.9820000 C 35.625000,8.9720000 35.717000,8.9720000 35.807000,8.9740000 C 36.020000,8.9790000 36.232000,8.9840000 36.445000,8.9840000 C 37.052000,8.9840000 37.663000,8.9840000 38.272000,8.9840000 C 38.235000,9.2690000 38.152000,9.5440000 38.084000,9.8220000 C 38.011000,10.118000 37.943000,10.418000 37.873000,10.717000 C 37.729000,11.321000 37.580000,11.925000 37.454000,12.534000 C 38.000000,12.534000 38.545000,12.554000 39.085000,12.478000 C 39.360000,12.439000 39.648000,12.361000 39.911000,12.273000 C 40.154000,12.194000 40.390000,12.094000 40.611000,11.969000 C 41.285000,11.587000 41.826000,10.923000 41.858000,10.122000 C 41.871000,9.7830000 41.779000,9.4420000 41.566000,9.1740000 C 41.305000,8.8420000 40.901000,8.6620000 40.503000,8.5500000 C 39.510000,8.2680000 38.439000,8.3710000 37.418000,8.3760000 C 37.122000,8.3770000 36.827000,8.3780000 36.530000,8.3800000 C 36.388000,8.3800000 36.246000,8.3810000 36.103000,8.3810000 C 35.958000,8.3820000 35.795000,8.3620000 35.652000,8.3860000 C 35.530000,8.4060000 35.446000,8.5520000 35.370000,8.6370000 C 35.266000,8.7540000 35.163000,8.8690000 35.059000,8.9860000 C 34.859000,9.2100000 34.660000,9.4330000 34.459000,9.6560000 C 33.661000,10.548000 32.871000,11.447000 32.077000,12.343000 C 31.451000,13.050000 30.831000,13.762000 30.199000,14.464000 C 29.817000,14.888000 29.420000,15.303000 29.057000,15.744000 C 29.022000,15.787000 28.970000,15.836000 28.950000,15.890000 C 28.949000,15.893000 28.949000,15.894000 28.949000,15.897000 C 28.909000,15.897000 28.905000,15.909000 28.896000,15.865000 C 28.882000,15.802000 28.866000,15.740000 28.846000,15.678000 C 28.806000,15.545000 28.755000,15.415000 28.704000,15.285000 C 28.492000,14.742000 28.310000,14.185000 28.115000,13.637000 C 27.715000,12.505000 27.314000,11.372000 26.914000,10.240000 C 26.790000,9.8910000 26.663000,9.5420000 26.540000,9.1940000 C 26.478000,9.0250000 26.418000,8.8570000 26.357000,8.6880000 C 26.325000,8.5980000 26.279000,8.3290000 26.145000,8.3290000 C 26.145000,8.4880000 26.189000,8.6310000 26.238000,8.7830000 C 26.301000,8.9870000 26.336000,9.1910000 26.355000,9.4040000 C 26.404000,9.9290000 26.351000,10.467000 26.145000,10.957000 C 25.761000,11.867000 24.919000,12.565000 24.089000,13.059000 C 23.214000,13.579000 22.231000,13.900000 21.230000,14.060000 C 20.688000,14.147000 20.147000,14.176000 19.600000,14.173000 C 19.015000,14.172000 18.431000,14.169000 17.846000,14.169000 C 17.250000,14.169000 16.657000,14.169000 16.062000,14.169000 C 15.919000,14.169000 15.777000,14.169000 15.634000,14.169000 C 15.634000,14.035000 15.695000,13.890000 15.729000,13.760000 C 15.803000,13.481000 15.865000,13.198000 15.931000,12.917000 C 16.209000,11.756000 16.484000,10.594000 16.764000,9.4340000 C 16.794000,9.3060000 16.825000,9.1790000 16.856000,9.0520000 C 16.867000,9.0050000 16.855000,8.9830000 16.908000,8.9830000 C 16.945000,8.9830000 16.979000,8.9830000 17.015000,8.9830000 C 17.087000,8.9830000 17.158000,8.9830000 17.229000,8.9830000 C 17.516000,8.9830000 17.802000,8.9830000 18.088000,8.9830000 C 18.648000,8.9830000 19.208000,8.9830000 19.768000,8.9830000 C 19.487000,10.165000 19.207000,11.350000 18.927000,12.532000 C 19.492000,12.532000 20.063000,12.561000 20.620000,12.468000 C 20.900000,12.423000 21.174000,12.343000 21.441000,12.252000 C 21.659000,12.178000 21.872000,12.100000 22.072000,11.988000 C 22.818000,11.571000 23.427000,10.762000 23.332000,9.8720000 C 23.227000,8.8820000 22.180000,8.5090000 21.324000,8.4170000 C 20.806000,8.3600000 20.283000,8.3740000 19.763000,8.3750000 C 19.168000,8.3770000 18.574000,8.3750000 17.979000,8.3750000 C 17.752000,8.3750000 17.525000,8.3750000 17.298000,8.3750000 C 17.250000,8.3750000 17.202000,8.3750000 17.155000,8.3750000 C 17.115000,8.3750000 17.011000,8.3960000 17.011000,8.3530000 C 17.011000,8.2460000 17.061000,8.1240000 17.087000,8.0210000 C 17.194000,7.5860000 17.301000,7.1520000 17.408000,6.7170000"
       style="fill:#ffffff;"
       id="path585" />
    <polyline
       id="_x3C_Slice_x3E_"
       style="fill:none;"
       points="0,48 0,0 48,0 48,48 " />
  </g>
</svg>
