<?xml version="1.0" encoding="UTF-8" standalone="no"?>
<!DOCTYPE svg PUBLIC "-//W3C//DTD SVG 20010904//EN"
"http://www.w3.org/TR/2001/REC-SVG-20010904/DTD/svg10.dtd">
<!-- Created with Sodipodi ("http://www.sodipodi.com/") -->
<svg
   width="48pt"
   height="48pt"
   viewBox="0 0 256 256"
   style="overflow:visible;enable-background:new 0 0 256 256"
   xml:space="preserve"
   xmlns="http://www.w3.org/2000/svg"
   xmlns:xml="http://www.w3.org/XML/1998/namespace"
   xmlns:a="http://ns.adobe.com/AdobeSVGViewerExtensions/3.0/"
   xmlns:sodipodi="http://sodipodi.sourceforge.net/DTD/sodipodi-0.dtd"
   xmlns:xlink="http://www.w3.org/1999/xlink"
   id="svg4201"
   sodipodi:version="0.32"
   sodipodi:docname="/home/david/Documenti/Progetti/add2cvs/gnome-mime-application-x-gnome-app-info.svgz"
   sodipodi:docbase="/home/david/Documenti/Progetti/add2cvs/">
  <defs
     id="defs4444" />
  <sodipodi:namedview
     id="base" />
  <g
     id="Layer_1"
     style="stroke:#000000;">
    <path
       style="opacity:0.2;stroke:none;"
       d="M44,15.5c-9.374,0-17,7.626-17,17v200c0,9.374,7.626,17,17,17h176c9.375,0,17-7.626,17-17v-200    c0-9.374-7.625-17-17-17H44z"
       id="path4203" />
    <path
       style="opacity:0.2;stroke:none;"
       d="M42,13.5c-9.374,0-17,7.626-17,17v200c0,9.374,7.626,17,17,17h176c9.375,0,17-7.626,17-17v-200    c0-9.374-7.625-17-17-17H42z"
       id="path4204" />
    <path
       style="opacity:0.2;stroke:none;"
       d="M40,12.5c-9.374,0-17,7.626-17,17v200c0,9.374,7.626,17,17,17h176c9.375,0,17-7.626,17-17v-200    c0-9.374-7.625-17-17-17H40z"
       id="path4205" />
    <linearGradient
       id="XMLID_1_"
       gradientUnits="userSpaceOnUse"
       x1="128.9995"
       y1="11"
       x2="128.9995"
       y2="245.0005">
      <stop
         offset="0"
         style="stop-color:#494949"
         id="stop4207" />
      <stop
         offset="1"
         style="stop-color:#000000"
         id="stop4208" />
      <a:midPointStop
         offset="0"
         style="stop-color:#494949"
         id="midPointStop4209" />
      <a:midPointStop
         offset="0.5"
         style="stop-color:#494949"
         id="midPointStop4210" />
      <a:midPointStop
         offset="1"
         style="stop-color:#000000"
         id="midPointStop4211" />
    </linearGradient>
    <path
       style="fill:url(#XMLID_1_);stroke:none;"
       d="M41,11c-9.374,0-17,7.626-17,17v200c0,9.374,7.626,17,17,17h176c9.375,0,17-7.626,17-17V28    c0-9.374-7.625-17-17-17H41z"
       id="path4212" />
    <path
       style="fill:#FFFFFF;stroke:none;"
       d="M28,228c0,6.627,5.373,12,12,12h176c6.627,0,12-5.373,12-12V28c0-6.627-5.373-12-12-12H40    c-6.627,0-12,5.373-12,12V228z"
       id="path4213" />
    <linearGradient
       id="XMLID_2_"
       gradientUnits="userSpaceOnUse"
       x1="29.0532"
       y1="29.0532"
       x2="226.9471"
       y2="226.9471">
      <stop
         offset="0"
         style="stop-color:#FFFFFF"
         id="stop4215" />
      <stop
         offset="1"
         style="stop-color:#DADADA"
         id="stop4216" />
      <a:midPointStop
         offset="0"
         style="stop-color:#FFFFFF"
         id="midPointStop4217" />
      <a:midPointStop
         offset="0.5"
         style="stop-color:#FFFFFF"
         id="midPointStop4218" />
      <a:midPointStop
         offset="1"
         style="stop-color:#DADADA"
         id="midPointStop4219" />
    </linearGradient>
    <path
       style="fill:url(#XMLID_2_);stroke:none;"
       d="M40,21c-3.86,0-7,3.14-7,7v200c0,3.859,3.14,7,7,7h176c3.859,0,7-3.141,7-7V28c0-3.86-3.141-7-7-7H40z"
       id="path4220" />
    <path
       style="fill:none;stroke:none;"
       d="M256,256H0V0h256V256z"
       id="path4221" />
    <path
       style="opacity:0.2;stroke:none;"
       d="M59.487,130.361c0,38.429,31.266,69.695,69.695,69.695c38.428,0,69.693-31.267,69.693-69.695    c0-38.429-31.266-69.693-69.693-69.693C90.753,60.668,59.487,91.932,59.487,130.361z"
       id="path4222" />
    <path
       style="opacity:0.2;stroke:none;"
       d="M58.897,129.181c0,38.43,31.265,69.692,69.693,69.692c38.431,0,69.694-31.263,69.694-69.692    s-31.264-69.695-69.694-69.695C90.162,59.486,58.897,90.751,58.897,129.181z"
       id="path4223" />
    <radialGradient
       id="XMLID_3_"
       cx="-8.0923"
       cy="85.7422"
       r="91.7716"
       fx="-8.0923"
       fy="85.7422"
       gradientTransform="matrix(1.5636 0 0 1.5636 94.9616 -45.3323)"
       gradientUnits="userSpaceOnUse">
      <stop
         offset="0"
         style="stop-color:#00008D"
         id="stop4225" />
      <stop
         offset="0.6404"
         style="stop-color:#0053BD"
         id="stop4226" />
      <stop
         offset="1"
         style="stop-color:#00008D"
         id="stop4227" />
      <a:midPointStop
         offset="0"
         style="stop-color:#00008D"
         id="midPointStop4228" />
      <a:midPointStop
         offset="0.5"
         style="stop-color:#00008D"
         id="midPointStop4229" />
      <a:midPointStop
         offset="0.6404"
         style="stop-color:#0053BD"
         id="midPointStop4230" />
      <a:midPointStop
         offset="0.5"
         style="stop-color:#0053BD"
         id="midPointStop4231" />
      <a:midPointStop
         offset="1"
         style="stop-color:#00008D"
         id="midPointStop4232" />
    </radialGradient>
    <path
       style="fill:url(#XMLID_3_);stroke:none;"
       d="M58.307,127.999c0,38.429,31.265,69.693,69.694,69.693c38.429,0,69.694-31.265,69.694-69.693    c0-38.43-31.266-69.694-69.694-69.694C89.571,58.305,58.307,89.569,58.307,127.999z"
       id="path4233" />
    <radialGradient
       id="XMLID_4_"
       cx="21.1299"
       cy="142.2754"
       r="82.179"
       fx="21.1299"
       fy="142.2754"
       gradientTransform="matrix(1.5636 0 0 1.5636 94.9616 -45.3323)"
       gradientUnits="userSpaceOnUse">
      <stop
         offset="0"
         style="stop-color:#FFFFFF"
         id="stop4235" />
      <stop
         offset="0.6517"
         style="stop-color:#94CAFF"
         id="stop4236" />
      <stop
         offset="0.8258"
         style="stop-color:#034CFE"
         id="stop4237" />
      <a:midPointStop
         offset="0"
         style="stop-color:#FFFFFF"
         id="midPointStop4238" />
      <a:midPointStop
         offset="0.5"
         style="stop-color:#FFFFFF"
         id="midPointStop4239" />
      <a:midPointStop
         offset="0.6517"
         style="stop-color:#94CAFF"
         id="midPointStop4240" />
      <a:midPointStop
         offset="0.5"
         style="stop-color:#94CAFF"
         id="midPointStop4241" />
      <a:midPointStop
         offset="0.8258"
         style="stop-color:#034CFE"
         id="midPointStop4242" />
    </radialGradient>
    <path
       style="fill:url(#XMLID_4_);stroke:none;"
       d="M62.44,127.999c0,36.151,29.411,65.56,65.561,65.56s65.559-29.408,65.559-65.56    c0-36.15-29.409-65.559-65.559-65.559S62.44,91.849,62.44,127.999z"
       id="path4243" />
    <radialGradient
       id="XMLID_5_"
       cx="21.1299"
       cy="142.2773"
       r="82.1788"
       fx="21.1299"
       fy="142.2773"
       gradientTransform="matrix(1.5636 0 0 1.5636 94.9616 -45.3323)"
       gradientUnits="userSpaceOnUse">
      <stop
         offset="0"
         style="stop-color:#94CAFF"
         id="stop4245" />
      <stop
         offset="0.4944"
         style="stop-color:#428AFF"
         id="stop4246" />
      <stop
         offset="0.618"
         style="stop-color:#006DFF"
         id="stop4247" />
      <stop
         offset="0.764"
         style="stop-color:#0035ED"
         id="stop4248" />
      <a:midPointStop
         offset="0"
         style="stop-color:#94CAFF"
         id="midPointStop4249" />
      <a:midPointStop
         offset="0.5"
         style="stop-color:#94CAFF"
         id="midPointStop4250" />
      <a:midPointStop
         offset="0.4944"
         style="stop-color:#428AFF"
         id="midPointStop4251" />
      <a:midPointStop
         offset="0.5"
         style="stop-color:#428AFF"
         id="midPointStop4252" />
      <a:midPointStop
         offset="0.618"
         style="stop-color:#006DFF"
         id="midPointStop4253" />
      <a:midPointStop
         offset="0.5"
         style="stop-color:#006DFF"
         id="midPointStop4254" />
      <a:midPointStop
         offset="0.764"
         style="stop-color:#0035ED"
         id="midPointStop4255" />
    </radialGradient>
    <path
       style="fill:url(#XMLID_5_);stroke:none;"
       d="M63.622,127.999c0,35.5,28.88,64.378,64.379,64.378s64.378-28.878,64.378-64.378    c0-35.5-28.879-64.377-64.378-64.377S63.622,92.5,63.622,127.999z"
       id="path4256" />
    <radialGradient
       id="XMLID_6_"
       cx="21.1304"
       cy="78.5205"
       r="46.4358"
       fx="21.1304"
       fy="78.5205"
       gradientTransform="matrix(1.5636 0 0 1.465 94.9616 -43.1178)"
       gradientUnits="userSpaceOnUse">
      <stop
         offset="0"
         style="stop-color:#FFFFFF"
         id="stop4258" />
      <stop
         offset="0.1131"
         style="stop-color:#FBFDFF"
         id="stop4259" />
      <stop
         offset="0.2198"
         style="stop-color:#F0F6FF"
         id="stop4260" />
      <stop
         offset="0.324"
         style="stop-color:#DDEAFF"
         id="stop4261" />
      <stop
         offset="0.4265"
         style="stop-color:#C2D9FF"
         id="stop4262" />
      <stop
         offset="0.528"
         style="stop-color:#9FC4FF"
         id="stop4263" />
      <stop
         offset="0.6286"
         style="stop-color:#75AAFF"
         id="stop4264" />
      <stop
         offset="0.7268"
         style="stop-color:#448BFF"
         id="stop4265" />
      <stop
         offset="0.7303"
         style="stop-color:#428AFF"
         id="stop4266" />
      <a:midPointStop
         offset="0"
         style="stop-color:#FFFFFF"
         id="midPointStop4267" />
      <a:midPointStop
         offset="0.7192"
         style="stop-color:#FFFFFF"
         id="midPointStop4268" />
      <a:midPointStop
         offset="0.7303"
         style="stop-color:#428AFF"
         id="midPointStop4269" />
    </radialGradient>
    <path
       style="fill:url(#XMLID_6_);stroke:none;"
       d="M177.452,86.912c-11.031-14.448-29.088-23.882-49.451-23.882c-20.364,0-38.42,9.434-49.453,23.882    c-0.125,1.022-0.193,2.06-0.193,3.106c0,19.459,22.228,35.234,49.646,35.234c27.418,0,49.646-15.775,49.646-35.234    C177.647,88.972,177.578,87.935,177.452,86.912z"
       id="path4270" />
    <linearGradient
       id="XMLID_7_"
       gradientUnits="userSpaceOnUse"
       x1="126.3882"
       y1="109.3296"
       x2="126.3882"
       y2="87.1597">
      <stop
         offset="0"
         style="stop-color:#7D7D99"
         id="stop4272" />
      <stop
         offset="1"
         style="stop-color:#B1B1C5"
         id="stop4273" />
      <a:midPointStop
         offset="0"
         style="stop-color:#7D7D99"
         id="midPointStop4274" />
      <a:midPointStop
         offset="0.5"
         style="stop-color:#7D7D99"
         id="midPointStop4275" />
      <a:midPointStop
         offset="1"
         style="stop-color:#B1B1C5"
         id="midPointStop4276" />
    </linearGradient>
    <path
       style="fill:url(#XMLID_7_);stroke:none;"
       d="M132.995,98.359c-1.252,5.954-3.751,10.97-7.021,10.97c-3.508,0-5.263-4.667-6.516-10.503    c-1.29-6.004,3.226-11.667,7.934-11.667C132.102,87.158,134.261,92.353,132.995,98.359z"
       id="path4277" />
    <linearGradient
       id="XMLID_8_"
       gradientUnits="userSpaceOnUse"
       x1="126.3159"
       y1="109.3301"
       x2="126.3159"
       y2="87.1615">
      <stop
         offset="0"
         style="stop-color:#B1B1C5"
         id="stop4279" />
      <stop
         offset="0.4"
         style="stop-color:#CECEDB"
         id="stop4280" />
      <stop
         offset="1"
         style="stop-color:#FFFFFF"
         id="stop4281" />
      <a:midPointStop
         offset="0"
         style="stop-color:#B1B1C5"
         id="midPointStop4282" />
      <a:midPointStop
         offset="0.5"
         style="stop-color:#B1B1C5"
         id="midPointStop4283" />
      <a:midPointStop
         offset="0.4"
         style="stop-color:#CECEDB"
         id="midPointStop4284" />
      <a:midPointStop
         offset="0.5"
         style="stop-color:#CECEDB"
         id="midPointStop4285" />
      <a:midPointStop
         offset="1"
         style="stop-color:#FFFFFF"
         id="midPointStop4286" />
    </linearGradient>
    <path
       style="fill:url(#XMLID_8_);stroke:none;"
       d="M127.395,90.138h-0.002c-1.202,0-2.531,0.755-3.553,2.02c-1.369,1.695-1.918,3.954-1.469,6.043    c1.665,7.757,3.295,8.15,3.604,8.15c0.677,0,2.817-2.476,4.107-8.606c0.706-3.356,0.04-5.682-0.817-6.739    C128.784,90.413,128.189,90.138,127.395,90.138z"
       id="path4287" />
    <linearGradient
       id="XMLID_9_"
       gradientUnits="userSpaceOnUse"
       x1="106.2305"
       y1="115.3999"
       x2="106.2305"
       y2="95.7593">
      <stop
         offset="0"
         style="stop-color:#7D7D99"
         id="stop4289" />
      <stop
         offset="1"
         style="stop-color:#B1B1C5"
         id="stop4290" />
      <a:midPointStop
         offset="0"
         style="stop-color:#7D7D99"
         id="midPointStop4291" />
      <a:midPointStop
         offset="0.5"
         style="stop-color:#7D7D99"
         id="midPointStop4292" />
      <a:midPointStop
         offset="1"
         style="stop-color:#B1B1C5"
         id="midPointStop4293" />
    </linearGradient>
    <path
       style="fill:url(#XMLID_9_);stroke:none;"
       d="M112.85,104.271c0.032,5.524-1.252,10.472-4.226,11.129c-3.188,0.71-5.7-3.073-7.986-7.986    c-2.352-5.06-0.647-10.705,3.631-11.654C108.55,94.813,112.823,98.694,112.85,104.271z"
       id="path4294" />
    <linearGradient
       id="XMLID_10_"
       gradientUnits="userSpaceOnUse"
       x1="106.2114"
       y1="115.3999"
       x2="106.2114"
       y2="95.7584">
      <stop
         offset="0"
         style="stop-color:#B1B1C5"
         id="stop4296" />
      <stop
         offset="0.4"
         style="stop-color:#CECEDB"
         id="stop4297" />
      <stop
         offset="1"
         style="stop-color:#FFFFFF"
         id="stop4298" />
      <a:midPointStop
         offset="0"
         style="stop-color:#B1B1C5"
         id="midPointStop4299" />
      <a:midPointStop
         offset="0.5"
         style="stop-color:#B1B1C5"
         id="midPointStop4300" />
      <a:midPointStop
         offset="0.4"
         style="stop-color:#CECEDB"
         id="midPointStop4301" />
      <a:midPointStop
         offset="0.5"
         style="stop-color:#CECEDB"
         id="midPointStop4302" />
      <a:midPointStop
         offset="1"
         style="stop-color:#FFFFFF"
         id="midPointStop4303" />
    </linearGradient>
    <path
       style="fill:url(#XMLID_10_);stroke:none;"
       d="M104.914,98.667c-0.786,0.175-1.401,0.702-1.828,1.565c-0.357,0.725-0.535,1.583-0.535,2.495    c0,1.113,0.265,2.307,0.787,3.432c3.02,6.489,4.482,6.371,4.639,6.335c0.414-0.092,1.929-2.374,1.896-8.206    c-0.011-1.998-0.799-3.814-2.11-4.861C107.253,99.02,106.207,98.381,104.914,98.667z"
       id="path4304" />
    <linearGradient
       id="XMLID_11_"
       gradientUnits="userSpaceOnUse"
       x1="91.9775"
       y1="124.5293"
       x2="91.9775"
       y2="108.52">
      <stop
         offset="0"
         style="stop-color:#7D7D99"
         id="stop4306" />
      <stop
         offset="1"
         style="stop-color:#B1B1C5"
         id="stop4307" />
      <a:midPointStop
         offset="0"
         style="stop-color:#7D7D99"
         id="midPointStop4308" />
      <a:midPointStop
         offset="0.5"
         style="stop-color:#7D7D99"
         id="midPointStop4309" />
      <a:midPointStop
         offset="1"
         style="stop-color:#B1B1C5"
         id="midPointStop4310" />
    </linearGradient>
    <path
       style="fill:url(#XMLID_11_);stroke:none;"
       d="M97.331,114.229c1.197,4.525,1.195,8.857-1.105,10.03c-2.464,1.257-5.327-1.314-8.246-4.86    c-3.004-3.652-2.804-8.642,0.504-10.331C91.793,107.381,96.123,109.658,97.331,114.229z"
       id="path4311" />
    <linearGradient
       id="XMLID_12_"
       gradientUnits="userSpaceOnUse"
       x1="91.9902"
       y1="124.5293"
       x2="91.9902"
       y2="108.52">
      <stop
         offset="0"
         style="stop-color:#B1B1C5"
         id="stop4313" />
      <stop
         offset="0.4"
         style="stop-color:#CECEDB"
         id="stop4314" />
      <stop
         offset="1"
         style="stop-color:#FFFFFF"
         id="stop4315" />
      <a:midPointStop
         offset="0"
         style="stop-color:#B1B1C5"
         id="midPointStop4316" />
      <a:midPointStop
         offset="0.5"
         style="stop-color:#B1B1C5"
         id="midPointStop4317" />
      <a:midPointStop
         offset="0.4"
         style="stop-color:#CECEDB"
         id="midPointStop4318" />
      <a:midPointStop
         offset="0.5"
         style="stop-color:#CECEDB"
         id="midPointStop4319" />
      <a:midPointStop
         offset="1"
         style="stop-color:#FFFFFF"
         id="midPointStop4320" />
    </linearGradient>
    <path
       style="fill:url(#XMLID_12_);stroke:none;"
       d="M89.837,111.72c-0.479,0.246-0.792,0.704-0.93,1.363c-0.046,0.221-0.072,0.471-0.072,0.743    c0,1.034,0.375,2.383,1.443,3.682c2.967,3.604,4.213,4.039,4.53,4.088c0.167-0.249,0.337-0.886,0.337-1.982    c0-1.11-0.173-2.653-0.694-4.622c-0.396-1.505-1.336-2.717-2.511-3.244C91.416,111.514,90.626,111.319,89.837,111.72z"
       id="path4321" />
    <linearGradient
       id="XMLID_13_"
       gradientUnits="userSpaceOnUse"
       x1="156.0283"
       y1="113.1812"
       x2="156.0283"
       y2="82.7681">
      <stop
         offset="0"
         style="stop-color:#7D7D99"
         id="stop4323" />
      <stop
         offset="1"
         style="stop-color:#B1B1C5"
         id="stop4324" />
      <a:midPointStop
         offset="0"
         style="stop-color:#7D7D99"
         id="midPointStop4325" />
      <a:midPointStop
         offset="0.5"
         style="stop-color:#7D7D99"
         id="midPointStop4326" />
      <a:midPointStop
         offset="1"
         style="stop-color:#B1B1C5"
         id="midPointStop4327" />
    </linearGradient>
    <path
       style="fill:url(#XMLID_13_);stroke:none;"
       d="M152.135,112.599c-4.437,0.933-7.002,1.166-9.104-1.635c-1.69-2.255-1.512-15.08,3.969-21.474    c8.404-9.801,19.797-6.256,20.539-5.601C177.341,92.525,156.569,111.664,152.135,112.599z"
       id="path4328" />
    <linearGradient
       id="XMLID_14_"
       gradientUnits="userSpaceOnUse"
       x1="156.1094"
       y1="113.1802"
       x2="156.1094"
       y2="82.7683">
      <stop
         offset="0"
         style="stop-color:#B1B1C5"
         id="stop4330" />
      <stop
         offset="0.4"
         style="stop-color:#CECEDB"
         id="stop4331" />
      <stop
         offset="1"
         style="stop-color:#FFFFFF"
         id="stop4332" />
      <a:midPointStop
         offset="0"
         style="stop-color:#B1B1C5"
         id="midPointStop4333" />
      <a:midPointStop
         offset="0.5"
         style="stop-color:#B1B1C5"
         id="midPointStop4334" />
      <a:midPointStop
         offset="0.4"
         style="stop-color:#CECEDB"
         id="midPointStop4335" />
      <a:midPointStop
         offset="0.5"
         style="stop-color:#CECEDB"
         id="midPointStop4336" />
      <a:midPointStop
         offset="1"
         style="stop-color:#FFFFFF"
         id="midPointStop4337" />
    </linearGradient>
    <path
       style="fill:url(#XMLID_14_);stroke:none;"
       d="M149.259,91.429c-3.207,3.742-4.195,10.167-4.195,14.281c0,1.7,0.17,2.992,0.42,3.552    c0.846,1.09,1.598,1.355,6.038,0.422c2.271-0.655,13.636-10.313,15.427-18.284c0.145-0.646,0.208-1.217,0.208-1.727    c0-1.695-0.692-2.67-1.358-3.318C163.938,85.622,155.562,84.079,149.259,91.429z"
       id="path4338" />
    <linearGradient
       id="XMLID_15_"
       gradientUnits="userSpaceOnUse"
       x1="125.1108"
       y1="187.4043"
       x2="125.1108"
       y2="117.668">
      <stop
         offset="0"
         style="stop-color:#7D7D99"
         id="stop4340" />
      <stop
         offset="1"
         style="stop-color:#B1B1C5"
         id="stop4341" />
      <a:midPointStop
         offset="0"
         style="stop-color:#7D7D99"
         id="midPointStop4342" />
      <a:midPointStop
         offset="0.5"
         style="stop-color:#7D7D99"
         id="midPointStop4343" />
      <a:midPointStop
         offset="1"
         style="stop-color:#B1B1C5"
         id="midPointStop4344" />
    </linearGradient>
    <path
       style="fill:url(#XMLID_15_);stroke:none;"
       d="M154.003,123.333c1.165,2.802,4.2,11.437-0.469,16.108c-4.668,4.667-28.474,17.036-30.809,21.47    c-2.332,4.437,0.468,10.035,3.969,12.139c3.5,2.1,7.703,1.165,9.337-0.933c1.631-2.104,0.232-8.404,3.265-10.038    c3.035-1.635,14.473-3.5,17.273-0.935c2.799,2.57,0.699,8.171-0.701,10.271c-1.399,2.101-9.804,18.905-30.574,15.638    c-20.774-3.271-32.911-27.775-32.911-36.412c0-8.633,2.249-27.444,31.744-31.975C150.778,114.571,154.003,123.333,154.003,123.333    z"
       id="path4345" />
    <linearGradient
       id="XMLID_16_"
       gradientUnits="userSpaceOnUse"
       x1="125.0786"
       y1="187.4004"
       x2="125.0786"
       y2="117.664">
      <stop
         offset="0"
         style="stop-color:#B1B1C5"
         id="stop4347" />
      <stop
         offset="0.4"
         style="stop-color:#CECEDB"
         id="stop4348" />
      <stop
         offset="1"
         style="stop-color:#FFFFFF"
         id="stop4349" />
      <a:midPointStop
         offset="0"
         style="stop-color:#B1B1C5"
         id="midPointStop4350" />
      <a:midPointStop
         offset="0.5"
         style="stop-color:#B1B1C5"
         id="midPointStop4351" />
      <a:midPointStop
         offset="0.4"
         style="stop-color:#CECEDB"
         id="midPointStop4352" />
      <a:midPointStop
         offset="0.5"
         style="stop-color:#CECEDB"
         id="midPointStop4353" />
      <a:midPointStop
         offset="1"
         style="stop-color:#FFFFFF"
         id="midPointStop4354" />
    </linearGradient>
    <path
       style="fill:url(#XMLID_16_);stroke:none;"
       d="M124.579,121.61c-19.388,2.978-29.218,12.746-29.218,29.031c0,6.916,11.115,30.435,30.396,33.469    c11.497,1.809,20.635-2.76,27.158-13.58l0.473-0.765c1.17-1.755,2.197-5.481,1.166-6.429c-1.673-1.161-11.257-0.033-13.844,1.362    c-0.404,0.393-0.616,2.544-0.718,3.579c-0.201,2.025-0.408,4.116-1.608,5.664c-2.449,3.146-8.199,4.674-13.221,1.661    c-3.556-2.138-6.265-6.626-6.265-11.163c0-1.67,0.366-3.347,1.191-4.916c1.53-2.906,6.992-6.488,18.232-13.422    c5.564-3.431,11.318-6.979,13.107-8.768c1.228-1.229,1.646-2.998,1.646-4.844c0-3.348-1.375-6.933-1.806-7.972    C151.186,124.368,147.417,118.101,124.579,121.61z"
       id="path4355" />
    <linearGradient
       id="XMLID_17_"
       gradientUnits="userSpaceOnUse"
       x1="129.1426"
       y1="88.0718"
       x2="129.1426"
       y2="109.9204">
      <stop
         offset="0"
         style="stop-color:#428AFF"
         id="stop4357" />
      <stop
         offset="1"
         style="stop-color:#C9E6FF"
         id="stop4358" />
      <a:midPointStop
         offset="0"
         style="stop-color:#428AFF"
         id="midPointStop4359" />
      <a:midPointStop
         offset="0.5"
         style="stop-color:#428AFF"
         id="midPointStop4360" />
      <a:midPointStop
         offset="1"
         style="stop-color:#C9E6FF"
         id="midPointStop4361" />
    </linearGradient>
    <path
       style="fill:url(#XMLID_17_);stroke:none;"
       d="M129.851,88.072c2.528,1.745,3.503,5.789,2.554,10.288c-1.253,5.954-3.751,10.97-7.02,10.97    c-0.365,0-0.706-0.062-1.035-0.159c0.652,0.479,1.384,0.75,2.216,0.75c3.27,0,5.768-5.017,7.02-10.971    C134.67,93.808,133.237,89.274,129.851,88.072z"
       id="path4362" />
    <linearGradient
       id="XMLID_18_"
       gradientUnits="userSpaceOnUse"
       x1="109.8413"
       y1="96.6396"
       x2="109.8413"
       y2="115.9902">
      <stop
         offset="0"
         style="stop-color:#428AFF"
         id="stop4364" />
      <stop
         offset="1"
         style="stop-color:#C9E6FF"
         id="stop4365" />
      <a:midPointStop
         offset="0"
         style="stop-color:#428AFF"
         id="midPointStop4366" />
      <a:midPointStop
         offset="0.5"
         style="stop-color:#428AFF"
         id="midPointStop4367" />
      <a:midPointStop
         offset="1"
         style="stop-color:#C9E6FF"
         id="midPointStop4368" />
    </linearGradient>
    <path
       style="fill:url(#XMLID_18_);stroke:none;"
       d="M108.376,96.64c2.241,1.419,3.866,4.202,3.883,7.631c0.032,5.524-1.252,10.472-4.226,11.129    c-0.621,0.138-1.217,0.101-1.791-0.078c0.928,0.634,1.913,0.904,2.973,0.668c2.973-0.656,4.258-5.604,4.226-11.129    C113.421,100.854,111.206,97.735,108.376,96.64z"
       id="path4369" />
    <linearGradient
       id="XMLID_19_"
       gradientUnits="userSpaceOnUse"
       x1="95.8701"
       y1="109.4839"
       x2="95.8701"
       y2="125.1313">
      <stop
         offset="0"
         style="stop-color:#428AFF"
         id="stop4371" />
      <stop
         offset="1"
         style="stop-color:#C9E6FF"
         id="stop4372" />
      <a:midPointStop
         offset="0"
         style="stop-color:#428AFF"
         id="midPointStop4373" />
      <a:midPointStop
         offset="0.5"
         style="stop-color:#428AFF"
         id="midPointStop4374" />
      <a:midPointStop
         offset="1"
         style="stop-color:#C9E6FF"
         id="midPointStop4375" />
    </linearGradient>
    <path
       style="fill:url(#XMLID_19_);stroke:none;"
       d="M97.921,114.819c-0.71-2.688-2.503-4.574-4.53-5.335c1.518,0.962,2.781,2.595,3.35,4.745    c1.197,4.525,1.194,8.857-1.104,10.03c-0.818,0.417-1.681,0.405-2.575,0.083c1.317,0.83,2.583,1.105,3.757,0.506    C99.115,123.678,99.118,119.344,97.921,114.819z"
       id="path4376" />
    <linearGradient
       id="XMLID_20_"
       gradientUnits="userSpaceOnUse"
       x1="157.7598"
       y1="84.041"
       x2="157.7598"
       y2="113.8193">
      <stop
         offset="0"
         style="stop-color:#428AFF"
         id="stop4378" />
      <stop
         offset="1"
         style="stop-color:#C9E6FF"
         id="stop4379" />
      <a:midPointStop
         offset="0"
         style="stop-color:#428AFF"
         id="midPointStop4380" />
      <a:midPointStop
         offset="0.5"
         style="stop-color:#428AFF"
         id="midPointStop4381" />
      <a:midPointStop
         offset="1"
         style="stop-color:#C9E6FF"
         id="midPointStop4382" />
    </linearGradient>
    <path
       style="fill:url(#XMLID_20_);stroke:none;"
       d="M168.128,84.48c-0.112-0.099-0.47-0.264-1.02-0.439c9.397,8.706-11.155,27.628-15.564,28.558    c-2.793,0.587-4.842,0.896-6.505,0.347c1.86,1.272,4.192,0.977,7.686,0.244C157.16,112.253,177.932,93.115,168.128,84.48z"
       id="path4383" />
    <linearGradient
       id="XMLID_21_"
       gradientUnits="userSpaceOnUse"
       x1="125.6675"
       y1="102.4541"
       x2="125.6675"
       y2="85.3867">
      <stop
         offset="0"
         style="stop-color:#0066CC"
         id="stop4385" />
      <stop
         offset="1"
         style="stop-color:#003399"
         id="stop4386" />
      <a:midPointStop
         offset="0"
         style="stop-color:#0066CC"
         id="midPointStop4387" />
      <a:midPointStop
         offset="0.5"
         style="stop-color:#0066CC"
         id="midPointStop4388" />
      <a:midPointStop
         offset="1"
         style="stop-color:#003399"
         id="midPointStop4389" />
    </linearGradient>
    <path
       style="fill:url(#XMLID_21_);stroke:none;"
       d="M119.459,98.827c-1.29-6.004,3.226-11.667,7.934-11.667c2.383,0,4.109,1.33,5.072,3.422    c-0.704-3.083-2.663-5.195-5.662-5.195c-4.708,0-9.224,5.664-7.934,11.667c0.426,1.984,0.911,3.824,1.502,5.4    C120.035,101.323,119.734,100.107,119.459,98.827z"
       id="path4390" />
    <linearGradient
       id="XMLID_22_"
       gradientUnits="userSpaceOnUse"
       x1="105.5015"
       y1="105.2661"
       x2="105.5015"
       y2="93.9873">
      <stop
         offset="0"
         style="stop-color:#0066CC"
         id="stop4392" />
      <stop
         offset="1"
         style="stop-color:#003399"
         id="stop4393" />
      <a:midPointStop
         offset="0"
         style="stop-color:#0066CC"
         id="midPointStop4394" />
      <a:midPointStop
         offset="0.5"
         style="stop-color:#0066CC"
         id="midPointStop4395" />
      <a:midPointStop
         offset="1"
         style="stop-color:#003399"
         id="midPointStop4396" />
    </linearGradient>
    <path
       style="fill:url(#XMLID_22_);stroke:none;"
       d="M104.269,95.759c3.137-0.694,6.262,1.21,7.723,4.468c-0.988-4.31-4.644-7.052-8.313-6.24    c-4.173,0.927-5.886,6.318-3.786,11.279C98.823,100.864,100.591,96.576,104.269,95.759z"
       id="path4397" />
    <linearGradient
       id="XMLID_23_"
       gradientUnits="userSpaceOnUse"
       x1="91.1226"
       y1="115.4941"
       x2="91.1226"
       y2="106.748">
      <stop
         offset="0"
         style="stop-color:#0066CC"
         id="stop4399" />
      <stop
         offset="1"
         style="stop-color:#003399"
         id="stop4400" />
      <a:midPointStop
         offset="0"
         style="stop-color:#0066CC"
         id="midPointStop4401" />
      <a:midPointStop
         offset="0.5"
         style="stop-color:#0066CC"
         id="midPointStop4402" />
      <a:midPointStop
         offset="1"
         style="stop-color:#003399"
         id="midPointStop4403" />
    </linearGradient>
    <path
       style="fill:url(#XMLID_23_);stroke:none;"
       d="M88.483,109.068c2.959-1.508,6.729,0.16,8.357,3.797c-0.034-0.135-0.065-0.271-0.101-0.408    c-1.208-4.571-5.538-6.848-8.847-5.161c-2.697,1.376-3.327,4.946-1.842,8.198C85.458,112.801,86.273,110.196,88.483,109.068z"
       id="path4404" />
    <linearGradient
       id="XMLID_24_"
       gradientUnits="userSpaceOnUse"
       x1="155.4805"
       y1="109.0776"
       x2="155.4805"
       y2="80.9966">
      <stop
         offset="0"
         style="stop-color:#0066CC"
         id="stop4406" />
      <stop
         offset="1"
         style="stop-color:#003399"
         id="stop4407" />
      <a:midPointStop
         offset="0"
         style="stop-color:#0066CC"
         id="midPointStop4408" />
      <a:midPointStop
         offset="0.5"
         style="stop-color:#0066CC"
         id="midPointStop4409" />
      <a:midPointStop
         offset="1"
         style="stop-color:#003399"
         id="midPointStop4410" />
    </linearGradient>
    <path
       style="fill:url(#XMLID_24_);stroke:none;"
       d="M146.999,89.49c8.404-9.801,19.797-6.256,20.539-5.601c0.834,0.735,1.441,1.546,1.862,2.415    c-0.301-1.55-1.074-2.972-2.454-4.187c-0.742-0.655-12.134-4.201-20.538,5.602c-5.397,6.297-5.651,18.827-4.042,21.359    C141.542,104.678,142.416,94.835,146.999,89.49z"
       id="path4411" />
    <g
       id="g4412">
      <linearGradient
         id="XMLID_25_"
         gradientUnits="userSpaceOnUse"
         x1="138.9131"
         y1="120.2808"
         x2="138.9131"
         y2="173.6118">
        <stop
           offset="0"
           style="stop-color:#428AFF"
           id="stop4414" />
        <stop
           offset="1"
           style="stop-color:#C9E6FF"
           id="stop4415" />
        <a:midPointStop
           offset="0"
           style="stop-color:#428AFF"
           id="midPointStop4416" />
        <a:midPointStop
           offset="0.5"
           style="stop-color:#428AFF"
           id="midPointStop4417" />
        <a:midPointStop
           offset="1"
           style="stop-color:#C9E6FF"
           id="midPointStop4418" />
      </linearGradient>
      <path
         style="fill:url(#XMLID_25_);stroke:none;"
         d="M153.411,123.333c1.166,2.802,4.201,11.437-0.467,16.108c-4.669,4.667-28.475,17.036-30.81,21.47     c-2.332,4.437,0.468,10.035,3.969,12.139c0.374,0.223,0.756,0.404,1.142,0.563c-3.482-2.121-6.252-7.691-3.929-12.109     c2.335-4.436,26.141-16.805,30.809-21.47c4.669-4.671,1.634-13.309,0.467-16.11c0,0-0.737-1.999-4.412-3.642     C152.839,121.775,153.411,123.333,153.411,123.333z"
         id="path4419" />
      <linearGradient
         id="XMLID_26_"
         gradientUnits="userSpaceOnUse"
         x1="137.3174"
         y1="160.9863"
         x2="137.3174"
         y2="187.9961">
        <stop
           offset="0"
           style="stop-color:#428AFF"
           id="stop4421" />
        <stop
           offset="1"
           style="stop-color:#C9E6FF"
           id="stop4422" />
        <a:midPointStop
           offset="0"
           style="stop-color:#428AFF"
           id="midPointStop4423" />
        <a:midPointStop
           offset="0.5"
           style="stop-color:#428AFF"
           id="midPointStop4424" />
        <a:midPointStop
           offset="1"
           style="stop-color:#C9E6FF"
           id="midPointStop4425" />
      </linearGradient>
      <path
         style="fill:url(#XMLID_26_);stroke:none;"
         d="M157.16,161.734c-0.342-0.313-0.813-0.559-1.382-0.748c0.07,0.052,0.139,0.103,0.2,0.157     c2.797,2.57,0.699,8.171-0.701,10.271c-1.398,2.101-9.804,18.905-30.574,15.638c-3.021-0.475-5.854-1.411-8.497-2.67     c2.975,1.561,6.203,2.713,9.678,3.262c20.771,3.266,29.176-13.539,30.574-15.641C157.86,169.906,159.958,164.303,157.16,161.734z     "
         id="path4426" />
    </g>
    <g
       id="g4427">
      <linearGradient
         id="XMLID_27_"
         gradientUnits="userSpaceOnUse"
         x1="123.1206"
         y1="156.0498"
         x2="123.1206"
         y2="115.8955">
        <stop
           offset="0"
           style="stop-color:#0066CC"
           id="stop4429" />
        <stop
           offset="1"
           style="stop-color:#003399"
           id="stop4430" />
        <a:midPointStop
           offset="0"
           style="stop-color:#0066CC"
           id="midPointStop4431" />
        <a:midPointStop
           offset="0.5"
           style="stop-color:#0066CC"
           id="midPointStop4432" />
        <a:midPointStop
           offset="1"
           style="stop-color:#003399"
           id="midPointStop4433" />
      </linearGradient>
      <path
         style="fill:url(#XMLID_27_);stroke:none;"
         d="M92.383,150.641c0-8.633,2.249-27.444,31.744-31.975c26.651-4.094,29.876,4.667,29.876,4.667     c0.129,0.311,0.281,0.698,0.444,1.14c-0.365-1.218-0.755-2.236-1.036-2.913c0,0-3.225-8.762-29.875-4.667     c-29.495,4.531-31.743,23.342-31.743,31.978c0,1.807,0.539,4.317,1.571,7.179C92.721,153.928,92.383,152.065,92.383,150.641z"
         id="path4434" />
      <linearGradient
         id="XMLID_28_"
         gradientUnits="userSpaceOnUse"
         x1="139.7051"
         y1="174.1572"
         x2="139.7051"
         y2="158.2051">
        <stop
           offset="0"
           style="stop-color:#0066CC"
           id="stop4436" />
        <stop
           offset="1"
           style="stop-color:#003399"
           id="stop4437" />
        <a:midPointStop
           offset="0"
           style="stop-color:#0066CC"
           id="midPointStop4438" />
        <a:midPointStop
           offset="0.5"
           style="stop-color:#0066CC"
           id="midPointStop4439" />
        <a:midPointStop
           offset="1"
           style="stop-color:#003399"
           id="midPointStop4440" />
      </linearGradient>
      <path
         style="fill:url(#XMLID_28_);stroke:none;"
         d="M126.694,173.049c3.5,2.1,7.703,1.165,9.337-0.933c1.631-2.104,0.232-8.404,3.265-10.038     c3.035-1.635,14.473-3.5,17.273-0.935c0.293,0.269,0.521,0.579,0.714,0.909c-0.146-1.031-0.534-1.974-1.305-2.682     c-2.801-2.564-14.236-0.699-17.271,0.935c-3.034,1.634-1.635,7.935-3.268,10.038c-1.634,2.099-5.836,3.033-9.336,0.934     c-1.629-0.979-3.097-2.719-3.977-4.74C122.775,169.292,124.605,171.795,126.694,173.049z"
         id="path4441" />
    </g>
    <path
       style="fill:none;stroke:none;"
       d="M204.8,204.8H51.2V51.2h153.6V204.8z"
       id="path4442" />
  </g>
</svg>
