<?xml version="1.0" encoding="UTF-8" standalone="no"?>
<!DOCTYPE svg PUBLIC "-//W3C//DTD SVG 20010904//EN"
"http://www.w3.org/TR/2001/REC-SVG-20010904/DTD/svg10.dtd">
<!-- Created with Sodipodi ("http://www.sodipodi.com/") -->
<svg
   width="48pt"
   height="48pt"
   viewBox="0 0 256 256"
   style="overflow:visible;enable-background:new 0 0 256 256"
   xml:space="preserve"
   xmlns="http://www.w3.org/2000/svg"
   xmlns:xml="http://www.w3.org/XML/1998/namespace"
   xmlns:a="http://ns.adobe.com/AdobeSVGViewerExtensions/3.0/"
   xmlns:sodipodi="http://sodipodi.sourceforge.net/DTD/sodipodi-0.dtd"
   xmlns:xlink="http://www.w3.org/1999/xlink"
   id="svg4125"
   sodipodi:version="0.32"
   sodipodi:docname="/home/david/Documenti/Progetti/add2cvs/gnome-mime-application-x-font-ttf.svgz"
   sodipodi:docbase="/home/david/Documenti/Progetti/add2cvs/">
  <defs
     id="defs4200" />
  <sodipodi:namedview
     id="base" />
  <g
     id="Layer_1"
     style="stroke:#000000;">
    <g
       id="g4127">
      <path
         style="opacity:0.2;stroke:none;"
         d="M44,15.5c-9.374,0-17,7.626-17,17v200c0,9.374,7.626,17,17,17h176c9.375,0,17-7.626,17-17v-200     c0-9.374-7.625-17-17-17H44z"
         id="path4128" />
      <path
         style="opacity:0.2;stroke:none;"
         d="M42,13.5c-9.374,0-17,7.626-17,17v200c0,9.374,7.626,17,17,17h176c9.375,0,17-7.626,17-17v-200     c0-9.374-7.625-17-17-17H42z"
         id="path4129" />
      <path
         style="opacity:0.2;stroke:none;"
         d="M40,12.5c-9.374,0-17,7.626-17,17v200c0,9.374,7.626,17,17,17h176c9.375,0,17-7.626,17-17v-200     c0-9.374-7.625-17-17-17H40z"
         id="path4130" />
      <linearGradient
         id="XMLID_1_"
         gradientUnits="userSpaceOnUse"
         x1="128.9995"
         y1="11"
         x2="128.9995"
         y2="245.0005">
        <stop
           offset="0"
           style="stop-color:#494949"
           id="stop4132" />
        <stop
           offset="1"
           style="stop-color:#000000"
           id="stop4133" />
        <a:midPointStop
           offset="0"
           style="stop-color:#494949"
           id="midPointStop4134" />
        <a:midPointStop
           offset="0.5"
           style="stop-color:#494949"
           id="midPointStop4135" />
        <a:midPointStop
           offset="1"
           style="stop-color:#000000"
           id="midPointStop4136" />
      </linearGradient>
      <path
         style="fill:url(#XMLID_1_);stroke:none;"
         d="M41,11c-9.374,0-17,7.626-17,17v200c0,9.374,7.626,17,17,17h176c9.375,0,17-7.626,17-17V28     c0-9.374-7.625-17-17-17H41z"
         id="path4137" />
      <path
         style="fill:#FFFFFF;stroke:none;"
         d="M28,228c0,6.627,5.373,12,12,12h176c6.627,0,12-5.373,12-12V28c0-6.627-5.373-12-12-12H40     c-6.627,0-12,5.373-12,12V228z"
         id="path4138" />
      <linearGradient
         id="XMLID_2_"
         gradientUnits="userSpaceOnUse"
         x1="29.0532"
         y1="29.0532"
         x2="226.9471"
         y2="226.9471">
        <stop
           offset="0"
           style="stop-color:#FFFFFF"
           id="stop4140" />
        <stop
           offset="1"
           style="stop-color:#DADADA"
           id="stop4141" />
        <a:midPointStop
           offset="0"
           style="stop-color:#FFFFFF"
           id="midPointStop4142" />
        <a:midPointStop
           offset="0.5"
           style="stop-color:#FFFFFF"
           id="midPointStop4143" />
        <a:midPointStop
           offset="1"
           style="stop-color:#DADADA"
           id="midPointStop4144" />
      </linearGradient>
      <path
         style="fill:url(#XMLID_2_);stroke:none;"
         d="M40,21c-3.86,0-7,3.14-7,7v200c0,3.859,3.14,7,7,7h176c3.859,0,7-3.141,7-7V28c0-3.86-3.141-7-7-7H40z"
         id="path4145" />
      <path
         style="fill:none;stroke:none;"
         d="M256,256H0V0h256V256z"
         id="path4146" />
    </g>
    <path
       style="opacity:0.2;stroke:none;"
       d="M158.085,58.745c0,0-76.235,0-77.883,0c-0.402,1.484-8.018,29.566-8.695,32.058c1.944,0,7.013,0,8.222,0    c0.221-0.81,0.535-1.955,0.535-1.955c4.267-15.601,11.909-18.458,26.385-18.696l1.495-0.025l-21.661,73.934    c-3.231,10.957-5.583,11.99-15.127,11.99c0,0-1.184,0-2.02,0c-0.324,1.166-1.708,6.143-2.232,8.033c2.688,0,47.457,0,49.03,0    c0.324-1.165,1.706-6.143,2.232-8.033c-1.448,0-3.495,0-3.495,0c-7.93,0-11.245-0.512-11.245-3.688    c0-3.361,1.998-10.244,3.953-16.533l0.159-0.508c0-0.002,18.801-65.219,18.801-65.219h6.313c11.876,0,13.056,2.335,13.056,8.07    c0,3.249-0.653,6.567-1.291,9.383c0,0-0.435,1.902-0.739,3.247c1.871,0,6.839,0,8.016,0c0.435-1.425,9.002-29.509,9.78-32.058    C160.186,58.745,158.085,58.745,158.085,58.745z"
       id="path4147" />
    <path
       style="opacity:0.2;stroke:none;"
       d="M188.607,96.314c0,0-76.235,0-77.881,0c-0.404,1.484-8.02,29.568-8.696,32.06c1.943,0,7.011,0,8.221,0    c0.222-0.81,0.535-1.958,0.535-1.958c4.267-15.6,11.909-18.457,26.387-18.695l1.493-0.023l-21.661,73.935    c-3.231,10.954-5.583,11.988-15.127,11.988c0,0-1.184,0-2.02,0c-0.325,1.165-1.707,6.145-2.232,8.035c2.688,0,47.459,0,49.03,0    c0.324-1.166,1.706-6.145,2.229-8.035c-1.445,0-3.493,0-3.493,0c-7.93,0-11.242-0.513-11.242-3.689    c0-3.355,1.993-10.228,3.944-16.508l0.165-0.533c0-0.001,18.801-65.218,18.801-65.218h6.313c11.877,0,13.059,2.335,13.059,8.071    c0,3.257-0.655,6.572-1.296,9.385c0,0-0.432,1.901-0.737,3.247c1.872,0,6.839,0,8.017,0c0.434-1.425,9.002-29.511,9.779-32.06    C190.711,96.314,188.607,96.314,188.607,96.314z"
       id="path4148" />
    <path
       style="opacity:0.2;stroke:none;"
       d="M156.984,56.545c0,0-76.235,0-77.883,0c-0.402,1.485-8.018,29.566-8.695,32.058c1.944,0,7.013,0,8.222,0    c0.221-0.81,0.535-1.955,0.535-1.955c4.267-15.601,11.909-18.458,26.385-18.696l1.495-0.024l-21.66,73.934    c-3.231,10.957-5.584,11.991-15.127,11.991c0,0-1.184,0-2.02,0c-0.324,1.165-1.708,6.142-2.232,8.032c2.688,0,47.457,0,49.029,0    c0.324-1.165,1.706-6.142,2.232-8.032c-1.448,0-3.496,0-3.496,0c-7.93,0-11.245-0.513-11.245-3.689    c0-3.361,1.998-10.243,3.953-16.533l0.159-0.508c0-0.001,18.801-65.219,18.801-65.219h6.312c11.877,0,13.057,2.335,13.057,8.071    c0,3.248-0.653,6.566-1.292,9.383c0,0-0.434,1.902-0.738,3.246c1.871,0,6.838,0,8.016,0c0.434-1.424,9.002-29.509,9.779-32.058    C159.086,56.545,156.984,56.545,156.984,56.545z"
       id="path4149" />
    <path
       style="opacity:0.2;stroke:none;"
       d="M187.508,94.114c0,0-76.235,0-77.881,0c-0.404,1.484-8.02,29.568-8.696,32.06c1.943,0,7.012,0,8.221,0    c0.222-0.81,0.535-1.958,0.535-1.958c4.267-15.6,11.909-18.457,26.388-18.694l1.493-0.024l-21.661,73.935    c-3.231,10.955-5.583,11.988-15.127,11.988c0,0-1.184,0-2.02,0c-0.324,1.165-1.707,6.145-2.232,8.035c2.688,0,47.459,0,49.029,0    c0.325-1.166,1.706-6.145,2.23-8.035c-1.446,0-3.493,0-3.493,0c-7.93,0-11.243-0.513-11.243-3.689    c0-3.355,1.994-10.228,3.944-16.507l0.166-0.534c0-0.001,18.801-65.218,18.801-65.218h6.313c11.876,0,13.058,2.335,13.058,8.07    c0,3.257-0.655,6.572-1.295,9.384c0,0-0.433,1.903-0.737,3.248c1.871,0,6.839,0,8.016,0c0.435-1.424,9.002-29.511,9.78-32.06    C189.61,94.114,187.508,94.114,187.508,94.114z"
       id="path4150" />
    <linearGradient
       id="XMLID_3_"
       gradientUnits="userSpaceOnUse"
       x1="111.0884"
       y1="53.2495"
       x2="111.0884"
       y2="160.7919">
      <stop
         offset="0"
         style="stop-color:#616161"
         id="stop4152" />
      <stop
         offset="1"
         style="stop-color:#494949"
         id="stop4153" />
      <a:midPointStop
         offset="0"
         style="stop-color:#616161"
         id="midPointStop4154" />
      <a:midPointStop
         offset="0.5"
         style="stop-color:#616161"
         id="midPointStop4155" />
      <a:midPointStop
         offset="1"
         style="stop-color:#494949"
         id="midPointStop4156" />
    </linearGradient>
    <path
       style="fill:url(#XMLID_3_);stroke:none;"
       d="M154.784,54.345c0,0-76.235,0-77.883,0c-0.401,1.484-8.018,29.565-8.694,32.058c1.944,0,7.012,0,8.222,0    c0.222-0.81,0.535-1.955,0.535-1.955c4.267-15.601,11.909-18.458,26.385-18.695l1.496-0.025l-21.661,73.935    c-3.231,10.957-5.584,11.99-15.127,11.99c0,0-1.184,0-2.02,0c-0.325,1.165-1.708,6.143-2.232,8.033c2.688,0,47.457,0,49.029,0    c0.325-1.166,1.706-6.143,2.232-8.033c-1.448,0-3.496,0-3.496,0c-7.93,0-11.245-0.513-11.245-3.689    c0-3.361,1.998-10.243,3.953-16.533l0.159-0.508c0-0.001,18.801-65.219,18.801-65.219h6.312c11.877,0,13.057,2.335,13.057,8.071    c0,3.249-0.653,6.567-1.291,9.383c0,0-0.435,1.902-0.739,3.246c1.871,0,6.838,0,8.016,0c0.434-1.424,9.002-29.509,9.779-32.058    C156.886,54.345,154.784,54.345,154.784,54.345z"
       id="path4157" />
    <linearGradient
       id="XMLID_4_"
       gradientUnits="userSpaceOnUse"
       x1="111.0425"
       y1="157.0293"
       x2="111.0425"
       y2="57.0034">
      <stop
         offset="0"
         style="stop-color:#828282"
         id="stop4159" />
      <stop
         offset="1"
         style="stop-color:#B2B2B2"
         id="stop4160" />
      <a:midPointStop
         offset="0"
         style="stop-color:#828282"
         id="midPointStop4161" />
      <a:midPointStop
         offset="0.5"
         style="stop-color:#828282"
         id="midPointStop4162" />
      <a:midPointStop
         offset="1"
         style="stop-color:#B2B2B2"
         id="midPointStop4163" />
    </linearGradient>
    <path
       style="fill:url(#XMLID_4_);stroke:none;"
       d="M154.784,57.003l-8.159,26.744h-2.72c0.756-3.325,1.359-6.648,1.359-9.973    c0-7.252-2.417-10.728-15.714-10.728h-8.31l-19.34,67.088c-1.36,4.38-4.232,13.446-4.232,17.829c0,6.194,6.802,6.345,13.902,6.345    l-0.756,2.722H67.3l0.756-2.722c11.028,0,14.201-2.114,17.677-13.898l22.664-77.364h-3.022c-16.621,0-26.138,3.022-30.974,20.701    h-2.72l7.253-26.744H154.784z"
       id="path4164" />
    <linearGradient
       id="XMLID_5_"
       gradientUnits="userSpaceOnUse"
       x1="114.8843"
       y1="157.0283"
       x2="114.8843"
       y2="57.0036">
      <stop
         offset="0"
         style="stop-color:#828282"
         id="stop4166" />
      <stop
         offset="0.75"
         style="stop-color:#B2B2B2"
         id="stop4167" />
      <stop
         offset="1"
         style="stop-color:#FFFFFF"
         id="stop4168" />
      <a:midPointStop
         offset="0"
         style="stop-color:#828282"
         id="midPointStop4169" />
      <a:midPointStop
         offset="0.5"
         style="stop-color:#828282"
         id="midPointStop4170" />
      <a:midPointStop
         offset="0.75"
         style="stop-color:#B2B2B2"
         id="midPointStop4171" />
      <a:midPointStop
         offset="0.5"
         style="stop-color:#B2B2B2"
         id="midPointStop4172" />
      <a:midPointStop
         offset="1"
         style="stop-color:#FFFFFF"
         id="midPointStop4173" />
    </linearGradient>
    <path
       style="fill:url(#XMLID_5_);stroke:none;"
       d="M81.229,60.003c-0.333,1.228-1.154,4.256-2.193,8.084c6.041-6.45,14.644-8.042,26.339-8.042h3.022    c0.945,0,1.834,0.445,2.401,1.202c0.394,0.525,0.599,1.157,0.599,1.798c0,0.282-0.04,0.566-0.121,0.843l-22.664,77.364    c-1.874,6.352-3.865,10.354-6.942,12.776c6.781,0,8.687,0,15.33,0c-1.428-1.371-2.333-3.302-2.333-6.066    c0-4.313,2.172-11.658,4.208-18.206l0.159-0.513l19.323-67.03c0.371-1.285,1.546-2.169,2.883-2.169h8.31    c11.489,0,16.848,2.692,18.27,9.502c1.456-4.772,2.19-7.179,2.912-9.545C143.703,60.003,85.307,60.003,81.229,60.003z"
       id="path4174" />
    <linearGradient
       id="XMLID_6_"
       gradientUnits="userSpaceOnUse"
       x1="142.3262"
       y1="90.8179"
       x2="142.3262"
       y2="198.3613">
      <stop
         offset="0"
         style="stop-color:#0053BD"
         id="stop4176" />
      <stop
         offset="1"
         style="stop-color:#00008D"
         id="stop4177" />
      <a:midPointStop
         offset="0"
         style="stop-color:#0053BD"
         id="midPointStop4178" />
      <a:midPointStop
         offset="0.5"
         style="stop-color:#0053BD"
         id="midPointStop4179" />
      <a:midPointStop
         offset="1"
         style="stop-color:#00008D"
         id="midPointStop4180" />
    </linearGradient>
    <path
       style="fill:url(#XMLID_6_);stroke:none;"
       d="M186.021,91.914c0,0-76.233,0-77.881,0c-0.401,1.485-8.018,29.568-8.694,32.06c1.944,0,7.012,0,8.222,0    c0.222-0.811,0.535-1.958,0.535-1.958c4.267-15.6,11.907-18.458,26.385-18.695l1.495-0.023l-21.66,73.934    c-3.231,10.955-5.584,11.988-15.129,11.988c0,0-1.182,0-2.02,0c-0.322,1.165-1.706,6.145-2.232,8.035c2.688,0,47.459,0,49.031,0    c0.324-1.166,1.706-6.145,2.23-8.035c-1.448,0-3.496,0-3.496,0c-7.928,0-11.242-0.513-11.242-3.688    c0-3.356,1.996-10.229,3.946-16.508l0.166-0.534c0-0.001,18.801-65.218,18.801-65.218h6.312c11.877,0,13.057,2.335,13.057,8.071    c0,3.257-0.653,6.572-1.296,9.384c0,0-0.432,1.902-0.736,3.247c1.871,0,6.84,0,8.018,0c0.434-1.425,9.002-29.511,9.779-32.06    C188.124,91.914,186.021,91.914,186.021,91.914z"
       id="path4181" />
    <linearGradient
       id="XMLID_7_"
       gradientUnits="userSpaceOnUse"
       x1="142.2783"
       y1="194.5977"
       x2="142.2783"
       y2="94.5718">
      <stop
         offset="0"
         style="stop-color:#006DFF"
         id="stop4183" />
      <stop
         offset="1"
         style="stop-color:#57ADFF"
         id="stop4184" />
      <a:midPointStop
         offset="0"
         style="stop-color:#006DFF"
         id="midPointStop4185" />
      <a:midPointStop
         offset="0.5"
         style="stop-color:#006DFF"
         id="midPointStop4186" />
      <a:midPointStop
         offset="1"
         style="stop-color:#57ADFF"
         id="midPointStop4187" />
    </linearGradient>
    <path
       style="fill:url(#XMLID_7_);stroke:none;"
       d="M186.021,94.571l-8.157,26.744h-2.72c0.754-3.323,1.359-6.648,1.359-9.973    c0-7.252-2.419-10.728-15.714-10.728h-8.312l-19.339,67.088c-1.359,4.381-4.23,13.447-4.23,17.828    c0,6.195,6.797,6.346,13.898,6.346l-0.754,2.721H98.536l0.756-2.721c11.03,0,14.204-2.116,17.68-13.9l22.664-77.362h-3.022    c-16.621,0-26.14,3.022-30.974,20.7h-2.72l7.253-26.744H186.021z"
       id="path4188" />
    <linearGradient
       id="XMLID_8_"
       gradientUnits="userSpaceOnUse"
       x1="146.1211"
       y1="194.5967"
       x2="146.1211"
       y2="94.572">
      <stop
         offset="0"
         style="stop-color:#006DFF"
         id="stop4190" />
      <stop
         offset="0.75"
         style="stop-color:#57ADFF"
         id="stop4191" />
      <stop
         offset="1"
         style="stop-color:#FFFFFF"
         id="stop4192" />
      <a:midPointStop
         offset="0"
         style="stop-color:#006DFF"
         id="midPointStop4193" />
      <a:midPointStop
         offset="0.5"
         style="stop-color:#006DFF"
         id="midPointStop4194" />
      <a:midPointStop
         offset="0.75"
         style="stop-color:#57ADFF"
         id="midPointStop4195" />
      <a:midPointStop
         offset="0.5"
         style="stop-color:#57ADFF"
         id="midPointStop4196" />
      <a:midPointStop
         offset="1"
         style="stop-color:#FFFFFF"
         id="midPointStop4197" />
    </linearGradient>
    <path
       style="fill:url(#XMLID_8_);stroke:none;"
       d="M112.467,97.571c-0.333,1.228-1.154,4.255-2.193,8.083c6.041-6.449,14.644-8.04,26.339-8.04h3.022    c0.945,0,1.835,0.445,2.401,1.202c0.393,0.525,0.599,1.157,0.599,1.798c0,0.282-0.04,0.566-0.121,0.843l-22.664,77.362    c-1.874,6.353-3.866,10.354-6.942,12.777c6.782,0,8.688,0,15.331,0c-1.427-1.371-2.331-3.302-2.331-6.066    c0-4.311,2.171-11.658,4.207-18.206l0.158-0.511l19.321-67.031c0.37-1.284,1.546-2.169,2.883-2.169h8.312    c11.488,0,16.847,2.691,18.269,9.5c1.456-4.772,2.19-7.179,2.911-9.544C174.94,97.571,116.545,97.571,112.467,97.571z"
       id="path4198" />
  </g>
</svg>
