<?xml version="1.0" encoding="UTF-8" standalone="no"?>
<!DOCTYPE svg PUBLIC "-//W3C//DTD SVG 20010904//EN"
"http://www.w3.org/TR/2001/REC-SVG-20010904/DTD/svg10.dtd">
<!-- Created with Sodipodi ("http://www.sodipodi.com/") -->
<svg
   width="48pt"
   height="48pt"
   viewBox="0 0 256 256"
   overflow="visible"
   enable-background="new 0 0 256 256"
   xml:space="preserve"
   xmlns="http://www.w3.org/2000/svg"
   xmlns:xap="http://ns.adobe.com/xap/1.0/"
   xmlns:xapGImg="http://ns.adobe.com/xap/1.0/g/img/"
   xmlns:ns="http://ns.adobe.com/SaveForWeb/1.0/"
   xmlns:rdf="http://www.w3.org/1999/02/22-rdf-syntax-ns#"
   xmlns:xml="http://www.w3.org/XML/1998/namespace"
   xmlns:xapMM="http://ns.adobe.com/xap/1.0/mm/"
   xmlns:pdf="http://ns.adobe.com/pdf/1.3/"
   xmlns:dc="http://purl.org/dc/elements/1.1/"
   xmlns:a="http://ns.adobe.com/AdobeSVGViewerExtensions/3.0/"
   xmlns:x="adobe:ns:meta/"
   xmlns:sodipodi="http://sodipodi.sourceforge.net/DTD/sodipodi-0.dtd"
   xmlns:xlink="http://www.w3.org/1999/xlink"
   id="svg548"
   sodipodi:version="0.32"
   sodipodi:docname="/home/david/Documenti/Progetti/add2cvs/gnome-mime-application-postscript.svgz"
   sodipodi:docbase="/home/david/Documenti/Progetti/add2cvs/">
  <defs
     id="defs709" />
  <sodipodi:namedview
     id="base" />
  <metadata
     id="metadata549">
    <ns:sfw>
      <ns:slices>
        <ns:slice
           x="0"
           y="0"
           width="256"
           height="256"
           sliceID="124064229" />
      </ns:slices>
      <ns:sliceSourceBounds
         x="0"
         y="0"
         width="256"
         height="256"
         bottomLeftOrigin="true" />
      <ns:optimizationSettings>
        <ns:targetSettings
           fileFormat="PNG24Format"
           targetSettingsID="0">
          <ns:PNG24Format
             transparency="true"
             includeCaption="false"
             interlaced="false"
             noMatteColor="false"
             matteColor="#FFFFFF"
             filtered="false" />
        </ns:targetSettings>
      </ns:optimizationSettings>
    </ns:sfw>
    <xpacket>begin='﻿' id='W5M0MpCehiHzreSzNTczkc9d'    </xpacket>
    <x:xmpmeta
       x:xmptk="XMP toolkit 3.0-29, framework 1.6">
      <rdf:RDF>
        <rdf:Description
           rdf:about="uuid:6d98fab5-f7a2-4154-8e4b-933ffeeade59">
          <pdf:Producer>
Adobe PDF library 5.00</pdf:Producer>
        </rdf:Description>
        <rdf:Description
           rdf:about="uuid:6d98fab5-f7a2-4154-8e4b-933ffeeade59" />
        <rdf:Description
           rdf:about="uuid:6d98fab5-f7a2-4154-8e4b-933ffeeade59" />
        <rdf:Description
           rdf:about="uuid:6d98fab5-f7a2-4154-8e4b-933ffeeade59">
          <xap:CreateDate>
2004-01-26T11:58:28+02:00</xap:CreateDate>
          <xap:ModifyDate>
2004-03-28T20:31:46Z</xap:ModifyDate>
          <xap:CreatorTool>
Adobe Illustrator 10.0</xap:CreatorTool>
          <xap:MetadataDate>
2004-02-16T21:07:14+01:00</xap:MetadataDate>
          <xap:Thumbnails>
            <rdf:Alt>
              <rdf:li
                 rdf:parseType="Resource">
                <xapGImg:format>
JPEG</xapGImg:format>
                <xapGImg:width>
256</xapGImg:width>
                <xapGImg:height>
256</xapGImg:height>
                <xapGImg:image>
/9j/4AAQSkZJRgABAgEASABIAAD/7QAsUGhvdG9zaG9wIDMuMAA4QklNA+0AAAAAABAASAAAAAEA
AQBIAAAAAQAB/+4ADkFkb2JlAGTAAAAAAf/bAIQABgQEBAUEBgUFBgkGBQYJCwgGBggLDAoKCwoK
DBAMDAwMDAwQDA4PEA8ODBMTFBQTExwbGxscHx8fHx8fHx8fHwEHBwcNDA0YEBAYGhURFRofHx8f
Hx8fHx8fHx8fHx8fHx8fHx8fHx8fHx8fHx8fHx8fHx8fHx8fHx8fHx8fHx8f/8AAEQgBAAEAAwER
AAIRAQMRAf/EAaIAAAAHAQEBAQEAAAAAAAAAAAQFAwIGAQAHCAkKCwEAAgIDAQEBAQEAAAAAAAAA
AQACAwQFBgcICQoLEAACAQMDAgQCBgcDBAIGAnMBAgMRBAAFIRIxQVEGE2EicYEUMpGhBxWxQiPB
UtHhMxZi8CRygvElQzRTkqKyY3PCNUQnk6OzNhdUZHTD0uIIJoMJChgZhJRFRqS0VtNVKBry4/PE
1OT0ZXWFlaW1xdXl9WZ2hpamtsbW5vY3R1dnd4eXp7fH1+f3OEhYaHiImKi4yNjo+Ck5SVlpeYmZ
qbnJ2en5KjpKWmp6ipqqusra6voRAAICAQIDBQUEBQYECAMDbQEAAhEDBCESMUEFURNhIgZxgZEy
obHwFMHR4SNCFVJicvEzJDRDghaSUyWiY7LCB3PSNeJEgxdUkwgJChgZJjZFGidkdFU38qOzwygp
0+PzhJSktMTU5PRldYWVpbXF1eX1RlZmdoaWprbG1ub2R1dnd4eXp7fH1+f3OEhYaHiImKi4yNjo
+DlJWWl5iZmpucnZ6fkqOkpaanqKmqq6ytrq+v/aAAwDAQACEQMRAD8A9U4q7FXYq7FXYq7FXYq7
FXYq7FXYq7FXYq7FXYq7FXYq7FXYq7FXYq7FXYq7FXYq7FXYq7FXYq7FXYq7FXYq7FXYqlvmDzFo
3l7TJdT1e5W1tItuTbszHoiKN2Y+AxV4j5g/5ydvTcMnl/SYlgU0Se/LOzDxMcTIF/4M4qk//QzP
nv8A5YNL/wCRVx/2UYq7/oZnz3/ywaX/AMirj/soxV3/AEMz57/5YNL/AORVx/2UYq7/AKGZ89/8
sGl/8irj/soxV3/QzPnv/lg0v/kVcf8AZRirv+hmfPf/ACwaX/yKuP8AsoxV3/QzPnv/AJYNL/5F
XH/ZRirv+hmfPf8AywaX/wAirj/soxV3/QzPnv8A5YNL/wCRVx/2UYq7/oZnz3/ywaX/AMirj/so
xV3/AEMz57/5YNL/AORVx/2UYq7/AKGZ89/8sGl/8irj/soxV3/QzPnv/lg0v/kVcf8AZRirv+hm
fPf/ACwaX/yKuP8AsoxV3/QzPnv/AJYNL/5FXH/ZRirv+hmfPf8AywaX/wAirj/soxV3/QzPnv8A
5YNL/wCRVx/2UYq7/oZnz3/ywaX/AMirj/soxV3/AEMz57/5YNL/AORVx/2UYq7/AKGZ89/8sGl/
8irj/soxV3/QzPnv/lg0v/kVcf8AZRirv+hmfPf/ACwaX/yKuP8AsoxVFad/zk75oS4B1HSbG4t+
6W/qwP8A8E7zj/hcVeyeRfzJ8tec7Vn0yUx3kQBuLCaizJ25AAkMlf2l+mmKsqxV2KuxV2KuxV2K
vm/XDqf5ufmk+j287Q+XtJLqJF3VIY2CSzAHYvM9AvtTwOKvePLfk/y35bs0tdHsYrZVFGlCgyuf
GSQ/Ex+ZxVOK4q6oxVrkMVdyGKu5jFWvUGKu9RffFWvVX3xV3rL74q71l8DirXrp4HFXfWE8DirX
1hPA4q76yngcVd9Zj8D+GKtfWo/A/hirvrcfgfw/rirvrcfgfw/rirX1yLwb8P64q765F4N+H9cV
d9di8G/D+uKtfXovBvw/riqVa/5X8r+abR7TV7GO55CiyMoWZP8AKjkHxKR7HFXzB5n0XXfys8/R
NZXBJgIudOujsJYGJUpIB8ijj+oxV9VeWtfs/MGhWWsWf9xexLKErUoxHxI3up2OKplirsVdirsV
Q+oMy2Fyy/aWJyvzCnFXhP8AziwqvL5nmYcpQLIBz1oxuC2/uVGKvficVaxVrFWicVaJxVrFWsVa
JxVonFWsVaxVrFWicVaxVrFWicVaJxVrFWsVaJxVonFWsVaxVdCSJkp/MP14q8V/5ypRBJ5ZkCjm
wvVZu5CmAgfRyOKsn/5x3vJX8lwWzElQZmSvbjMR/wAbYq9XxV2KuxV2KofUv+Oddf8AGGT/AIic
VeE/84pn/lKP+jD/ALGcVe+nFWsVaJxVonFWsVaxVonFWicVaxVrFWsVaJxVrFWsVaJxVonFWsVa
xVonFWicVaxVrFWicVXQ/wB9H/rD9eKvFv8AnKw/8ov/ANH/AP2LYqn/APzjn/yisHyuP+T4xV6/
irsVdirsVQ+pf8c66/4wyf8AETirwf8A5xRNf8U/9GH/AGM4q9+PXFWicVaJxVrFWsVaJxVonFWs
VaxVrFWicVaxVrFWicVaJxVrFWsVaJxVonFWsVaxVonFWicVXQ/30f8ArD9eKvFf+crjT/C3/R//
ANi2Ksg/5xy/5RS3+Vx/yfGKvYMVdirsVdiqH1L/AI511/xhk/4icVeDf84nmv8Ain/ow/7GcVe/
HrirROKtYq1irROKtE4q1irWKtYq0TirWKtYq0TirROKtYq1irROKtE4q1irWKtE4q0TirWKroP7
+P8A1h+vFXiv/OWBp/hb/o//AOxbFWQf844f8onb/K4/5PjFXsOKuxV2KuxVD6l/xzrr/jDJ/wAR
OKvBP+cTD/ylX/Rh/wBjOKvf2O5xVrFWsVaJxVonFWsVaxVrFXmPlSf80vNejJrlprlnY29zJKI7
VrVXKBHK05EEnp3OWGghOP8ADX5u/wDUz2X/AEhr/wA04LCWv8Nfm7/1M9l/0iL/AM042Fd/hn83
f+pnsv8ApEX/AJpxsK7/AAz+bn/Uz2X/AEiL/wA042Fd/hj83P8AqZrL/pEX/mnGwrX+GPzc/wCp
msv+kRf+acbCpVf6z568qeY9Etde1G31Wy1dpozHDCIWT0gnxBgB3kGNAhXohOQVrFWsVaJxVonF
WsVaxVdAf38f+sv68VeKf85Zn/lFf+j/AP7FsVZD/wA43/8AKJW/yuP+T+KvYsVdirsVdiqH1L/j
nXX/ABhk/wCInFXgX/OJR/5Sr/ow/wCxnFX0A3U4q1irROKtE4q1irWKtYq0TirDvyN/8lxYf8Zb
j/k82TnzUM9yCuxV2KrGfChSaRvE4aRan6r8h8R6+OGkW82/OT/lKPJX/Ga8/VBjHkWb0DIK1irR
OKtE4q1irWKtE4qvg/v4/wDWX9eKvEv+ctT/AMor/wBH/wD2LYqyL/nG3/lEbb5XP/J/FXseKuxV
2KuxVD6l/wAc66/4wyf8ROKvAf8AnEg1/wAV/wDbv/7GcVfQLfaPzxVaTirROKtYq1irWKtE4q1i
rD/yOFPy5sP+Mlx/yebJz5qGe5BXYqsZsKFFmwoUmbJIUw3xj5jCh55+cg/52fyWfCa7/VBkY8i2
M/yCtE4q0TirWKtYq0TirROKr4P7+P8A11/XirxL/nLc0/wp/wBvD/sWxVkf/ONf/KH23yuf+T+K
vY8VdirsVdiqH1L/AI511/xhk/4icVfP/wDziMa/4r/7d/8A2M4q+gm+0fniq0nFWsVaxVrFWicV
axVrFWJ/kqvH8vbEf8WT/wDJ5snPmoZ1kFWM2FCizYUKTNkkKTNhQph/jX5jChgv5xLXzF5OPhNd
f8yMhHkW1nROQVonFWsVaxVonFWicVaxVfb/AO9EX+uv68VeI/8AOXJp/hT/ALeH/YtirJP+cav+
UOtvlc/9RGKvZMVdirsVdiqH1L/jnXX/ABhk/wCInFXz7/ziGf8AlLP+3f8A9jOKvoNz8R+eKrcV
axVrFWicVaxVrFWicVYz+Tq8fINkP+LJ/wDk62Tyc0BmTNkVUWbChSZskhSZsKFF3woUQ/7xf9Yf
rxSGI/m8tde8pnwluf8AmTkI8i2M1JyCtYq1irROKtE4q1irWKr7c/6RF/rr+vFXiH/OXh/5RP8A
7eH/AGLYqyX/AJxo/wCUNtflc/8AURir2XFXYq7FXYqh9S/4511/xhk/4icVfPn/ADiCf+Us/wC3
f/2M4q+g3+0fmcVW4q1irROKtYq1iqhc3drbJ6lzNHBH/PIwQfexGKvOvN/5tz22swaF5Qso9e1K
RPVlkjf1IUAqeP7s7kKKsSwCj8FWUflMOPkW0H+XP/ydbJ5OaGUs2BCkzZJCkzYUKLvhQh3fFKkr
/vU/1h+vEpDFPzrGpi68vPpdv9b1CNrpre2/nK+iSKVFdhkI8iya8jfmppPmC2ki1Mx6Rq9s/p3F
nPIEDHpWPnxbrsVO4yCWaxyxyoHjdXQ9GUgg/SMVXE4q0TirWKtYq0Tiq+3/AN6Iv9df14q8Q/5y
+P8Ayif/AG8P+xbFWS/84z/8oZa/K5/6iMVezYq7FXYq7FUPqX/HOuv+MMn/ABE4q+ev+cPzX/Fv
/bv/AOxrFX0I/wBtvmcVW4q0TirWKvLfMH5v6hc6tLonkbTP0zexHjNfNU2yHoaUKgr25s6rXpXF
Utbyj+beugvrnmn9GxuBS2sQdgeqsIvQXb/WbJcKr4PyL8smVZtQvb6/m/b9SRVVj9C8/wDhsPCq
vr3knyn5U8qa1qWlWXoXstsLJZWllkJW5lRXADsy/ZB3pgkFZx+V44+SLUf5c3/JxslP6kMhZsWK
kzYUKLvhQh3fFKHd8KqSP++j/wBYfrxKWM/nrNJbx6LcxGklu00iHwZWgYfqyuPIsm9Y/KjyDql7
cX7WDLLfO1y8qTTKS0/7wsF5lB9roBTEAJSCT8jdNty0mi61f6dcE1EnJXA+iMQt/wANjwq0dK/O
ny9V9P1WHzDaIRS3uv71h3r6lG+6bBwqn/kv8z7PXb1tH1K1fSNfjHxWU1QHIFTwLBTWm/EitPHI
qzbFWicVaxVfbf70Rf66/rxV4f8A85gGn+Ev+3h/2K4qyb/nGX/lC7T5XP8A1EYq9nxV2KuxV2Ko
fUv+Oddf8YZP+InFXzx/zh6a/wCLf+3d/wBjWKvoV/tt8ziq0nFWsVYF+c/mefRPJ0kNoxW/1VxZ
wFa8grgmRlp34/CPc4qifI3lG18s+XrawjQfWiokvph1eZhVt6DZfsr7ZMIZBwwq7hirCfzdeQ+W
bOwh3nvr5Ai1+0I0YU/4ORchM02Y48UgO8ovT/Id1Z2K2UfnLWo7Zat6dubKIcmNWIP1ZmoSTtXM
cgnnI/Y7TxYjlih8eI/75XHkaAj975p8wSv3c3qp+EUSL+GPD/Sl818c9MeP/S/rLf8AgLRzvJru
vO3dv0rdLX/YoyL9wx4fOXzR48v5mP8A0kXf8q/0L/q869/3F7z/AKqY8I75fMr+Yn/Mx/6SP6lv
/KvdA/6vGu/9xa8/6qY8I75fMr+Yn/Mx/wCkj+ppvy80SlI9b12M92/Sdw5p4UlMg/DGvOXzXx5d
YY/9IP0KTfl5YggxeaNegYGtReRPX/kbDJT6Ma/pSSM5648Z/wA39RSXz15MuH0Ka9k8z6jqbacj
PDbXptXQoSpk5NFDE9eK1rXthiSOpY5KnEjw4xPeOL9ZZJoWqTyeW9FmUKwayiRiQftQ1ibv/kZl
RGzqUaNSuO6L+P8AXJUrUWtJIzIoR2T7aq4qO2/XwxpALAPze0oXFhb+ZrBGg1fSHRjMnVouQpWg
rWNyGHtyyMopZ95R19Ne8u2WprQPPGPWUdpBsw+/K0pvirWKr7b/AHpi/wBdf14q8O/5zCNP8Jf9
vH/sVxVlH/OMf/KFWnyuf+ojFXs+KuxV2KuxVD6l/wAc66/4wyf8ROKvnf8A5w6P/KXf9u7/ALGs
VfQsh+NvmcVW4q1iryj8wOOrfm35R0Vm/dWitfMB05AtLxPz+qj78IV6VwySu4Yq7hirAPzFmSXz
P5Zszutv6l4SKbHlyUn6bemUZ5UHP7Nw8eX3A/q/Sjv01/lZieI778o79Nf5WPiL+UQ115ssbXae
dVb+StW+4b5E5gG7H2bOfIJXN+YkA2gQn/Kc0/Af1ys6kOXHsM9UHJ59un6SBB4KB/GuR/MlvHY0
R0UG85TN9qZj82OR8dsHZQHRZ/iw/wA/44+My/kzyUrvzGlzazWzv8E8bRt8nBU/rx8Zf5N8mXfl
3N9b8jWJ/wCWaaaEjw5cZqf8lc3eKVi3zjNjMJmJ5xJHyTLWLK+nsHjsignLRkq5IV0VwZEJG45o
Cv8AnXJlxsokYkR5obTtK1RtTl1PU5laYxehbwRbJHHUHsFH7IoAKD3rkYRpo02CUSZSNko7UdMi
v9PurGXaO6ieFyOvGRSpp9+Tcthf5C6i76Leae5NbaYsqnsGoT+JOUpepYq1iq+2P+kxf66/rxV4
d/zmKf8AlEf+3j/2K4qyj/nGL/lCbT5XX/URir2jFXYq7FXYqh9S/wCOddf8YZP+InFXzr/zhwf+
Uv8A+3d/2NYq+hpPtt8ziq3FWicVeXWyJd/n5fF6MdP01TH34lljH0bTnCFemcMKrJXSMVPXsMVQ
UrySbE0X+UZJDzHz1dn/AB26qaixs4oSPAuquD/wz5rtbPkHqPZzAJccj5D9f3BItS80WunQ+rdS
ca/YQbsx9hmvllEeb1+DQSymosM1P8xdSuiUt620HYKfjI92/pmLPUyPJ3+n7FxQ3l6ikx1+cmpJ
JPU5T4hc/wDKRd+npvE4+IV/KRd+npvE4+IV/KRd+npvE4+IV/KRd+npvE4+IV/KRd+npvE4+IV/
KRe3fkZffXfLGoQk/FDcJJT/AF+a/qVc6XQz4sQL4x7TabwddkiORN/MX970T0czHQu9HFXejiry
38r6W3n3zRZJtGl3MoA6UWWQf8a5WUvWcVaJxVUtv96Yv9df14q8M/5zHP8AyiH/AG8f+xXFWU/8
4wf8oPZ/K6/6icVe04q7FXYq7FUPqX/HOuv+MMn/ABE4q+c/+cNjX/F//bu/7GsVfREn943zOKrC
cVaJxV4tdajdWH55a1PbMFc20SsCKgqYLc0P0jJwFlS9GsPOdnIAt5GYH7utWT7vtD8ckcZ6ItNI
pILsGSCVJwdyUINPmOoyPJKosFWC+JpgtXz5+YnmmCx8y65dbPcvdNBbR7/EsX2XPsOeajW5Kk9/
7MaMywj+aST+j9Dyq81O5vbhri5kMkjdz0A8AOwzVSsmy99iMYR4Y7BQ9bBwtnjO9bHhXxnetjwr
4zvWx4V8Z3rY8K+M71seFfGd62PCvjPa/wDnGu/D3ms6eejQiYf6wZQB9ynN12ZL0kdxfM/bbF/h
EMn86Nf6U/te5iAnoK5s7eKQ93d6faA/WZ0jYfsV5P8A8CKnCAShI73zZGKrYw1P+/Zv4IP4nLBj
71t5z+WMssn5ja9I5qZJ52kboCxkkPb6cplzS9jJwK1iqpa/70xf66/rxV4X/wA5kmn+EP8At4/9
iuKsq/5xf/5Qaz+V1/1E4q9qxV2KuxV2KofUv+Oddf8AGGT/AIicVfOX/OGhr/jD/t3f9jWKvoiT
+8b5n9eKrCcVaxV4p5hi4fnNfniQbi0javjSGMV/4TLMfNBTv0Wy9C5ElRgyMVYdGBofwxVM7XzB
rlvSlwZFHaUB/wAT8X45EwCWOa35P8la7dyXmqaNS8lpzuLW4mh6U6RsZIx9C/jmJl0OOZs83caL
t7VaaAhCQ4B0of2/akk/5K/l5Mv7i81W0kNd3MEyDw2CRt+OY0uyo9CXbY/bLUj6owPzH6UE/wCQ
Hl6Svo+a3iP7Ky2LN95WUDKj2V5uXD21l1xD/TV+godv+ceAXIi802jJ2Z4XQ/SOR/XkP5Ll3/Y3
D21j1xH/AE37EP8A9C86p/1MOmf8FL/zTkf5Ln3tn+jTF/qcvmG4/wDnHjUS4EnmPTVTuV9Rj9xV
f14/yXPvQfbTF0xy+YREX/OPUNT9Y81WyL2MVtJIfu5pkh2VLv8Asa5e2semL/Zf8dRMf5CeV4z+
+8zTzjaohs/TJ8ftyNlg7K7y48/bXJ/DjA+JP6Ajovyc/LeAAs2q3jjqJJYIkPyCRlh9+Wx7Kh1J
cTJ7Yas8hCPwP6Syby3pmg+V2lfy9pUdnNOAss8sktxIQK0oXbiv2v2QK98y8Okhj5Oj1/amfVkH
Kb4eWwHP3e5H3Wr6xcgiW5fif2E+BfuWmZAiA4CB9Fskhr0WxVjX5SqX846zNWoaVzXx+KT+uYp5
snsWBWsVVLX/AHqh/wBdf14q8L/5zLNP8H/9vH/sVxVlX/OLv/KC2fyuv+onFXteKuxV2KuxVD6l
/wAc66/4wyf8ROKvnD/nDE1/xh/27f8AsaxV9Eyn943zP68VWYq1iryHzzCLf83tInI/d3lnwJp+
2BKtP+I5KHNWRfV8vtDvq+Nq8z/Mb8w9e8t6+mn6dBaywtbpKzTpIzc2ZwQCkiClFHbK5TIKsW/5
XX5x/wCWPT/+Rc//AFWweIVp3/K6/OP/ACx6f/yLn/6rY+IVp3/K6/OP/LHp/wDyLn/6rY+IVp3/
ACuvzj/yx6f/AMi5/wDqtj4hWnf8rr84/wDLHp//ACLn/wCq2PiFad/yuvzj/wAsen/8i5/+q2Pi
Fad/yuvzj/yx6f8A8i5/+q2PiFad/wArr84/8sen/wDIuf8A6rY+IVp3/K6/OP8Ayx6f/wAi5/8A
qtj4hWnf8rr84/8ALHp//Iuf/qtj4hWnoX5Z+adT80afd3GoxQxSwSiNFt1dVK8QanmzmtTkoytW
Z/V8narXhVEZ22VQSx9hvjasR/JGJpJtRvGG8jk/q/5qzGS9ZxVrFVS1P+lQ/wCuv6xirwr/AJzO
NP8AB/8A28v+xXFWV/8AOLn/ACgll8rr/qJxV7ZirsVdirsVQ+pf8c66/wCMMn/ETir5v/5wvNf8
Y/8Abt/7GsVfRMv94/zP68VWYq0Tiry/85YvqmoeWddpSO0u/SuH/wAlisgH/AxvhCsp+q+2XWh3
1X2xtXgn5pQfWfNTvSoWPgPkssgymXNKYflb5E07UlvdR1S2W4tYyLe3jevEyH43O1N0Xj/wWBWf
f8q+8kf9WmD7m/rirX/Kv/I//Vpg+5v64q1/gHyL/wBWmD7m/rirX+AvIn/Vqg+5v640rv8AAnkP
/q1Qfc/9cNK1/gXyF/1aoPuf+uNK1/gfyD/1a4Puf+uNK2nkXyE7BV0qAsego/8AXGleU+f/ACfH
ovmOaK3i4WVyq3FoOwR6hlHssisv0YFZl+SkXpreQdpGLU9wEycCr1X6r7ZZaEn83yiw8r6ndE8S
tu6of8uQcE/4ZhgJ2VLPybsDb+XTMwoZjyB9iSf6ZSln+KtE4qqWv+9UP+uv6xirwr/nNA0/wd/2
8v8AsVxVln/OLX/KB2Xyuv8AqJOKvbMVdirsVdiqH1L/AI511/xhk/4icVfNv/OFpr/jH/t2/wDY
1ir6Kl/vX/1j+vFVhOKtE4qxn8xfL7a75RvrOJed0iie1FKkyRfFxHuy1X6cVQfkHWrfWvK9lclw
bmJBBdqftCWMcST/AKwo305YChkXpxfzDFUp8y3OnaZot3fG2tmmVOMRMMZYyP8ACvVd9zU4Yxsq
nPlDy7b6R5YsrOaFDccfVuOSgn1Zfifr4fZ+jITNlKZNaWf++I/+AX+mBVNrSz/3xH/wC/0wqsa0
s/8AfEf/AAC/0xVTa0s/98R/8Av9MVU2tLP/AHxH/wACv9MKqbWln/viP/gV/pihY1raf74j/wCB
X+mFVi29qjhxDHVTUfCvb6MVSX80dPihsNL81WlujnRZ1a4h4gh7WYhZFK0oaGnyqTjDuVOrZNNe
JJ7WO3VJkDJLFGiko3xChABocaVU9OL+YYq85/OLUUazsfL1q3K7v5VkmVdysKHao933H+qcEill
3lbTl0/Q7a3Ap8IJHzG34ZBU1JxVrFVS1/3qh/11/WMVeE/85pGn+Dv+3l/2K4qy3/nFj/lArH5X
X/UScVe24q7FXYq7FUPqX/HOuv8AjDJ/xE4q+a/+cKz/AMpl/wBu3/sbxV9Fyn96/wDrH9eKrCcV
axVrFWD6z+WqPfzan5e1CXRr24PKdIifQkatasnzPyxtUsk0z83bI0jurTUVHQyIqV/4DgclxFXa
CvmjX/NVnpPmC3ggj09hfXEcPIhgmycuTN1YgU8DlgNRJQ9bmbenhlSVFmwqps2KqbNiqmzYVU2b
FCmzYVWM2KqbNhVG28Ftqel3elXY5wTxvFIvjHICpp8q5E7bpeM6Rq35gWU1x5YsIbaebRna3d5R
IZCgY8GADAceP2famSlJCajTPzWvtptQSzjP2hEkan/gjVshxFKO0L8torW//SOpXT314d2kkYux
+bNkVZtsBQYq1irWKqlp/vXD/wAZF/WMVeEf85qH/lDf+3l/2KYqy7/nFf8A5QGx+V1/1FHFXt2K
uxV2KuxVD6l/xzrr/jDJ/wAROKvmn/nCg1/xl/27f+xvFX0ZMf3r/wCsf14qsxVrFWicVaJxVTll
jiieWRuMcalnY9AAKk4qlP5b20lxb3/mO4Wk+sTlogeq28RKRr+v8MtybbdyAytoZCa7ZWlYbaX2
xtVhtJj4ffhtVpspz/L9+NqsOn3H+T9+NqtOm3J7r9/9mNqsOl3R7r9/9mHiVadJuz3X7z/THiVY
dGvPFPvP9MeIIVrLTb23uVkJXj0cAnofoxJCXn35gQHy7+YWkeZYxxstXH1HUCOnqqKIx92Wg/2O
I3CsxqCKjoemQVonFWsVaxVrFVS0P+lw/wDGRf1jFXg//Oa5p/g3/t5f9imKsv8A+cVf/Jf2Pyu/
+oo4q9vxV2KuxV2KofUv+Oddf8YZP+InFXzR/wA4TGv+M/8At2/9jeKvo2b+9f8A1j+vFVPFWicV
aJxVrFULqVkl/p9zZOxRLmJ4mdeoDgiowg0bVh0Gj/mXYwpZ2WroLSBRHAFWMDguw2K1ywzieiKX
/VPzW/6vC/dF/wA048ce5Wja/mv/ANXhfui/5pwcce5VptPzY/6vK/8AAxf8048ce5Vps/za7a2v
/Axf8048Ue5Vpsvzc/6vq/8AARf8048Ue5Vpsfze/wCr8o/2EX/NOPEO5Vpsfzg/6mAf8BF/zTg4
h3KsNh+cP/Uwj/kXD/zTjxDuVadP/OP/AKmMf8i4f+aceIdyVp0785f+plA/55Q/8048Q7lQGr+U
PzL1u3jtNZ1tbyzSVZvSKRKeSVoQygEGhOPEO5XollFLDZwwytykjQKzDuQKZBVbFWsVaxVonFVW
0/3rg/4yL/xIYq8G/wCc2TT/AAZ/28v+xTFWX/8AOKn/AJL6w+V3/wBRRxV7hirsVdirsVQ+pf8A
HOuv+MMn/ETir5m/5wkP/KZ/9uz/ALG8VfR0398/+sf14qpk4q0TirWKtYq0TirROKtYq1irROKt
Yq1irWKtE4q1irWKtYq0TirWKtYq1irROKtYqq2f+9cH/GRf+JDFXgv/ADm2f+UM/wC3n/2KYqzD
/nFL/wAl7YfK7/6ijir3HFXYq7FXYqh9S/4511/xhk/4icVfMv8AzhEf+U0/7dn/AGN4q+jpz++f
/WP68VUycVaxVrFWicVaJxVrFWsVaJxVrFWsVaxVonFWsVaxVrFWicVaxVrFWsVaJxVrFWsVVbP/
AHsg/wCMi/8AEhirwX/nN0/8oX/28/8AsUxVmP8Azih/5Lyw+V3/ANRRxV7jirsVdirsVQ+pf8c6
6/4wyf8AETir5j/5wfNf8af9uz/sbxV9Hzn99J/rH9eKqeKtYq0TirROKtYq1irROKtYq1irWKtE
4q1irWKtYq0TirWKtYq1irROKtYq1irWKqtmf9Mg/wCMif8AEhirwT/nOA0/wX/28/8AsUxVmX/O
J/8A5LvT/ld/9RRxV7lirsVdirsVQ+pf8c66/wCMMn/ETir5g/5wgkVJ/Olu54zkacwjOzUQ3Qbb
2LCuKvpG4qJpK/zH9eKqeKtE4q0TirWKtYq0TirWKtYq1irROKtYq1irWKtE4q1irWKtYq0TirWK
tYq1irROKq1iCbyAAVPNT9xrirwD/nOGaMy+TIgwMiLqTsncKxtQp+nicVZt/wA4nhh+XWn1BB43
Z38DdEjFXuWKuxV2KuxVbJGskbRt9lwVb5EUxV8Y6ze63+RH543GtRWzT+XtWaQywLRVltpnDyxp
XYPDJRk9qdicVfVPlPzx5J876fHf+X9UhvA61eFHC3EZ7rLCfjQj3Hy2xVPP0dF/M34Yq79GxfzN
+GKtfoyL+dvwxV36Mi/nb8MVd+i4f52/DFWv0VD/ADt+GKu/RUP87fh/TFWv0TD/ADt+GKu/RMP8
7fhirv0RB/O34f0xVr9Dwfzt+H9MVd+h4P52/D+mKu/Q0H87fh/TFWv0LB/O34f0xV36Fg/34/4f
0xVr9CW/+/H/AA/pirv0Hb/78f8AD+mKtfoO3/34/wCH9MVd+grf/fj/AIf0xV36Ct/9+P8Ah/TF
Wv0Db/78f8P6Yq79AW3+/H/D+mKpN5n84eRPIlhLqGvanDacVJSKRw1xJ4LFCvxuT7D57Yq+IvzF
87a9+cH5kLcWtu0ccvG00myJr6NshLcpCNqmrO5+joBir7H/ACe8uR6FoVtYwD9zaW6RBiKFiafE
fduFT88VehYq7FXYq7FXYqxP8xvy38v+etDk0zVYlL0rBPSrI46Ed/uxV8j+b/8AnFvzbpN66WEy
ywEn0zMGK8faSMNX6UGKsd/6F88/eNr/AMFP/wBUsVd/0L55+8bX/gp/+qWKu/6F88/eNr/wU/8A
1SxV3/Qvnn7xtf8Agp/+qWKu/wChfPP3ja/8FP8A9UsVd/0L55+8bX/gp/8Aqlirv+hfPP3ja/8A
BT/9UsVd/wBC+efvG1/4Kf8A6pYq7/oXzz942v8AwU//AFSxV3/Qvnn7xtf+Cn/6pYq7/oXzz942
v/BT/wDVLFXf9C+efvG1/wCCn/6pYq7/AKF88/eNr/wU/wD1SxV3/Qvnn7xtf+Cn/wCqWKu/6F88
/eNr/wAFP/1SxV3/AEL55+8bX/gp/wDqlirv+hfPP3ja/wDBT/8AVLFXf9C+efvG1/4Kf/qlirv+
hfPP3ja/8FP/ANUsVd/0L55+8bX/AIKf/qlirv8AoXzz942v/BT/APVLFXf9C+efvG1/4Kf/AKpY
qi9M/wCcc/OVxcBLueCCLu8Ylkb/AIFlj/Xir3r8rPyT0zy4P9FhM97IB691LQuR1oxAoif5I698
Ve76bYR2NqsKbnq7eLHviqKxV2KuxV2KuxV2KrZIo5VKSIHQ9VYAj8cVQp0bSyf95k+7FXfobS/+
WZPxxV36G0v/AJZk/HFXfobS/wDlmT8cVd+htL/5Zk/HFXfobS/+WZPxxV36G0v/AJZk/HFXfobS
/wDlmT8cVd+htL/5Zk/HFXfobS/+WZPxxV36G0v/AJZk/HFXfobS/wDlmT8cVd+htL/5Zk/HFXfo
bS/+WZPxxV36G0v/AJZk/HFXfobS/wDlmT8cVd+htL/5Zk/HFXfobS/+WZPxxV36G0v/AJZk/HFX
fobS/wDlmT8cVd+htL/5Zk/HFXfobS/+WZPxxVw0bSwf95k+7FUVHFHEoSNAiDoqgAfhiq7FXYq7
FX//2Q==</xapGImg:image>
              </rdf:li>
            </rdf:Alt>
          </xap:Thumbnails>
        </rdf:Description>
        <rdf:Description
           rdf:about="uuid:6d98fab5-f7a2-4154-8e4b-933ffeeade59">
          <xapMM:DocumentID>
uuid:574e9311-3ab9-4391-9714-64dd7d640715</xapMM:DocumentID>
        </rdf:Description>
        <rdf:Description
           rdf:about="uuid:6d98fab5-f7a2-4154-8e4b-933ffeeade59">
          <dc:format>
image/svg+xml</dc:format>
          <dc:title>
            <rdf:Alt>
              <rdf:li
                 xml:lang="x-default">
mime.ai</rdf:li>
            </rdf:Alt>
          </dc:title>
        </rdf:Description>
      </rdf:RDF>
    </x:xmpmeta>
    <xpacket>end='w'    </xpacket>
  </metadata>
  <g
     id="Layer_1">
    <path
       opacity="0.2"
       d="M44,15.5c-9.374,0-17,7.626-17,17v200c0,9.374,7.626,17,17,17h176c9.375,0,17-7.626,17-17v-200     c0-9.374-7.625-17-17-17H44z"
       id="path551" />
    <path
       opacity="0.2"
       d="M42,13.5c-9.374,0-17,7.626-17,17v200c0,9.374,7.626,17,17,17h176c9.375,0,17-7.626,17-17v-200     c0-9.374-7.625-17-17-17H42z"
       id="path552" />
    <path
       opacity="0.2"
       d="M40,12.5c-9.374,0-17,7.626-17,17v200c0,9.374,7.626,17,17,17h176c9.375,0,17-7.626,17-17v-200     c0-9.374-7.625-17-17-17H40z"
       id="path553" />
    <linearGradient
       id="XMLID_17_"
       gradientUnits="userSpaceOnUse"
       x1="128.9995"
       y1="11"
       x2="128.9995"
       y2="245.0005">
      <stop
         offset="0"
         style="stop-color:#494949"
         id="stop555" />
      <stop
         offset="1"
         style="stop-color:#000000"
         id="stop556" />
      <a:midPointStop
         offset="0"
         style="stop-color:#494949"
         id="midPointStop557" />
      <a:midPointStop
         offset="0.5"
         style="stop-color:#494949"
         id="midPointStop558" />
      <a:midPointStop
         offset="1"
         style="stop-color:#000000"
         id="midPointStop559" />
    </linearGradient>
    <path
       fill="url(#XMLID_17_)"
       d="M41,11c-9.374,0-17,7.626-17,17v200c0,9.374,7.626,17,17,17h176c9.375,0,17-7.626,17-17V28     c0-9.374-7.625-17-17-17H41z"
       id="path560" />
    <path
       fill="#FFFFFF"
       d="M28,228c0,6.627,5.373,12,12,12h176c6.627,0,12-5.373,12-12V28c0-6.627-5.373-12-12-12H40     c-6.627,0-12,5.373-12,12V228z"
       id="path561" />
    <linearGradient
       id="XMLID_18_"
       gradientUnits="userSpaceOnUse"
       x1="29.0532"
       y1="29.0532"
       x2="226.9471"
       y2="226.9471">
      <stop
         offset="0"
         style="stop-color:#FFFFFF"
         id="stop563" />
      <stop
         offset="1"
         style="stop-color:#DADADA"
         id="stop564" />
      <a:midPointStop
         offset="0"
         style="stop-color:#FFFFFF"
         id="midPointStop565" />
      <a:midPointStop
         offset="0.5"
         style="stop-color:#FFFFFF"
         id="midPointStop566" />
      <a:midPointStop
         offset="1"
         style="stop-color:#DADADA"
         id="midPointStop567" />
    </linearGradient>
    <path
       fill="url(#XMLID_18_)"
       d="M40,21c-3.86,0-7,3.14-7,7v200c0,3.859,3.14,7,7,7h176c3.859,0,7-3.141,7-7V28     c0-3.86-3.141-7-7-7H40z"
       id="path568" />
    <rect
       x="53.667"
       y="53.667"
       fill="none"
       width="148.667"
       height="148.666"
       id="rect569" />
    <path
       opacity="0.2"
       d="M197.881,141.815c0-8.396-0.961-23.444-7.404-29.887c-3.23-3.225-11.42-5.554-24.957-7.122     c-0.379-2.041-2.074-3.592-4.139-3.776c-0.484-0.043-0.984-0.081-1.475-0.123V62.29c0-1.239-1.008-2.248-2.248-2.248h-57.462     c-1.239,0-2.247,1.009-2.247,2.248v38.651c-0.479,0.042-0.971,0.077-1.445,0.12c-2.062,0.188-3.762,1.74-4.14,3.775     c-13.599,1.577-21.804,3.896-25.002,7.092c-6.43,6.428-7.389,21.633-7.389,30.125c0,14.234,2.589,31.954,7.389,36.754     c1.982,1.982,8.787,3.291,17.905,4.144c-4.315,10.928-4.516,11.687-4.516,12.42c0,1.241,1.008,2.248,2.247,2.248h92.199     c1.236,0,2.246-1.007,2.246-2.248c0-0.744-0.207-1.508-4.672-12.509c8.891-0.84,15.771-2.121,17.705-4.055     C195.584,173.701,197.881,154.099,197.881,141.815z"
       id="path570" />
    <path
       opacity="0.2"
       d="M196.758,141.145c0-8.395-0.961-23.442-7.404-29.886c-3.23-3.224-11.422-5.554-24.957-7.122     c-0.379-2.041-2.076-3.592-4.141-3.775c-0.482-0.044-0.984-0.082-1.475-0.123V61.62c0-1.239-1.008-2.247-2.246-2.247H99.072     c-1.24,0-2.247,1.008-2.247,2.247v38.652c-0.48,0.041-0.971,0.077-1.443,0.12c-2.063,0.188-3.764,1.739-4.14,3.775     c-13.601,1.576-21.806,3.895-25.003,7.091c-6.431,6.429-7.39,21.634-7.39,30.125c0,14.235,2.589,31.953,7.39,36.755     c1.982,1.982,8.787,3.29,17.905,4.143c-4.316,10.929-4.518,11.687-4.518,12.421c0,1.239,1.008,2.247,2.249,2.247h92.197     c1.238,0,2.248-1.008,2.248-2.247c0-0.744-0.209-1.509-4.672-12.508c8.891-0.842,15.771-2.122,17.705-4.056     C194.461,173.029,196.758,153.429,196.758,141.145z"
       id="path571" />
    <linearGradient
       id="XMLID_19_"
       gradientUnits="userSpaceOnUse"
       x1="127.0723"
       y1="182.7441"
       x2="127.0723"
       y2="98.0483">
      <stop
         offset="0"
         style="stop-color:#616161"
         id="stop573" />
      <stop
         offset="0.5225"
         style="stop-color:#555555"
         id="stop574" />
      <stop
         offset="1"
         style="stop-color:#494949"
         id="stop575" />
      <a:midPointStop
         offset="0"
         style="stop-color:#616161"
         id="midPointStop576" />
      <a:midPointStop
         offset="0.5"
         style="stop-color:#616161"
         id="midPointStop577" />
      <a:midPointStop
         offset="0.5225"
         style="stop-color:#555555"
         id="midPointStop578" />
      <a:midPointStop
         offset="0.5"
         style="stop-color:#555555"
         id="midPointStop579" />
      <a:midPointStop
         offset="1"
         style="stop-color:#494949"
         id="midPointStop580" />
    </linearGradient>
    <path
       fill="url(#XMLID_19_)"
       d="M94.65,99.401L94.65,99.401c-2.063,0.186-3.763,1.738-4.14,3.774     c-13.6,1.576-21.807,3.893-25.002,7.092c-6.432,6.429-7.392,21.633-7.392,30.124c0,14.234,2.592,31.954,7.392,36.755     c4.672,4.669,36.091,5.621,61.625,5.598c20.888-0.014,56.652-0.759,61.49-5.598c5.105-5.108,7.404-24.709,7.404-36.995     c0-8.395-0.963-23.442-7.404-29.884c-3.23-3.226-11.422-5.555-24.957-7.124c-0.379-2.041-2.074-3.591-4.141-3.776     C139.881,97.596,114.418,97.609,94.65,99.401 M90.508,103.18l-0.002,0.005C90.508,103.181,90.508,103.18,90.508,103.18z"
       id="path581" />
    <linearGradient
       id="XMLID_20_"
       gradientUnits="userSpaceOnUse"
       x1="127.0728"
       y1="179.1123"
       x2="127.0728"
       y2="146.2555">
      <stop
         offset="0"
         style="stop-color:#CECEDB"
         id="stop583" />
      <stop
         offset="0.1854"
         style="stop-color:#E9E9EF"
         id="stop584" />
      <stop
         offset="0.5225"
         style="stop-color:#CECEDB"
         id="stop585" />
      <stop
         offset="1"
         style="stop-color:#B1B1C5"
         id="stop586" />
      <a:midPointStop
         offset="0"
         style="stop-color:#CECEDB"
         id="midPointStop587" />
      <a:midPointStop
         offset="0.5"
         style="stop-color:#CECEDB"
         id="midPointStop588" />
      <a:midPointStop
         offset="0.1854"
         style="stop-color:#E9E9EF"
         id="midPointStop589" />
      <a:midPointStop
         offset="0.5"
         style="stop-color:#E9E9EF"
         id="midPointStop590" />
      <a:midPointStop
         offset="0.5225"
         style="stop-color:#CECEDB"
         id="midPointStop591" />
      <a:midPointStop
         offset="0.5"
         style="stop-color:#CECEDB"
         id="midPointStop592" />
      <a:midPointStop
         offset="1"
         style="stop-color:#B1B1C5"
         id="midPointStop593" />
    </linearGradient>
    <path
       fill="url(#XMLID_20_)"
       d="M67.766,176.01c6.311,6.309,112.466,6.128,118.595,0c6.129-6.127,10.814-51.548,0-62.36     c-10.814-10.813-107.96-10.634-118.595,0C57.133,124.284,61.458,169.702,67.766,176.01z"
       id="path594" />
    <linearGradient
       id="XMLID_21_"
       gradientUnits="userSpaceOnUse"
       x1="127.0752"
       y1="152.9883"
       x2="127.0752"
       y2="58.4658">
      <stop
         offset="0"
         style="stop-color:#F7F7F7"
         id="stop596" />
      <stop
         offset="0.2346"
         style="stop-color:#F3F3F4"
         id="stop597" />
      <stop
         offset="0.477"
         style="stop-color:#E6E6EB"
         id="stop598" />
      <stop
         offset="0.723"
         style="stop-color:#D2D2DC"
         id="stop599" />
      <stop
         offset="0.97"
         style="stop-color:#B5B5C8"
         id="stop600" />
      <stop
         offset="1"
         style="stop-color:#B1B1C5"
         id="stop601" />
      <a:midPointStop
         offset="0"
         style="stop-color:#F7F7F7"
         id="midPointStop602" />
      <a:midPointStop
         offset="0.7006"
         style="stop-color:#F7F7F7"
         id="midPointStop603" />
      <a:midPointStop
         offset="1"
         style="stop-color:#B1B1C5"
         id="midPointStop604" />
    </linearGradient>
    <path
       fill="url(#XMLID_21_)"
       d="M127.072,150.735c26.202,0,49.698-5.116,65.688-13.217c-0.365-10.636-2.229-20.328-6.398-24.668     c-10.814-11.251-107.96-11.064-118.595,0c-4.117,4.285-5.99,13.998-6.376,24.672C77.38,145.621,100.877,150.735,127.072,150.735z     "
       id="path605" />
    <linearGradient
       id="XMLID_22_"
       gradientUnits="userSpaceOnUse"
       x1="127.0752"
       y1="151.0986"
       x2="127.0752"
       y2="60.2582">
      <stop
         offset="0"
         style="stop-color:#F7F7F7"
         id="stop607" />
      <stop
         offset="0.5056"
         style="stop-color:#BDBDCF"
         id="stop608" />
      <stop
         offset="1"
         style="stop-color:#B1B1C5"
         id="stop609" />
      <a:midPointStop
         offset="0"
         style="stop-color:#F7F7F7"
         id="midPointStop610" />
      <a:midPointStop
         offset="0.5085"
         style="stop-color:#F7F7F7"
         id="midPointStop611" />
      <a:midPointStop
         offset="0.5056"
         style="stop-color:#BDBDCF"
         id="midPointStop612" />
      <a:midPointStop
         offset="0.5"
         style="stop-color:#BDBDCF"
         id="midPointStop613" />
      <a:midPointStop
         offset="1"
         style="stop-color:#B1B1C5"
         id="midPointStop614" />
    </linearGradient>
    <path
       fill="url(#XMLID_22_)"
       d="M127.072,148.934c26.202,0,49.698-4.918,65.688-12.702c-0.365-10.221-2.229-19.535-6.398-23.706     c-10.814-10.814-107.96-10.635-118.595,0c-4.117,4.117-5.99,13.453-6.376,23.712C77.38,144.019,100.877,148.934,127.072,148.934z     "
       id="path615" />
    <rect
       x="80.936"
       y="167.885"
       opacity="0.8"
       fill="#FFFFFF"
       width="92.957"
       height="2.316"
       id="rect616" />
    <linearGradient
       id="XMLID_23_"
       gradientUnits="userSpaceOnUse"
       x1="118.6621"
       y1="175.4531"
       x2="152.2135"
       y2="209.0045">
      <stop
         offset="0"
         style="stop-color:#7D7D99"
         id="stop618" />
      <stop
         offset="1"
         style="stop-color:#585868"
         id="stop619" />
      <a:midPointStop
         offset="0"
         style="stop-color:#7D7D99"
         id="midPointStop620" />
      <a:midPointStop
         offset="0.5"
         style="stop-color:#7D7D99"
         id="midPointStop621" />
      <a:midPointStop
         offset="1"
         style="stop-color:#585868"
         id="midPointStop622" />
    </linearGradient>
    <path
       fill="url(#XMLID_23_)"
       d="M93.399,159.341c-1.146,0-2.135,1.25-2.256,2.367c0.006-0.04,0.008-0.08,0.008-0.12     c0-0.043-0.037-0.07-0.043-0.112c-0.476,1.566-2.938,7.812-5.89,15.249c-6.073,15.314-6.322,16.159-6.322,16.984     c0,1.239,1.007,2.249,2.249,2.249h92.195c1.24,0,2.248-1.01,2.248-2.249c0-0.833-0.256-1.682-6.463-16.919     c-2.611-6.414-4.838-11.907-5.742-14.36c-0.203-0.178-0.344-0.428-0.375-0.719c-0.123-1.117-1.113-2.37-2.256-2.37H93.399      M89.052,161.189c0.1,0.427,0.388,0.794,0.842,0.876c0.512,0.095,0.976-0.206,1.185-0.667c-0.09-0.474-0.43-0.874-0.934-0.927     C89.642,160.418,89.241,160.745,89.052,161.189z"
       id="path623" />
    <g
       opacity="0.8"
       id="g624">
      <linearGradient
         id="XMLID_24_"
         gradientUnits="userSpaceOnUse"
         x1="127.0757"
         y1="152.6572"
         x2="127.0757"
         y2="168.7256">
        <stop
           offset="0"
           style="stop-color:#B2B2B2"
           id="stop626" />
        <stop
           offset="1"
           style="stop-color:#828282"
           id="stop627" />
        <a:midPointStop
           offset="0"
           style="stop-color:#B2B2B2"
           id="midPointStop628" />
        <a:midPointStop
           offset="0.5"
           style="stop-color:#B2B2B2"
           id="midPointStop629" />
        <a:midPointStop
           offset="1"
           style="stop-color:#828282"
           id="midPointStop630" />
      </linearGradient>
      <path
         fill="url(#XMLID_24_)"
         d="M171.041,152.657v16.068c1.133,0,1.928,0,2.295,0      C173.336,164.774,171.041,152.657,171.041,152.657 M80.816,168.726c0.413,0,1.194,0,2.271,0v-16.068      C83.087,152.657,80.816,164.774,80.816,168.726z"
         id="path631" />
    </g>
    <linearGradient
       id="XMLID_25_"
       gradientUnits="userSpaceOnUse"
       x1="127.0645"
       y1="168.3994"
       x2="127.0645"
       y2="155.0625">
      <stop
         offset="0"
         style="stop-color:#666666"
         id="stop633" />
      <stop
         offset="1"
         style="stop-color:#333333"
         id="stop634" />
      <a:midPointStop
         offset="0"
         style="stop-color:#666666"
         id="midPointStop635" />
      <a:midPointStop
         offset="0.5"
         style="stop-color:#666666"
         id="midPointStop636" />
      <a:midPointStop
         offset="1"
         style="stop-color:#333333"
         id="midPointStop637" />
    </linearGradient>
    <rect
       x="83.087"
       y="155.063"
       fill="url(#XMLID_25_)"
       width="87.954"
       height="13.337"
       id="rect638" />
    <path
       opacity="0.5"
       fill="#FFFFFF"
       d="M159.176,114.688c10.477,0,20.533,0.66,29.896,1.869c-0.768-1.621-1.668-2.988-2.711-4.032     c-10.814-10.814-107.96-10.635-118.595,0c-4.117,4.117-5.99,13.453-6.376,23.712c2.961,1.439,6.18,2.783,9.621,4.013     C80.83,125.57,116.575,114.688,159.176,114.688z"
       id="path639" />
    <path
       fill="#336666"
       d="M178.438,119.54c-1.773,0.15-3.699,1.53-4.293,3.082c-0.6,1.554,0.357,2.69,2.135,2.539     c1.77-0.146,3.695-1.528,4.291-3.08C181.166,120.527,180.211,119.389,178.438,119.54z"
       id="path640" />
    <linearGradient
       id="XMLID_26_"
       gradientUnits="userSpaceOnUse"
       x1="307.5352"
       y1="354.959"
       x2="307.8908"
       y2="357.093"
       gradientTransform="matrix(0.7071 -0.7071 0.7071 0.7071 -291.1086 88.8076)">
      <stop
         offset="0"
         style="stop-color:#72C296"
         id="stop642" />
      <stop
         offset="1"
         style="stop-color:#009F81"
         id="stop643" />
      <a:midPointStop
         offset="0"
         style="stop-color:#72C296"
         id="midPointStop644" />
      <a:midPointStop
         offset="0.5"
         style="stop-color:#72C296"
         id="midPointStop645" />
      <a:midPointStop
         offset="1"
         style="stop-color:#009F81"
         id="midPointStop646" />
    </linearGradient>
    <path
       fill="url(#XMLID_26_)"
       d="M178.285,119.94c-1.113,0.096-2.75,1.23-3.285,2.61c-0.531,1.379,0.316,2.305,1.43,2.209     c1.115-0.091,2.756-1.229,3.285-2.607C180.244,120.772,179.395,119.848,178.285,119.94z"
       id="path647" />
    <linearGradient
       id="XMLID_27_"
       gradientUnits="userSpaceOnUse"
       x1="308.1016"
       y1="353.2939"
       x2="308.1016"
       y2="355.0226"
       gradientTransform="matrix(0.7071 -0.7071 0.7071 0.7071 -291.1086 88.8076)">
      <stop
         offset="0"
         style="stop-color:#FFFFFF"
         id="stop649" />
      <stop
         offset="1"
         style="stop-color:#33CC66"
         id="stop650" />
      <a:midPointStop
         offset="0"
         style="stop-color:#FFFFFF"
         id="midPointStop651" />
      <a:midPointStop
         offset="0.5"
         style="stop-color:#FFFFFF"
         id="midPointStop652" />
      <a:midPointStop
         offset="1"
         style="stop-color:#33CC66"
         id="midPointStop653" />
    </linearGradient>
    <path
       fill="url(#XMLID_27_)"
       d="M178.293,119.91c-0.947,0.084-2.361,1.055-2.842,2.228c-0.09,0.22-0.139,0.424-0.152,0.613     c0.664-0.175,1.352-0.418,2-0.723c1.174-0.549,1.932-1.165,2.115-1.645C179.182,120.046,178.768,119.867,178.293,119.91z"
       id="path654" />
    <path
       fill="#FFFFFF"
       d="M192.756,136.108c-0.047-1.226-0.109-2.437-0.203-3.629C192.646,133.672,192.709,134.883,192.756,136.108     z"
       id="path655" />
    <path
       fill="#FFFFFF"
       d="M192.756,136.108c0,0.04,0.002,0.084,0.002,0.126c0.002,0,0.002,0,0.002-0.003     C192.76,136.19,192.756,136.148,192.756,136.108z"
       id="path656" />
    <path
       fill="#FFFFFF"
       d="M166.826,144.856c-1.691-12.227-4.143-29.187-6.297-41.127c-0.115-0.639-0.646-1.122-1.287-1.18     c-19.477-1.756-44.717-1.743-64.302,0.032c-0.647,0.059-1.173,0.541-1.289,1.177c-2.181,11.948-4.709,28.876-6.461,41.072     c11.952,2.618,25.508,4.103,39.882,4.103C141.395,148.934,154.904,147.461,166.826,144.856z"
       id="path657" />
    <linearGradient
       id="XMLID_28_"
       gradientUnits="userSpaceOnUse"
       x1="127.0059"
       y1="148.6094"
       x2="127.0059"
       y2="102.6826">
      <stop
         offset="0"
         style="stop-color:#949494"
         id="stop659" />
      <stop
         offset="1"
         style="stop-color:#616161"
         id="stop660" />
      <a:midPointStop
         offset="0"
         style="stop-color:#949494"
         id="midPointStop661" />
      <a:midPointStop
         offset="0.5"
         style="stop-color:#949494"
         id="midPointStop662" />
      <a:midPointStop
         offset="1"
         style="stop-color:#616161"
         id="midPointStop663" />
    </linearGradient>
    <path
       fill="url(#XMLID_28_)"
       d="M95.068,104.009c-2.261,12.305-4.917,30.118-6.49,40.986c11.689,2.318,24.733,3.614,38.496,3.614     c13.709,0,26.708-1.287,38.36-3.589c-1.514-10.869-4.086-28.724-6.322-41.046C139.641,102.233,114.543,102.258,95.068,104.009z"
       id="path664" />
    <linearGradient
       id="XMLID_29_"
       gradientUnits="userSpaceOnUse"
       x1="127.0723"
       y1="123.6919"
       x2="127.0723"
       y2="76.0101">
      <stop
         offset="0"
         style="stop-color:#9A9AB1"
         id="stop666" />
      <stop
         offset="1"
         style="stop-color:#585868"
         id="stop667" />
      <a:midPointStop
         offset="0"
         style="stop-color:#9A9AB1"
         id="midPointStop668" />
      <a:midPointStop
         offset="0.5"
         style="stop-color:#9A9AB1"
         id="midPointStop669" />
      <a:midPointStop
         offset="1"
         style="stop-color:#585868"
         id="midPointStop670" />
    </linearGradient>
    <path
       fill="url(#XMLID_29_)"
       d="M98.342,58.381c-1.241,0-2.249,1.007-2.249,2.248v70.077c0,1.239,1.008,2.248,2.249,2.248h57.46     c1.24,0,2.248-1.009,2.248-2.248V60.629c0-1.241-1.008-2.248-2.248-2.248H98.342z"
       id="path671" />
    <path
       fill="#FFFFFF"
       d="M98.342,60.629c0,1.259,0,68.823,0,70.077c1.249,0,56.21,0,57.46,0c0-1.254,0-68.818,0-70.077     C154.553,60.629,99.591,60.629,98.342,60.629z"
       id="path672" />
    <linearGradient
       id="XMLID_30_"
       gradientUnits="userSpaceOnUse"
       x1="92.9355"
       y1="61.5308"
       x2="153.815"
       y2="122.4102">
      <stop
         offset="0.3202"
         style="stop-color:#FFFFFF"
         id="stop674" />
      <stop
         offset="0.6236"
         style="stop-color:#E6EEF6"
         id="stop675" />
      <stop
         offset="0.9382"
         style="stop-color:#CECEDB"
         id="stop676" />
      <a:midPointStop
         offset="0.3202"
         style="stop-color:#FFFFFF"
         id="midPointStop677" />
      <a:midPointStop
         offset="0.5"
         style="stop-color:#FFFFFF"
         id="midPointStop678" />
      <a:midPointStop
         offset="0.6236"
         style="stop-color:#E6EEF6"
         id="midPointStop679" />
      <a:midPointStop
         offset="0.5"
         style="stop-color:#E6EEF6"
         id="midPointStop680" />
      <a:midPointStop
         offset="0.9382"
         style="stop-color:#CECEDB"
         id="midPointStop681" />
    </linearGradient>
    <path
       fill="url(#XMLID_30_)"
       d="M102.837,65.125c0,7.335,0,53.751,0,61.085c6.99,0,41.479,0,48.469,0c0-7.334,0-53.75,0-61.085     C144.316,65.125,109.828,65.125,102.837,65.125z"
       id="path682" />
    <path
       fill="#FFFFFF"
       d="M93.399,161.59c0,1.223-12.254,30.895-12.254,32.119c3.075,0,89.121,0,92.195,0     c0-1.225-12.588-30.896-12.588-32.119C157.676,161.59,96.477,161.59,93.399,161.59z"
       id="path683" />
    <linearGradient
       id="XMLID_31_"
       gradientUnits="userSpaceOnUse"
       x1="98.5767"
       y1="153.6768"
       x2="164.5186"
       y2="219.6187">
      <stop
         offset="0"
         style="stop-color:#FFFFFF"
         id="stop685" />
      <stop
         offset="1"
         style="stop-color:#CECEDB"
         id="stop686" />
      <a:midPointStop
         offset="0"
         style="stop-color:#FFFFFF"
         id="midPointStop687" />
      <a:midPointStop
         offset="0.5"
         style="stop-color:#FFFFFF"
         id="midPointStop688" />
      <a:midPointStop
         offset="1"
         style="stop-color:#CECEDB"
         id="midPointStop689" />
    </linearGradient>
    <path
       fill="url(#XMLID_31_)"
       d="M96.626,166.085c-0.91,2.429-2.47,6.396-5.171,13.211c-1.248,3.145-2.731,6.886-3.909,9.918     c10.251,0,68.991,0,79.333,0c-1.209-3.026-2.723-6.747-4-9.88c-2.787-6.842-4.393-10.817-5.326-13.249     C152.035,166.085,102.187,166.085,96.626,166.085z"
       id="path690" />
    <path
       fill="#990000"
       d="M96.314,114.054c-2.174,8.947-4.728,21.899-6.238,29.803c11.232,1.683,23.77,2.627,36.996,2.627     c13.176,0,25.667-0.938,36.864-2.61c-1.451-7.904-3.928-20.885-6.076-29.843C139.145,112.763,115.029,112.78,96.314,114.054z"
       id="path691" />
    <linearGradient
       id="XMLID_32_"
       gradientUnits="userSpaceOnUse"
       x1="127.0054"
       y1="114.6772"
       x2="127.0054"
       y2="143.4173">
      <stop
         offset="0"
         style="stop-color:#F7F7F7"
         id="stop693" />
      <stop
         offset="0.0426"
         style="stop-color:#F8E5E5"
         id="stop694" />
      <stop
         offset="0.3388"
         style="stop-color:#FC6B6B"
         id="stop695" />
      <stop
         offset="0.5419"
         style="stop-color:#FE1E1E"
         id="stop696" />
      <stop
         offset="0.6348"
         style="stop-color:#FF0000"
         id="stop697" />
      <stop
         offset="1"
         style="stop-color:#CF0000"
         id="stop698" />
      <a:midPointStop
         offset="0"
         style="stop-color:#F7F7F7"
         id="midPointStop699" />
      <a:midPointStop
         offset="0.4689"
         style="stop-color:#F7F7F7"
         id="midPointStop700" />
      <a:midPointStop
         offset="0.6348"
         style="stop-color:#FF0000"
         id="midPointStop701" />
      <a:midPointStop
         offset="0.5"
         style="stop-color:#FF0000"
         id="midPointStop702" />
      <a:midPointStop
         offset="1"
         style="stop-color:#CF0000"
         id="midPointStop703" />
    </linearGradient>
    <path
       fill="url(#XMLID_32_)"
       d="M96.314,115.554c-2.174,9.044-4.728,22.138-6.238,30.126c11.232,1.705,23.77,2.656,36.996,2.656     c13.176,0,25.667-0.945,36.864-2.637c-1.451-7.991-3.928-21.113-6.076-30.171C139.145,114.246,115.029,114.264,96.314,115.554z"
       id="path704" />
    <path
       opacity="0.4"
       fill="#FFFFFF"
       d="M158.096,119.373c0.209,0,0.416,0.005,0.627,0.007c-0.291-1.335-0.582-2.623-0.863-3.834     c-18.715-1.304-42.831-1.287-61.545,0.024c-2.071,8.77-4.486,21.272-6.015,29.467     C100.347,130.067,126.907,119.373,158.096,119.373z"
       id="path705" />
    <path
       opacity="0.2"
       d="M162.24,168.639c-0.908-4.146-1.488-6.969-1.488-7.438c-3.076,0-64.275,0-67.353,0     c0,0.469-0.565,3.291-1.445,7.438H162.24z"
       id="path706" />
    <rect
       id="_x3C_Slice_x3E_"
       fill="none"
       width="256"
       height="256" />
  </g>
</svg>
