<?xml version="1.0" encoding="UTF-8" standalone="no"?>
<!DOCTYPE svg PUBLIC "-//W3C//DTD SVG 20010904//EN"
"http://www.w3.org/TR/2001/REC-SVG-20010904/DTD/svg10.dtd">
<!-- Created with Sodipodi ("http://www.sodipodi.com/") -->
<svg
   width="48pt"
   height="48pt"
   viewBox="0 0 256 256"
   style="overflow:visible;enable-background:new 0 0 256 256"
   xml:space="preserve"
   xmlns="http://www.w3.org/2000/svg"
   xmlns:xml="http://www.w3.org/XML/1998/namespace"
   xmlns:a="http://ns.adobe.com/AdobeSVGViewerExtensions/3.0/"
   xmlns:sodipodi="http://sodipodi.sourceforge.net/DTD/sodipodi-0.dtd"
   xmlns:xlink="http://www.w3.org/1999/xlink"
   id="svg3141"
   sodipodi:version="0.32"
   sodipodi:docname="/home/david/Documenti/Progetti/add2cvs/gnome-mime-application-x-core-file.svgz"
   sodipodi:docbase="/home/david/Documenti/Progetti/add2cvs/">
  <defs
     id="defs3260" />
  <sodipodi:namedview
     id="base" />
  <g
     id="Layer_1"
     style="stroke:#000000;">
    <g
       id="g3143">
      <path
         style="opacity:0.2;stroke:none;"
         d="M44,15.5c-9.374,0-17,7.626-17,17v200c0,9.374,7.626,17,17,17h176c9.375,0,17-7.626,17-17v-200     c0-9.374-7.625-17-17-17H44z"
         id="path3144" />
      <path
         style="opacity:0.2;stroke:none;"
         d="M42,13.5c-9.374,0-17,7.626-17,17v200c0,9.374,7.626,17,17,17h176c9.375,0,17-7.626,17-17v-200     c0-9.374-7.625-17-17-17H42z"
         id="path3145" />
      <path
         style="opacity:0.2;stroke:none;"
         d="M40,12.5c-9.374,0-17,7.626-17,17v200c0,9.374,7.626,17,17,17h176c9.375,0,17-7.626,17-17v-200     c0-9.374-7.625-17-17-17H40z"
         id="path3146" />
      <linearGradient
         id="XMLID_1_"
         gradientUnits="userSpaceOnUse"
         x1="128.9995"
         y1="11"
         x2="128.9995"
         y2="245.0005">
        <stop
           offset="0"
           style="stop-color:#494949"
           id="stop3148" />
        <stop
           offset="1"
           style="stop-color:#000000"
           id="stop3149" />
        <a:midPointStop
           offset="0"
           style="stop-color:#494949"
           id="midPointStop3150" />
        <a:midPointStop
           offset="0.5"
           style="stop-color:#494949"
           id="midPointStop3151" />
        <a:midPointStop
           offset="1"
           style="stop-color:#000000"
           id="midPointStop3152" />
      </linearGradient>
      <path
         style="fill:url(#XMLID_1_);stroke:none;"
         d="M41,11c-9.374,0-17,7.626-17,17v200c0,9.374,7.626,17,17,17h176c9.375,0,17-7.626,17-17V28     c0-9.374-7.625-17-17-17H41z"
         id="path3153" />
      <path
         style="fill:#FFFFFF;stroke:none;"
         d="M28,228c0,6.627,5.373,12,12,12h176c6.627,0,12-5.373,12-12V28c0-6.627-5.373-12-12-12H40     c-6.627,0-12,5.373-12,12V228z"
         id="path3154" />
      <linearGradient
         id="XMLID_2_"
         gradientUnits="userSpaceOnUse"
         x1="29.0532"
         y1="29.0532"
         x2="226.9471"
         y2="226.9471">
        <stop
           offset="0"
           style="stop-color:#FFFFFF"
           id="stop3156" />
        <stop
           offset="1"
           style="stop-color:#DADADA"
           id="stop3157" />
        <a:midPointStop
           offset="0"
           style="stop-color:#FFFFFF"
           id="midPointStop3158" />
        <a:midPointStop
           offset="0.5"
           style="stop-color:#FFFFFF"
           id="midPointStop3159" />
        <a:midPointStop
           offset="1"
           style="stop-color:#DADADA"
           id="midPointStop3160" />
      </linearGradient>
      <path
         style="fill:url(#XMLID_2_);stroke:none;"
         d="M40,21c-3.86,0-7,3.14-7,7v200c0,3.859,3.14,7,7,7h176c3.859,0,7-3.141,7-7V28c0-3.86-3.141-7-7-7H40z"
         id="path3161" />
      <path
         style="fill:none;stroke:none;"
         d="M256,256H0V0h256V256z"
         id="path3162" />
    </g>
    <path
       style="opacity:0.2;stroke:none;"
       d="M151.852,113.946c1.604-1.227,3.266-2.684,4.979-4.396c-0.008-0.059-0.014-0.113-0.021-0.17    c0.232-0.121,0.455-0.266,0.65-0.463c2.303-2.301-0.656-7.32-4.611-11.273c-3.951-3.951-8.973-6.91-11.271-4.611    c-0.199,0.199-0.344,0.424-0.467,0.66c-0.057-0.01-0.109-0.02-0.166-0.029c-2.732,2.732-4.816,5.338-6.346,7.771    c-6.264-2.768-13.187-4.316-20.474-4.316c-28.014,0-50.726,22.713-50.726,50.725c0,28.018,22.712,50.725,50.726,50.725    c28.015,0,50.724-22.707,50.724-50.725C164.848,134.812,159.93,122.931,151.852,113.946z"
       id="path3163" />
    <path
       style="stroke:none;"
       d="M61.063,145.507c0,28.018,22.711,50.725,50.725,50.725c28.015,0,50.724-22.707,50.724-50.725    c0-28.012-22.709-50.723-50.724-50.723C83.774,94.784,61.063,117.495,61.063,145.507z"
       id="path3164" />
    <linearGradient
       id="XMLID_3_"
       gradientUnits="userSpaceOnUse"
       x1="111.7876"
       y1="230.2852"
       x2="111.7876"
       y2="142.8498">
      <stop
         offset="0"
         style="stop-color:#FFFFFF"
         id="stop3166" />
      <stop
         offset="0.1019"
         style="stop-color:#FAFAFA"
         id="stop3167" />
      <stop
         offset="0.2256"
         style="stop-color:#EBEBEB"
         id="stop3168" />
      <stop
         offset="0.3606"
         style="stop-color:#D2D2D2"
         id="stop3169" />
      <stop
         offset="0.5037"
         style="stop-color:#B0B0B0"
         id="stop3170" />
      <stop
         offset="0.6532"
         style="stop-color:#848484"
         id="stop3171" />
      <stop
         offset="0.8081"
         style="stop-color:#4E4E4E"
         id="stop3172" />
      <stop
         offset="0.9646"
         style="stop-color:#0F0F0F"
         id="stop3173" />
      <stop
         offset="1"
         style="stop-color:#000000"
         id="stop3174" />
      <a:midPointStop
         offset="0"
         style="stop-color:#FFFFFF"
         id="midPointStop3175" />
      <a:midPointStop
         offset="0.6667"
         style="stop-color:#FFFFFF"
         id="midPointStop3176" />
      <a:midPointStop
         offset="1"
         style="stop-color:#000000"
         id="midPointStop3177" />
    </linearGradient>
    <path
       style="opacity:0.6;fill:url(#XMLID_3_);stroke:none;"
       d="M63.961,145.507c0,26.373,21.457,47.828,47.826,47.828c26.373,0,47.826-21.455,47.826-47.828    c0-26.371-21.453-47.824-47.826-47.824C85.418,97.683,63.961,119.136,63.961,145.507z"
       id="path3178" />
    <radialGradient
       id="XMLID_4_"
       cx="223.2383"
       cy="994.0244"
       r="45.424"
       fx="223.2383"
       fy="994.0244"
       gradientTransform="matrix(1.358 -0.622 0.5218 1.1393 -739.9166 -885.3684)"
       gradientUnits="userSpaceOnUse">
      <stop
         offset="0"
         style="stop-color:#FFFFFF"
         id="stop3180" />
      <stop
         offset="1"
         style="stop-color:#000000"
         id="stop3181" />
      <a:midPointStop
         offset="0"
         style="stop-color:#FFFFFF"
         id="midPointStop3182" />
      <a:midPointStop
         offset="0.5"
         style="stop-color:#FFFFFF"
         id="midPointStop3183" />
      <a:midPointStop
         offset="1"
         style="stop-color:#000000"
         id="midPointStop3184" />
    </radialGradient>
    <path
       style="fill:url(#XMLID_4_);stroke:none;"
       d="M72.417,139.845c5.498,12.01,21.556,16.426,35.869,9.871c14.314-6.555,21.457-21.602,15.958-33.607    c-5.501-12.006-21.558-16.43-35.872-9.873C74.059,112.79,66.916,127.837,72.417,139.845z"
       id="path3185" />
    <path
       style="stroke:none;"
       d="M138.609,91.327c-10.72,10.721-11.527,19.508-7.574,23.461c3.951,3.951,12.74,3.146,23.459-7.572    C153.395,97.864,152.15,93.673,138.609,91.327z"
       id="path3186" />
    <linearGradient
       id="XMLID_5_"
       gradientUnits="userSpaceOnUse"
       x1="131.501"
       y1="96.0942"
       x2="141.1622"
       y2="105.7555">
      <stop
         offset="0"
         style="stop-color:#FFFFFF"
         id="stop3188" />
      <stop
         offset="1"
         style="stop-color:#000000"
         id="stop3189" />
      <a:midPointStop
         offset="0"
         style="stop-color:#FFFFFF"
         id="midPointStop3190" />
      <a:midPointStop
         offset="0.5"
         style="stop-color:#FFFFFF"
         id="midPointStop3191" />
      <a:midPointStop
         offset="1"
         style="stop-color:#000000"
         id="midPointStop3192" />
    </linearGradient>
    <path
       style="fill:url(#XMLID_5_);stroke:none;"
       d="M130.328,109.021c0,2.031,0.631,3.646,1.732,4.742c3.273,3.275,11.178,2.385,20.902-7.094    c-1.035-8.391-2.371-11.637-13.852-13.756C132.842,99.356,130.328,105.003,130.328,109.021z"
       id="path3193" />
    <path
       style="stroke:none;"
       d="M139.24,90.698c-2.299,2.299,0.66,7.318,4.613,11.273c3.951,3.953,8.973,6.912,11.27,4.611    c2.305-2.303-0.656-7.32-4.611-11.273C146.561,91.358,141.541,88.397,139.24,90.698z"
       id="path3194" />
    <linearGradient
       id="XMLID_6_"
       gradientUnits="userSpaceOnUse"
       x1="139.9121"
       y1="98.6406"
       x2="154.4531"
       y2="98.6406">
      <stop
         offset="0"
         style="stop-color:#BBBBBB"
         id="stop3196" />
      <stop
         offset="1"
         style="stop-color:#888888"
         id="stop3197" />
      <a:midPointStop
         offset="0"
         style="stop-color:#BBBBBB"
         id="midPointStop3198" />
      <a:midPointStop
         offset="0.5"
         style="stop-color:#BBBBBB"
         id="midPointStop3199" />
      <a:midPointStop
         offset="1"
         style="stop-color:#888888"
         id="midPointStop3200" />
    </linearGradient>
    <path
       style="fill:url(#XMLID_6_);stroke:none;"
       d="M140.266,91.724c-1.273,1.271,0.793,5.402,4.611,9.223c3.82,3.82,7.949,5.885,9.221,4.611    c1.275-1.275-0.787-5.402-4.611-9.223C145.668,92.517,141.541,90.45,140.266,91.724z"
       id="path3201" />
    <linearGradient
       id="XMLID_7_"
       gradientUnits="userSpaceOnUse"
       x1="145.959"
       y1="93.0645"
       x2="166.4863"
       y2="93.0645">
      <stop
         offset="0"
         style="stop-color:#FF9200"
         id="stop3203" />
      <stop
         offset="0.264"
         style="stop-color:#FF0000"
         id="stop3204" />
      <stop
         offset="0.3747"
         style="stop-color:#FA0000"
         id="stop3205" />
      <stop
         offset="0.5089"
         style="stop-color:#EB0000"
         id="stop3206" />
      <stop
         offset="0.6554"
         style="stop-color:#D20000"
         id="stop3207" />
      <stop
         offset="0.8106"
         style="stop-color:#B00000"
         id="stop3208" />
      <stop
         offset="0.9711"
         style="stop-color:#850000"
         id="stop3209" />
      <stop
         offset="1"
         style="stop-color:#7C0000"
         id="stop3210" />
      <a:midPointStop
         offset="0"
         style="stop-color:#FF9200"
         id="midPointStop3211" />
      <a:midPointStop
         offset="0.5"
         style="stop-color:#FF9200"
         id="midPointStop3212" />
      <a:midPointStop
         offset="0.264"
         style="stop-color:#FF0000"
         id="midPointStop3213" />
      <a:midPointStop
         offset="0.6667"
         style="stop-color:#FF0000"
         id="midPointStop3214" />
      <a:midPointStop
         offset="1"
         style="stop-color:#7C0000"
         id="midPointStop3215" />
    </linearGradient>
    <path
       style="fill:url(#XMLID_7_);stroke:none;"
       d="M166.486,89.116c-0.025-0.523-0.045-1.057-0.061-1.588c-13.977,1.152-18.816,6.443-20.467,9.551    c0.311,0.494,0.604,1.004,0.893,1.521l0.682-0.303C149.232,95.274,153.904,90.46,166.486,89.116z"
       id="path3216" />
    <linearGradient
       id="XMLID_8_"
       gradientUnits="userSpaceOnUse"
       x1="158.666"
       y1="69.667"
       x2="171.8574"
       y2="69.667">
      <stop
         offset="0"
         style="stop-color:#FF6D00"
         id="stop3218" />
      <stop
         offset="1"
         style="stop-color:#FF3300"
         id="stop3219" />
      <a:midPointStop
         offset="0"
         style="stop-color:#FF6D00"
         id="midPointStop3220" />
      <a:midPointStop
         offset="0.5"
         style="stop-color:#FF6D00"
         id="midPointStop3221" />
      <a:midPointStop
         offset="1"
         style="stop-color:#FF3300"
         id="midPointStop3222" />
    </linearGradient>
    <path
       style="fill:url(#XMLID_8_);stroke:none;"
       d="M164.717,57.433l7.141,1.916l-6.051,22.553l-7.141-1.916L164.717,57.433z"
       id="path3223" />
    <linearGradient
       id="XMLID_9_"
       gradientUnits="userSpaceOnUse"
       x1="160.666"
       y1="69.8423"
       x2="168.7969"
       y2="69.8423">
      <stop
         offset="0"
         style="stop-color:#FFAE00"
         id="stop3225" />
      <stop
         offset="1"
         style="stop-color:#FFF030"
         id="stop3226" />
      <a:midPointStop
         offset="0"
         style="stop-color:#FFAE00"
         id="midPointStop3227" />
      <a:midPointStop
         offset="0.5"
         style="stop-color:#FFAE00"
         id="midPointStop3228" />
      <a:midPointStop
         offset="1"
         style="stop-color:#FFF030"
         id="midPointStop3229" />
    </linearGradient>
    <path
       style="fill:url(#XMLID_9_);stroke:none;"
       d="M160.666,79.272c1.237,0.332,1.626,0.438,2.862,0.77c0.95-3.534,4.32-16.098,5.269-19.632    c-1.236-0.332-1.626-0.436-2.862-0.767C164.986,63.175,161.614,75.741,160.666,79.272z"
       id="path3230" />
    <linearGradient
       id="XMLID_10_"
       gradientUnits="userSpaceOnUse"
       x1="169.2207"
       y1="81.1758"
       x2="193.2949"
       y2="81.1758">
      <stop
         offset="0"
         style="stop-color:#FF6D00"
         id="stop3232" />
      <stop
         offset="1"
         style="stop-color:#FF3300"
         id="stop3233" />
      <a:midPointStop
         offset="0"
         style="stop-color:#FF6D00"
         id="midPointStop3234" />
      <a:midPointStop
         offset="0.5"
         style="stop-color:#FF6D00"
         id="midPointStop3235" />
      <a:midPointStop
         offset="1"
         style="stop-color:#FF3300"
         id="midPointStop3236" />
    </linearGradient>
    <path
       style="fill:url(#XMLID_10_);stroke:none;"
       d="M189.803,72.403l3.492,6.518l-20.582,11.027l-3.492-6.518L189.803,72.403z"
       id="path3237" />
    <linearGradient
       id="XMLID_11_"
       gradientUnits="userSpaceOnUse"
       x1="171.3809"
       y1="80.1768"
       x2="189.1348"
       y2="80.1768">
      <stop
         offset="0"
         style="stop-color:#FFAE00"
         id="stop3239" />
      <stop
         offset="1"
         style="stop-color:#FFF030"
         id="stop3240" />
      <a:midPointStop
         offset="0"
         style="stop-color:#FFAE00"
         id="midPointStop3241" />
      <a:midPointStop
         offset="0.5"
         style="stop-color:#FFAE00"
         id="midPointStop3242" />
      <a:midPointStop
         offset="1"
         style="stop-color:#FFF030"
         id="midPointStop3243" />
    </linearGradient>
    <path
       style="fill:url(#XMLID_11_);stroke:none;"
       d="M171.381,83.386c0.557,1.039,0.73,1.365,1.287,2.402c2.963-1.588,13.502-7.234,16.467-8.822    c-0.557-1.037-0.73-1.363-1.287-2.4C184.883,76.153,174.346,81.798,171.381,83.386z"
       id="path3244" />
    <linearGradient
       id="XMLID_12_"
       gradientUnits="userSpaceOnUse"
       x1="170.4492"
       y1="100.71"
       x2="194.9375"
       y2="100.71">
      <stop
         offset="0"
         style="stop-color:#FF6D00"
         id="stop3246" />
      <stop
         offset="1"
         style="stop-color:#FF3300"
         id="stop3247" />
      <a:midPointStop
         offset="0"
         style="stop-color:#FF6D00"
         id="midPointStop3248" />
      <a:midPointStop
         offset="0.5"
         style="stop-color:#FF6D00"
         id="midPointStop3249" />
      <a:midPointStop
         offset="1"
         style="stop-color:#FF3300"
         id="midPointStop3250" />
    </linearGradient>
    <path
       style="fill:url(#XMLID_12_);stroke:none;"
       d="M194.938,100.444l-2.08,7.096l-22.408-6.563l2.078-7.098L194.938,100.444z"
       id="path3251" />
    <linearGradient
       id="XMLID_13_"
       gradientUnits="userSpaceOnUse"
       x1="172.3457"
       y1="99.7109"
       x2="191.0391"
       y2="99.7109">
      <stop
         offset="0"
         style="stop-color:#FFAE00"
         id="stop3253" />
      <stop
         offset="1"
         style="stop-color:#FFF030"
         id="stop3254" />
      <a:midPointStop
         offset="0"
         style="stop-color:#FFAE00"
         id="midPointStop3255" />
      <a:midPointStop
         offset="0.5"
         style="stop-color:#FFAE00"
         id="midPointStop3256" />
      <a:midPointStop
         offset="1"
         style="stop-color:#FFF030"
         id="midPointStop3257" />
    </linearGradient>
    <path
       style="fill:url(#XMLID_13_);stroke:none;"
       d="M172.346,98.392c3.229,0.945,14.701,4.307,17.928,5.252c0.332-1.131,0.436-1.484,0.766-2.613    c-3.227-0.947-14.699-4.307-17.928-5.252C172.781,96.907,172.678,97.263,172.346,98.392z"
       id="path3258" />
  </g>
</svg>
