<?xml version="1.0" encoding="UTF-8" standalone="no"?>
<!DOCTYPE svg PUBLIC "-//W3C//DTD SVG 20010904//EN"
"http://www.w3.org/TR/2001/REC-SVG-20010904/DTD/svg10.dtd">
<!-- Created with Sodipodi ("http://www.sodipodi.com/") -->
<svg
   width="48pt"
   height="48pt"
   viewBox="0 0 256 256"
   overflow="visible"
   enable-background="new 0 0 256 256"
   xml:space="preserve"
   xmlns="http://www.w3.org/2000/svg"
   xmlns:xap="http://ns.adobe.com/xap/1.0/"
   xmlns:xapGImg="http://ns.adobe.com/xap/1.0/g/img/"
   xmlns:ns="http://ns.adobe.com/SaveForWeb/1.0/"
   xmlns:rdf="http://www.w3.org/1999/02/22-rdf-syntax-ns#"
   xmlns:xml="http://www.w3.org/XML/1998/namespace"
   xmlns:xapMM="http://ns.adobe.com/xap/1.0/mm/"
   xmlns:pdf="http://ns.adobe.com/pdf/1.3/"
   xmlns:dc="http://purl.org/dc/elements/1.1/"
   xmlns:a="http://ns.adobe.com/AdobeSVGViewerExtensions/3.0/"
   xmlns:x="adobe:ns:meta/"
   xmlns:sodipodi="http://sodipodi.sourceforge.net/DTD/sodipodi-0.dtd"
   xmlns:xlink="http://www.w3.org/1999/xlink"
   id="svg710"
   sodipodi:version="0.32"
   sodipodi:docname="/home/david/Documenti/Progetti/add2cvs/gnome-mime-application-text.svgz"
   sodipodi:docbase="/home/david/Documenti/Progetti/add2cvs/">
  <defs
     id="defs796" />
  <sodipodi:namedview
     id="base" />
  <metadata
     id="metadata711">
    <ns:sfw>
      <ns:slices>
        <ns:slice
           x="0"
           y="0"
           width="256"
           height="256"
           sliceID="124333141" />
      </ns:slices>
      <ns:sliceSourceBounds
         x="0"
         y="0"
         width="256"
         height="256"
         bottomLeftOrigin="true" />
      <ns:optimizationSettings>
        <ns:targetSettings
           fileFormat="PNG24Format"
           targetSettingsID="0">
          <ns:PNG24Format
             transparency="true"
             includeCaption="false"
             interlaced="false"
             noMatteColor="false"
             matteColor="#FFFFFF"
             filtered="false" />
        </ns:targetSettings>
      </ns:optimizationSettings>
    </ns:sfw>
    <xpacket>begin='﻿' id='W5M0MpCehiHzreSzNTczkc9d'    </xpacket>
    <x:xmpmeta
       x:xmptk="XMP toolkit 3.0-29, framework 1.6">
      <rdf:RDF>
        <rdf:Description
           rdf:about="uuid:cbee75c6-82d1-45ba-8274-b89c6084675c">
          <pdf:Producer>
Adobe PDF library 5.00</pdf:Producer>
        </rdf:Description>
        <rdf:Description
           rdf:about="uuid:cbee75c6-82d1-45ba-8274-b89c6084675c" />
        <rdf:Description
           rdf:about="uuid:cbee75c6-82d1-45ba-8274-b89c6084675c" />
        <rdf:Description
           rdf:about="uuid:cbee75c6-82d1-45ba-8274-b89c6084675c">
          <xap:CreateDate>
2004-01-26T11:58:28+02:00</xap:CreateDate>
          <xap:ModifyDate>
2004-03-28T20:41:40Z</xap:ModifyDate>
          <xap:CreatorTool>
Adobe Illustrator 10.0</xap:CreatorTool>
          <xap:MetadataDate>
2004-02-16T23:58:32+01:00</xap:MetadataDate>
          <xap:Thumbnails>
            <rdf:Alt>
              <rdf:li
                 rdf:parseType="Resource">
                <xapGImg:format>
JPEG</xapGImg:format>
                <xapGImg:width>
256</xapGImg:width>
                <xapGImg:height>
256</xapGImg:height>
                <xapGImg:image>
/9j/4AAQSkZJRgABAgEASABIAAD/7QAsUGhvdG9zaG9wIDMuMAA4QklNA+0AAAAAABAASAAAAAEA
AQBIAAAAAQAB/+4ADkFkb2JlAGTAAAAAAf/bAIQABgQEBAUEBgUFBgkGBQYJCwgGBggLDAoKCwoK
DBAMDAwMDAwQDA4PEA8ODBMTFBQTExwbGxscHx8fHx8fHx8fHwEHBwcNDA0YEBAYGhURFRofHx8f
Hx8fHx8fHx8fHx8fHx8fHx8fHx8fHx8fHx8fHx8fHx8fHx8fHx8fHx8fHx8f/8AAEQgBAAEAAwER
AAIRAQMRAf/EAaIAAAAHAQEBAQEAAAAAAAAAAAQFAwIGAQAHCAkKCwEAAgIDAQEBAQEAAAAAAAAA
AQACAwQFBgcICQoLEAACAQMDAgQCBgcDBAIGAnMBAgMRBAAFIRIxQVEGE2EicYEUMpGhBxWxQiPB
UtHhMxZi8CRygvElQzRTkqKyY3PCNUQnk6OzNhdUZHTD0uIIJoMJChgZhJRFRqS0VtNVKBry4/PE
1OT0ZXWFlaW1xdXl9WZ2hpamtsbW5vY3R1dnd4eXp7fH1+f3OEhYaHiImKi4yNjo+Ck5SVlpeYmZ
qbnJ2en5KjpKWmp6ipqqusra6voRAAICAQIDBQUEBQYECAMDbQEAAhEDBCESMUEFURNhIgZxgZEy
obHwFMHR4SNCFVJicvEzJDRDghaSUyWiY7LCB3PSNeJEgxdUkwgJChgZJjZFGidkdFU38qOzwygp
0+PzhJSktMTU5PRldYWVpbXF1eX1RlZmdoaWprbG1ub2R1dnd4eXp7fH1+f3OEhYaHiImKi4yNjo
+DlJWWl5iZmpucnZ6fkqOkpaanqKmqq6ytrq+v/aAAwDAQACEQMRAD8A9U4q7FXYq7FXYq7FXYq7
FXYq7FXYq7FXYq7FXYq7FXYq7FXYq7FXYq7FXYq7FXYq7FXYq7FXYq7FXYq7FXYq7FXYqlvmDzFo
3l7TJdT1e5W1tItuTbszHoiKN2Y+AxV4j5g/5ydvTcMnl/SYlgU0Se/LOzDxMcTIF/4M4qk//QzP
nv8A5YNL/wCRVx/2UYq7/oZnz3/ywaX/AMirj/soxV3/AEMz57/5YNL/AORVx/2UYq7/AKGZ89/8
sGl/8irj/soxV3/QzPnv/lg0v/kVcf8AZRirv+hmfPf/ACwaX/yKuP8AsoxV3/QzPnv/AJYNL/5F
XH/ZRirv+hmfPf8AywaX/wAirj/soxV3/QzPnv8A5YNL/wCRVx/2UYq7/oZnz3/ywaX/AMirj/so
xV3/AEMz57/5YNL/AORVx/2UYq7/AKGZ89/8sGl/8irj/soxV3/QzPnv/lg0v/kVcf8AZRirv+hm
fPf/ACwaX/yKuP8AsoxV3/QzPnv/AJYNL/5FXH/ZRirv+hmfPf8AywaX/wAirj/soxV3/QzPnv8A
5YNL/wCRVx/2UYq7/oZnz3/ywaX/AMirj/soxV3/AEMz57/5YNL/AORVx/2UYq7/AKGZ89/8sGl/
8irj/soxV3/QzPnv/lg0v/kVcf8AZRirv+hmfPf/ACwaX/yKuP8AsoxVFad/zk75oS4B1HSbG4t+
6W/qwP8A8E7zj/hcVeyeRfzJ8tec7Vn0yUx3kQBuLCaizJ25AAkMlf2l+mmKsqxV2KuxV2KuxV2K
vm/XDqf5ufmk+j287Q+XtJLqJF3VIY2CSzAHYvM9AvtTwOKvePLfk/y35bs0tdHsYrZVFGlCgyuf
GSQ/Ex+ZxVOK4q6oxVrkMVdyGKu5jFWvUGKu9RffFWvVX3xV3rL74q71l8DirXrp4HFXfWE8DirX
1hPA4q76yngcVd9Zj8D+GKtfWo/A/hirvrcfgfw/rirvrcfgfw/rirX1yLwb8P64q765F4N+H9cV
d9di8G/D+uKtfXovBvw/riqVa/5X8r+abR7TV7GO55CiyMoWZP8AKjkHxKR7HFXzB5n0XXfys8/R
NZXBJgIudOujsJYGJUpIB8ijj+oxV9VeWtfs/MGhWWsWf9xexLKErUoxHxI3up2OKplirsVdirsV
Q+oMy2Fyy/aWJyvzCnFXhP8AziwqvL5nmYcpQLIBz1oxuC2/uVGKvficVaxVrFWicVaJxVrFWsVa
JxVonFWsVaxVrFWicVaxVrFWicVaJxVrFWsVaJxVonFWsVaxVdCSJkp/MP14q8V/5ypRBJ5ZkCjm
wvVZu5CmAgfRyOKsn/5x3vJX8lwWzElQZmSvbjMR/wAbYq9XxV2KuxV2KofUv+Oddf8AGGT/AIic
VeE/84pn/lKP+jD/ALGcVe+nFWsVaJxVonFWsVaxVonFWicVaxVrFWsVaJxVrFWsVaJxVonFWsVa
xVonFWicVaxVrFWicVXQ/wB9H/rD9eKvFv8AnKw/8ov/ANH/AP2LYqn/APzjn/yisHyuP+T4xV6/
irsVdirsVQ+pf8c66/4wyf8AETirwf8A5xRNf8U/9GH/AGM4q9+PXFWicVaJxVrFWsVaJxVonFWs
VaxVrFWicVaxVrFWicVaJxVrFWsVaJxVonFWsVaxVonFWicVXQ/30f8ArD9eKvFf+crjT/C3/R//
ANi2Ksg/5xy/5RS3+Vx/yfGKvYMVdirsVdiqH1L/AI511/xhk/4icVeDf84nmv8Ain/ow/7GcVe/
HrirROKtYq1irROKtE4q1irWKtYq0TirWKtYq0TirROKtYq1irROKtE4q1irWKtE4q0TirWKroP7
+P8A1h+vFXiv/OWBp/hb/o//AOxbFWQf844f8onb/K4/5PjFXsOKuxV2KuxVD6l/xzrr/jDJ/wAR
OKvBP+cTD/ylX/Rh/wBjOKvf2O5xVrFWsVaJxVonFXln5ofnxoPk9pNM05V1XX1qrwK1IYD/AMXO
v7X+Qu/iRmNm1IhsNy7vs7sWef1S9MPtPu/W+fdS81/mp5+uWaS6urm3ZivoQH6vZoaV4mhSKtP5
zXNXn1dbzlT1uDQ6fAPTEX8z+tX8r+Z/Pf5Xa5azXMUo0+evrac8oe3njGz8GQugkWoNRuNq7GhO
m1Q5xNhhrNHh1cDH+Ideo/Y+q/KfnXRfM+nw3umyVinXkgPXbZlPgynqM3UJiQsPAajTzwzMJiiE
+yTS1irROKtE4q1irWKtE4q0TirWKtYq0TirROKtYq1iq6A/v4/9Zf14q8U/5yzP/KK/9H//AGLY
qyH/AJxv/wCUSt/lcf8AJ/FXsWKuxV2KuxVD6l/xzrr/AIwyf8ROKvAv+cSj/wApV/0Yf9jOKvoB
upxVrFWicVaJxV4h+fH50yaCJPK/l2amsSLTUL1DvbI4qET/AItYGtf2R79MPU6jh9I5vSdi9keL
+9yD0dB3/s+95B5J/L5tQC6rrQZ4JgJLe2JPKXlv6krdeJ6qK1br0+1zGu7S8P0w3l937Xryeg5P
W7GwRESONFSNAFjjQBVVR0CqKAD2GaCUpTNyNlxpzA5Jlr3ky01XQTYapDytrj4gw2kikH2HQkfC
wH8QdiRncdk9ncOmqW0pG/c8jqe1JQ1PHjO0dvIvF/L+u6/+Vvm19PvuUmnyMryqlaPGTRLiCtPi
FKHxoVPTaeHMcciO40XoNTpsfaGATjtLp+o/jzfVXlnzJY67psN3bSrKJUEiOvR1P7Q/iOxzbRkC
LDw2XHKEjGQqQTgnCwaJxVrFWsVaJxVonFWsVaxVonFWicVaxVrFWicVXwf38f8ArL+vFXiX/OWp
/wCUV/6P/wDsWxVkX/ONv/KI23yuf+T+KvY8VdirsVdiqH1L/jnXX/GGT/iJxV4D/wA4kGv+K/8A
t3/9jOKvoFvtH54qtJxVonFWMfmT5vXyj5M1LWwA1xDGEs4z0aeUhI6juAzcm9gcryz4YkuZ2fpf
HzRh0PP3PkvyBob+ZPMFzqWpt9aS3YT3Pq0czTzMSvME7glWZutaUPXOY7R1RxQ2+qX4t9GkBECI
2H6HtlraEmp3J3JOcsBbjZMjItDtrU3a+oQWT4lQ9GI7Z1HY/YxmRlyD0dB3/s+/3PM9p9p1cIHf
qe5mUsMV5CSAC1KMh751s5iIsvOAW87/ADA8gadr+mtY3i8WXk1hegVkglI/FTQc16MPAgEeXajX
ZtNq5ZpbwyHcfo946PXdn5/DiBHp073j/kXzlrX5ceZZNB1rktgJfiZakRM2wnjJA5RuPtDw361B
7fQ62MoiUTcJOX2n2fHVw8SH94Pt8i+qNH1i11SzS4gdW5KGPA8lIYVDKR1U9jm5BeHlEg0eaOxQ
1irROKtE4q1irWKtE4q0TirWKtYq0TirROKr4P7+P/XX9eKvEv8AnLc0/wAKf9vD/sWxVkf/ADjX
/wAofbfK5/5P4q9jxV2KuxV2KofUv+Oddf8AGGT/AIicVfP/APziMa/4r/7d/wD2M4q+gm+0fniq
0nFWsVedfn15Y1LzF+Xlzb6chlurOaO8WAbtIsQZWVffi5I+WUamBlDZ2vYupjh1AMuRFPn78qPM
lrYm40e4iIuJpDNCxNAxChWjpTZhxqPHfw35/P2fHUyAMuCvK/1PXdpZp4o+JEcUevf7/c9Xt9Qk
moFURr4Dc/fm30Xs/gwnil65efL5frt43Vdq5cuw9I8v1ptbB6rwryG4I7ZstXq8WngZ5JCMR3/j
d1+PHKZqIssu0fUGZQrn9+o+LwYZwp9pBq8hEPTGPIHr5/s6O1/I+HHfcpndWsN3CSBWv2l/z75b
qtNDUQJq+8fjqxx5DAvKfzN/LO08x2fAkQapbqTp98QeJHUxTUqSh+9TuO6tzej1U+z8vBPfDL8X
7+96HR6wjccuoed/lX+Y+p+TtZPlrzCWtoIpDHE02wt3O5R/GJ67GtB16bj0PSaoUN7ieRYdr9mD
PHxsX1df6X7Q+oLC/hvbdZoj7MvcHwzaPGognFWicVaxVrFWicVaJxVrFWsVaJxVonFWsVX2/wDv
RF/rr+vFXiP/ADlyaf4U/wC3h/2LYqyT/nGr/lDrb5XP/URir2TFXYq7FXYqh9S/4511/wAYZP8A
iJxV8+/84hn/AJSz/t3/APYzir6Dc/Efniq3FWsVWnf5Yq+d/wA+PydeGWTzf5ahKnl6mpWkIPIP
Wvrx07/zU+fXrg6nT/xB6rsTtblhynb+E/o/V8kF+VXnTStfC6bqf7rW0X4BXilyqipZAOjgCrL9
K7VC6HtjtPXYcXFhIqPPaz79/wBSdb2Ljxz4gPQfs8vd3fLuvqaRJGKIoUe2ebavX5tRLiyzMz5/
o7lx44wFRFLlLIwZTRhuCMx4TMSCNiGZF7FP9M1H1BXpIPtr4+4zs+yu0+Mf0hzH6XW6jBXuRd9Z
Q3UJIFVO5p1B8R75s9do4ajGSOR/FtGHKYF41+bP5W/p+3N3Yqkeu2y/umPwrcxiv7pmNArfyMfk
djVdJ2br5aLJ4OX+7PI937O/uei0WsEf6v3Md/Jr81b3S75PLGvM0c0bfV7V56q3JW4/VpeW6sDs
len2fDPQ9LqOh+Dhds9lgjxsXvIH3j9PzfSFtdQ3MCzRGqt94Pgcz3lVTFWsVaJxVonFWsVaxVon
FWicVaxVrFV9uf8ASIv9df14q8Q/5y8P/KJ/9vD/ALFsVZL/AM40f8oba/K5/wCojFXsuKuxV2Ku
xVD6l/xzrr/jDJ/xE4q+fP8AnEE/8pZ/27/+xnFX0G/2j8ziq3FWsVaJxVZIiOjI6hkYEMp3BB6g
4q+Yvzr/ACku/K+of4r8sq8enGQSzRw1DWsla81p+wT93yzXanT16hyex7H7UGWPg5dz0vr5Hz+9
l35Z/mFaeatMEM7LHrVqg+t2/Tmo29aPxUnr/Kdj1Unzbt3sbwScuMfuzzHd+z7vcy1OnOGVfwnk
f0Hz+/5s0IzmGm243eNw6GjL0OW4ssschKPMLIAiiyDTtQWReQ6/7sTw9xnb9l9piYsfEOrz4KVd
R0+K5hLDodwR2PjmV2l2fDPCxy+78dWGDMYF4X+cX5Wzamr61pMBOs261ubeMfFdRrQBkp1kQDYd
WGw3AB13ZHaUsE/y+fl/Cf0e7u7uT0mi1YGx+k/Yu/JL83pLgx6Hq8pa+ReMMjH/AHoRR3J/3ao/
4Ie+eg6fPfpPN0/bPZXhk5cY9HUd37Pue+xTRzRrLGwZGFVYZlvOricVaJxVrFWsVaJxVonFWsVa
xVonFV9v/vRF/rr+vFXiH/OXx/5RP/t4f9i2Ksl/5xn/AOUMtflc/wDURir2bFXYq7FXYqh9S/45
11/xhk/4icVfPX/OH5r/AIt/7d//AGNYq+hH+23zOKrcVaJxVrFWsVUbq2t7u3ktrmNZYJlKSxuK
qynqCMUgkGw+VPzW/LbV/wAvNfj8xeXnkj0ppfUt7iPrbSMT+6bqCjVoK7EfCffVarTAXtcS9r2X
2jHVQ8LL9f8AuvP3/wBoeofl/wCeLHzboy3KFY9QgAS/tQd0c9CK78XpVfu6g55j232OdNLjh/dH
7PL3d32+dObFLFPhPwPf+3vZORmga7XQyyQyB0NCPxHgcvwZ5YpCUeaJREhRZDYXySIGH2T9te4O
d32b2jGcbHLqO51ebCQWtT02OePkvzVvD+zB2r2ZHLGx8D3fsTp85iXz3+cn5aTQyzea9EjMN3A3
ranBF8P2fiN0lKUYUq9Ov2v5iYdi9rSEvy+baY+k9/l+rvek0epBHAd4nl+r8e5lP5L/AJuLrFuN
M1RwupQj96NgJVH+7Y18R+2o+Y8B3eDPxCjzed7W7MOCXHD+7P2fjo9oV1ZQykFWFQR0IOZLpXYq
1irROKtE4q1irWKtE4q1iq+2/wB6Iv8AXX9eKvD/APnMA0/wl/28P+xXFWTf84y/8oXafK5/6iMV
ez4q7FXYq7FUPqX/ABzrr/jDJ/xE4q+eP+cPTX/Fv/bu/wCxrFX0K/22+ZxVaTirWKtYq0TirROK
oPVdLsNV0+fT7+Fbi0uFKSxOAQQfngIvYsoTMSJRNEPlHzr5S8yflN5ui1TSJGbTJWItJ2+JHQ7t
bzgEV6fxBBFc0+r0kSDGQuEnuNFrIa3Fwz+sc/8Aih+PseyeTvOOneaNFi1K0+BvsXNsTVopQAWQ
mgqN9jTcfdnmHa/ZEtLOxvjPI/oP43+biZMRhLhlz+8d/wCOSfBlOaWmFK1vO8EgdOn7Q7EZk6XV
Swz4o/HzYTgJCiyGyvI5Iwa1jbqD2Pvne9n6+M4f0D9jq8uIg+ahqmmCQB02cfYb+BzF7W7L4xxR
+ocj+j9TZp9RWxfNv5qfl1deWb//ABb5YBtIYZBJd28VB9WlJp6kQ6ekxNCnRe3wmi5XYnbByfus
m2aP21+nv+b0mnzxyx8Oe4P2/j8bvTfyh/Naz8xaeLe6ZYb+EAXNvX7J6eqlf91sf+BP3ntsOYTH
m8r2n2dLTz23geR/Q9TrXfLnWNE4q0TirWKtYq0TirWKtYqvtv8AemL/AF1/Xirw7/nMI0/wl/28
f+xXFWUf84x/8oVafK5/6iMVez4q7FXYq7FUPqX/ABzrr/jDJ/xE4q+d/wDnDo/8pd/27v8AsaxV
9CyH42+ZxVbirWKtE4q0TirWKtYqlXmXy5pXmPR7jSdThE1rcLxNeqnsynsR45GURIUW3DmlimJx
NEPlbU9P80flB5zPEG4024+yGNI7q3B6EgfDInZqbHxBIOk1uijOJhMXEvb6fPj12K+U4/Yf1F7Z
5e8yabrulQ6np0hktph0YUdHH2o5F3oy9/vFQQc8x7T7MnpcnCd4nke/9rimBBMZfUPx8k2SfNWY
sTBF2d8YJOQ3U/aXxzK0erlgnY5dQ0ZcPEGSWl1HLGBXlG3Q+Htne6LWRyQA5wLqcuMg+aB1nSI5
43BRXDqVZGAKupFCrA7GozWdrdmSvxMe0xyP469zkabUVsXzJ598j6r+XutxeZfLbOulep9glmNs
7HeCWpq8T9FY7/stvRm2/YnbH5gVL05o8x3+f63ooThqIHHk3v7fP3vbPyu/MnT/ADPpMZDenMlE
mgY7xSU+yT3U/sN/mOwxZRMW8frtFLTz4Ty6HvegE5Y4TWKtYq0TirWKtYq1iq+2P+kxf66/rxV4
d/zmKf8AlEf+3j/2K4qyj/nGL/lCbT5XX/URir2jFXYq7FXYqh9S/wCOddf8YZP+InFXzr/zhwf+
Uv8A+3d/2NYq+hpPtt8ziq3FWicVaJxVrFWsVaJxVonFWP8AnbyZpHm7QptK1JNm+KCcfbikH2WU
5CcBIUXI0upngmJw5vmCxuvMX5T+b59M1SJptOmI+sInSWIfZnhJ25rXpX2PY5oNfoI5YnHMbfjc
PbRnDV4xOG0x9nkfL+17fp2q2V/Zw31jOtxZ3C84Jk6MvTvuCCKEHcHY755rrtDPT5DCXwPeGiO/
MURzCNSf3zBMUGCP0/U2t3od4m+0v8RmZodYcEv6B5/rcXNp+IebKbW6jmjCkhkYfA2d1pdRHJHh
O4PIumyYzE2lXmLQLW+tZ7e4hWaC4Ro54W6SIwoRt3pmk7T7PniyDNi2nHf3/j7XK02or8cnzF5l
8va/+VvmmPVtKLTaJcMVgkapVlO7W1xTo4pVT+0ByG4YL0fY3a8dRDiG0x9Q/HR38hDVYzCfP8bh
9C/l9580zzPpENxby8uXw0enNXHWOQfzD8RvnUwmJCw8ZqtLPBMwl/ay7JuM0TirWKtYq1irROKq
lt/vTF/rr+vFXhn/ADmOf+UQ/wC3j/2K4qyn/nGD/lB7P5XX/UTir2nFXYq7FXYqh9S/4511/wAY
ZP8AiJxV85/84bGv+L/+3d/2NYq+iJP7xvmcVWE4q0TirWKtYq0TirROKtYq1irEPzJ/LzS/Ouhv
Z3AEV9EC1jd03jkp38VPcZXlxiYouZodbPTz4o8uo73zh5W17Vvy68y3Pl7zDG8envJ/pCgEiNzR
VuYtqspAo1Oo9xTOd7R7OjngYT59D3PZkxzwGXFz+/8Aon8be57ZFco6JJG6yRSKHilQhkdGFVZW
GxBG4Oec6nSzwzMJjcMIESFhXSf3zFMUGCaaXqxt34SGsLf8KfHNhoNacJ4ZfQfscPUabiFjmy23
uUnjEbmtRVG8c7fDljljwy+BdJPGYmwx7zZ5asdU0+5sr2AT2lyvG4hP7QrUMpHRlIrUdDnPa3SZ
NNl8fD9Q5+Y/HP8AW52l1HL7HzS6+Yfym83ru1zpF38SOPhS4hU9uoWaLluO1f5WFet7K7TjngJw
+I7vx0dxqMENXjo7SH2fsL6X8n+btO8xaXBdWswlWVOSOOrAdQR2dejDOhjISFh4rNhlikYyFEMg
yTU1irWKtE4q1iqpa/70xf66/rxV4X/zmSaf4Q/7eP8A2K4qyr/nF/8A5Qaz+V1/1E4q9qxV2Kux
V2KofUv+Oddf8YZP+InFXzl/zhoa/wCMP+3d/wBjWKvoiT+8b5n9eKrCcVaxVrFWicVaJxVrFWsV
aJxVonFWAfm1+V1j510gtEFh1u1UmzuSOvcxvTs2U5sQmPN2PZ3aEtPO+cDzDwbyD5vv/K2qyeVv
MnK2s1kKIZtvqkxJJ3/31ITv2B+IftV5rtPs2OojR2mOR/HR6+dSAy4975+Y/WP2e7sPqMjFW2Iz
gM2CWORjIVIMokSFjkqpP75QYoME40fWfQYQzN+6J+Fv5T/TNp2drvDPBL6fucDVaXi3HNmEMyXM
fpuaOPsnxzsYSGaPDLm6KUDA2OTCfzD8nWes6Df2VzErRtG8kZYf3M6IxjmSm/wnw6io6EjNHDSZ
NNqRPH9Mj6h5d7tdFqLIHX8bPA/yY8z3eh+Y59HuGeOK4LERmtY7mHqQOx4g8vGgzuNLOjXe2du6
cTxDIOcfuL6k0fU0v7USbeotA9Ohr0I+ebB5FHYq0TirWKtYqqWv+9UP+uv68VeF/wDOZZp/g/8A
7eP/AGK4qyr/AJxd/wCUFs/ldf8AUTir2vFXYq7FXYqh9S/4511/xhk/4icVfOH/ADhia/4w/wC3
b/2NYq+iZT+8b5n9eKrMVaxVonFWicVaxVrFWicVaJxVrFWsVeWfnR+Ulv5ssG1XTI1j1+1QlSBT
6wij+7b3/lOY+fDxCxzdt2X2kcEuGX92fs83kv5c+e7m1nTyr5hYxGFvQ0+5m2eJwaC2lr+xXZCf
s9Ps048x2p2YM8bG2SP2+RerkBH95DeJ5/8AFD9Pf7+fT+boxVgQymhB6gjOGnjMSQRRDkCpCxyK
qk+VmLEwT/Q9c9Nlt5noP91SE9D4H2zb9na4xIhI+4us1mkv1D4ppqdy+tXUGiwL3EmoTDokSmvH
5tnWwHjECveXCwQGnic0vdEd5/Y+b/zp0N/J/wCa0moWqFLW9dNTtlGwJdv3yV95Fb6DmzPplYc7
QZBqNNwy84l7d+Xmrxy8FR+UMyj02HQq45Ic2gNi3jJwMZGJ5hn5OFi1irWKtYqqWp/0qH/XX9Yx
V4V/zmcaf4P/AO3l/wBiuKsr/wCcXP8AlBLL5XX/AFE4q9sxV2KuxV2KofUv+Oddf8YZP+InFXzf
/wA4Xmv+Mf8At2/9jWKvomX+8f5n9eKrMVaJxVonFWsVaxVonFWicVaxVrFWicVaJxV4t+eP5PLr
UMnmPQYQNWiWt5bIAPrCj9r/AFwPvzFz4OLcc3edk9p+EfDmfQfs/Ywv8tvzA/SSxeXtaYrq0Q9O
xu3/AN3hf90yk9JV/ZY/a6H4qcuU7W7L8YccP7wfb+3u+Xc9IR4J4h/dnn/R8x5d/dz72frG7EhQ
aru3sPE+GcfHHKRoCy5RkEdpunXd7MI7YBiDR5m/uk+n9o/575vdB2OSbn8unxcXU6mGIXL5dT+p
6JoOmWmmWxiiq8kh5Tzt9uRvE/wzstPjjAUHkdZqp5pWeQ5DueX/APOT3lb9I+TbbXYUrcaNMPVY
Df6vcEI3Twk4H78syDZzexM/DkMDyl94Yb+TmvPLpFoC/wC9tHNsxP8Ak0eL8CBmVppXH3ON21g4
M5PSW76DhmWaFJV+y6hh9IzIdSuxVrFWicVVLX/eqH/XX9YxV4V/zmgaf4O/7eX/AGK4qyz/AJxa
/wCUDsvldf8AUScVe2Yq7FXYq7FUPqX/ABzrr/jDJ/xE4q+bf+cLTX/GP/bt/wCxrFX0VL/ev/rH
9eKrCcVaJxVrFWsVaJxVonFWsVaxVonFWicVaxVo74q8F/Or8k5by5fzF5ZhUTSVa/sRRQTSvqJ2
BP7Vdu+YmfT3vF6DsvtcYxwZPp6Hu/Y8z078w/O3lu9S31pJNQiiP+8uoF2ald/Tlrypttuy+2az
Jpo3uKL0UTHJD93Kr6int3kj85vJmuCO09UaTemgW0ueKKT4RyD4G9gaE+GARMXn9XoMsSZH1eb0
yC498thN1UosQ/OLz35a0DyZfWWrD61catby21rpyMBJJzUqXrvwVK15U69N8zcOM5Nujjz1XgET
/iB2fOf5VambLX7jTy443KcomFfikhPJSvzQscGnPDMxL0na4GbTxyx8j8JfgPqjytei50xd907e
zbj8a5nPLJvirROKtYqqWv8AvVD/AK6/rGKvCf8AnNI0/wAHf9vL/sVxVlv/ADix/wAoFY/K6/6i
Tir23FXYq7FXYqh9S/4511/xhk/4icVfNf8AzhWf+Uy/7dv/AGN4q+i5T+9f/WP68VWE4q1irWKt
E4q0TirWKtYq0TirROKtYq1irROKtHFWGeavy30fW0k9S3jkVqt6bAAhj3Unb78jKIPNtw554zcC
QXiHm38h720keTSXIpU/Vpq9P8k7n/iWYs9L/Nd/pe3jyyj4j9SRaL+Yv5leRD9RmZ3tACkdregy
xrtt6T1qvH+UNTxGYksfCdw7GeDBqomUCL7x+kMO1rVNX1/UpdS1C8e/vpz8bSbP2oqoPhCitFVP
uGbXBqMdUPS8V2j2JqcRMj+8j3j9I6fc1peoyWGoWGpLXnbSKJAD8TCMio9gYzx+/MbVR4MgkOrv
/Z/MM+klhPOO3wPL7bfV/wCX+pKzCIMGRxRSOhDfEp/XmWC6GUSDRZ2TihrFWsVVLT/euH/jIv6x
irwj/nNQ/wDKG/8Aby/7FMVZd/ziv/ygNj8rr/qKOKvbsVdirsVdiqH1L/jnXX/GGT/iJxV80/8A
OFBr/jL/ALdv/Y3ir6MmP71/9Y/rxVZirWKtE4q0TirWKtYq0TirROKtYq1irROKtYq1irWKqc0M
MyGOVA6HsRXFWMa/5B0jVIXR4kdXFDHKKinhy6/fXAQDzZwySgbiaLxjzh+QZiZ5tKZrdzUiB94y
dzsf6H6Mxp6UHk7vS9uTjtkHEO/q8r1vy75k0ovb39rII0IZpgvJaLVVJelQKdA2Y8xMCjydxpZ6
aczkx0Jy59D8R+l7H+T2vNNo9i3KsttW2fsAYqGP/hOOZmnlcXnO18PBnPdLf8fF73HIskayL9lw
GX5EVy51jeKtYqqWh/0uH/jIv6xirwf/AJzXNP8ABv8A28v+xTFWX/8AOKv/AJL+x+V3/wBRRxV7
firsVdirsVQ+pf8AHOuv+MMn/ETir5o/5wmNf8Z/9u3/ALG8VfRs396/+sf14qp4q0TirROKtYq1
irROKtE4q1irWKtE4q1irWKtYq0TirWKtYqskRJFKuoZT1UioxVI9V8o6ZfIQEUH+VxyX6O6/Rir
EW8gNpk0k1lEYjI4kbiOalhtUkfF274AAGc8kpVZJpnukpLHYRLIQSBVSO6ncdfnhYIvFWicVVbT
/euD/jIv/Ehirwb/AJzZNP8ABn/by/7FMVZf/wA4qf8AkvrD5Xf/AFFHFXuGKuxV2KuxVD6l/wAc
66/4wyf8ROKvmb/nCQ/8pn/27P8AsbxV9HTf3z/6x/XiqmTirROKtYq1irROKtE4q1irWKtE4q1i
rWKtYq0TirWKtYq1irROKtYq1irWKtE4q1iqrZ/71wf8ZF/4kMVeC/8AObZ/5Qz/ALef/YpirMP+
cUv/ACXth8rv/qKOKvccVdirsVdiqH1L/jnXX/GGT/iJxV8y/wDOER/5TT/t2f8AY3ir6OnP75/9
Y/rxVTJxVrFWsVaJxVonFWsVaxVonFWsVaxVrFWicVaxVrFWsVaJxVrFWsVaxVonFWsVaxVVs/8A
eyD/AIyL/wASGKvBf+c3T/yhf/bz/wCxTFWY/wDOKH/kvLD5Xf8A1FHFXuOKuxV2KuxVD6l/xzrr
/jDJ/wAROKvmP/nB81/xp/27P+xvFX0fOf30n+sf14qp4q1irROKtE4q1irWKtE4q1irWKtYq0Ti
rWKtYq1irROKtYq1irWKtE4q1irWKtYqq2Z/0yD/AIyJ/wASGKvBP+c4DT/Bf/bz/wCxTFWZf84n
/wDku9P+V3/1FHFXuWKuxV2KuxVD6l/xzrr/AIwyf8ROKvmD/nCCRUn86W7njORpzCM7NRDdBtvY
sK4q+kbiomkr/Mf14qp4q0TirROKtYq1irROKtYq1irWKtE4q1irWKtYq0TirWKtYq1irROKtYq1
irWKtE4qrWIJvIABU81P3GuKvAP+c4ZozL5MiDAyIupOydwrG1Cn6eJxVm3/ADieGH5dafUEHjdn
fwN0SMVe5Yq7FXYq7FVskayRtG32XBVvkRTFXxjrN7rf5Efnjca1FbNP5e1ZpDLAtFWW2mcPLGld
g8MlGT2p2JxV9U+U/PHknzvp8d/5f1SG8DrV4UcLcRnussJ+NCPcfLbFU8/R0X8zfhirv0bF/M34
Yq1+jIv52/DFXfoyL+dvwxV36Lh/nb8MVa/RUP8AO34Yq79FQ/zt+H9MVa/RMP8AO34Yq79Ew/zt
+GKu/REH87fh/TFWv0PB/O34f0xV36Hg/nb8P6Yq79DQfzt+H9MVa/QsH87fh/TFXfoWD/fj/h/T
FWv0Jb/78f8AD+mKu/Qdv/vx/wAP6Yq1+g7f/fj/AIf0xV36Ct/9+P8Ah/TFXfoK3/34/wCH9MVa
/QNv/vx/w/pirv0Bbf78f8P6Yqk3mfzh5E8iWEuoa9qcNpxUlIpHDXEngsUK/G5PsPntir4i/MXz
tr35wfmQtxa27Rxy8bTSbImvo2yEtykI2qas7n6OgGKvsf8AJ7y5HoWhW1jAP3NpbpEGIoWJp8R9
24VPzxV6FirsVdirsVdirE/zG/Lfy/560OTTNViUvSsE9KsjjoR3+7FXyP5v/wCcW/Nuk3rpYTLL
ASfTMwYrx9pIw1fpQYqx3/oXzz942v8AwU//AFSxV3/Qvnn7xtf+Cn/6pYq7/oXzz942v/BT/wDV
LFXf9C+efvG1/wCCn/6pYq7/AKF88/eNr/wU/wD1SxV3/Qvnn7xtf+Cn/wCqWKu/6F88/eNr/wAF
P/1SxV3/AEL55+8bX/gp/wDqlirv+hfPP3ja/wDBT/8AVLFXf9C+efvG1/4Kf/qlirv+hfPP3ja/
8FP/ANUsVd/0L55+8bX/AIKf/qlirv8AoXzz942v/BT/APVLFXf9C+efvG1/4Kf/AKpYq7/oXzz9
42v/AAU//VLFXf8AQvnn7xtf+Cn/AOqWKu/6F88/eNr/AMFP/wBUsVd/0L55+8bX/gp/+qWKu/6F
88/eNr/wU/8A1SxV3/Qvnn7xtf8Agp/+qWKu/wChfPP3ja/8FP8A9UsVd/0L55+8bX/gp/8Aqliq
L0z/AJxz85XFwEu54IIu7xiWRv8AgWWP9eKvevys/JPTPLg/0WEz3sgHr3UtC5HWjECiJ/kjr3xV
7vpthHY2qwpuert4se+KorFXYq7FXYq7FXYqtkijlUpIgdD1VgCPxxVCnRtLJ/3mT7sVd+htL/5Z
k/HFXfobS/8AlmT8cVd+htL/AOWZPxxV36G0v/lmT8cVd+htL/5Zk/HFXfobS/8AlmT8cVd+htL/
AOWZPxxV36G0v/lmT8cVd+htL/5Zk/HFXfobS/8AlmT8cVd+htL/AOWZPxxV36G0v/lmT8cVd+ht
L/5Zk/HFXfobS/8AlmT8cVd+htL/AOWZPxxV36G0v/lmT8cVd+htL/5Zk/HFXfobS/8AlmT8cVd+
htL/AOWZPxxV36G0v/lmT8cVd+htL/5Zk/HFXDRtLB/3mT7sVRUcUcShI0CIOiqAB+GKrsVdirsV
f//Z</xapGImg:image>
              </rdf:li>
            </rdf:Alt>
          </xap:Thumbnails>
        </rdf:Description>
        <rdf:Description
           rdf:about="uuid:cbee75c6-82d1-45ba-8274-b89c6084675c">
          <xapMM:DocumentID>
uuid:4ee3f24b-6ed2-4a2e-8f7a-50b762c8da8b</xapMM:DocumentID>
        </rdf:Description>
        <rdf:Description
           rdf:about="uuid:cbee75c6-82d1-45ba-8274-b89c6084675c">
          <dc:format>
image/svg+xml</dc:format>
          <dc:title>
            <rdf:Alt>
              <rdf:li
                 xml:lang="x-default">
mime.ai</rdf:li>
            </rdf:Alt>
          </dc:title>
        </rdf:Description>
      </rdf:RDF>
    </x:xmpmeta>
    <xpacket>end='w'    </xpacket>
  </metadata>
  <g
     id="Layer_1">
    <path
       opacity="0.2"
       d="M44,15.5c-9.374,0-17,7.626-17,17v200c0,9.374,7.626,17,17,17h176c9.375,0,17-7.626,17-17v-200     c0-9.374-7.625-17-17-17H44z"
       id="path713" />
    <path
       opacity="0.2"
       d="M42,13.5c-9.374,0-17,7.626-17,17v200c0,9.374,7.626,17,17,17h176c9.375,0,17-7.626,17-17v-200     c0-9.374-7.625-17-17-17H42z"
       id="path714" />
    <path
       opacity="0.2"
       d="M40,12.5c-9.374,0-17,7.626-17,17v200c0,9.374,7.626,17,17,17h176c9.375,0,17-7.626,17-17v-200     c0-9.374-7.625-17-17-17H40z"
       id="path715" />
    <linearGradient
       id="XMLID_9_"
       gradientUnits="userSpaceOnUse"
       x1="128.9995"
       y1="11"
       x2="128.9995"
       y2="245.0005">
      <stop
         offset="0"
         style="stop-color:#494949"
         id="stop717" />
      <stop
         offset="1"
         style="stop-color:#000000"
         id="stop718" />
      <a:midPointStop
         offset="0"
         style="stop-color:#494949"
         id="midPointStop719" />
      <a:midPointStop
         offset="0.5"
         style="stop-color:#494949"
         id="midPointStop720" />
      <a:midPointStop
         offset="1"
         style="stop-color:#000000"
         id="midPointStop721" />
    </linearGradient>
    <path
       fill="url(#XMLID_9_)"
       d="M41,11c-9.374,0-17,7.626-17,17v200c0,9.374,7.626,17,17,17h176c9.375,0,17-7.626,17-17V28     c0-9.374-7.625-17-17-17H41z"
       id="path722" />
    <path
       fill="#FFFFFF"
       d="M28,228c0,6.627,5.373,12,12,12h176c6.627,0,12-5.373,12-12V28c0-6.627-5.373-12-12-12H40     c-6.627,0-12,5.373-12,12V228z"
       id="path723" />
    <linearGradient
       id="XMLID_10_"
       gradientUnits="userSpaceOnUse"
       x1="29.0532"
       y1="29.0532"
       x2="226.9471"
       y2="226.9471">
      <stop
         offset="0"
         style="stop-color:#FFFFFF"
         id="stop725" />
      <stop
         offset="1"
         style="stop-color:#DADADA"
         id="stop726" />
      <a:midPointStop
         offset="0"
         style="stop-color:#FFFFFF"
         id="midPointStop727" />
      <a:midPointStop
         offset="0.5"
         style="stop-color:#FFFFFF"
         id="midPointStop728" />
      <a:midPointStop
         offset="1"
         style="stop-color:#DADADA"
         id="midPointStop729" />
    </linearGradient>
    <path
       fill="url(#XMLID_10_)"
       d="M40,21c-3.86,0-7,3.14-7,7v200c0,3.859,3.14,7,7,7h176c3.859,0,7-3.141,7-7V28     c0-3.86-3.141-7-7-7H40z"
       id="path730" />
    <path
       opacity="0.2"
       d="M191.924,195.984c-11.613-36.127-13.717-42.67-14.859-44.064c0.119,0.076,0.289,0.178,0.289,0.178     l-78.55-87.455c-4.195-4.65-14.005,0.356-21.355,6.976c-7.283,6.542-13.32,15.773-9.37,20.564l78.944,87.543l0.533,0.094     l37.768,17.602l7.688,2.365L191.924,195.984z"
       id="path731" />
    <path
       opacity="0.2"
       d="M193.557,193.516c-11.611-36.125-13.713-42.67-14.855-44.064c0.117,0.072,0.287,0.178,0.287,0.178     l-78.545-87.455c-4.199-4.651-14.015,0.355-21.361,6.975c-7.281,6.545-13.32,15.773-9.368,20.566l78.945,87.539l0.533,0.1     l37.77,17.598l7.682,2.367L193.557,193.516z"
       id="path732" />
    <path
       opacity="0.2"
       d="M186.773,191.049c-11.613-36.127-13.713-42.672-14.863-44.068c0.121,0.074,0.295,0.18,0.295,0.18     L93.653,59.704c-4.192-4.65-14.009,0.359-21.354,6.978c-7.283,6.542-13.321,15.771-9.369,20.565l78.942,87.541l0.535,0.096     l37.768,17.598l7.686,2.367L186.773,191.049z"
       id="path733" />
    <path
       fill="#FFFFFF"
       d="M186.43,189.355c-11.613-36.125-13.713-42.666-14.863-44.061c0.123,0.072,0.293,0.18,0.293,0.18     L93.314,58.016c-4.199-4.651-14.015,0.357-21.359,6.977c-7.283,6.543-13.322,15.774-9.37,20.566l78.941,87.541l0.535,0.098     l37.771,17.598l7.686,2.363L186.43,189.355z"
       id="path734" />
    <linearGradient
       id="XMLID_11_"
       gradientUnits="userSpaceOnUse"
       x1="-481.7007"
       y1="-94.4194"
       x2="-360.2456"
       y2="-164.2214"
       gradientTransform="matrix(0.1991 0.98 -0.98 0.1991 91.6944 573.5653)">
      <stop
         offset="0"
         style="stop-color:#990000"
         id="stop736" />
      <stop
         offset="1"
         style="stop-color:#7C0000"
         id="stop737" />
      <a:midPointStop
         offset="0"
         style="stop-color:#990000"
         id="midPointStop738" />
      <a:midPointStop
         offset="0.5"
         style="stop-color:#990000"
         id="midPointStop739" />
      <a:midPointStop
         offset="1"
         style="stop-color:#7C0000"
         id="midPointStop740" />
    </linearGradient>
    <path
       fill="url(#XMLID_11_)"
       d="M186.43,189.355c-11.613-36.125-13.713-42.666-14.863-44.061c0.123,0.072,0.293,0.18,0.293,0.18     L93.314,58.016c-4.199-4.651-14.015,0.357-21.359,6.977c-7.283,6.543-13.322,15.774-9.37,20.566l78.941,87.541l0.535,0.098     l37.771,17.598l7.686,2.363L186.43,189.355z"
       id="path741" />
    <linearGradient
       id="XMLID_12_"
       gradientUnits="userSpaceOnUse"
       x1="-1375.9844"
       y1="685.3809"
       x2="-1355.0455"
       y2="706.3217"
       gradientTransform="matrix(-0.999 0.0435 0.0435 0.999 -1277.0056 -496.5172)">
      <stop
         offset="0"
         style="stop-color:#F8F1DC"
         id="stop743" />
      <stop
         offset="1"
         style="stop-color:#D6A84A"
         id="stop744" />
      <a:midPointStop
         offset="0"
         style="stop-color:#F8F1DC"
         id="midPointStop745" />
      <a:midPointStop
         offset="0.5"
         style="stop-color:#F8F1DC"
         id="midPointStop746" />
      <a:midPointStop
         offset="1"
         style="stop-color:#D6A84A"
         id="midPointStop747" />
    </linearGradient>
    <path
       fill="url(#XMLID_12_)"
       d="M166.969,147.762l13.723,38.129l-36.371-17.902l0.168-0.152c-0.25-0.08-0.496-0.178-0.701-0.316     l-0.125,0.121l-75.303-83.57l0.123-0.104c-2.246-2.49,1.032-9.094,7.308-14.752c6.28-5.652,13.18-8.219,15.425-5.733     l75.292,83.565L166.969,147.762z"
       id="path748" />
    <linearGradient
       id="XMLID_13_"
       gradientUnits="userSpaceOnUse"
       x1="65.0947"
       y1="-0.7954"
       x2="137.6021"
       y2="160.1823">
      <stop
         offset="0"
         style="stop-color:#FFA700"
         id="stop750" />
      <stop
         offset="0.7753"
         style="stop-color:#FFD700"
         id="stop751" />
      <stop
         offset="1"
         style="stop-color:#FF794B"
         id="stop752" />
      <a:midPointStop
         offset="0"
         style="stop-color:#FFA700"
         id="midPointStop753" />
      <a:midPointStop
         offset="0.5"
         style="stop-color:#FFA700"
         id="midPointStop754" />
      <a:midPointStop
         offset="0.7753"
         style="stop-color:#FFD700"
         id="midPointStop755" />
      <a:midPointStop
         offset="0.5"
         style="stop-color:#FFD700"
         id="midPointStop756" />
      <a:midPointStop
         offset="1"
         style="stop-color:#FF794B"
         id="midPointStop757" />
    </linearGradient>
    <path
       fill="url(#XMLID_13_)"
       d="M148.652,170.121c2.076-0.369,4.635-1.479,7.252-3.139c1.617-1.018,3.279-2.283,4.898-3.744     c1.455-1.303,2.736-2.666,3.84-4.01c2.076-2.531,3.322-5.213,3.781-7.424l-1.455-4.043l-0.463-0.715L91.707,64.028     c0.608,2.24-0.962,5.938-4.063,9.74c-1.134,1.389-2.441,2.789-3.945,4.141c-1.574,1.419-3.195,2.652-4.767,3.654     c-4.493,2.871-8.628,3.928-10.548,2.486l-0.025,0.021l75.303,83.57l0.125-0.121c0.205,0.139,0.451,0.236,0.701,0.316     l-0.168,0.152L148.652,170.121z"
       id="path758" />
    <path
       fill="#FFFFFF"
       d="M68.083,83.41c1.732,1.772,5.994,0.776,10.643-2.194c1.541-0.982,3.132-2.193,4.677-3.586     c1.476-1.325,2.759-2.701,3.872-4.063c3.578-4.388,5.091-8.642,3.477-10.584l0.023-0.024l75.817,84.119     c0.635,2.262-0.588,6.498-3.754,10.357c-1.082,1.318-2.34,2.656-3.77,3.934c-1.588,1.434-3.219,2.676-4.807,3.676     c-4.74,3.006-9.303,4.199-11.016,2.301c-0.393-0.439-2.098-2.336-2.145-2.406L67.845,83.626L68.083,83.41z"
       id="path759" />
    <path
       fill="#FFFFFF"
       d="M75.79,69.215c6.28-5.652,13.18-8.219,15.425-5.733l16.961,18.828l1.152,26.49l-17.973,0.784     L68.359,84.071l0.123-0.104C66.236,81.477,69.514,74.874,75.79,69.215z"
       id="path760" />
    <path
       fill="#FFFFFF"
       d="M68.083,83.41c1.732,1.772,5.994,0.776,10.643-2.194c1.541-0.982,3.132-2.193,4.677-3.586     c1.476-1.325,2.759-2.701,3.872-4.063c3.578-4.388,5.091-8.642,3.477-10.584l0.023-0.024l75.817,84.119     c0.635,2.262-0.588,6.498-3.754,10.357c-1.082,1.318-2.34,2.656-3.77,3.934c-1.588,1.434-3.219,2.676-4.807,3.676     c-4.74,3.006-9.303,4.199-11.016,2.301c-0.393-0.439-2.098-2.336-2.145-2.406L67.845,83.626L68.083,83.41z"
       id="path761" />
    <linearGradient
       id="XMLID_14_"
       gradientUnits="userSpaceOnUse"
       x1="-1336.4497"
       y1="635.7949"
       x2="-1325.3219"
       y2="622.5333"
       gradientTransform="matrix(-0.999 0.0435 0.0435 0.999 -1277.0056 -496.5172)">
      <stop
         offset="0"
         style="stop-color:#FFC957"
         id="stop763" />
      <stop
         offset="1"
         style="stop-color:#FF6D00"
         id="stop764" />
      <a:midPointStop
         offset="0"
         style="stop-color:#FFC957"
         id="midPointStop765" />
      <a:midPointStop
         offset="0.5"
         style="stop-color:#FFC957"
         id="midPointStop766" />
      <a:midPointStop
         offset="1"
         style="stop-color:#FF6D00"
         id="midPointStop767" />
    </linearGradient>
    <path
       fill="url(#XMLID_14_)"
       d="M75.79,69.215c6.28-5.652,13.18-8.219,15.425-5.733l16.961,18.828l1.152,26.49l-17.973,0.784     L68.359,84.071l0.123-0.104C66.236,81.477,69.514,74.874,75.79,69.215z"
       id="path768" />
    <linearGradient
       id="XMLID_15_"
       gradientUnits="userSpaceOnUse"
       x1="-1401.459"
       y1="595.6309"
       x2="-1354.6851"
       y2="699.4763"
       gradientTransform="matrix(-0.999 0.0435 0.0435 0.999 -1277.0056 -496.5172)">
      <stop
         offset="0"
         style="stop-color:#FFA700"
         id="stop770" />
      <stop
         offset="0.7753"
         style="stop-color:#FFD700"
         id="stop771" />
      <stop
         offset="1"
         style="stop-color:#FF9200"
         id="stop772" />
      <a:midPointStop
         offset="0"
         style="stop-color:#FFA700"
         id="midPointStop773" />
      <a:midPointStop
         offset="0.5"
         style="stop-color:#FFA700"
         id="midPointStop774" />
      <a:midPointStop
         offset="0.7753"
         style="stop-color:#FFD700"
         id="midPointStop775" />
      <a:midPointStop
         offset="0.5"
         style="stop-color:#FFD700"
         id="midPointStop776" />
      <a:midPointStop
         offset="1"
         style="stop-color:#FF9200"
         id="midPointStop777" />
    </linearGradient>
    <path
       fill="url(#XMLID_15_)"
       d="M68.083,83.41c1.732,1.772,5.994,0.776,10.643-2.194c1.541-0.982,3.132-2.193,4.677-3.586     c1.476-1.325,2.759-2.701,3.872-4.063c3.578-4.388,5.091-8.642,3.477-10.584l0.023-0.024l75.817,84.119     c0.635,2.262-0.588,6.498-3.754,10.357c-1.082,1.318-2.34,2.656-3.77,3.934c-1.588,1.434-3.219,2.676-4.807,3.676     c-4.74,3.006-9.303,4.199-11.016,2.301c-0.393-0.439-2.098-2.336-2.145-2.406L67.845,83.626L68.083,83.41z"
       id="path778" />
    <linearGradient
       id="XMLID_16_"
       gradientUnits="userSpaceOnUse"
       x1="67.8452"
       y1="115.5361"
       x2="144.5898"
       y2="115.5361">
      <stop
         offset="0"
         style="stop-color:#7D7D99"
         id="stop780" />
      <stop
         offset="0.1798"
         style="stop-color:#B1B1C5"
         id="stop781" />
      <stop
         offset="0.3727"
         style="stop-color:#BCBCC8"
         id="stop782" />
      <stop
         offset="0.6825"
         style="stop-color:#C8C8CB"
         id="stop783" />
      <stop
         offset="1"
         style="stop-color:#CCCCCC"
         id="stop784" />
      <a:midPointStop
         offset="0"
         style="stop-color:#7D7D99"
         id="midPointStop785" />
      <a:midPointStop
         offset="0.5"
         style="stop-color:#7D7D99"
         id="midPointStop786" />
      <a:midPointStop
         offset="0.1798"
         style="stop-color:#B1B1C5"
         id="midPointStop787" />
      <a:midPointStop
         offset="0.2881"
         style="stop-color:#B1B1C5"
         id="midPointStop788" />
      <a:midPointStop
         offset="1"
         style="stop-color:#CCCCCC"
         id="midPointStop789" />
    </linearGradient>
    <path
       fill="url(#XMLID_16_)"
       d="M74.357,90.713c0,0,6.036-0.212,10.685-3.182c1.542-0.983,3.132-2.193,4.677-3.586     c1.477-1.326,2.76-2.701,3.873-4.064c2.928-3.589,4.469-7.088,4.049-9.307l-6.865-7.617l-0.023,0.024     c1.614,1.942,0.102,6.196-3.477,10.584c-1.113,1.362-2.396,2.738-3.872,4.063c-1.545,1.393-3.136,2.604-4.677,3.586     c-4.648,2.971-8.91,3.967-10.643,2.194l-0.238,0.217l73.256,81.311c0.047,0.07,1.752,1.967,2.145,2.406     c0.342,0.377,0.799,0.627,1.344,0.771L74.357,90.713z"
       id="path790" />
    <path
       fill="#003333"
       d="M172.035,175.354c-1.635,1.477-3.307,2.764-4.949,3.84l13.605,6.697l-5.096-14.156     C174.537,172.953,173.352,174.176,172.035,175.354z"
       id="path791" />
    <path
       opacity="0.5"
       fill="#FFFFFF"
       d="M163.121,157.053L86.968,73.93c0.1-0.12,0.213-0.242,0.307-0.364     c1.428-1.752,2.52-3.49,3.225-5.058l75.768,82.707C165.715,153.039,164.668,155.082,163.121,157.053z"
       id="path792" />
    <path
       opacity="0.5"
       fill="#FFFFFF"
       d="M87.275,73.566c0.634-0.774,1.189-1.548,1.694-2.3l76.015,82.974     c-0.578,1.063-1.283,2.146-2.146,3.193c-0.744,0.896-1.566,1.805-2.465,2.697L84.152,76.932     C85.316,75.824,86.361,74.692,87.275,73.566z"
       id="path793" />
    <rect
       id="_x3C_Slice_x3E_"
       fill="none"
       width="256"
       height="256" />
  </g>
</svg>
