<?xml version="1.0" encoding="UTF-8" standalone="no"?>
<!DOCTYPE svg PUBLIC "-//W3C//DTD SVG 20010904//EN"
"http://www.w3.org/TR/2001/REC-SVG-20010904/DTD/svg10.dtd">
<!-- Created with Sodipodi ("http://www.sodipodi.com/") -->
<svg
   width="48pt"
   height="48pt"
   viewBox="0 0 256 256"
   overflow="visible"
   enable-background="new 0 0 256 256"
   xml:space="preserve"
   xmlns="http://www.w3.org/2000/svg"
   xmlns:xap="http://ns.adobe.com/xap/1.0/"
   xmlns:xapGImg="http://ns.adobe.com/xap/1.0/g/img/"
   xmlns:ns="http://ns.adobe.com/SaveForWeb/1.0/"
   xmlns:rdf="http://www.w3.org/1999/02/22-rdf-syntax-ns#"
   xmlns:xml="http://www.w3.org/XML/1998/namespace"
   xmlns:dc="http://purl.org/dc/elements/1.1/"
   xmlns:a="http://ns.adobe.com/AdobeSVGViewerExtensions/3.0/"
   xmlns:x="adobe:ns:meta/"
   xmlns:sodipodi="http://sodipodi.sourceforge.net/DTD/sodipodi-0.dtd"
   xmlns:xlink="http://www.w3.org/1999/xlink"
   id="svg548"
   sodipodi:version="0.32"
   sodipodi:docname="/home/david/gnome-mime-application-msword.svg"
   sodipodi:docbase="/home/david">
  <defs
     id="defs678" />
  <sodipodi:namedview
     id="base" />
  <metadata
     id="metadata549">
    <ns:sfw>
      <ns:slices>
        <ns:slice
           x="178"
           y="267"
           width="257"
           height="257"
           sliceID="67228" />
      </ns:slices>
      <ns:sliceSourceBounds
         x="178"
         y="267"
         width="257"
         height="257"
         bottomLeftOrigin="true" />
    </ns:sfw>
    <xpacket>begin='﻿' id='W5M0MpCehiHzreSzNTczkc9d'    </xpacket>
    <x:xmpmeta
       x:xmptk="XMP toolkit 3.0-29, framework 1.6">
      <rdf:RDF>
        <rdf:Description
           rdf:about="" />
        <rdf:Description
           rdf:about="" />
        <rdf:Description
           rdf:about="">
          <xap:CreateDate>
2004-03-28T20:03:13Z</xap:CreateDate>
          <xap:ModifyDate>
2004-03-28T20:03:13Z</xap:ModifyDate>
          <xap:CreatorTool>
Illustrator</xap:CreatorTool>
          <xap:Thumbnails>
            <rdf:Alt>
              <rdf:li
                 rdf:parseType="Resource">
                <xapGImg:format>
JPEG</xapGImg:format>
                <xapGImg:width>
256</xapGImg:width>
                <xapGImg:height>
256</xapGImg:height>
                <xapGImg:image>
/9j/4AAQSkZJRgABAgEASABIAAD/7QAsUGhvdG9zaG9wIDMuMAA4QklNA+0AAAAAABAASAAAAAEA
AQBIAAAAAQAB/+4ADkFkb2JlAGTAAAAAAf/bAIQABgQEBAUEBgUFBgkGBQYJCwgGBggLDAoKCwoK
DBAMDAwMDAwQDA4PEA8ODBMTFBQTExwbGxscHx8fHx8fHx8fHwEHBwcNDA0YEBAYGhURFRofHx8f
Hx8fHx8fHx8fHx8fHx8fHx8fHx8fHx8fHx8fHx8fHx8fHx8fHx8fHx8fHx8f/8AAEQgBAAEAAwER
AAIRAQMRAf/EAaIAAAAHAQEBAQEAAAAAAAAAAAQFAwIGAQAHCAkKCwEAAgIDAQEBAQEAAAAAAAAA
AQACAwQFBgcICQoLEAACAQMDAgQCBgcDBAIGAnMBAgMRBAAFIRIxQVEGE2EicYEUMpGhBxWxQiPB
UtHhMxZi8CRygvElQzRTkqKyY3PCNUQnk6OzNhdUZHTD0uIIJoMJChgZhJRFRqS0VtNVKBry4/PE
1OT0ZXWFlaW1xdXl9WZ2hpamtsbW5vY3R1dnd4eXp7fH1+f3OEhYaHiImKi4yNjo+Ck5SVlpeYmZ
qbnJ2en5KjpKWmp6ipqqusra6voRAAICAQIDBQUEBQYECAMDbQEAAhEDBCESMUEFURNhIgZxgZEy
obHwFMHR4SNCFVJicvEzJDRDghaSUyWiY7LCB3PSNeJEgxdUkwgJChgZJjZFGidkdFU38qOzwygp
0+PzhJSktMTU5PRldYWVpbXF1eX1RlZmdoaWprbG1ub2R1dnd4eXp7fH1+f3OEhYaHiImKi4yNjo
+DlJWWl5iZmpucnZ6fkqOkpaanqKmqq6ytrq+v/aAAwDAQACEQMRAD8A9U4q7FXYq7FXYq7FXYq7
FXYq7FXYq7FXYq7FXYq7FXYq7FXYq7FXYq7FXYq7FXYq7FXYq7FXYq7FXYq7FXYq7FXYqlvmDzFo
3l7TJdT1e5W1tItuTbszHoiKN2Y+AxV4j5g/5ydvTcMnl/SYlgU0Se/LOzDxMcTIF/4M4qk//QzP
nv8A5YNL/wCRVx/2UYq7/oZnz3/ywaX/AMirj/soxV3/AEMz57/5YNL/AORVx/2UYq7/AKGZ89/8
sGl/8irj/soxV3/QzPnv/lg0v/kVcf8AZRirv+hmfPf/ACwaX/yKuP8AsoxV3/QzPnv/AJYNL/5F
XH/ZRirv+hmfPf8AywaX/wAirj/soxV3/QzPnv8A5YNL/wCRVx/2UYq7/oZnz3/ywaX/AMirj/so
xV3/AEMz57/5YNL/AORVx/2UYq7/AKGZ89/8sGl/8irj/soxV3/QzPnv/lg0v/kVcf8AZRirv+hm
fPf/ACwaX/yKuP8AsoxV3/QzPnv/AJYNL/5FXH/ZRirv+hmfPf8AywaX/wAirj/soxV3/QzPnv8A
5YNL/wCRVx/2UYq7/oZnz3/ywaX/AMirj/soxV3/AEMz57/5YNL/AORVx/2UYq7/AKGZ89/8sGl/
8irj/soxV3/QzPnv/lg0v/kVcf8AZRirv+hmfPf/ACwaX/yKuP8AsoxVFad/zk75oS4B1HSbG4t+
6W/qwP8A8E7zj/hcVeyeRfzJ8tec7Vn0yUx3kQBuLCaizJ25AAkMlf2l+mmKsqxV2KuxV2KuxV2K
vm/XDqf5ufmk+j287Q+XtJLqJF3VIY2CSzAHYvM9AvtTwOKvePLfk/y35bs0tdHsYrZVFGlCgyuf
GSQ/Ex+ZxVOK4q6oxVrkMVdyGKu5jFWvUGKu9RffFWvVX3xV3rL74q71l8DirXrp4HFXfWE8DirX
1hPA4q76yngcVd9Zj8D+GKtfWo/A/hirvrcfgfw/rirvrcfgfw/rirX1yLwb8P64q765F4N+H9cV
d9di8G/D+uKtfXovBvw/riqVa/5X8r+abR7TV7GO55CiyMoWZP8AKjkHxKR7HFXzB5n0XXfys8/R
NZXBJgIudOujsJYGJUpIB8ijj+oxV9VeWtfs/MGhWWsWf9xexLKErUoxHxI3up2OKplirsVdirsV
Q+oMy2Fyy/aWJyvzCnFXhP8AziwqvL5nmYcpQLIBz1oxuC2/uVGKvficVaxVrFWicVaJxVrFWsVa
JxVonFWsVaxVrFWicVaxVrFWicVaJxVrFWsVaJxVonFWsVaxVdCSJkp/MP14q8V/5ypRBJ5ZkCjm
wvVZu5CmAgfRyOKsn/5x3vJX8lwWzElQZmSvbjMR/wAbYq9XxV2KuxV2KofUv+Oddf8AGGT/AIic
VeE/84pn/lKP+jD/ALGcVe+nFWsVaJxVonFWsVaxVonFWicVaxVrFWsVaJxVrFWsVaJxVonFWsVa
xVonFWicVaxVrFWicVXQ/wB9H/rD9eKvFv8AnKw/8ov/ANH/AP2LYqn/APzjn/yisHyuP+T4xV6/
irsVdirsVQ+pf8c66/4wyf8AETirwf8A5xRNf8U/9GH/AGM4q9+PXFWicVeZfmbd3UOuwLFM8am1
QlUYqK+pJ4HN12bEHGbHX9TrdZIiY9zDzqOoV/3ql/5GN/XNj4ce4OJxnvWHUdQ/5apv+Rjf1x8O
PcF4z3rDqWo/8tU3/Ixv64fDj3BHGe9YdS1H/lqm/wCRjf1x8OPcF4z3rDqWo/8ALVN/yMb+uHw4
9wXjPesOpaj/AMtU3/Ixv64fDj3BeM96w6nqX/LXN/yMb+uPhx7gvGe9YdT1L/lrm/5GN/XD4ce4
LxnvWHU9S/5a5v8AkY/9cPhx7gjjPeptqmpf8tc3/Ix/64+HHuC8Z71p1TU/+Wub/kY/9cPhR7gv
Ge9YdU1P/lrm/wCRj/1x8KPcF4z3qZ1TU/8Alsn/AORj/wBcPhR7gvGe9YdV1P8A5bJ/+Rj/ANcP
hR7gjjPesOq6p/y2T/8AIx/64fCj3BeM96w6rqn/AC2T/wDIx/64+FHuC8Z71jatqn/LZP8A8jH/
AK4fCj3BeOXesOrar/y2T/8AI1/64+FHuC8cu9nP5OX17P5nuknuJJUFlIQruzCvqxb0JzWdrQiM
QofxfoLmaGRMzfc9jJznXaLof76P/WH68VeK/wDOVxp/hb/o/wD+xbFWQf8AOOX/ACilv8rj/k+M
VewYq7FXYq7FUPqX/HOuv+MMn/ETirwb/nE81/xT/wBGH/Yzir349cVaJxV5d+aP/Hft/wDmET/k
5Jm87M/uz7/0B1mt+se5INB8v3OtXE0UE0UAgjM0skxKqEBAJqA3j3zLz5xjAJBNuPixGZ2Xaz5V
1DTLOO+9WC7sZW4rdWr+old9jsPDBi1MZnh3Eu4pyYTEXzCSvDMIhKY2ETGiyEHiT7HpmRYumqlo
gmeNpEjZo0+24BIHzPbGwtKZhmJChGqRUChqR44bC0sEEziqRswoTUAkUXqfow2EUpvFKqLIyMI3
qFcg0NOtDhsLS14J1iWZo2ETGiyEEKT7HpjYulpaba44M/pPwQAu3E0APQk9q48QWirvoeqLpC6u
0BGnvL6KTVG70J+zXlT4etKZEZo8fBfqZeGeHi6JactYLDhVYcULDhVTOFVhxVY2FVhwqzz8lv8A
lKrr/mBk/wCT0Wartj+6H9b9BczQ/Wfc9pzm3bLoP7+P/WH68VeK/wDOWBp/hb/o/wD+xbFWQf8A
OOH/ACidv8rj/k+MVew4q7FXYq7FUPqX/HOuv+MMn/ETirwT/nEw/wDKVf8ARh/2M4q9/Y7nFWsV
eXfmh/x37f8A5hU/5OSZvOzP7s+/9AdZrfrHuUPIBiNxqkDyxxPcWUkURkYICzEACpyeuuomuUmO
l5keSvcvp2ieVG0ae7hvrq8ukmmitm9RY41KE/F4kJ+OQiJZMvGAQAOrIkQhwk2SU/1bUrT6vq08
9/bTeX57JY9Ps0ZC3q8dgqAVBDfdt4Zi4sZuIAPiCW5b5zFEkjhrZJb+5uJ/JliuiajbW1nBZumq
WhdUleTh+8HEgklvip41zIhEDMeOJJMti0yJOMcJFVunekSadLfaJrX6RtY7eHThavFJKqyerTda
Hw3rmPlEhGcOE2ZW3QIJjKxySnyv5hXTvLmgQRXMMZlv2jvUcpUQuz15VNVHQ1y/U4OPJMkH6dve
14cvDCIvqs8xa3Z32gazBdTwzR2mpRrYwoYwwt1KD92F6jiW3xwYTGcSAd47+9GXIDGQPSWyYecN
Z05/L98tq1tcadPbIlsoukHEr9n07fhUMhO+/wDTKtLikMguxIHfb9LZmmOE1VV3/oV9P8y2r32m
6XPe250ubR1+tB3jp63wqVZyevGvwnIz054ZSAPFx7e5lHKLAvbhYpFqs93+Vb2kOoxR3NpKVuLZ
2USNbUNI1UipqWBB9uuZpxiOpsx2I+1xhMnDV8vuedHNq4Sw4VWHFCw4VUzhVYcVWNhVYcKs8/Jb
/lKrr/mBk/5PRZqu2P7of1v0FzND9Z9z2jObdsugP7+P/WX9eKvFP+csz/yiv/R//wBi2Ksh/wCc
b/8AlErf5XH/ACfxV7FirsVdirsVQ+pf8c66/wCMMn/ETirwL/nEo/8AKVf9GH/Yzir6AbqcVaxV
5f8Amh/x37f/AJhU/wCTkmbzsz+7Pv8A0B1mt+se5hp65sXDWHCqmcKFhxVY2FVhwqsbFVM4VWHC
hY2FVhxVYcKrDihYcKqZwqsOKrGwqsOFWefkv/ylN1/zAyf8nos1XbH90P636C5mh+s+57OTnNu2
Xwf38f8ArL+vFXiX/OWp/wCUV/6P/wDsWxVkX/ONv/KI23yuf+T+KvY8VdirsVdiqH1L/jnXX/GG
T/iJxV4D/wA4kGv+K/8At3/9jOKvoFvtH54qtJxViXm3yZc63qMd1FcpCqQrEVYEmoZmrt/rZsNJ
rBijRF7uJn05nK7SI/lZf/8ALdF/wLZlfypHuLR+RPetP5V6h/y3Rf8AAtj/ACpHuK/kT3rT+VOo
f8t0X/Atj/Kkf5pX8ie9Yfyo1D/lvh/4FsP8qx/mlfyJ71p/KfUf+W+H/gWx/lWP80r+RPetP5S6
j/y3w/8AAtj/ACrH+aV/InvWn8pNR/5b4f8AgWw/ytH+aV/InvWn8otR/wCrhD/wDY/ytH+aV/In
vWn8odS/6uEP/ANh/laP80r+RPesP5P6kf8ApYQ/8A2P8rR/mlH5E960/k9qX/Vwh/4B8f5Xj/NK
/kT3rT+Tupf9XGH/AIB8P8rx/mlfyJ71p/JvU/8Aq4w/8A+P8rx/mlfyB71h/JrUz/0sYf8AgHx/
liP80r+QPetP5Man/wBXGD/gHw/yxH+aV/IHvWn8l9U/6uUH/APj/LEf5pX8ge9afyV1T/q5Qf8A
APh/liP80r+Ql3rD+Smqf9XKD/gHx/lmP80r+Ql3sh8i/l5e+W9Xmvp7uO4SS3aAIisCCzo1d/8A
UzD1vaEc0BECt7b9PpjjlZLOic1bmL4P7+P/AF1/XirxL/nLc0/wp/28P+xbFWR/841/8ofbfK5/
5P4q9jxV2KuxV2KofUv+Oddf8YZP+InFXz//AM4jGv8Aiv8A7d//AGM4q+gm+0fniq0nFWsVaxVr
FWicVaxVrFWicVaJxVrFWsVaJxVonFWsVaxVonFWicVaxVrFWicVaJxVrFV9v/vRF/rr+vFXiP8A
zlyaf4U/7eH/AGLYqyT/AJxq/wCUOtvlc/8AURir2TFXYq7FXYqh9S/4511/xhk/4icVfPv/ADiG
f+Us/wC3f/2M4q+g3PxH54qtxVrFWsVaJxVrFWsVaJxVonFWsVaxVonFWicVaxVrFWicVaJxVrFW
sVaJxVonFWsVaxVfbn/SIv8AXX9eKvEP+cvD/wAon/28P+xbFWS/840f8oba/K5/6iMVey4q7FXY
q7FUPqX/ABzrr/jDJ/xE4q+fP+cQT/yln/bv/wCxnFX0G/2j8ziq3FWsVaJxVrFWsVaJxVonFWsV
axVonFWicVaxVrFWicVaJxVrFWsVaJxVonFWsVaxVonFV9v/AL0Rf66/rxV4h/zl8f8AlE/+3h/2
LYqyX/nGf/lDLX5XP/URir2bFXYq7FXYqh9S/wCOddf8YZP+InFXz1/zh+a/4t/7d/8A2NYq+hH+
23zOKrcVSLXPME2nXSQJEsgaMPViR1JHb5Zm6fSjJGyeri59QYGqSw+drof8eyfecyP5Pj3tP509
ym3nm7H/AB7R/wDBHH+To96/nT3LG8+XY/49Y/8Agmw/ydHvR+dPcpnz9eD/AI9Y/wDgmw/ybHvK
/nT3LD+YN4P+PSP/AIJsf5Nj3lfzp7lNvzEvR/x6R/8ABNh/kyPeV/OnuWN+Y98P+POL/gmw/wAm
R7yv509ymfzKvh/x5xf8E2P8mR7yv549yw/mbfj/AI8ov+CbD/Jce8o/PHuU2/NC/H/HlF/wTYf5
Kj/OK/nj3LD+aeoD/jxi/wCCbH+So/ziv549ymfzW1Af8eMX/BNh/kmP84r+ePcsP5saiP8Ajwh/
4Jsf5Jj/ADiv549ym35t6iP+PCH/AIJsP8kR/nFfzx7ljfm9qX/Vvh/4NsP8kR/nFH549ymfzh1I
f9K+H/g3x/keP84r+fPcsP5yamP+ldD/AMG+H+R4/wA4r+fPcpt+c+qf9W6D/g3w/wAjR/nFfz57
k/8AI/5hXvmPVpbGe0jgSO3acOjMSSrotN/9fMPW9nxwwEgb3pv0+pOSVEM4zVuYvtv96Iv9df14
q8P/AOcwDT/CX/bw/wCxXFWTf84y/wDKF2nyuf8AqIxV7PirsVdirsVQ+pf8c66/4wyf8ROKvnj/
AJw9Nf8AFv8A27v+xrFX0K/22+ZxVaTirDvOP/HSi/4wr/xNs22g+g+91us+se5Ire1uLudbe3Qy
TPXigoK0FT19hmbKYiLPJxoxMjQRMnlrWllSN7Yo0nLhyZd+A5Hv4ZWNTjq7Z+BO+STNmQ1KTYUL
49Ou5rG4vY1Bt7UoJmqAR6h4rt1O+ROQCQj1LIQJBPQIFstYq1jpN/qHrG1jDrboZJnLKqqo8SxG
QyZYwq+rKGMy5Jc2WsFFsKoq20LVbqaeGOBllt4GupUk/dkRLQ8qNSv2hTK5ZoxAN8zTOOORStsu
a1FsKqTYUKLZJVJsKq+paRfafHaSXSBEvoVubchg1Y2JAJp06d8hjyxlddDTKUCKvqlrZawUWwqz
j8m/+Uouv+YGT/k7Fmr7Y/uh/W/QXM0P1n3PY85t2y+2/wB6Yv8AXX9eKvDv+cwjT/CX/bx/7FcV
ZR/zjH/yhVp8rn/qIxV7PirsVdirsVQ+pf8AHOuv+MMn/ETir53/AOcOj/yl3/bu/wCxrFX0LIfj
b5nFVuKsO84/8dKL/jCv/EmzbaD6D73W6z6x7mPNme4jJBqlgvmwXfrIbcQ8fUP2eXo8afftmB4U
vB4a3v8AS5niR8W72r9C621DSLjULG6nlhglFownoqhTKGFFbkrAVFe2CWOYiQAT6vsTGcTIE0Nl
l3qmjQXWrXVp9Wdmit2t0ZQUaQN8fFSBv3wwxTIiDfMrKcQZEV0V7bWPLMF/q/qPEbOea1aJFHws
VClmC+Cv8TZCWHKYx7wCyjkgDLu2S2G50saTrEN1d2xmkeVormMKZZapRFCFDRT24nb2y6UZccSA
a227msGPDKyEm0bWFtPLWt23rIk83ofV42VSWq5WWlQf2Pu7ZkZsXFkga2F/saseSoSCdeYNT8st
oM6WzWrRtFCNOgiSlxHKpPMyGnhT57/TjYMeXxBd9b7m/LOHDtXl3sd87avbXWuH9HiH6nbFWt5I
UADMyqzM23xfEKfRmVo8RjD1XZcfUZAZbcgyWXzNp661NqX1+3kgm0qRbeIqvJJ/3Z9OQAb8iuwJ
8cwxp5cAjRvj+zdyTmHFdj6VGz1nym/mRL2V7aOWfTY/3vFViS75HmN1YK1KbkHJTxZRjoXtL7ER
yQ472+n7WM3Fzok/5hRTNbxNpzzxh4bas0TMVAqoCKWBfcjjvmXGMxp6v1V12aCYnL5Mq1r9B2k+
h3OrC3ktGvrlpJFt/RBQIRFzTiCwRuFTSmYWLjkJiF3wjrfvcmfCDEy5WeiDutX8mHzFoz38ljPN
Cbn6xc20f+jgMf8ARvU7Gg+fE/fk44s3hy4eIcufPzYmePiF11/YtXWfJ3+JtMe8lsXvYrKZLi+h
j/0P6yWX0WI2Bogeu/cYTiy+HKuKuIbda6rxw4xdXXwYj+ZOqWOoTaS1rdQXTQWSw3D2ylIxKrty
4oQtBvttmboMcoiVgi5dXH1MxKqN7MKbNg4qi2FWcfk5/wApRdf8wUn/ACdizV9sf3Q/rfoLmaH6
z7nsWc27ZfbH/SYv9df14q8O/wCcxT/yiP8A28f+xXFWUf8AOMX/AChNp8rr/qIxV7RirsVdirsV
Q+pf8c66/wCMMn/ETir51/5w4P8Ayl//AG7v+xrFX0NJ9tvmcVW4qw/zh/x0ov8AjCv/ABJs22g+
g+91us+se5j4R3YIilnY0VQKkk9gBmddOIA57O5EU0pQqsDBJg1FZWNRQqd+2ImLA72XCfkg2ybF
SbChRbCq+40+6isoL11At7kusTVFSUNG264I5AZGPUMjAgA9CgWyxgpNhVRbCqk2FDUltcrbpcNE
4t3YqkxUhGYdQG6EjESF11TRq0OsssUiyxO0ciHkjqSGBHQgjpkiARRQDTr/AFC/vpBJe3MtzIBQ
PM7SEDwqxOCEIx2ApMpE8ygmyxivsdPutQu0tLVQ88leCllQfCCx+JiB0GRnMRFnkmMTI0EC2WMV
JsKqLYVZv+Tv/KT3X/MFJ/ydizV9sf3Q/rfoLmaH6z7nsROc27ZUtv8AemL/AF1/Xirwz/nMc/8A
KIf9vH/sVxVlP/OMH/KD2fyuv+onFXtOKuxV2KuxVD6l/wAc66/4wyf8ROKvnP8A5w2Nf8X/APbu
/wCxrFX0RJ/eN8ziqwnFWIeb/wDjpRf8YV/4k2bbQfQfe63WfWPclekXa2mq2tw54okg5sRWinZj
9xzKzQ4oENGKXDIFOb6909hqPqXEM0kt1DJAygf3XIGmwH2V2bMWEJemgR6T83IlOO+45hE/pzRR
cA0teIvTHy9Nf95mj5Fun+/O+V+BOv4vp+2/1Nniwvpz+xQ02/8ALcGlXEQ+rtJ6s3qxykIZIyzc
OJ4OT8NKUyWTHlMwd+Q/HNjCcBE8uqS+TbiwhuLo3kkESMgUSykc16msYZXVjtuDmTrIyIHDbTpi
ATdJjpOt6NBbWFhPLBLaPLdrdGVN1jNWjPT4eZplGXDMmUhd+mm3HkiAAeW6hZ6j5dTyaYALdrkw
yrcQSkJIZdyrr8DFmH7PxAZKePJ4171aIzh4dbWlPlHUtHt7a8j1MIfRZLu1DAVeSIGsYND9rbL9
VjmSDH3FqwTiAeL3ppPrPliPW4EgMD6fHbXUrM6Di01wxcRttvx2AygYcpgbvisfINpyQ4tuVH7V
vlrXPL7ab6141lBcvcySapHPEKyRMrcRCKHoSPhH+2dRhycVDiIr0/tXDkjW9Xe6Ci1zRp/LenW0
9xEtraX/APpdlIo9R7Uy8k4gAk8RTlQ1O/XJnDMZJEA2Y7HzpiMkTAA8gfsQn5l6jot2LNdPNrKU
Z6T27gv6ZA4o6qiBafs7nLOz8c43xX8f7WOqlE1VIseZtBttJSOJLGW4t9JtHhMkKu/15Kq6kkbk
Llf5eZlvxUZnr/Cz8WIj0+kfNGabrPkmLzLr80clojTG3axkk4xwsgiX1lVikgXk9eXw1OV5MWY4
4Dfrffz2Zxnj45cmKeXNR0CH8xZby5EFvpRkuOI+3AAVYLwqq/CT9n4RmbnhM6ehZlt73HxSiMtn
kmOka75bh0LTLC6+pMs2n3qXzuitKsvKsKlqclJqaZTlw5DOUhxfVGv0tkMkREA1yLy9s3DgKLYV
Zv8Ak7/yk91/zBSf8nYs1fbH90P636C5mh+s+57DnNu2VLX/AHpi/wBdf14q8L/5zJNP8If9vH/s
VxVlX/OL/wDyg1n8rr/qJxV7VirsVdirsVQ+pf8AHOuv+MMn/ETir5y/5w0Nf8Yf9u7/ALGsVfRE
n943zP68VWE4qxDzf/x0Y/8AjCP+JNm20H0H3ut1n1j3JJb2s11cJbwjlLIeKAkDf5nM2UhEWXGj
Ek0EPcRPFK8TijxsVYdd1NDkomxaCKNIdskhUs9Our6V4rZQzxo0rAkD4V6nfIzyCAspjAy5IBss
YttY3vq+l9Xk9UrzEfBuXCleVKVpTvg441dp4T3INssYqTYVUWwqpNhQpNhVV1LS7zT/AKt9aQJ9
bgS6goQ1YpK8Tt06dMjjyCV10NMpQMavqhrOyuL68hs7ZQ1xcOI4lJABZjQbnbJTmIgk8giMSTQX
32g6laWTXs8YW3W5ezLBlJ9aMVZaA1+nBDNGRoc6v4JljIF+dKFnoeq3txZwQW78r9mSzdwUSRl+
1xdqKad98M80Ygkn6eaxxkkeaAvLaW2uZraYcZoHaOQA1oyEqdx7jLYyBFjqwIo0hWySFFsKs2/J
7/lJ7n/mCk/5OxZq+2P7of1v0FzND9Z9z2HObdsqWv8AvVD/AK6/rxV4X/zmWaf4P/7eP/YrirKv
+cXf+UFs/ldf9ROKva8VdirsVdiqH1L/AI511/xhk/4icVfOH/OGJr/jD/t2/wDY1ir6JlP7xvmf
14qsxViPm7/jox/8YR/xJs22g+g+91us+se5LtEnig1e1mmYJEj1dz0ApmTniTAgNGEgTBKdzaro
lxdafPd+ifTuJxLxXb0zy9JmHcV4nMSOLJESAvkP2uUckCQT3l15qejLq7TEWzqtpKvMEOkj1HBX
AVBX/OuMMU+Ct/qCynDivbkkXl7UoI9Vvbq7kWL14J96UXnIQaADMrUYyYADoQ0YZjiJPcUyn1HQ
R5RSGAW7TiBQ8TELKs4pV1HAlvi3+0BTKBjyeNZur+FNpnDw6FftVh5gtG120uTfwC2uLJoi3Bax
SlRX1Ph2HIbf0yHgHwyOE2JfNl4o4wb2pD2OpaBH5anhka1lvj9YF2rkJ6jsW4vGRGSdqcaUpk54
8hyAi+HavxaIzhwVte6W6gLPVbCxsrSSCGCz05LrUbhYwZPVhThwZhQk1bYeJy3HxQkZG7MqHxa5
VIACto2WNeXjaDXLI3kwgthIDJKQrAUFRUMGXrtuMzNRfAaFloxVxC2aahqflVtetbmKS0dVs7mO
ckKY2cAemGHFFJbftmthjy8BBv6g5kpw4gduRQtlrXlqbWbS8na0hupNL4GRox6Ed5yr8ajYGn4b
ZZPDkECBZHH8aYxyQMgTV8P2sd8+ahp2o6tphguo5YY7KGC4mgQrGrK78+KEAgAGoXMrRQlCErH8
R5tOokJSFHoynW9Y8orPor213bSzWeowvJcIEDC34EuW9NI1A5U2GYWHFlqVg0Yn5uRknC40RsWH
+Y9V0648tTW0M6vO2s3NyIx19F1IV/kczsGOQyAkbcADjZJgwr+kU70zzPp76T5RabULeIaZcNHq
Fu6qJQBUROKLXiFX4iDvUVqcx8mnlxZKB9Q2/S3Qyjhhvy5uuvMnlC/1PRL3Ujat9Xv7xbkRxino
Ev8AV3kUD4hy4N+OCODLGMhG94x+fVTlgTEmuZ/Yxv8ANPUNIvdUtW0/6tIUiZZbm1kDiQcvg58Y
4lDAeFfntmX2dCcYniv4/wBpadVKJIqmCNmxcVm35Pf8pPc/8wT/APJ2LNX2x/dD+t+guZofrPue
wZzbtlS1P+lQ/wCuv6xirwr/AJzONP8AB/8A28v+xXFWV/8AOLn/ACgll8rr/qJxV7ZirsVdirsV
Q+pf8c66/wCMMn/ETir5v/5wvNf8Y/8Abt/7GsVfRMv94/zP68VWYqxHzd/x0Y/+MI/4k2bbQfQf
e63WfWPcktvazXVwlvCOUsh4oCQN/mczZSERZcaMSTQQ9xE8UrxOKPGxVh13U0OSibFoIo0h2ySF
17Y3NqsDzKFW5jEsVCDVD0O2RhMSuuiZQIq+qmNNv3keP0WV44jOyv8AAfTUVLfFTth8SNXfkvAU
C2WsVFsKFJsKtiyuJLSa7RQYIGRZW5AEGSvHYmp+z2wGYBA6lIiatBtk2Kk2FVFsKqTYUKLZJVJs
KqLYUKTYVUWwqzb8n/8AlJrn/mCf/k7Fmr7Y/uh/W/QXM0P1n3PXyc5t2ypa/wC9UP8Arr+sYq8K
/wCc0DT/AAd/28v+xXFWWf8AOLX/ACgdl8rr/qJOKvbMVdirsVdiqH1L/jnXX/GGT/iJxV82/wDO
Fpr/AIx/7dv/AGNYq+ipf71/9Y/rxVYTirEvNv8Ax0Y/+MI/4k2bbQfQfe63WfWPcl+iTxQavazT
MEiR6u56AUzJzxJgQGjCQJglPr290Wa5sRLcQBxcySG4hQALDRiokDLSpanUe+YcIZAJUDy5Hvcq
U4EiyObcuoeXDrtvNzt6fV5E9UqDGJgw4l9kHSu+AY8vhkb8/sSZw4wduSQebNQt57iwe2mjmeCB
VkeJeKeorEmikdMy9LjIErFWWjUTBIruTa+1jTLi+luZbqCSCXTJEhQgcknPD4W26ntmPDDIRoA3
x/Y3SyRJux9KG/TukQacqRraPNDp1u8ZeJWb62tVZSSNyBkvAmZb8VGR69GPixA6fSPmiLHU/K0e
u6xKj2ymUwm0d6JEyiMeooYo4WrV5bb5CePKccRv1v8AQzjPHxS5Jcl7oR0bW4zJa2pklne3ERV5
GqOKooeMfuyd1KkEe2XGGTjhzOw/HPm1iUeGXIc0i0O602LRL2K5eNbh7m0aIOByKLJWShPanXMn
NGRmCOVFpxEcJvvCaecdV0G80vUILc2vrQ3iGxMCKrNEYxzPJRv8RauUaTFOMok3vHe23POJBArn
s8/bNo4Si2FVJsKFFskqk2FVFsKFJsKqLYVZr+UH/KTXP/ME/wDydizV9sf3Q/rfoLmaH6z7nr+c
27ZUtf8AeqH/AF1/WMVeE/8AOaRp/g7/ALeX/YrirLf+cWP+UCsfldf9RJxV7birsVdirsVQ+pf8
c66/4wyf8ROKvmv/AJwrP/KZf9u3/sbxV9Fyn96/+sf14qsJxVifmz/joR/8YR/xJs22g+g+91us
+se5Jbe1murhLeEcpZDxQEgb/M5mykIiy40Ykmgh7iJ4pXicUeNirDrupoclE2LQRRpSSCad/Thj
aV+vBAWNB12GEyA5oAJ5IdskhRbCqk2SVRbChSbCqi2FVJsKFJsKqLYVUmwoUWySqTYVUWwoUmwq
othVmv5Qf8pNc/8AME//ACdizV9sf3Q/rfoLmaH6z7nr2c27ZUtP964f+Mi/rGKvCP8AnNQ/8ob/
ANvL/sUxVl3/ADiv/wAoDY/K6/6ijir27FXYq7FXYqh9S/4511/xhk/4icVfNP8AzhQa/wCMv+3b
/wBjeKvoyY/vX/1j+vFVmKsT82f8dCP/AIwj/iTZttB9B97rdZ9Y9yA0SeKDV7WaZgkSPV3PQCmZ
OeJMCA0YSBMEp9eahoLXNi1y8E1LmSRnhSgEJDcBIKdeRWvyzDhjyVKrG32+TlSnCxdc1761pUOv
27JJAkTxSxyXMZDChoY+fwLxpTIjBM4zz5jb8Fl4sRMckFpepaILdl1N4ZLmGaaDkqji6XEi8pRQ
D4V+Km3TLcuPJfouiAfl0YY5wr1c7+9U0zVvLy6pfVaBRFHDDYySgKjJGPj+Iq9OTddq0yOXFk4I
8+tsoZIcR5eTWkan5ZjivxxtI5nuXZopWAjeIigCOY2JTuAFGOXHlJjz5fb81xzhvy5oXTtW8vx6
dp9tN9WEU0F0t2HVWkQ8gYlLUqK1OTyYshlIi9iK/SxhkhwgGuRYLd20MUVu6XCTNMheSNA1YzyI
4tUDfbNnGRJO1U4RFVugWyxipNhQpNhVRbCqk2FCi2SVSbCqi2FCk2FVFsKs1/KH/lJrn/mCf/k7
Fmr7Y/uh/W/QXM0P1n3PXc5t2ypaH/S4f+Mi/rGKvB/+c1zT/Bv/AG8v+xTFWX/84q/+S/sfld/9
RRxV7firsVdirsVQ+pf8c66/4wyf8ROKvmj/AJwmNf8AGf8A27f+xvFX0bN/ev8A6x/XiqnirFPN
f/HQj/4wj/iTZttB9B97rdZ9Y9ySRwSzzJDEvOWQhUXxJ+eZxkALLigEmg3Dp13cXjWcSVuF5ckJ
ApwBLb9O2CWSMY8R5JjAk11QDZYxUmwoUWwqpNklRMmhaqquzQcVSJJ2JZRSOU8Ubr3OVjPDv8mf
hSW3nl/VLVbx5owq2DIlzRlPFpfs0od/oxhnjKq/i5LLFIXfRJ2y9rUmwoUmwqothVdZ2VxfXkNn
bKGuLhxHEpIALMaDc7YJzEQSeQTGJJoKF9aT2d3PaTjjPbyNFKoIIDoxVhUe4yUJCQBHIokKNFCN
k0KLYUKTYVUWwqzT8ov+Uluf+YJ/+TsWavtj+6H9b9BczQ/Wfc9dJzm3bKtp/vXB/wAZF/4kMVeD
f85smn+DP+3l/wBimKsv/wCcVP8AyX1h8rv/AKijir3DFXYq7FXYqh9S/wCOddf8YZP+InFXzN/z
hIf+Uz/7dn/Y3ir6Om/vn/1j+vFVMnFWK+av+OhH/wAYh/xJs22g+g+91us+se5LdImih1W0llYJ
Gkqs7HoAD1zKzAmBA7mjEakCUZpN7Zw+ZpbmaQLbM055noQwan31yrNCRxADns2Y5gZLPLdGPqGl
rf3dxFJbtatp7fVIHVaJKvHjGVI3av35UMc+EA3fFv7u9t448RO1cOzceo6G+pz3CtbRXU1lH6Mk
i/uUuKHmCOx6YDjyCIG9CXxpROHETtdfasGreWv0pqAb0hbqIbiFlSiPPDu6oKft7fPD4WXgjzvc
fAr4kOI9ySecb3SpWtoNM4tCPUnldQB8c7luB/1BsMydJCYsy58vk06iUTQio+YNWjkurNbW45QN
Z2sV0F6ExHlxb/VIw4MVA2N+I0jLk3FHoEZr+r6bPB5jWG4Rzdz2rWwH7YQDkR8srwYpAwscgWzL
kiRLfnTvLGsaLZ6ZpkN0LUmS4nW9MyKzpEUJXqKgFqYNTinKUiL5CveuHJERANc1XR9U8rQ+U5YC
LVrn9+LqCdgjvyLcCh9OQseNONKUyOXHlOW962r8WyxzgIVsgLrXfLzeWoZysZ1W5jgs7yFVAZY4
XYySClN5F2rlscOTxCP4RZHx/UwOSHBf8XJNNf1rym93o7WzWbWsV5E/qRkB44eJDo8QjWifNjvl
GHDlqV8V0fn77bcmSFiqq2HprVpL59tr9zDb2FvdqI2iXhGsMb/C1B/k7k5nnERgMdzIj7XGGQeI
D0tkut655PnutOe9ls7sHVJLgyW0RHGzYMQLgcRVvUZS23xUrmHiw5QJVxD0Vv3+XwcieSBIuj6v
s82P/mlqOjXtzZfo76rIYxKGntXDFkJX01kCxxhSu9NzmT2djnEHiv4/2tOqlEkVTAWzZuGpNhVR
bCrNPyi/5SW5/wCYJ/8Ak7Fmr7Y/uh/W/QXM0P1n3PXM5t2yrZ/71wf8ZF/4kMVeC/8AObZ/5Qz/
ALef/YpirMP+cUv/ACXth8rv/qKOKvccVdirsVdiqH1L/jnXX/GGT/iJxV8y/wDOER/5TT/t2f8A
Y3ir6OnP75/9Y/rxVTJxVjHmeKV76MojMPSG4BP7TZtdDICBvvddq4kyHuSNra4/30//AAJzO449
7i8B7lJra5/30/8AwJw8ce9eA9yk1rc/75f/AIE4eOPejgPcpNaXX++X/wCBP9MPHHvXgPcotaXf
++ZP+BP9MPiR7wvAe5Sazu/98Sf8C39MPiR7wjgPcpNZ3n++JP8AgG/ph8SPeF4D3KTWV5/viT/g
G/ph8SPeF4D3KTWV7/yzyf8AAN/TD4ke8LwHuUmsb3/lnk/4Bv6YfEj3hHAe5Sawvv8Alnl/4Bv6
YfEj3heA9yi1hff8s0v/AADf0w+JHvC8B7lJtPv/APlml/4Bv6YfEj3heA9yk2n3/wDyzS/8A39M
l4ke8I4D3KTadqH/ACyy/wDAN/THxY94XgPcpNp2of8ALLN/yLb+mS8WPeEcB7lJtN1H/llm/wCR
bf0w+LHvC8B7lFtM1L/lkm/5Ft/TD4se8LwS7mYflTZ3cHmO4eaCSNTZuAzqyivqx7VIzWdrTicQ
o/xfoLmaGJEzfc9WznXaKtn/AL2Qf8ZF/wCJDFXgv/Obp/5Qv/t5/wDYpirMf+cUP/JeWHyu/wDq
KOKvccVdirsVdiqH1L/jnXX/ABhk/wCInFXzH/zg+a/40/7dn/Y3ir6PnP76T/WP68VU8VaxVonF
WicVaxVrFWicVaxVrFWsVaJxVrFWsVaxVonFWsVaxVrFWicVaxVrFWsVVbM/6ZB/xkT/AIkMVeCf
85wGn+C/+3n/ANimKsy/5xP/APJd6f8AK7/6ijir3LFXYq7FXYqh9S/4511/xhk/4icVfMH/ADhB
IqT+dLdzxnI05hGdmohug23sWFcVfSNxUTSV/mP68VU8VaJxVonFWsVaxVonFWsVaxVrFWicVaxV
rFWsVaJxVrFWsVaxVonFWsVaxVrFWicVVrEE3kAAqean7jXFXgH/ADnDNGZfJkQYGRF1J2TuFY2o
U/TxOKs2/wCcTww/LrT6gg8bs7+BuiRir3LFXYq7FXYqtkjWSNo2+y4Kt8iKYq+MdZvdb/Ij88bj
WorZp/L2rNIZYFoqy20zh5Y0rsHhkoye1OxOKvqnyn548k+d9Pjv/L+qQ3gdavCjhbiM91lhPxoR
7j5bYqnn6Oi/mb8MVd+jYv5m/DFWv0ZF/O34Yq79GRfzt+GKu/RcP87fhirX6Kh/nb8MVd+iof52
/D+mKtfomH+dvwxV36Jh/nb8MVd+iIP52/D+mKtfoeD+dvw/pirv0PB/O34f0xV36Gg/nb8P6Yq1
+hYP52/D+mKu/QsH+/H/AA/pirX6Et/9+P8Ah/TFXfoO3/34/wCH9MVa/Qdv/vx/w/pirv0Fb/78
f8P6Yq79BW/+/H/D+mKtfoG3/wB+P+H9MVd+gLb/AH4/4f0xVJvM/nDyJ5EsJdQ17U4bTipKRSOG
uJPBYoV+NyfYfPbFXxF+YvnbXvzg/Mhbi1t2jjl42mk2RNfRtkJblIRtU1Z3P0dAMVfY/wCT3lyP
QtCtrGAfubS3SIMRQsTT4j7twqfnir0LFXYq7FXYq7FWJ/mN+W/l/wA9aHJpmqxKXpWCelWRx0I7
/dir5H83/wDOLfm3Sb10sJllgJPpmYMV4+0kYav0oMVY7/0L55+8bX/gp/8Aqlirv+hfPP3ja/8A
BT/9UsVd/wBC+efvG1/4Kf8A6pYq7/oXzz942v8AwU//AFSxV3/Qvnn7xtf+Cn/6pYq7/oXzz942
v/BT/wDVLFXf9C+efvG1/wCCn/6pYq7/AKF88/eNr/wU/wD1SxV3/Qvnn7xtf+Cn/wCqWKu/6F88
/eNr/wAFP/1SxV3/AEL55+8bX/gp/wDqlirv+hfPP3ja/wDBT/8AVLFXf9C+efvG1/4Kf/qlirv+
hfPP3ja/8FP/ANUsVd/0L55+8bX/AIKf/qlirv8AoXzz942v/BT/APVLFXf9C+efvG1/4Kf/AKpY
q7/oXzz942v/AAU//VLFXf8AQvnn7xtf+Cn/AOqWKu/6F88/eNr/AMFP/wBUsVd/0L55+8bX/gp/
+qWKu/6F88/eNr/wU/8A1SxVF6Z/zjn5yuLgJdzwQRd3jEsjf8Cyx/rxV71+Vn5J6Z5cH+iwme9k
A9e6loXI60YgURP8kde+Kvd9NsI7G1WFNz1dvFj3xVFYq7FXYq7FXYq7FVskUcqlJEDoeqsAR+OK
oU6NpZP+8yfdirv0Npf/ACzJ+OKu/Q2l/wDLMn44q79DaX/yzJ+OKu/Q2l/8syfjirv0Npf/ACzJ
+OKu/Q2l/wDLMn44q79DaX/yzJ+OKu/Q2l/8syfjirv0Npf/ACzJ+OKu/Q2l/wDLMn44q79DaX/y
zJ+OKu/Q2l/8syfjirv0Npf/ACzJ+OKu/Q2l/wDLMn44q79DaX/yzJ+OKu/Q2l/8syfjirv0Npf/
ACzJ+OKu/Q2l/wDLMn44q79DaX/yzJ+OKu/Q2l/8syfjirv0Npf/ACzJ+OKuGjaWD/vMn3Yqio4o
4lCRoEQdFUAD8MVXYq7FXYq//9k=</xapGImg:image>
              </rdf:li>
            </rdf:Alt>
          </xap:Thumbnails>
        </rdf:Description>
        <rdf:Description
           rdf:about="">
          <dc:format>
image/svg+xml</dc:format>
        </rdf:Description>
      </rdf:RDF>
    </x:xmpmeta>
    <xpacket>end='w'    </xpacket>
  </metadata>
  <g
     id="Layer_1">
    <path
       opacity="0.2"
       enable-background="new    "
       d="M44,15.5c-9.374,0-17,7.626-17,17v200c0,9.374,7.626,17,17,17h176     c9.375,0,17-7.626,17-17v-200c0-9.374-7.625-17-17-17H44z"
       id="path551" />
    <path
       opacity="0.2"
       enable-background="new    "
       d="M42,13.5c-9.374,0-17,7.626-17,17v200c0,9.374,7.626,17,17,17h176     c9.375,0,17-7.626,17-17v-200c0-9.374-7.625-17-17-17H42z"
       id="path552" />
    <path
       opacity="0.2"
       enable-background="new    "
       d="M40,12.5c-9.374,0-17,7.626-17,17v200c0,9.374,7.626,17,17,17h176     c9.375,0,17-7.626,17-17v-200c0-9.374-7.625-17-17-17H40z"
       id="path553" />
    <linearGradient
       id="XMLID_5_"
       gradientUnits="userSpaceOnUse"
       x1="-49.5"
       y1="512.5"
       x2="-49.5"
       y2="278.5"
       gradientTransform="matrix(1 0 0 -1 178.5 523.5)">
      <stop
         offset="0"
         style="stop-color:#494949"
         id="stop555" />
      <stop
         offset="1"
         style="stop-color:#000000"
         id="stop556" />
      <a:midPointStop
         offset="0"
         style="stop-color:#494949"
         id="midPointStop557" />
      <a:midPointStop
         offset="0.5"
         style="stop-color:#494949"
         id="midPointStop558" />
      <a:midPointStop
         offset="1"
         style="stop-color:#000000"
         id="midPointStop559" />
    </linearGradient>
    <path
       fill="url(#XMLID_5_)"
       d="M41,11c-9.374,0-17,7.626-17,17v200c0,9.374,7.626,17,17,17h176c9.375,0,17-7.626,17-17V28     c0-9.374-7.625-17-17-17H41z"
       id="path560" />
    <path
       fill="#FFFFFF"
       d="M28,228c0,6.627,5.373,12,12,12h176c6.627,0,12-5.373,12-12V28c0-6.627-5.373-12-12-12H40     c-6.627,0-12,5.373-12,12V228z"
       id="path561" />
    <linearGradient
       id="XMLID_6_"
       gradientUnits="userSpaceOnUse"
       x1="-149.4468"
       y1="494.4473"
       x2="48.4479"
       y2="296.5526"
       gradientTransform="matrix(1 0 0 -1 178.5 523.5)">
      <stop
         offset="0"
         style="stop-color:#FFFFFF"
         id="stop563" />
      <stop
         offset="1"
         style="stop-color:#DADADA"
         id="stop564" />
      <a:midPointStop
         offset="0"
         style="stop-color:#FFFFFF"
         id="midPointStop565" />
      <a:midPointStop
         offset="0.5"
         style="stop-color:#FFFFFF"
         id="midPointStop566" />
      <a:midPointStop
         offset="1"
         style="stop-color:#DADADA"
         id="midPointStop567" />
    </linearGradient>
    <path
       fill="url(#XMLID_6_)"
       d="M40,21c-3.86,0-7,3.14-7,7v200c0,3.859,3.14,7,7,7h176c3.859,0,7-3.141,7-7V28c0-3.86-3.141-7-7-7     H40z"
       id="path568" />
    <linearGradient
       id="XMLID_7_"
       gradientUnits="userSpaceOnUse"
       x1="-308.8813"
       y1="465"
       x2="230.1187"
       y2="465"
       gradientTransform="matrix(1 0 0 -1 178.5 523.5)">
      <stop
         offset="0"
         style="stop-color:#B0D9FF"
         id="stop570" />
      <stop
         offset="1"
         style="stop-color:#0032A4"
         id="stop571" />
      <a:midPointStop
         offset="0"
         style="stop-color:#B0D9FF"
         id="midPointStop572" />
      <a:midPointStop
         offset="0.5"
         style="stop-color:#B0D9FF"
         id="midPointStop573" />
      <a:midPointStop
         offset="1"
         style="stop-color:#0032A4"
         id="midPointStop574" />
    </linearGradient>
    <rect
       x="51"
       y="40.5"
       fill="url(#XMLID_7_)"
       width="154"
       height="36"
       id="rect575" />
    <linearGradient
       id="XMLID_8_"
       gradientUnits="userSpaceOnUse"
       x1="-169.4956"
       y1="362"
       x2="145.5114"
       y2="362"
       gradientTransform="matrix(1 0 0 -1 178.5 523.5)">
      <stop
         offset="0"
         style="stop-color:#B0D9FF"
         id="stop577" />
      <stop
         offset="1"
         style="stop-color:#0032A4"
         id="stop578" />
      <a:midPointStop
         offset="0"
         style="stop-color:#B0D9FF"
         id="midPointStop579" />
      <a:midPointStop
         offset="0.5"
         style="stop-color:#B0D9FF"
         id="midPointStop580" />
      <a:midPointStop
         offset="1"
         style="stop-color:#0032A4"
         id="midPointStop581" />
    </linearGradient>
    <rect
       x="51"
       y="107.5"
       fill="url(#XMLID_8_)"
       width="154"
       height="108"
       id="rect582" />
    <polygon
       fill="#FFFFFF"
       points="64.364,119.947 62.18,119.947 62.18,118.412 68.397,118.412 68.397,119.947 66.188,119.947      66.188,126.5 64.365,126.5 64.365,119.947 "
       id="polygon583" />
    <path
       fill="#FFFFFF"
       d="M69.764,117.98h1.824v3.359h0.023c0.192-0.264,0.433-0.468,0.721-0.611     c0.275-0.145,0.611-0.229,0.947-0.229c1.164,0,2.053,0.804,2.053,2.58v3.42h-1.824v-3.229c0-0.768-0.264-1.295-0.947-1.295     c-0.48,0-0.781,0.312-0.912,0.647c-0.049,0.108-0.061,0.265-0.061,0.396v3.48h-1.824V117.98z"
       id="path584" />
    <path
       fill="#FFFFFF"
       d="M82.279,125.084c0,0.552,0.024,1.092,0.097,1.416h-1.644l-0.108-0.588h-0.036     c-0.384,0.468-0.984,0.72-1.68,0.72c-1.188,0-1.896-0.864-1.896-1.8c0-1.523,1.368-2.244,3.444-2.244v-0.072     c0-0.312-0.168-0.756-1.068-0.756c-0.6,0-1.235,0.204-1.62,0.432l-0.336-1.164c0.408-0.228,1.213-0.527,2.28-0.527     c1.956,0,2.567,1.152,2.567,2.531V125.084 M80.516,123.729c-0.959,0-1.703,0.228-1.703,0.924c0,0.468,0.312,0.695,0.719,0.695     c0.445,0,0.828-0.3,0.949-0.672c0.023-0.096,0.035-0.203,0.035-0.313V123.729z"
       id="path585" />
    <path
       fill="#FFFFFF"
       d="M84.332,122.504c0-0.732-0.023-1.344-0.049-1.872h1.585l0.084,0.815h0.036     c0.24-0.383,0.828-0.947,1.812-0.947c1.2,0,2.101,0.804,2.101,2.531v3.469h-1.824v-3.252c0-0.756-0.264-1.271-0.924-1.271     c-0.504,0-0.805,0.348-0.937,0.684c-0.048,0.119-0.06,0.287-0.06,0.456v3.384h-1.824V122.504z"
       id="path586" />
    <path
       fill="#FFFFFF"
       d="M93.788,123.116h0.024c0.131-0.253,0.275-0.492,0.42-0.708l1.188-1.776h2.195l-2.1,2.376l2.4,3.492     h-2.244l-1.428-2.412l-0.456,0.588v1.824h-1.824v-8.52h1.824L93.788,123.116L93.788,123.116z"
       id="path587" />
    <path
       fill="#FFFFFF"
       d="M99.056,124.916c0.336,0.204,1.032,0.432,1.572,0.432c0.552,0,0.78-0.18,0.78-0.479     c0-0.312-0.18-0.456-0.853-0.685c-1.224-0.396-1.692-1.067-1.68-1.752c0-1.104,0.937-1.932,2.388-1.932     c0.684,0,1.284,0.168,1.645,0.348l-0.313,1.248c-0.264-0.132-0.779-0.324-1.271-0.324c-0.444,0-0.696,0.181-0.696,0.469     c0,0.287,0.228,0.432,0.948,0.684c1.115,0.372,1.572,0.948,1.584,1.801c0,1.104-0.853,1.907-2.532,1.907     c-0.769,0-1.452-0.18-1.896-0.42L99.056,124.916z"
       id="path588" />
    <path
       fill="#FFFFFF"
       d="M108.115,126.5v-4.523h-0.779v-1.345h0.779v-0.228c0-0.709,0.217-1.488,0.732-1.969     c0.468-0.432,1.092-0.588,1.632-0.588c0.396,0,0.708,0.061,0.96,0.12l-0.072,1.404c-0.155-0.048-0.348-0.084-0.588-0.084     c-0.6,0-0.852,0.468-0.852,1.044v0.3h1.176v1.345h-1.164v4.523L108.115,126.5L108.115,126.5z"
       id="path589" />
    <path
       fill="#FFFFFF"
       d="M115.195,126.632c-1.716,0-3.035-1.128-3.035-3.024s1.248-3.107,3.144-3.107     c1.788,0,2.987,1.236,2.987,3.012c0,2.137-1.523,3.12-3.084,3.12L115.195,126.632 M115.231,125.324     c0.72,0,1.164-0.708,1.164-1.764c0-0.865-0.336-1.752-1.164-1.752c-0.864,0-1.2,0.887-1.2,1.764c0,0.996,0.42,1.752,1.188,1.752     H115.231z"
       id="path590" />
    <path
       fill="#FFFFFF"
       d="M120.031,122.564c0-0.864-0.012-1.429-0.048-1.933h1.56l0.072,1.093h0.049     c0.299-0.865,1.008-1.225,1.584-1.225c0.168,0,0.252,0.012,0.383,0.036v1.716c-0.155-0.023-0.299-0.048-0.504-0.048     c-0.672,0-1.127,0.348-1.248,0.924c-0.023,0.12-0.035,0.252-0.035,0.408v2.964h-1.824L120.031,122.564z"
       id="path591" />
    <path
       fill="#FFFFFF"
       d="M130.243,119.036v1.596h1.31v1.345h-1.31v2.135c0,0.709,0.181,1.033,0.72,1.033     c0.253,0,0.372-0.013,0.54-0.049l0.013,1.381c-0.229,0.084-0.672,0.155-1.176,0.155c-0.588,0-1.08-0.204-1.381-0.504     c-0.336-0.349-0.504-0.912-0.504-1.739v-2.412h-0.779v-1.345h0.779v-1.104L130.243,119.036z"
       id="path592" />
    <path
       fill="#FFFFFF"
       d="M133.207,117.98h1.824v3.359h0.023c0.191-0.264,0.432-0.468,0.721-0.611     c0.274-0.145,0.611-0.229,0.947-0.229c1.164,0,2.053,0.804,2.053,2.58v3.42h-1.824v-3.229c0-0.768-0.264-1.295-0.948-1.295     c-0.479,0-0.778,0.312-0.912,0.647c-0.048,0.108-0.06,0.265-0.06,0.396v3.48h-1.824V117.98z"
       id="path593" />
    <path
       fill="#FFFFFF"
       d="M142.243,124.136c0.06,0.77,0.804,1.128,1.655,1.128c0.625,0,1.129-0.084,1.621-0.252l0.238,1.236     c-0.6,0.252-1.332,0.372-2.124,0.372c-1.991,0-3.132-1.152-3.132-3c0-1.488,0.938-3.132,2.964-3.132     c1.896,0,2.616,1.476,2.616,2.928c0,0.313-0.036,0.588-0.061,0.732L142.243,124.136 M144.393,122.889     c0-0.433-0.192-1.188-1.021-1.188c-0.78,0-1.092,0.708-1.141,1.188H144.393z"
       id="path594" />
    <path
       fill="#FFFFFF"
       d="M156.355,125.648c0,1.127-0.229,2.052-0.9,2.64c-0.637,0.552-1.512,0.72-2.376,0.72     c-0.78,0-1.584-0.156-2.112-0.443l0.36-1.393c0.372,0.217,1.008,0.444,1.704,0.444c0.863,0,1.523-0.456,1.523-1.548v-0.373     h-0.023c-0.348,0.48-0.912,0.757-1.584,0.757c-1.452,0-2.484-1.177-2.484-2.856c0-1.896,1.212-3.096,2.664-3.096     c0.805,0,1.309,0.348,1.607,0.828h0.023l0.061-0.696h1.584c-0.023,0.384-0.047,0.876-0.047,1.752V125.648 M154.531,123.02     c0-0.107-0.012-0.228-0.036-0.336c-0.132-0.479-0.479-0.804-0.983-0.804c-0.673,0-1.199,0.601-1.199,1.668     c0,0.876,0.432,1.56,1.188,1.56c0.48,0,0.854-0.312,0.973-0.731c0.049-0.144,0.061-0.336,0.061-0.492v-0.865H154.531z"
       id="path595" />
    <path
       fill="#FFFFFF"
       d="M161.119,126.632c-1.717,0-3.036-1.128-3.036-3.024s1.248-3.107,3.144-3.107     c1.789,0,2.988,1.236,2.988,3.012c0,2.137-1.523,3.12-3.084,3.12L161.119,126.632 M161.154,125.324     c0.721,0,1.164-0.708,1.164-1.764c0-0.865-0.336-1.752-1.164-1.752c-0.863,0-1.199,0.887-1.199,1.764     c0,0.996,0.42,1.752,1.188,1.752H161.154z"
       id="path596" />
    <path
       fill="#FFFFFF"
       d="M168.68,126.632c-1.717,0-3.037-1.128-3.037-3.024s1.248-3.107,3.146-3.107     c1.788,0,2.987,1.236,2.987,3.012c0,2.137-1.523,3.12-3.084,3.12L168.68,126.632 M168.715,125.324     c0.721,0,1.164-0.708,1.164-1.764c0-0.865-0.336-1.752-1.164-1.752c-0.863,0-1.199,0.887-1.199,1.764     c0,0.996,0.42,1.752,1.188,1.752H168.715z"
       id="path597" />
    <path
       fill="#FFFFFF"
       d="M179.227,117.98v6.768c0,0.672,0.024,1.355,0.049,1.752h-1.621l-0.07-0.852h-0.036     c-0.36,0.647-1.08,0.983-1.836,0.983c-1.394,0-2.508-1.188-2.508-3.012c-0.013-1.968,1.224-3.12,2.628-3.12     c0.73,0,1.283,0.264,1.548,0.66h0.022v-3.18L179.227,117.98 M177.402,123.128c0-0.108,0-0.228-0.023-0.336     c-0.107-0.492-0.504-0.888-1.068-0.888c-0.84,0-1.26,0.744-1.26,1.668c0,0.984,0.492,1.607,1.248,1.607     c0.528,0,0.96-0.359,1.068-0.875c0.023-0.121,0.035-0.265,0.035-0.408V123.128L177.402,123.128z"
       id="path598" />
    <path
       fill="#FFFFFF"
       d="M64.771,135.036v1.596h1.309v1.345h-1.309v2.137c0,0.707,0.181,1.031,0.721,1.031     c0.252,0,0.372-0.013,0.54-0.049l0.012,1.381c-0.228,0.084-0.672,0.155-1.176,0.155c-0.589,0-1.08-0.204-1.38-0.504     c-0.336-0.348-0.504-0.912-0.504-1.739v-2.412h-0.78v-1.345h0.78v-1.104L64.771,135.036z"
       id="path599" />
    <path
       fill="#FFFFFF"
       d="M68.636,135.864c-0.612,0-1.008-0.433-1.008-0.974c0-0.552,0.407-0.972,1.032-0.972     c0.623,0,1.008,0.42,1.02,0.972c0,0.541-0.396,0.974-1.031,0.974H68.636 M67.736,142.5v-5.868h1.824v5.868H67.736z"
       id="path600" />
    <path
       fill="#FFFFFF"
       d="M71.623,138.504c0-0.732-0.023-1.344-0.047-1.872h1.547l0.072,0.804h0.037     c0.252-0.384,0.779-0.936,1.775-0.936c0.768,0,1.355,0.396,1.607,1.008h0.024c0.228-0.312,0.479-0.552,0.769-0.72     c0.324-0.181,0.684-0.288,1.115-0.288c1.129,0,1.98,0.792,1.98,2.544v3.456h-1.776v-3.18c0-0.854-0.276-1.346-0.864-1.346     c-0.432,0-0.72,0.289-0.852,0.637c-0.036,0.133-0.061,0.313-0.061,0.457v3.432h-1.775v-3.288c0-0.731-0.264-1.235-0.852-1.235     c-0.469,0-0.744,0.359-0.853,0.647c-0.06,0.144-0.071,0.312-0.071,0.468v3.408h-1.777v-3.996H71.623z"
       id="path601" />
    <path
       fill="#FFFFFF"
       d="M83.947,140.136c0.061,0.77,0.805,1.128,1.656,1.128c0.624,0,1.128-0.084,1.62-0.252l0.239,1.236     c-0.6,0.252-1.332,0.372-2.123,0.372c-1.992,0-3.133-1.152-3.133-3c0-1.488,0.937-3.132,2.965-3.132     c1.896,0,2.615,1.476,2.615,2.928c0,0.313-0.035,0.588-0.06,0.732L83.947,140.136 M86.096,138.889     c0-0.433-0.192-1.188-1.02-1.188c-0.781,0-1.093,0.708-1.141,1.188H86.096z"
       id="path602" />
    <path
       fill="#FFFFFF"
       d="M92.492,140.916c0.336,0.204,1.031,0.432,1.571,0.432c0.552,0,0.78-0.18,0.78-0.479     c0-0.313-0.18-0.456-0.852-0.686c-1.225-0.396-1.693-1.066-1.681-1.752c0-1.104,0.937-1.932,2.388-1.932     c0.684,0,1.284,0.168,1.645,0.348l-0.313,1.248c-0.264-0.132-0.779-0.324-1.271-0.324c-0.444,0-0.696,0.182-0.696,0.47     s0.228,0.432,0.948,0.684c1.115,0.372,1.572,0.948,1.584,1.8c0,1.104-0.852,1.908-2.532,1.908c-0.769,0-1.452-0.18-1.896-0.42     L92.492,140.916z"
       id="path603" />
    <path
       fill="#FFFFFF"
       d="M98.312,133.979h1.823v3.36h0.024c0.192-0.264,0.433-0.468,0.72-0.612     c0.276-0.144,0.612-0.228,0.948-0.228c1.164,0,2.052,0.804,2.052,2.58v3.42h-1.824v-3.229c0-0.768-0.264-1.295-0.947-1.295     c-0.48,0-0.78,0.313-0.912,0.647c-0.048,0.108-0.061,0.264-0.061,0.396v3.48h-1.823V133.979z"
       id="path604" />
    <path
       fill="#FFFFFF"
       d="M107.348,140.136c0.06,0.77,0.804,1.128,1.656,1.128c0.623,0,1.127-0.084,1.619-0.252l0.24,1.236     c-0.6,0.252-1.332,0.372-2.124,0.372c-1.991,0-3.132-1.152-3.132-3c0-1.488,0.936-3.132,2.964-3.132     c1.896,0,2.616,1.476,2.616,2.928c0,0.313-0.036,0.588-0.061,0.732L107.348,140.136 M109.496,138.889     c0-0.433-0.193-1.188-1.021-1.188c-0.78,0-1.093,0.708-1.14,1.188H109.496z"
       id="path605" />
    <path
       fill="#FFFFFF"
       d="M117.163,136.632l0.48,2.412c0.108,0.601,0.228,1.248,0.323,1.92h0.037     c0.107-0.659,0.287-1.332,0.42-1.907l0.623-2.425h1.44l0.588,2.341c0.168,0.672,0.324,1.319,0.433,1.991h0.023     c0.084-0.659,0.204-1.332,0.348-2.004l0.492-2.328h1.788l-1.8,5.868h-1.704l-0.552-2.052c-0.156-0.576-0.264-1.104-0.385-1.837     h-0.023c-0.107,0.731-0.229,1.283-0.372,1.824l-0.588,2.063h-1.716l-1.717-5.868L117.163,136.632L117.163,136.632z"
       id="path606" />
    <path
       fill="#FFFFFF"
       d="M125.623,138.564c0-0.864-0.012-1.43-0.048-1.934h1.56l0.072,1.092h0.049     c0.299-0.863,1.008-1.224,1.584-1.224c0.168,0,0.252,0.012,0.383,0.036v1.716c-0.154-0.024-0.299-0.048-0.504-0.048     c-0.672,0-1.127,0.348-1.248,0.924c-0.023,0.12-0.035,0.252-0.035,0.408v2.964h-1.824L125.623,138.564z"
       id="path607" />
    <path
       fill="#FFFFFF"
       d="M133.387,142.632c-1.716,0-3.035-1.128-3.035-3.022c0-1.896,1.248-3.108,3.145-3.108     c1.788,0,2.988,1.235,2.988,3.013c0,2.137-1.524,3.119-3.084,3.119L133.387,142.632 M133.423,141.324     c0.722,0,1.164-0.708,1.164-1.766c0-0.863-0.336-1.752-1.164-1.752c-0.862,0-1.198,0.89-1.198,1.766     c0,0.996,0.42,1.752,1.188,1.752H133.423z"
       id="path608" />
    <path
       fill="#FFFFFF"
       d="M140.251,135.036v1.596h1.31v1.345h-1.31v2.137c0,0.707,0.181,1.031,0.72,1.031     c0.252,0,0.372-0.013,0.541-0.049l0.012,1.381c-0.229,0.084-0.672,0.155-1.176,0.155c-0.589,0-1.08-0.204-1.381-0.504     c-0.336-0.348-0.504-0.912-0.504-1.739v-2.412h-0.779v-1.345h0.779v-1.104L140.251,135.036z"
       id="path609" />
    <path
       fill="#FFFFFF"
       d="M144.561,140.136c0.06,0.77,0.803,1.128,1.654,1.128c0.624,0,1.128-0.084,1.62-0.252l0.24,1.236     c-0.601,0.252-1.332,0.372-2.124,0.372c-1.992,0-3.133-1.152-3.133-3c0-1.488,0.937-3.132,2.965-3.132     c1.896,0,2.615,1.476,2.615,2.928c0,0.313-0.035,0.588-0.061,0.732L144.561,140.136 M146.707,138.889     c0-0.433-0.191-1.188-1.02-1.188c-0.78,0-1.094,0.708-1.142,1.188H146.707z"
       id="path610" />
    <path
       fill="#FFFFFF"
       d="M153.115,138.504c0-0.732-0.024-1.344-0.049-1.872h1.549l0.072,0.804h0.035     c0.252-0.384,0.779-0.936,1.775-0.936c0.768,0,1.355,0.396,1.607,1.008h0.023c0.229-0.312,0.48-0.552,0.77-0.72     c0.322-0.181,0.684-0.288,1.115-0.288c1.129,0,1.979,0.792,1.979,2.544v3.456h-1.776v-3.18c0-0.854-0.275-1.346-0.863-1.346     c-0.433,0-0.721,0.289-0.853,0.637c-0.036,0.133-0.06,0.313-0.06,0.457v3.432h-1.776v-3.288c0-0.731-0.265-1.235-0.853-1.235     c-0.469,0-0.744,0.359-0.853,0.647c-0.06,0.144-0.071,0.312-0.071,0.468v3.408h-1.775v-3.996H153.115z"
       id="path611" />
    <path
       fill="#FFFFFF"
       d="M165.438,140.136c0.062,0.77,0.806,1.128,1.656,1.128c0.624,0,1.129-0.084,1.62-0.252l0.24,1.236     c-0.601,0.252-1.332,0.372-2.124,0.372c-1.992,0-3.132-1.152-3.132-3c0-1.488,0.936-3.132,2.964-3.132     c1.896,0,2.615,1.476,2.615,2.928c0,0.313-0.035,0.588-0.061,0.732L165.438,140.136 M167.587,138.889     c0-0.433-0.192-1.188-1.021-1.188c-0.779,0-1.092,0.708-1.141,1.188H167.587z"
       id="path612" />
    <path
       fill="#FFFFFF"
       d="M174.895,135.864c-0.61,0-1.008-0.433-1.008-0.974c0-0.552,0.408-0.972,1.032-0.972     s1.008,0.42,1.021,0.972c0,0.541-0.396,0.974-1.031,0.974H174.895 M173.995,142.5v-5.868h1.823v5.868H173.995z"
       id="path613" />
    <path
       fill="#FFFFFF"
       d="M177.883,138.504c0-0.732-0.023-1.344-0.048-1.872h1.584l0.084,0.816h0.036     c0.238-0.386,0.827-0.948,1.813-0.948c1.199,0,2.101,0.805,2.101,2.532v3.468h-1.824v-3.252c0-0.756-0.265-1.271-0.924-1.271     c-0.505,0-0.806,0.349-0.937,0.685c-0.049,0.12-0.061,0.288-0.061,0.456v3.384h-1.824V138.504L177.883,138.504z"
       id="path614" />
    <path
       fill="#FFFFFF"
       d="M62.732,149.979h1.824v3.36h0.023c0.191-0.264,0.432-0.468,0.72-0.612     c0.276-0.144,0.612-0.228,0.948-0.228c1.164,0,2.052,0.804,2.052,2.58v3.42h-1.823v-3.229c0-0.768-0.265-1.295-0.949-1.295     c-0.479,0-0.779,0.313-0.911,0.647c-0.048,0.108-0.06,0.264-0.06,0.396v3.48h-1.824V149.979z"
       id="path615" />
    <path
       fill="#FFFFFF"
       d="M71.768,156.136c0.061,0.77,0.805,1.128,1.656,1.128c0.624,0,1.128-0.084,1.62-0.252l0.24,1.236     c-0.601,0.252-1.332,0.372-2.124,0.372c-1.992,0-3.133-1.152-3.133-3c0-1.488,0.937-3.132,2.965-3.132     c1.896,0,2.615,1.476,2.615,2.928c0,0.313-0.035,0.588-0.06,0.732L71.768,156.136 M73.916,154.889     c0-0.433-0.191-1.188-1.02-1.188c-0.78,0-1.092,0.708-1.141,1.188H73.916z"
       id="path616" />
    <path
       fill="#FFFFFF"
       d="M77.313,154.564c0-0.864-0.013-1.43-0.049-1.934h1.561l0.072,1.092h0.047     c0.301-0.863,1.009-1.224,1.584-1.224c0.168,0,0.252,0.012,0.385,0.036v1.716c-0.156-0.024-0.301-0.048-0.504-0.048     c-0.672,0-1.129,0.348-1.248,0.924c-0.024,0.12-0.036,0.252-0.036,0.408v2.964H77.3L77.313,154.564z"
       id="path617" />
    <rect
       x="85.484"
       y="149.979"
       fill="#FFFFFF"
       width="1.823"
       height="8.521"
       id="rect618" />
    <path
       fill="#FFFFFF"
       d="M90.775,156.136c0.061,0.77,0.805,1.128,1.656,1.128c0.624,0,1.128-0.084,1.62-0.252l0.239,1.236     c-0.6,0.252-1.332,0.372-2.123,0.372c-1.992,0-3.133-1.152-3.133-3c0-1.488,0.937-3.132,2.965-3.132     c1.896,0,2.615,1.476,2.615,2.928c0,0.313-0.035,0.588-0.06,0.732L90.775,156.136 M92.924,154.889     c0-0.433-0.192-1.188-1.02-1.188c-0.781,0-1.093,0.708-1.141,1.188H92.924z"
       id="path619" />
    <path
       fill="#FFFFFF"
       d="M98.348,151.036v1.596h1.309v1.345h-1.309v2.137c0,0.707,0.18,1.031,0.721,1.031     c0.252,0,0.371-0.013,0.539-0.049l0.012,1.381c-0.228,0.084-0.672,0.155-1.176,0.155c-0.588,0-1.08-0.204-1.38-0.504     c-0.336-0.348-0.504-0.912-0.504-1.739v-2.412h-0.78v-1.345h0.78v-1.104L98.348,151.036z"
       id="path620" />
    <path
       fill="#FFFFFF"
       d="M103.352,151.036v1.596h1.309v1.345h-1.309v2.137c0,0.707,0.18,1.031,0.72,1.031     c0.253,0,0.372-0.013,0.54-0.049l0.012,1.381c-0.228,0.084-0.672,0.155-1.176,0.155c-0.588,0-1.08-0.204-1.38-0.504     c-0.336-0.348-0.504-0.912-0.504-1.739v-2.412h-0.78v-1.345h0.78v-1.104L103.352,151.036z"
       id="path621" />
    <path
       fill="#FFFFFF"
       d="M107.66,156.136c0.06,0.77,0.803,1.128,1.655,1.128c0.624,0,1.128-0.084,1.62-0.252l0.24,1.236     c-0.6,0.252-1.332,0.372-2.124,0.372c-1.992,0-3.132-1.152-3.132-3c0-1.488,0.936-3.132,2.963-3.132     c1.896,0,2.617,1.476,2.617,2.928c0,0.313-0.037,0.588-0.061,0.732L107.66,156.136 M109.808,154.889     c0-0.433-0.192-1.188-1.021-1.188c-0.779,0-1.092,0.708-1.14,1.188H109.808z"
       id="path622" />
    <path
       fill="#FFFFFF"
       d="M113.203,154.564c0-0.864-0.012-1.43-0.048-1.934h1.56l0.072,1.092h0.049     c0.3-0.863,1.008-1.224,1.584-1.224c0.168,0,0.252,0.012,0.384,0.036v1.716c-0.156-0.024-0.3-0.048-0.505-0.048     c-0.672,0-1.127,0.348-1.247,0.924c-0.024,0.12-0.036,0.252-0.036,0.408v2.964h-1.824L113.203,154.564z"
       id="path623" />
    <path
       fill="#FFFFFF"
       d="M116.852,159.928c0.384-1.066,0.708-2.314,0.876-3.408l1.86-0.119c-0.396,1.225-0.937,2.483-1.512,3.42     L116.852,159.928z"
       id="path624" />
    <path
       fill="#FFFFFF"
       d="M131.516,157.084c0,0.552,0.023,1.092,0.096,1.416h-1.645l-0.107-0.588h-0.034     c-0.386,0.468-0.984,0.72-1.681,0.72c-1.188,0-1.896-0.864-1.896-1.8c0-1.523,1.367-2.244,3.443-2.244v-0.072     c0-0.312-0.168-0.756-1.068-0.756c-0.6,0-1.235,0.204-1.619,0.434l-0.336-1.164c0.408-0.229,1.211-0.528,2.279-0.528     c1.955,0,2.568,1.151,2.568,2.532V157.084 M129.752,155.729c-0.961,0-1.705,0.229-1.705,0.924c0,0.469,0.313,0.695,0.721,0.695     c0.443,0,0.828-0.3,0.947-0.672c0.023-0.096,0.037-0.203,0.037-0.312V155.729z"
       id="path625" />
    <path
       fill="#FFFFFF"
       d="M133.566,154.504c0-0.732-0.023-1.344-0.047-1.872h1.584l0.084,0.816h0.035     c0.24-0.386,0.828-0.948,1.813-0.948c1.199,0,2.101,0.805,2.101,2.532v3.468h-1.823v-3.252c0-0.756-0.265-1.271-0.924-1.271     c-0.505,0-0.806,0.349-0.938,0.685c-0.049,0.12-0.061,0.288-0.061,0.456v3.384h-1.824V154.504L133.566,154.504z"
       id="path626" />
    <path
       fill="#FFFFFF"
       d="M146.889,149.979v6.77c0,0.672,0.022,1.355,0.047,1.752h-1.619l-0.072-0.852h-0.036     c-0.358,0.646-1.079,0.982-1.836,0.982c-1.392,0-2.508-1.188-2.508-3.012c-0.013-1.969,1.225-3.12,2.628-3.12     c0.732,0,1.283,0.265,1.548,0.66h0.024v-3.181H146.889 M145.063,155.128c0-0.108,0-0.228-0.023-0.336     c-0.107-0.492-0.504-0.888-1.066-0.888c-0.841,0-1.261,0.744-1.261,1.668c0,0.982,0.491,1.607,1.247,1.607     c0.527,0,0.961-0.359,1.068-0.877c0.023-0.119,0.035-0.264,0.035-0.408V155.128L145.063,155.128z"
       id="path627" />
    <path
       fill="#FFFFFF"
       d="M156.859,157.084c0,0.552,0.023,1.092,0.096,1.416h-1.645l-0.107-0.588h-0.036     c-0.384,0.468-0.983,0.72-1.681,0.72c-1.188,0-1.896-0.864-1.896-1.8c0-1.523,1.367-2.244,3.443-2.244v-0.072     c0-0.312-0.168-0.756-1.067-0.756c-0.601,0-1.236,0.204-1.619,0.434l-0.336-1.164c0.406-0.229,1.211-0.528,2.278-0.528     c1.956,0,2.567,1.151,2.567,2.532v2.051 M155.096,155.729c-0.959,0-1.703,0.229-1.703,0.924c0,0.469,0.312,0.695,0.719,0.695     c0.445,0,0.828-0.3,0.949-0.672c0.022-0.096,0.035-0.203,0.035-0.312V155.729z"
       id="path628" />
    <rect
       x="158.911"
       y="149.979"
       fill="#FFFFFF"
       width="1.823"
       height="8.521"
       id="rect629" />
    <rect
       x="162.799"
       y="149.979"
       fill="#FFFFFF"
       width="1.824"
       height="8.521"
       id="rect630" />
    <path
       fill="#FFFFFF"
       d="M171.751,151.036v1.596h1.308v1.345h-1.308v2.137c0,0.707,0.181,1.031,0.72,1.031     c0.252,0,0.372-0.013,0.541-0.049l0.012,1.381c-0.229,0.084-0.672,0.155-1.176,0.155c-0.589,0-1.08-0.204-1.381-0.504     c-0.336-0.348-0.504-0.912-0.504-1.739v-2.412h-0.779v-1.345h0.779v-1.104L171.751,151.036z"
       id="path631" />
    <path
       fill="#FFFFFF"
       d="M174.715,149.979h1.824v3.36h0.023c0.191-0.264,0.433-0.468,0.721-0.612     c0.275-0.144,0.611-0.228,0.947-0.228c1.164,0,2.053,0.804,2.053,2.58v3.42h-1.824v-3.229c0-0.768-0.264-1.295-0.947-1.295     c-0.479,0-0.781,0.313-0.912,0.647c-0.049,0.108-0.061,0.264-0.061,0.396v3.48h-1.824V149.979L174.715,149.979z"
       id="path632" />
    <path
       fill="#FFFFFF"
       d="M183.751,156.136c0.06,0.77,0.804,1.128,1.656,1.128c0.624,0,1.128-0.084,1.618-0.252l0.24,1.236     c-0.6,0.252-1.332,0.372-2.123,0.372c-1.992,0-3.133-1.152-3.133-3c0-1.488,0.938-3.132,2.965-3.132     c1.896,0,2.615,1.476,2.615,2.928c0,0.313-0.035,0.588-0.06,0.732L183.751,156.136 M185.898,154.889     c0-0.433-0.191-1.188-1.021-1.188c-0.78,0-1.092,0.708-1.14,1.188H185.898z"
       id="path633" />
    <path
       fill="#FFFFFF"
       d="M62.732,165.979h1.824v3.35h0.023c0.348-0.504,0.96-0.828,1.775-0.828c1.404,0,2.425,1.164,2.412,2.964     c0,2.112-1.332,3.168-2.676,3.168c-0.684,0-1.355-0.252-1.764-0.948h-0.023l-0.072,0.816h-1.549     c0.024-0.384,0.049-1.092,0.049-1.752L62.732,165.979 M64.557,172.004c0,0.12,0.012,0.229,0.035,0.324     c0.12,0.479,0.54,0.863,1.068,0.863c0.779,0,1.26-0.601,1.26-1.655c0-0.912-0.408-1.632-1.26-1.632     c-0.492,0-0.948,0.371-1.068,0.898c-0.023,0.108-0.035,0.217-0.035,0.336V172.004z"
       id="path634" />
    <path
       fill="#FFFFFF"
       d="M75.393,173.084c0,0.552,0.023,1.092,0.096,1.416h-1.645l-0.107-0.588H73.7     c-0.383,0.468-0.983,0.72-1.68,0.72c-1.188,0-1.896-0.864-1.896-1.8c0-1.523,1.368-2.244,3.444-2.244v-0.072     c0-0.312-0.168-0.756-1.068-0.756c-0.6,0-1.236,0.204-1.62,0.434l-0.336-1.164c0.407-0.229,1.212-0.528,2.28-0.528     c1.955,0,2.568,1.151,2.568,2.532L75.393,173.084 M73.628,171.729c-0.96,0-1.704,0.229-1.704,0.924     c0,0.469,0.313,0.695,0.721,0.695c0.443,0,0.827-0.3,0.947-0.672c0.023-0.096,0.036-0.203,0.036-0.312V171.729z"
       id="path635" />
    <path
       fill="#FFFFFF"
       d="M83.132,165.979v6.77c0,0.672,0.024,1.355,0.048,1.752h-1.619l-0.072-0.852h-0.036     c-0.36,0.646-1.08,0.982-1.837,0.982c-1.391,0-2.508-1.188-2.508-3.012c-0.012-1.969,1.225-3.12,2.629-3.12     c0.731,0,1.283,0.265,1.547,0.66h0.025v-3.181H83.132 M81.309,171.128c0-0.108,0-0.228-0.025-0.336     c-0.107-0.492-0.504-0.888-1.067-0.888c-0.84,0-1.26,0.744-1.26,1.668c0,0.982,0.491,1.607,1.248,1.607     c0.528,0,0.96-0.359,1.067-0.877c0.024-0.119,0.037-0.264,0.037-0.408V171.128z"
       id="path636" />
    <path
       fill="#FFFFFF"
       d="M90.26,167.036v1.596h1.309v1.345H90.26v2.137c0,0.707,0.18,1.031,0.721,1.031     c0.252,0,0.371-0.013,0.539-0.049l0.012,1.381c-0.228,0.084-0.672,0.155-1.176,0.155c-0.588,0-1.08-0.204-1.38-0.504     c-0.336-0.348-0.504-0.912-0.504-1.739v-2.412h-0.78v-1.345h0.78v-1.104L90.26,167.036z"
       id="path637" />
    <path
       fill="#FFFFFF"
       d="M94.123,167.864c-0.611,0-1.008-0.433-1.008-0.974c0-0.552,0.408-0.972,1.032-0.972     s1.009,0.42,1.021,0.972c0,0.541-0.396,0.974-1.032,0.974H94.123 M93.224,174.5v-5.868h1.824v5.868H93.224z"
       id="path638" />
    <path
       fill="#FFFFFF"
       d="M97.111,170.504c0-0.732-0.023-1.344-0.048-1.872h1.548l0.072,0.804h0.036     c0.252-0.384,0.78-0.936,1.776-0.936c0.768,0,1.355,0.396,1.607,1.008h0.023c0.229-0.312,0.48-0.552,0.769-0.72     c0.324-0.181,0.685-0.288,1.116-0.288c1.128,0,1.98,0.792,1.98,2.544v3.456h-1.777v-3.18c0-0.854-0.275-1.346-0.863-1.346     c-0.432,0-0.721,0.289-0.852,0.637c-0.037,0.133-0.061,0.313-0.061,0.457v3.432h-1.775v-3.288c0-0.731-0.265-1.235-0.853-1.235     c-0.468,0-0.744,0.359-0.853,0.647c-0.06,0.144-0.071,0.312-0.071,0.468v3.408h-1.776v-3.996H97.111z"
       id="path639" />
    <path
       fill="#FFFFFF"
       d="M109.436,172.136c0.06,0.77,0.804,1.128,1.656,1.128c0.623,0,1.127-0.084,1.619-0.252l0.24,1.236     c-0.6,0.252-1.332,0.372-2.124,0.372c-1.991,0-3.132-1.152-3.132-3c0-1.488,0.936-3.132,2.964-3.132     c1.896,0,2.616,1.476,2.616,2.928c0,0.313-0.036,0.588-0.061,0.732L109.436,172.136 M111.584,170.889     c0-0.433-0.193-1.188-1.021-1.188c-0.78,0-1.093,0.708-1.14,1.188H111.584z"
       id="path640" />
    <path
       fill="#FFFFFF"
       d="M114.955,172.916c0.336,0.204,1.032,0.432,1.572,0.432c0.552,0,0.779-0.18,0.779-0.479     c0-0.313-0.18-0.456-0.852-0.686c-1.224-0.396-1.691-1.066-1.68-1.752c0-1.104,0.936-1.932,2.388-1.932     c0.685,0,1.284,0.168,1.644,0.348l-0.312,1.248c-0.264-0.132-0.78-0.324-1.272-0.324c-0.443,0-0.695,0.182-0.695,0.47     s0.229,0.432,0.947,0.684c1.117,0.372,1.572,0.948,1.584,1.8c0,1.104-0.852,1.908-2.531,1.908c-0.768,0-1.452-0.18-1.896-0.42     L114.955,172.916z"
       id="path641" />
    <path
       fill="#FFFFFF"
       d="M124.699,167.864c-0.612,0-1.008-0.433-1.008-0.974c0-0.552,0.408-0.972,1.031-0.972     c0.625,0,1.008,0.42,1.021,0.972c0,0.541-0.396,0.974-1.032,0.974H124.699 M123.799,174.5v-5.868h1.824v5.868H123.799z"
       id="path642" />
    <path
       fill="#FFFFFF"
       d="M127.688,170.504c0-0.732-0.024-1.344-0.049-1.872h1.583l0.084,0.816h0.036     c0.24-0.386,0.828-0.948,1.813-0.948c1.199,0,2.1,0.805,2.1,2.532v3.468h-1.824v-3.252c0-0.756-0.264-1.271-0.924-1.271     c-0.504,0-0.804,0.349-0.938,0.685c-0.047,0.12-0.059,0.288-0.059,0.456v3.384h-1.824V170.504L127.688,170.504z"
       id="path643" />
    <path
       fill="#FFFFFF"
       d="M62.732,181.979h1.824v3.35h0.023c0.348-0.504,0.96-0.828,1.775-0.828c1.404,0,2.425,1.164,2.412,2.964     c0,2.112-1.332,3.168-2.676,3.168c-0.684,0-1.355-0.252-1.764-0.948h-0.023l-0.072,0.816h-1.549     c0.024-0.384,0.049-1.092,0.049-1.752L62.732,181.979 M64.557,188.004c0,0.12,0.012,0.229,0.035,0.324     c0.12,0.479,0.54,0.863,1.068,0.863c0.779,0,1.26-0.601,1.26-1.655c0-0.912-0.408-1.632-1.26-1.632     c-0.492,0-0.948,0.371-1.068,0.898c-0.023,0.108-0.035,0.217-0.035,0.336V188.004z"
       id="path644" />
    <path
       fill="#FFFFFF"
       d="M71.947,188.136c0.061,0.77,0.805,1.128,1.656,1.128c0.625,0,1.129-0.084,1.62-0.252l0.24,1.236     c-0.601,0.252-1.332,0.372-2.124,0.372c-1.992,0-3.132-1.152-3.132-3c0-1.488,0.936-3.132,2.964-3.132     c1.896,0,2.615,1.476,2.615,2.928c0,0.313-0.035,0.588-0.059,0.732L71.947,188.136 M74.096,186.889     c0-0.433-0.191-1.188-1.02-1.188c-0.78,0-1.092,0.708-1.141,1.188H74.096z"
       id="path645" />
    <path
       fill="#FFFFFF"
       d="M79.52,183.036v1.596h1.309v1.345H79.52v2.137c0,0.707,0.18,1.031,0.721,1.031     c0.252,0,0.371-0.013,0.539-0.049l0.013,1.381c-0.228,0.084-0.673,0.155-1.177,0.155c-0.588,0-1.08-0.204-1.379-0.504     c-0.336-0.348-0.504-0.912-0.504-1.739v-2.412h-0.781v-1.345h0.781v-1.104L79.52,183.036z"
       id="path646" />
    <path
       fill="#FFFFFF"
       d="M83.791,184.632l0.48,2.412c0.108,0.601,0.229,1.248,0.324,1.92h0.036     c0.108-0.659,0.288-1.332,0.42-1.907l0.624-2.425h1.439l0.588,2.341c0.168,0.672,0.324,1.319,0.433,1.991h0.024     c0.084-0.659,0.203-1.332,0.348-2.004L89,184.632h1.787l-1.799,5.868h-1.705l-0.552-2.052c-0.155-0.576-0.264-1.104-0.384-1.837     h-0.023c-0.108,0.731-0.229,1.283-0.373,1.824l-0.588,2.063h-1.716l-1.716-5.868L83.791,184.632L83.791,184.632z"
       id="path647" />
    <path
       fill="#FFFFFF"
       d="M93.5,188.136c0.06,0.77,0.804,1.128,1.656,1.128c0.623,0,1.127-0.084,1.619-0.252l0.24,1.236     c-0.6,0.252-1.332,0.372-2.124,0.372c-1.992,0-3.132-1.152-3.132-3c0-1.488,0.936-3.132,2.964-3.132     c1.896,0,2.616,1.476,2.616,2.928c0,0.313-0.036,0.588-0.061,0.732L93.5,188.136 M95.647,186.889     c0-0.433-0.192-1.188-1.021-1.188c-0.779,0-1.092,0.708-1.139,1.188H95.647z"
       id="path648" />
    <path
       fill="#FFFFFF"
       d="M100.436,188.136c0.061,0.77,0.805,1.128,1.656,1.128c0.624,0,1.128-0.084,1.619-0.252l0.24,1.236     c-0.6,0.252-1.332,0.372-2.123,0.372c-1.992,0-3.133-1.152-3.133-3c0-1.488,0.936-3.132,2.965-3.132     c1.896,0,2.615,1.476,2.615,2.928c0,0.313-0.035,0.588-0.06,0.732L100.436,188.136 M102.584,186.889     c0-0.433-0.192-1.188-1.021-1.188c-0.78,0-1.092,0.708-1.14,1.188H102.584z"
       id="path649" />
    <path
       fill="#FFFFFF"
       d="M105.968,186.504c0-0.732-0.024-1.344-0.048-1.872h1.584l0.084,0.816h0.035     c0.24-0.386,0.828-0.948,1.813-0.948c1.2,0,2.1,0.805,2.1,2.532v3.468h-1.824v-3.252c0-0.756-0.264-1.271-0.924-1.271     c-0.504,0-0.804,0.349-0.936,0.685c-0.048,0.12-0.061,0.288-0.061,0.456v3.384h-1.823V186.504L105.968,186.504z"
       id="path650" />
    <path
       fill="#FFFFFF"
       d="M114.523,190.632c-0.611,0-1.056-0.468-1.056-1.104c0-0.659,0.444-1.115,1.079-1.115     c0.625,0,1.057,0.443,1.068,1.115c0,0.637-0.432,1.104-1.08,1.104H114.523z"
       id="path651" />
    <rect
       x="62.805"
       y="198.412"
       fill="#FFFFFF"
       width="1.823"
       height="8.088"
       id="rect652" />
    <path
       fill="#FFFFFF"
       d="M71.6,203.116h0.024c0.132-0.252,0.276-0.492,0.42-0.708l1.188-1.776h2.195l-2.1,2.376l2.4,3.492h-2.244     l-1.429-2.412l-0.456,0.588v1.824h-1.824v-8.521H71.6V203.116z"
       id="path653" />
    <path
       fill="#FFFFFF"
       d="M77.012,202.504c0-0.732-0.024-1.344-0.049-1.872h1.584l0.084,0.816h0.037     c0.24-0.386,0.828-0.948,1.812-0.948c1.2,0,2.101,0.805,2.101,2.532v3.468h-1.824v-3.252c0-0.756-0.264-1.271-0.924-1.271     c-0.504,0-0.805,0.349-0.937,0.685c-0.048,0.12-0.06,0.288-0.06,0.456v3.384h-1.824V202.504z"
       id="path654" />
    <path
       fill="#FFFFFF"
       d="M87.344,206.632c-1.717,0-3.036-1.128-3.036-3.022c0-1.896,1.248-3.108,3.144-3.108     c1.789,0,2.988,1.235,2.988,3.013c0,2.137-1.523,3.119-3.084,3.119L87.344,206.632 M87.379,205.324     c0.721,0,1.164-0.708,1.164-1.766c0-0.863-0.336-1.752-1.164-1.752c-0.863,0-1.199,0.89-1.199,1.766     c0,0.996,0.42,1.752,1.188,1.752H87.379z"
       id="path655" />
    <path
       fill="#FFFFFF"
       d="M93.32,200.632l0.479,2.412c0.108,0.601,0.228,1.248,0.323,1.92h0.037     c0.107-0.659,0.287-1.332,0.42-1.907l0.623-2.425h1.44l0.588,2.341c0.169,0.672,0.324,1.319,0.433,1.991h0.023     c0.084-0.659,0.204-1.332,0.348-2.004l0.492-2.328h1.789l-1.801,5.868H96.81l-0.552-2.052c-0.156-0.576-0.264-1.104-0.385-1.837     H95.85c-0.107,0.731-0.229,1.283-0.372,1.824l-0.588,2.063h-1.716l-1.717-5.868L93.32,200.632L93.32,200.632z"
       id="path656" />
    <rect
       x="104.864"
       y="198.412"
       fill="#FFFFFF"
       width="1.824"
       height="8.088"
       id="rect657" />
    <polygon
       fill="#FFFFFF"
       points="110.119,198.196 109.855,201.448 108.775,201.448 108.511,198.196 "
       id="polygon658" />
    <rect
       x="111.871"
       y="197.979"
       fill="#FFFFFF"
       width="1.824"
       height="8.521"
       id="rect659" />
    <rect
       x="115.759"
       y="197.979"
       fill="#FFFFFF"
       width="1.824"
       height="8.521"
       id="rect660" />
    <path
       fill="#FFFFFF"
       d="M122.671,202.504c0-0.732-0.024-1.344-0.048-1.872h1.584l0.084,0.816h0.035     c0.24-0.386,0.828-0.948,1.813-0.948c1.2,0,2.1,0.805,2.1,2.532v3.468h-1.824v-3.252c0-0.756-0.264-1.271-0.924-1.271     c-0.504,0-0.804,0.349-0.936,0.685c-0.048,0.12-0.061,0.288-0.061,0.456v3.384h-1.823V202.504L122.671,202.504z"
       id="path661" />
    <path
       fill="#FFFFFF"
       d="M131.707,204.136c0.061,0.77,0.805,1.128,1.654,1.128c0.625,0,1.13-0.084,1.621-0.252l0.24,1.236     c-0.601,0.252-1.332,0.372-2.125,0.372c-1.992,0-3.132-1.152-3.132-3c0-1.488,0.937-3.132,2.964-3.132     c1.896,0,2.616,1.476,2.616,2.928c0,0.313-0.036,0.588-0.062,0.732L131.707,204.136 M133.854,202.889     c0-0.433-0.19-1.188-1.02-1.188c-0.779,0-1.092,0.708-1.141,1.188H133.854z"
       id="path662" />
    <path
       fill="#FFFFFF"
       d="M138.463,200.632l0.792,2.726c0.144,0.49,0.24,0.959,0.336,1.428h0.036     c0.096-0.48,0.191-0.924,0.324-1.428l0.756-2.726h1.92l-2.184,5.868h-1.824l-2.137-5.868H138.463z"
       id="path663" />
    <path
       fill="#FFFFFF"
       d="M145.243,204.136c0.06,0.77,0.804,1.128,1.655,1.128c0.625,0,1.129-0.084,1.619-0.252l0.24,1.236     c-0.6,0.252-1.332,0.372-2.124,0.372c-1.991,0-3.132-1.152-3.132-3c0-1.488,0.936-3.132,2.964-3.132     c1.896,0,2.616,1.476,2.616,2.928c0,0.313-0.036,0.588-0.061,0.732L145.243,204.136 M147.391,202.889     c0-0.433-0.19-1.188-1.02-1.188c-0.78,0-1.092,0.708-1.141,1.188H147.391z"
       id="path664" />
    <path
       fill="#FFFFFF"
       d="M150.787,202.564c0-0.864-0.012-1.43-0.049-1.934h1.561l0.072,1.092h0.048     c0.3-0.863,1.008-1.224,1.584-1.224c0.168,0,0.252,0.012,0.384,0.036v1.716c-0.156-0.024-0.3-0.048-0.504-0.048     c-0.672,0-1.128,0.348-1.248,0.924c-0.023,0.12-0.035,0.252-0.035,0.408v2.964h-1.824L150.787,202.564z"
       id="path665" />
    <path
       fill="#FFFFFF"
       d="M158.959,197.979h1.824v3.35h0.023c0.348-0.504,0.959-0.828,1.775-0.828c1.402,0,2.424,1.164,2.412,2.964     c0,2.112-1.332,3.168-2.678,3.168c-0.684,0-1.354-0.252-1.764-0.948h-0.023l-0.071,0.816h-1.548     c0.023-0.384,0.048-1.092,0.048-1.752L158.959,197.979 M160.783,204.004c0,0.12,0.012,0.229,0.035,0.324     c0.119,0.479,0.539,0.863,1.068,0.863c0.779,0,1.26-0.601,1.26-1.655c0-0.912-0.408-1.632-1.26-1.632     c-0.492,0-0.949,0.371-1.068,0.898c-0.023,0.108-0.035,0.217-0.035,0.336V204.004z"
       id="path666" />
    <path
       fill="#FFFFFF"
       d="M168.175,204.136c0.06,0.77,0.804,1.128,1.655,1.128c0.624,0,1.129-0.084,1.62-0.252l0.239,1.236     c-0.6,0.252-1.332,0.372-2.123,0.372c-1.992,0-3.133-1.152-3.133-3c0-1.488,0.937-3.132,2.965-3.132     c1.896,0,2.615,1.476,2.615,2.928c0,0.313-0.035,0.588-0.061,0.732L168.175,204.136 M170.322,202.889     c0-0.433-0.191-1.188-1.021-1.188c-0.78,0-1.092,0.708-1.141,1.188H170.322z"
       id="path667" />
    <path
       fill="#FFFFFF"
       d="M60.824,53.207c0.84-0.15,1.934-0.226,3.074-0.226c1.936,0,3.195,0.315,4.155,1.05     c1.05,0.78,1.71,2.04,1.71,3.84c0,1.936-0.705,3.271-1.665,4.096c-1.065,0.885-2.7,1.305-4.681,1.305     c-1.185,0-2.039-0.075-2.594-0.15L60.824,53.207 M63.104,61.441c0.195,0.045,0.525,0.045,0.795,0.045     c2.085,0.016,3.45-1.125,3.45-3.54c0-2.175-1.229-3.21-3.21-3.21c-0.495,0-0.84,0.045-1.035,0.09V61.441z"
       id="path668" />
    <path
       fill="#FFFFFF"
       d="M75.389,63.332c-2.146,0-3.795-1.41-3.795-3.781c0-2.369,1.56-3.885,3.93-3.885     c2.235,0,3.735,1.545,3.735,3.766c0,2.67-1.905,3.9-3.855,3.9H75.389 M75.434,61.696c0.899,0,1.455-0.885,1.455-2.204     c0-1.08-0.42-2.191-1.455-2.191c-1.08,0-1.5,1.111-1.5,2.205c0,1.246,0.524,2.19,1.484,2.19H75.434z"
       id="path669" />
    <path
       fill="#FFFFFF"
       d="M86.968,62.986c-0.404,0.195-1.17,0.346-2.04,0.346c-2.369,0-3.885-1.455-3.885-3.766     c0-2.145,1.47-3.9,4.2-3.9c0.6,0,1.26,0.105,1.74,0.285l-0.36,1.695c-0.27-0.12-0.675-0.225-1.274-0.225     c-1.2,0-1.98,0.854-1.966,2.055c0,1.35,0.9,2.07,2.011,2.07c0.54,0,0.96-0.09,1.305-0.24L86.968,62.986z"
       id="path670" />
    <path
       fill="#FFFFFF"
       d="M95.893,60.812c0,0.96,0.03,1.739,0.061,2.354h-1.98l-0.104-1.035h-0.045     c-0.285,0.451-0.976,1.201-2.295,1.201c-1.5,0-2.58-0.931-2.58-3.195v-4.305h2.279v3.944c0,1.065,0.346,1.71,1.155,1.71     c0.63,0,1.005-0.436,1.141-0.795c0.06-0.135,0.09-0.3,0.09-0.495v-4.364h2.279L95.893,60.812L95.893,60.812z"
       id="path671" />
    <path
       fill="#FFFFFF"
       d="M98.473,58.172c0-0.916-0.03-1.681-0.06-2.34h1.935l0.09,1.004h0.045c0.315-0.479,0.976-1.17,2.221-1.17     c0.96,0,1.694,0.496,2.01,1.26h0.03c0.285-0.389,0.6-0.689,0.96-0.899c0.404-0.226,0.854-0.36,1.395-0.36     c1.41,0,2.476,0.99,2.476,3.181v4.319h-2.221v-3.975c0-1.064-0.345-1.68-1.08-1.68c-0.54,0-0.899,0.359-1.064,0.795     c-0.045,0.165-0.075,0.39-0.075,0.57v4.289h-2.22v-4.109c0-0.915-0.33-1.545-1.065-1.545c-0.585,0-0.93,0.449-1.064,0.81     c-0.075,0.181-0.091,0.39-0.091,0.585v4.26h-2.22v-4.995H98.473z"
       id="path672" />
    <path
       fill="#FFFFFF"
       d="M113.878,60.211c0.075,0.961,1.005,1.41,2.069,1.41c0.78,0,1.41-0.104,2.025-0.314l0.3,1.545     c-0.75,0.314-1.665,0.465-2.655,0.465c-2.489,0-3.915-1.439-3.915-3.75c0-1.859,1.171-3.915,3.705-3.915     c2.37,0,3.271,1.845,3.271,3.66c0,0.39-0.045,0.735-0.075,0.915L113.878,60.211 M116.563,58.651c0-0.54-0.24-1.485-1.274-1.485     c-0.976,0-1.365,0.885-1.426,1.485H116.563z"
       id="path673" />
    <path
       fill="#FFFFFF"
       d="M120.793,58.172c0-0.916-0.03-1.681-0.061-2.34h1.98l0.104,1.02h0.045     c0.301-0.48,1.035-1.186,2.266-1.186c1.5,0,2.625,1.006,2.625,3.166v4.334h-2.28v-4.064c0-0.945-0.33-1.59-1.155-1.59     c-0.63,0-1.005,0.435-1.17,0.855c-0.06,0.149-0.075,0.359-0.075,0.569v4.229h-2.279V58.172z"
       id="path674" />
    <path
       fill="#FFFFFF"
       d="M132.793,53.836v1.996h1.635v1.68h-1.635v2.67c0,0.885,0.225,1.29,0.898,1.29     c0.315,0,0.466-0.015,0.676-0.06l0.016,1.725c-0.285,0.105-0.84,0.195-1.47,0.195c-0.735,0-1.351-0.256-1.726-0.631     c-0.42-0.435-0.631-1.14-0.631-2.175v-3.015h-0.975v-1.68h0.975V54.45L132.793,53.836z"
       id="path675" />
    <rect
       id="_x3C_Slice_x3E_"
       fill="none"
       width="256"
       height="256" />
  </g>
</svg>
