<?xml version="1.0" encoding="UTF-8" standalone="no"?>
<!DOCTYPE svg PUBLIC "-//W3C//DTD SVG 20010904//EN"
"http://www.w3.org/TR/2001/REC-SVG-20010904/DTD/svg10.dtd">
<!-- Created with Sodipodi ("http://www.sodipodi.com/") -->
<svg
   width="48pt"
   height="48pt"
   viewBox="0 0 256 256"
   overflow="visible"
   enable-background="new 0 0 256 256"
   xml:space="preserve"
   xmlns="http://www.w3.org/2000/svg"
   xmlns:xap="http://ns.adobe.com/xap/1.0/"
   xmlns:xapGImg="http://ns.adobe.com/xap/1.0/g/img/"
   xmlns:ns="http://ns.adobe.com/SaveForWeb/1.0/"
   xmlns:rdf="http://www.w3.org/1999/02/22-rdf-syntax-ns#"
   xmlns:xml="http://www.w3.org/XML/1998/namespace"
   xmlns:xapMM="http://ns.adobe.com/xap/1.0/mm/"
   xmlns:pdf="http://ns.adobe.com/pdf/1.3/"
   xmlns:dc="http://purl.org/dc/elements/1.1/"
   xmlns:a="http://ns.adobe.com/AdobeSVGViewerExtensions/3.0/"
   xmlns:x="adobe:ns:meta/"
   xmlns:sodipodi="http://sodipodi.sourceforge.net/DTD/sodipodi-0.dtd"
   xmlns:xlink="http://www.w3.org/1999/xlink"
   id="svg5623"
   sodipodi:version="0.32"
   sodipodi:docname="/home/david/Documenti/Progetti/add2cvs/gnome-mime-video-quicktime.svgz"
   sodipodi:docbase="/home/david/Documenti/Progetti/add2cvs/">
  <defs
     id="defs5745" />
  <sodipodi:namedview
     id="base" />
  <metadata
     id="metadata5624">
    <ns:sfw>
      <ns:slices>
        <ns:slice
           x="0"
           y="0"
           width="256"
           height="256"
           sliceID="124047422" />
      </ns:slices>
      <ns:sliceSourceBounds
         x="0"
         y="0"
         width="256"
         height="256"
         bottomLeftOrigin="true" />
      <ns:optimizationSettings>
        <ns:targetSettings
           fileFormat="PNG24Format"
           targetSettingsID="0">
          <ns:PNG24Format
             transparency="true"
             includeCaption="false"
             interlaced="false"
             noMatteColor="false"
             matteColor="#FFFFFF"
             filtered="false" />
        </ns:targetSettings>
      </ns:optimizationSettings>
    </ns:sfw>
    <xpacket>begin='﻿' id='W5M0MpCehiHzreSzNTczkc9d'    </xpacket>
    <x:xmpmeta
       x:xmptk="XMP toolkit 3.0-29, framework 1.6">
      <rdf:RDF>
        <rdf:Description
           rdf:about="uuid:69ded073-34e5-4230-a432-61b09c037f0d">
          <pdf:Producer>
Adobe PDF library 5.00</pdf:Producer>
        </rdf:Description>
        <rdf:Description
           rdf:about="uuid:69ded073-34e5-4230-a432-61b09c037f0d" />
        <rdf:Description
           rdf:about="uuid:69ded073-34e5-4230-a432-61b09c037f0d" />
        <rdf:Description
           rdf:about="uuid:69ded073-34e5-4230-a432-61b09c037f0d">
          <xap:CreateDate>
2004-01-26T11:58:28+02:00</xap:CreateDate>
          <xap:ModifyDate>
2004-03-28T20:31:22Z</xap:ModifyDate>
          <xap:CreatorTool>
Adobe Illustrator 10.0</xap:CreatorTool>
          <xap:MetadataDate>
2004-02-16T21:08:12+01:00</xap:MetadataDate>
          <xap:Thumbnails>
            <rdf:Alt>
              <rdf:li
                 rdf:parseType="Resource">
                <xapGImg:format>
JPEG</xapGImg:format>
                <xapGImg:width>
256</xapGImg:width>
                <xapGImg:height>
256</xapGImg:height>
                <xapGImg:image>
/9j/4AAQSkZJRgABAgEASABIAAD/7QAsUGhvdG9zaG9wIDMuMAA4QklNA+0AAAAAABAASAAAAAEA
AQBIAAAAAQAB/+4ADkFkb2JlAGTAAAAAAf/bAIQABgQEBAUEBgUFBgkGBQYJCwgGBggLDAoKCwoK
DBAMDAwMDAwQDA4PEA8ODBMTFBQTExwbGxscHx8fHx8fHx8fHwEHBwcNDA0YEBAYGhURFRofHx8f
Hx8fHx8fHx8fHx8fHx8fHx8fHx8fHx8fHx8fHx8fHx8fHx8fHx8fHx8fHx8f/8AAEQgBAAEAAwER
AAIRAQMRAf/EAaIAAAAHAQEBAQEAAAAAAAAAAAQFAwIGAQAHCAkKCwEAAgIDAQEBAQEAAAAAAAAA
AQACAwQFBgcICQoLEAACAQMDAgQCBgcDBAIGAnMBAgMRBAAFIRIxQVEGE2EicYEUMpGhBxWxQiPB
UtHhMxZi8CRygvElQzRTkqKyY3PCNUQnk6OzNhdUZHTD0uIIJoMJChgZhJRFRqS0VtNVKBry4/PE
1OT0ZXWFlaW1xdXl9WZ2hpamtsbW5vY3R1dnd4eXp7fH1+f3OEhYaHiImKi4yNjo+Ck5SVlpeYmZ
qbnJ2en5KjpKWmp6ipqqusra6voRAAICAQIDBQUEBQYECAMDbQEAAhEDBCESMUEFURNhIgZxgZEy
obHwFMHR4SNCFVJicvEzJDRDghaSUyWiY7LCB3PSNeJEgxdUkwgJChgZJjZFGidkdFU38qOzwygp
0+PzhJSktMTU5PRldYWVpbXF1eX1RlZmdoaWprbG1ub2R1dnd4eXp7fH1+f3OEhYaHiImKi4yNjo
+DlJWWl5iZmpucnZ6fkqOkpaanqKmqq6ytrq+v/aAAwDAQACEQMRAD8A9U4q7FXYq7FXYq7FXYq7
FXYq7FXYq7FXYq7FXYq7FXYq7FXYq7FXYq7FXYq7FXYq7FXYq7FXYq7FXYq7FXYq7FXYqlvmDzFo
3l7TJdT1e5W1tItuTbszHoiKN2Y+AxV4j5g/5ydvTcMnl/SYlgU0Se/LOzDxMcTIF/4M4qk//QzP
nv8A5YNL/wCRVx/2UYq7/oZnz3/ywaX/AMirj/soxV3/AEMz57/5YNL/AORVx/2UYq7/AKGZ89/8
sGl/8irj/soxV3/QzPnv/lg0v/kVcf8AZRirv+hmfPf/ACwaX/yKuP8AsoxV3/QzPnv/AJYNL/5F
XH/ZRirv+hmfPf8AywaX/wAirj/soxV3/QzPnv8A5YNL/wCRVx/2UYq7/oZnz3/ywaX/AMirj/so
xV3/AEMz57/5YNL/AORVx/2UYq7/AKGZ89/8sGl/8irj/soxV3/QzPnv/lg0v/kVcf8AZRirv+hm
fPf/ACwaX/yKuP8AsoxV3/QzPnv/AJYNL/5FXH/ZRirv+hmfPf8AywaX/wAirj/soxV3/QzPnv8A
5YNL/wCRVx/2UYq7/oZnz3/ywaX/AMirj/soxV3/AEMz57/5YNL/AORVx/2UYq7/AKGZ89/8sGl/
8irj/soxV3/QzPnv/lg0v/kVcf8AZRirv+hmfPf/ACwaX/yKuP8AsoxVFad/zk75oS4B1HSbG4t+
6W/qwP8A8E7zj/hcVeyeRfzJ8tec7Vn0yUx3kQBuLCaizJ25AAkMlf2l+mmKsqxV2KuxV2KuxV2K
vm/XDqf5ufmk+j287Q+XtJLqJF3VIY2CSzAHYvM9AvtTwOKvePLfk/y35bs0tdHsYrZVFGlCgyuf
GSQ/Ex+ZxVOK4q6oxVrkMVdyGKu5jFWvUGKu9RffFWvVX3xV3rL74q71l8DirXrp4HFXfWE8DirX
1hPA4q76yngcVd9Zj8D+GKtfWo/A/hirvrcfgfw/rirvrcfgfw/rirX1yLwb8P64q765F4N+H9cV
d9di8G/D+uKtfXovBvw/riqVa/5X8r+abR7TV7GO55CiyMoWZP8AKjkHxKR7HFXzB5n0XXfys8/R
NZXBJgIudOujsJYGJUpIB8ijj+oxV9VeWtfs/MGhWWsWf9xexLKErUoxHxI3up2OKplirsVdirsV
Q+oMy2Fyy/aWJyvzCnFXhP8AziwqvL5nmYcpQLIBz1oxuC2/uVGKvficVaxVrFWicVaJxVrFWsVa
JxVonFWsVaxVrFWicVaxVrFWicVaJxVrFWsVaJxVonFWsVaxVdCSJkp/MP14q8V/5ypRBJ5ZkCjm
wvVZu5CmAgfRyOKsn/5x3vJX8lwWzElQZmSvbjMR/wAbYq9XxV2KuxV2KofUv+Oddf8AGGT/AIic
VeE/84pn/lKP+jD/ALGcVe+nFWsVaJxVonFWsVaxVonFWicVaxVrFWsVaJxVrFWsVaJxVonFWsVa
xVonFWicVaxVrFWicVXQ/wB9H/rD9eKvFv8AnKw/8ov/ANH/AP2LYqn/APzjn/yisHyuP+T4xV6/
irsVdirsVQ+pf8c66/4wyf8AETirwf8A5xRNf8U/9GH/AGM4q9+PXFWicVaJxVrFWsVaJxVonFWs
VaxVrFWicVaxVrFWicVaJxVrFWsVaJxVonFWsVaxVonFWicVXQ/30f8ArD9eKvFf+crjT/C3/R//
ANi2Ksg/5xy/5RS3+Vx/yfGKvYMVdirsVdiqH1L/AI511/xhk/4icVeDf84nmv8Ain/ow/7GcVe/
HrirROKtYq1irROKtE4q1irWKtYq0TirWKtYq0TirROKtYq1irROKtE4q1irWKtE4q0TirWKroP7
+P8A1h+vFXiv/OWBp/hb/o//AOxbFWQf844f8onb/K4/5PjFXsOKuxV2KuxVD6l/xzrr/jDJ/wAR
OKvBP+cTD/ylX/Rh/wBjOKvf2O5xVrFWsVaJxVonFWsVaxVrFWicVaxVrFWicVaJxVrFWsVaJxVo
nFWsVaxVonFWicVaxVrFV0B/fx/6y/rxV4p/zlmf+UV/6P8A/sWxVkP/ADjf/wAolb/K4/5P4q9i
xV2KuxV2KofUv+Oddf8AGGT/AIicVeBf84lH/lKv+jD/ALGcVfQDdTirWKtE4q0TirWKtYq1irRO
KsI85/nD5G8ptJBfXv1nUU2OnWgEswPg+4SP/ZsDmfpezc2bcCo95cfLqoQ5nd5ld/nj+Z3mLkfK
fl9LGxOy39z+8+n1ZTFAPlRs3OPsbBD+8kZS7h+LcGevmfpFBJLp/wA2dRJfVfPAsyf91WUsqnf2
tEjjp/ssz8eiwj6cV++v984ktXI85fj4IB/KN/K3K587ajI4FAwilfbwq9ypzJGEjljj+Pg1HUf0
iqw6F5qtSP0d59vYqbKJDdxLQdARHJN91MhLTRPPFE/L9iY6kjlI/am1j5s/PfRyDBf2nmS3Xcwk
xysfoIt7k1zCy9naaXOMofj4hyYa3IORBZLoP/OSOnLcCw836TcaJdjZ5kVnjHu8bBZUHyDZrs/Y
UqvFISH4+H3OZj7QHKQp61pOs6Tq9kl7pd3Fe2kn2ZoXDrXwNOhHcHfNJkxSgakKLnRmJCwi8rZN
Yq0TirROKtYq1irROKr4P7+P/WX9eKvEv+ctT/yiv/R//wBi2Ksi/wCcbf8AlEbb5XP/ACfxV7Hi
rsVdirsVQ+pf8c66/wCMMn/ETirwH/nEg1/xX/27/wDsZxV9At9o/PFVpOKtE4q1irWKtYqgdZ1r
S9F02fUtUuUtLG3XlLPIaAdgB3JJ2AG5OWYsUskhGIsljKYiLPJ8/eZ/zX85+fbmfTfJ/LRvLsR4
XWqyH05HU/zSCpSvZI/iPfbbOn0nZePDRyevJ3fj7zs6nPrTLaO0UN5V/LvTIHH6Psv0rfA/vNSv
VBiRvGOJqoviOXJs2WWYiLyS4R/NDrwTL6R8Xotr5EE5WXV72S5kH+64zRB7AnenyAzXz7S4dscR
EN8dLe8jae2nljy9bAenYREjvIvqH735ZhZNbmlzkfu+5yI4IDomKWGnAAC1hAHQCNf6ZjHLPvPz
bhCPc3Jo+jzik1jbyf60SH+GI1GSPKUvmk44HmAld7+Xvlm7BKQtayH9uFiN/wDVbkv4ZlY+1c8e
Z4ve0y0WOXSmL+Yfy51M2xikji1/TlBpbzr+9Qf8Vknkp90avtmdh7QwzO/7uXeOX494ceelyQ5e
oPNI/LWveW9RbVfIl9PaXiH/AEjRZzUuF6oK0SYf5DgMO1TmZnxxnGsoEo/zh+Nvua8WYxPp2Pc9
X/LT86NM81SfonVYxpXmSP4WtHqsczLs3pFtwwPWNt/Cu9Oa1/ZUsPqj6sf3e/8AW7jT6sT2O0np
BOalzGicVaxVrFWicVaJxVfB/fx/66/rxV4l/wA5bmn+FP8At4f9i2Ksj/5xr/5Q+2+Vz/yfxV7H
irsVdirsVQ+pf8c66/4wyf8AETir5/8A+cRjX/Ff/bv/AOxnFX0E32j88VWk4q1irWKtYqgdZ1nT
dG0u51TUp1trG0QyTzN2A7AdSSdgBuTsMsxYpZJCMRZLGUhEWeT5l1zXNZ/NTW31C/eSw8m6fIUt
LRTRpGHbuGlYfabog2Hv2Ok0kdPHhjvkPM/jp97otTqTM2fpZ95d8qRTW8Hqwi00uEf6LYRVUU8T
337sd2xz6kY7EN59S0Qxme8uTN7eOGCJYoUEcaCioooBmomTI2ebmRockQrZWQzBXtPFEvOR1RR1
ZiAPvOARJ5J4qUP0/oymhvoK+0in9Ryf5XIf4T8keNDvCJttW0ycgQ3cMjH9lXUn7q1yueCcecT8
mccsTyKPVsoIbQVVWyBDIFJvMXljSNaAWUrBqJBMFwtA54+I/bUV+jMzSa3JhO28e5pz6eOTyk8Y
89/l/Pc3fG4IsvMMFHsdTQlVn4n4PUcb12+F+q986DDmjKPFDeHWPd+O51khKEuGXPvZX+T35rXW
qyN5U80Ew+ZbPkkUslFNwsfVW/4tXv8AzDfxzQdqdnDH+8x/3Z+z9juNJquL0y+p6zmkc5rFWicV
aJxVrFV9v/vRF/rr+vFXiP8Azlyaf4U/7eH/AGLYqyT/AJxq/wCUOtvlc/8AURir2TFXYq7FXYqh
9S/4511/xhk/4icVfPv/ADiGf+Us/wC3f/2M4q+g3PxH54qtxVrFWsVaJxV84fm55qufPfnJfJ2l
zGPQdIcvqlwvR5Yzxkb3EdeCDu3tTOr7K0ng4/EI9c+X4+33On1ufiPCPpDI/K+gWpjhIhEWm2g9
Oztu1Aep8d9ye5zL1GXwxwg+o8y4EI8Rs8mZq2aohygW5ruC2hM07hI16k/wxjjMjQUyAFlg3mr8
0bXTlKJJ6G3wqAHmYfLov05s8OgiPq3LjT1J6PLtR/NLVL24K2cBlkbZS/KaQ/L/AGszxAQHSIaR
GUioDVvzJnHJLS4UdQDAqfrVTlEtbgHOY+bcNHkPQrW83+ddPPPULOQRjqZoCif8EoX9eWY8+Of0
zB+IYS0848wyzyt+dMsLpHLK9uOnEkywn5qfiX6Mrz6OE/qHxCIZpwerW/5oaW2nLL6TTX83w2Vn
bnn9ZkPRY27eLFvsjNLqOzjA3fo7+52GLViW1epAf4Y1LUJjq+q3bR+YWIe1uLcnhZca8YoFOxXf
4+X2965rZa6jUB+77v53v/R3ObHSWLkfX93u/G6ewuvmW0n0HXoBaa/ZxrKxQfCyPUR3MBO/pvxo
VO46HscysOY4SMmPeB/FFonDxAYT+ofi3jX5ieVNRimOo2vK38yaIRIJYtmliioysp7tGPiU9128
M6LHOEo2N8c/s/H3utHFGVH6g9g/Kzz7D5y8rxXrlV1O2pDqMI2pKB9sD+Vx8Q+7tnI9oaM4Mhj/
AA9Pc7/T5vEjfVmJOYLe0TirWKtYqvtz/pEX+uv68VeIf85eH/lE/wDt4f8AYtirJf8AnGj/AJQ2
1+Vz/wBRGKvZcVdirsVdiqH1L/jnXX/GGT/iJxV8+f8AOIJ/5Sz/ALd//Yzir6Df7R+ZxVbirWKt
E4qwr83vOh8peRr3UIX46hcUtNOPcTSg/GP+MaBn+jM/s3S+NmET9I3PucfU5eCBPV4x+W/llrXS
YEcEXmpFbi7c9RH1jX6FPL5nOvnkomXdsHnpb7PV4FSKNY0HFEACgeAzUSJJst4VJbmOCFpZDREF
TgjAyNBkZU8j/Mf8xZLeRra3YfWabDqsQPTbu5zcafAIig4k5mRY95U/LfVNfmW91cycJjzW1BPq
OG/akY/Zr4dTmr13bIxkwxbnv/HN2Wl7PsXN7f5b/KmysbdV9KO1j7oi0J/1qfEfmxzmsueeQ3Mk
l20McYigKZTD5M0WIAcCx8aKP4V/HKmbp/JmiyqR6ZUn2U/wriryf81fyr8pWWn/AF5WFrqEzcLN
LYUkmlO/H0ujD+Zq7DN32XrNRx8IPFHrfT4uu1uPEI2diofljpMfluZZrmMXE0q8JZCKtGD19M/8
S8c2PaOPxo0DTrNHm8OdkbPTtd16DS3trGwVLvzBqChrC0f7EaH/AI+Jx1CD9lerHYdyOf0+lMrl
LaEef6g7vNqAKEfqP4tG+W9ATS0lnnla71S8b1L++koZJXPjTYAdFUbKNhl2SfF5Ach3NMI170v8
/aMLiyXVIF/0qz/vCOrRV7/6p3+Vcz+zM9SOOX0y+9xdZiscQ5h4j5T1U+Q/zSiCH09C12iPHX4V
EjUX2/dy7D/JOZ/aWn8bAf5+P8faGGizcMx3SfS4YEAg1B3Bzj3eOxVrFWicVX2/+9EX+uv68VeI
f85fH/lE/wDt4f8AYtirJf8AnGf/AJQy1+Vz/wBRGKvZsVdirsVdiqH1L/jnXX/GGT/iJxV89f8A
OH5r/i3/ALd//Y1ir6Ef7bfM4qtxVonFWsVfPP5/37a5+YPl/wApqS1raILi7Vf5piS4P+rDFUf6
2dR2Lj4MMsnU7D8e91PaE7kI9zJ/L1sAktwRQseCewG5pmXqTVR7nWw705BpmI2sR/MLzIul6ZLI
D8Ufwxr/ADSsPh/4Eb5m6XH172nLLo83/LXynceYtW/S12hnBlItUf4g8tatI1eoU9Pf5Zids67w
x4UOZ5/jzdh2fpb9ZfT3l/y7a6TbKAoa4O7ye/tnKu5TcnFWsVSfzP5msPL+nm6uayTSHhaWif3k
0nZV9v5m7ZkabTSyyofPuac+eOONl5QY9S1jVH1fVnEt9IOMaL/dwRVqIogeg8T1JzpccI4o8Mf7
XncuSWWXFJkkdu2lehFBbreeYLtedhYPX04kO31m6puEB+yvVz9JGDn1AIO9QHM9/kPxs5mDTkEb
XI8h+k/jd4/o3mPzHp/5h39v5klY6vNccJ5WNSsoP7plP8pFKdqU7CmbrDjxywgw+khxM/FGZvm+
ktG1Jb/T4bkUDMKSKOzjZhnO6jD4czF2uLJxRBR7KksbRyANG4Kup6EEUIzHBINht57PnD84NAaH
TpiK+tpNxVH7+lIQhp8/gbOt0+QTqX84fj9LpTHhJj3PaPyz8xfp/wAlabqDtynMQjn/AOMifC2c
Xq8PhZZQ7j/Y9HhnxQBZRmO2NE4q1iq+2/3oi/11/Xirw/8A5zANP8Jf9vD/ALFcVZN/zjL/AMoX
afK5/wCojFXs+KuxV2KuxVD6l/xzrr/jDJ/xE4q+eP8AnD01/wAW/wDbu/7GsVfQr/bb5nFVpOKt
Yq1ir5eurj9Lfnd5nvX+L6o8ltGfAwcbYf8ACxtnbaSHDp8Y79/0vPauVzk9S02MR2MK+K8v+C3/
AI5jZjci1RGyIYhVLHoBU5WGTw783NQnuNStNOj3ZhzKjvJK1APwFM2+Gogk8g0AcUqe5/lL5Zg0
3R45Qo/dKIIDTrxHxv8A7Js4TPmOSZmepeoxwEYgDoz8nKmahe3trZWst3dyrDbQqXllY0AAyUIG
RobksZSERZ5MEm/NfnOV0/SXntx9mWeYQM3uECS7fM5t49jmvVKj7r/U6yXakb2FsdddQ1fUn1PU
mEl0/wAMaLX04Y67Rxg9vE982OOEcUeGP9rrsuSWSVlkcFr+ixCqQLc61crysrJxVI1O31i4p+wP
2V6scwc2ewd6gOZ7/IfjZzMGnqtvV0H6SyXQdATTVluJ5GutTum9S8vJKF5HIp9AHQAbAbDNRmzG
Z7gOQ7nbY8YiPM8y8V/5yT8vR2mq6R5mt14Pc8rO8ZdqvGOcLf6xXkPkozouwM1xljPvH6XWdp4u
UmfflfrBvtJVia+tEk+3TnTjJ/wwx7Sx8j8GjRT5hnStmpIc8F5f+bemrMt8oWpu7Mkf64VkH3cR
m87On+6/qyddqhWT3hLP+cadUaXQL2wZtoJi0a+A2Y/jJmr7dx1nv+dEfqdnoJXjruL2YnNM5rWK
tYqvtv8AemL/AF1/Xirw7/nMI0/wl/28f+xXFWUf84x/8oVafK5/6iMVez4q7FXYq7FUPqX/ABzr
r/jDJ/xE4q+d/wDnDo/8pd/27v8AsaxV9CyH42+ZxVbirWKtE4q+V/KKc/Pvm9zuwvZtz13uJa53
UTWPH/V/QHm8/wBR972CEUhjHgoH4Zr5c1DVz/vPJ/qn9WGHMIPJ4T5rXn+aNtG+6rcWtB8kRv15
nZzWmmf6JXTD96PeH1R5ct1t9CsY1/3yjH5uOR/E5wz0qY4qwT805Z5ItMsFJEE8kksoHRjCF4A/
TJX6M2/ZERxSl1H6XV9pyPCB3sW8t+U73Xr3UIxfvp0Gn+mkYhWNnd5Iw/NvUV/h3pQU6HfM3W60
4qoXfe4mj0YyAkmqTnyu91Hpd3fTJFcXOmC8T1KH0ZHs2eNZAO6uyA0yGaXFQ5cXD791wx4ZHrw3
9jMtD0lLWNruZzcX93SW4uZPtsxH4UGwA2A2GaPNlMz3Ach3O7x4xEeZ5pplTY8t/wCcjYEl/LsO
32oL63kT/WIdP1Oc3PYUq1HviXB7QH7tLfyRkf8AQllX/fcq/R6nLfNt2kPSfe6nR/U9XVs0ZDsw
WG/mIit6DHcGNwR7Aj+ubTs8+iThavmHmv8AzjTMy3t+lfheop/sQf8AjXKPaD+8j7nN7O+k+99B
5z7sWsVaxVfbH/SYv9df14q8O/5zFP8AyiP/AG8f+xXFWUf84xf8oTafK6/6iMVe0Yq7FXYq7FUP
qX/HOuv+MMn/ABE4q+df+cOD/wApf/27v+xrFX0NJ9tvmcVW4q0TirROKvl/yvG1r+annDTGHxyX
N06E9eMU7yA/SpztoyvDjl5D7nns0fXIe96hZ3qOixv8LAAA9jmPkxkbhqjJFSLyjZfEEfeMrB3Z
F4V+ZCHTPPdpqTfYLW9wT/kxkIR/wmbIR8TDKHeCwxS4cgL6o0KZJdFsJENVa3i3H+oBnBvTo3FU
k816G+q2MZgoLy0f1bfl0bYhkJ7BgfvpmXo9R4Ut+R5uNqsHiRrqGNWdjpbu31qT6lcU9OZZWkge
n8pK05/QTm0lkJHp9Q+f9jq44jE7nh+xNkhs57RNG0iOlmeIurkIUT00PL04wQDQkfEcw8uYxPFI
+roP0n9AczDgFUOXU/oDJVUKoUbBRQfIZrHYuJxV49/zkvqaReVdM0wH99fXok4+MdvG3L/hpEzf
dgY7yyl3R+913aU6gB3o38pNPe00KyDChEBY/wDPV+a/8Lmb2hO/m67Sjd6Gr5qiHPBYJ+YmqW/1
aWaJw620Lc2G4rX7s2uixmMTfVwdRMSkKYL/AM4227C4uZ6bM8g+hUUfrfML2gl+9iO6P6XY9nD0
E+b6AzQuwaxVonFVS2/3pi/11/Xirwz/AJzHP/KIf9vH/sVxVlP/ADjB/wAoPZ/K6/6icVe04q7F
XYq7FUPqX/HOuv8AjDJ/xE4q+c/+cNjX/F//AG7v+xrFX0RJ/eN8ziqwnFWicVaxV83+dwnlj/nI
GO+lHCx1ZYZpQO8ci+lKPmzwn786zRS8XR0Pqjf6w6XVDhy2eRZ1c2b2t1Lbvu0TFajoadCPY9cu
hkEogjq4U4cJIVYZZEFK1XwOQlEFQWB/m95dbUNFTUIErLZseYHX03/5pb9eZOmycMqLGY6s6/IL
zjHrfk5NNmf/AHI6ORBMh6mI/wB2/wAj0+ec32tpDizEj6Zbj9LvtHm44eYemk5q3LaJxVSlt4JD
WSNXPiQCcVbREQcUUKvgooPwxVsnFWiQBir5k88aw/5g/meltYP6mlacfqttKu6sFPKaYePJq08V
Azs+z9P+X09n6pbvP63N4k6HIPZNMubXTbP040JbZVQbAKooormJlxmZ8kY5iIQ19qd5dAqzcIj/
ALrXYfT45biwxj72E8pk8/8AzQ1EWXledAaPc/ulHiG2b9eZuEXINSe/84+6S1toonZaM8PMn/jO
/Jf+EUZy/a2Xj1EvLb5fteg0cOHGHrua1yWicVaxVUtf96Yv9df14q8L/wCcyTT/AAh/28f+xXFW
Vf8AOL//ACg1n8rr/qJxV7VirsVdirsVQ+pf8c66/wCMMn/ETir5y/5w0Nf8Yf8Abu/7GsVfREn9
43zP68VWE4q1irWKvF/+cl/LctxoOneZrRf9J0aYJO6jcQzEcWP+pKqgf62b7sLPUzjPKQ+0fsdf
2hjuIl3I/wAt6pD5l8m6drkJrPCi2moJ1IaMBY3PzWik+IzLH7rKcZ94/S4ExxQEu7Y/oRaJlxLQ
vktop4XhlUPFIpSRD0KsKEHIWmnjmpWnmD8s/N8eu6PWSzcmqNXhLCx+KKSnf37GhzMlCGqx8Eua
4cssUrD6H8leetB836St/pUwLgAXVo5Amgcj7Lr+puhzkdVpJ4JcMh8e96DDmjkFhkGYra1irROK
tEgDFXh/5u/m+twsvlPylL9YuJ6xahqMJqqKdmihYdWP7TDYDYb9Oj7L7LqsuUUByH6S6vWa0AcM
V35ceRl8v6b9YuV/3IXKjlXqinfj8z3/ANvNhqM/GduTrIx6llzplIKVF0yYKHjX5kXza95rs9At
WJjicLKRvQ/tN/sV5HMkZBixSyHoGWLHxyAfQHkDS1sdAjIXh6x5Kvgijig+4Zw8pEmy9IBTJCcC
WsVaxVUtf96of9df14q8L/5zLNP8H/8Abx/7FcVZV/zi7/ygtn8rr/qJxV7XirsVdirsVQ+pf8c6
6/4wyf8AETir5w/5wxNf8Yf9u3/saxV9Eyn943zP68VWYq1irROKoPV9MstV0u70y9T1LS8ieCdP
FHHE08DvscnjyGEhIcwxlESFF84fl9q91+W35gX/AJS8wGulXT+hK7CiMjbxTqPcGvtuOudbqYjV
YRlx/UPwQ6SP7qZjL6Tz/W9i1PSnsbgAH1LaQcreYbhlO43G1cxMOcZI+fVjmwmB8lBEyZLUsv8A
SrLUbR7S9hWaCQfEjfrB7HAJmJsJIt5RrP5X+aPLepfpryddyrJHUr6JpKAeqsvR19qEHwGZ41OP
LHgyhhHigbimuj/85EeZNMAtvNWifWWT4Wu7Y+i5psS0bBkY/wCqyjMHN2FCW+OVeR3c/H2mf4gy
q3/5yP8Ay+lSskd/bmn2ZIFJ+XwSOMwJdhZx/NPx/Y5I7QxnvS/Uv+cmPLKIV0rSb69n/ZE3p26E
/wCsGlb/AIXLcfs/lP1SiPt/Uwn2lAcgw7U/NP5sfmIWsoIjpmkP8MtvbBowyntLKx5NUdqqp8M2
eHRafTbn1S8/0ODl1mTJsNgzDyT+V+l+XEWecLc6h19Qiqof8mvf3/28hn1Znt0aI465swdMxwWa
J0m0tprms5B4brEf2srzzkI7NuGIJ3VfNWg3FzY3FxpICXpRqJ0Ban2h75VpdTwnhlybs+Cxceb5
o8tSx6D55ePzKpgNy/pNetXjEGYVYj+WmxPb5Zte0sEs+ADH03rvatFljCW76wthCttEsBBgCL6T
KQQVpsQR7ZxpDvVTFWsVaxVUtT/pUP8Arr+sYq8K/wCczjT/AAf/ANvL/sVxVlf/ADi5/wAoJZfK
6/6icVe2Yq7FXYq7FUPqX/HOuv8AjDJ/xE4q+b/+cLzX/GP/AG7f+xrFX0TL/eP8z+vFVmKtE4q0
TirWKvMfzu/LQ+a9HXU9NUDXtMUmAjYyxD4jFXxB3X3+ebXsvX+BOpfRLn5ebiavT+ILH1Bi35Of
mva3VsnkzzafSlhb0rK6l+Exsvw+m9fs0Ow8OnTps9fojE+Ni+Lr8GUEeHPl08npuoaNc2ElGHOE
n4JR0Pz8DmNi1EZjzRlwGB8lBEyZLUrKmQJSh7zQ9KvwfrlpFOSKcnQFqf63XDHLKPIqYgpNL+V3
kaU1bSYq1qd2P6yctGtyjqx8KPcirPyH5Ssn5W+lwqf8oFx9zlhkZarIeZSMYCbrbxxIEjQIi7Kq
gAD5AZVxWmljpkgUKLpkwUKJ5IwZTRhuCMnzRyT3StVEw9NzSYdR4+4zBz4K3HJzcOa/ewb83vIG
la9bxzRIItQcOVkGwLLSlfnyzO7N1EhYPINGrgAQR1Yb+R3nnWLHWZfJWqyevZwqxs5WNXhZWA9M
eKHlsO3yyPbWlhwjNHYk7+bk6DOT6Tye8ZzbtGsVaJxVUtf96of9df1jFXhX/OaBp/g7/t5f9iuK
ss/5xa/5QOy+V1/1EnFXtmKuxV2KuxVD6l/xzrr/AIwyf8ROKvm3/nC01/xj/wBu3/saxV9FS/3r
/wCsf14qsJxVonFWsVaxVo4q8X/OH8mRqkj+YfLyiDVF+KeBfhWUjv8A5Le/3+I3XZvapxeie8Pu
/Y4Oq0gnuPq+9JPy3/Pi90Vh5b87QyPbwn0hPIv76EDbi6t9pR4dR2rsubDV9mRyDxMJcPFqTD0z
Fh7dbWWkavaLqGhXcdxbSbqUbktfCvVT7HNR+YnA8OQbt500Zi4FQk0+6gNJYyo/m6j7xtlwyxly
LjyxSjzC6OCuAyURVhb+2Q42fA01v7YRNBgoNAxNFBJ7Ab5MSYGKvb6DeTmrj0U8W6/8DlctVGPL
dthpZS57JRr/AJ8/Lzyjcx6fqN0Jr2dxFNHGBK8YbqZBUcQK/ZHxexw48GfOOKIoBtMsOLY7lW1P
TokijvrKQXGnXCh4ZkPJeLbjcdQexy/Bn4vTLaQcfPg4dxvEpSSyMGU0YbgjMvm410v1O/N3DAHF
JIuQY9jWlD+GDDi4Ce4ssmTiAeDeRT/yFeY/8Wt/ydTLu2P8VH9Yfpbuzvr+D6jzkndtE4q1iqpa
/wC9UP8Arr+sYq8J/wCc0jT/AAd/28v+xXFWW/8AOLH/ACgVj8rr/qJOKvbcVdirsVdiqH1L/jnX
X/GGT/iJxV81/wDOFZ/5TL/t2/8AY3ir6LlP71/9Y/rxVYTirWKtYq0TirROKtH3xV5/+YH5R6B5
oiM3pCG+UfBPHRXHtXoR/kt9FMzdJr8mA+k7d3RozaeOQbvFH8vfmh+XeoNdaNPM8KHd4KmqjoJI
TWvyoRnQQ1+m1I4cg4Zef6/7HWT0uTEbj9n6ma+Wv+cp7iLjb+ZdKEjL8MlxbHg+3jG1QW+lRlOb
sIHfHJlDXyG0hb0HTPz3/KfUVUyXxspG3EdxCwb6TEJF/HNfPsvUx6X8W8avCee3wT6P8wfy0kXk
uuWQFafFNwP3MRmOdNqP5p+TZ4uDvCFvfzT/ACrslLTa1bEDb92JJq/Lgr5KOi1MuUSg58A6sS1v
/nJnyFp6MulWs+oTAfBRVgiP+y+Jv+EzMx9iZpfUa+1qlr4D6R+h5nr/AOd/5l+cDJZaLC1hZv8A
Cy2gKtQ/zzk7f8EAfDNhHQabTDiyGz5/qcc5s2XYcvL9aVaV+UGr6rDI91cs2oSj9zxBaNW6/EaV
b/YjbKMnb0RICEfR17/g3Q7O9O53T38sPzQ1XyRqknlLzbG7aUXKOrgs0BY/bT+ZG6kDr1G/2r9X
pIaiIy4j6mjHlOImEx6Xtp8y/lOR/wAdix/6Sj/zXmorVdx+Tk1p+8fNYfMP5SHrq9j/ANJR/wCa
8P8Ahfcfl+xa03ePm+d/JDQN+bNw0BDQtKxjZTUFTKlCDm17Wv8AKRvnY/S0aCvE2831ETnJu6ax
VrFVS0/3rh/4yL+sYq8I/wCc1D/yhv8A28v+xTFWXf8AOK//ACgNj8rr/qKOKvbsVdirsVdiqH1L
/jnXX/GGT/iJxV80/wDOFBr/AIy/7dv/AGN4q+jJj+9f/WP68VWYq1irROKtE4q1irWKtE4qh7uy
tLpOM8YfagPcfI4qwvzB+U3lzVuTyW8Tue7qA4+TgVy/DqsmP6JENc8UZcxbAtT/AOcedOLE26zx
DsIn5D/hhIc2MO3NRHnUveP1U40tBjPeEin/ACBlQ7XE4HSjKOv0quZA9oMnWI+1rPZ0e8qlt+Qi
EjnJcyewoBX6EbIS7fzdIx+39bIdnQ6ksk0n8jNNhZWNirMOrT1f/hZCF/4XMPL2rqJ/xV7tv2t0
NJjj0Zzpf5e6fbKolpxT7MaAUHy2C/8AC5rzIk2XIApk1rY2lqvGCMJ2J7n6cCWFfmX+V2k+brVZ
qehqUG8dxGByK9Sp8Qf8/fO0Wvnpz6dwejRn08cg35vJv+VES/8ALTN/wK5s/wDRDP8Amhxf5Oj3
u/5URN/y0zf8CuP+iGf80L/J0e9O/Jv5U3Og6/bX6SSS0ZUZWUAULqSdv9XMTW9qyzw4DEDe27Bp
BjlYL3XNS5bWKtYqqWh/0uH/AIyL+sYq8H/5zXNP8G/9vL/sUxVl/wDzir/5L+x+V3/1FHFXt+Ku
xV2KuxVD6l/xzrr/AIwyf8ROKvmj/nCY1/xn/wBu3/sbxV9Gzf3r/wCsf14qp4q0TirROKtYq1ir
ROKtE4q1irWKtE4q1irWKtYq0TirWKtYq1irROKtYq1irWKtE4qq2n+9cH/GRf8AiQxV4N/zmyaf
4M/7eX/YpirL/wDnFT/yX1h8rv8A6ijir3DFXYq7FXYqh9S/4511/wAYZP8AiJxV8zf84SH/AJTP
/t2f9jeKvo6b++f/AFj+vFVMnFWicVaxVrFWicVaJxVrFWsVaJxVrFWsVaxVonFWsVaxVrFWicVa
xVrFWsVaJxVrFVWz/wB64P8AjIv/ABIYq8F/5zbP/KGf9vP/ALFMVZh/zil/5L2w+V3/ANRRxV7j
irsVdirsVQ+pf8c66/4wyf8AETir5l/5wiP/ACmn/bs/7G8VfR05/fP/AKx/XiqmTirWKtYq0Tir
ROKtYq1irROKtYq1irWKtE4q1irWKtYq0TirWKtYq1irROKtYq1iqrZ/72Qf8ZF/4kMVeC/85un/
AJQv/t5/9imKsx/5xQ/8l5YfK7/6ijir3HFXYq7FXYqh9S/4511/xhk/4icVfMf/ADg+a/40/wC3
Z/2N4q+j5z++k/1j+vFVPFWsVaJxVonFWsVaxVonFWsVaxVrFWicVaxVrFWsVaJxVrFWsVaxVonF
WsVaxVrFVWzP+mQf8ZE/4kMVeCf85wGn+C/+3n/2KYqzL/nE/wD8l3p/yu/+oo4q9yxV2KuxV2Ko
fUv+Oddf8YZP+InFXzB/zhBIqT+dLdzxnI05hGdmohug23sWFcVfSNxUTSV/mP68VU8VaJxVonFW
sVaxVonFWsVaxVrFWicVaxVrFWsVaJxVrFWsVaxVonFWsVaxVrFWicVVrEE3kAAqean7jXFXgH/O
cM0Zl8mRBgZEXUnZO4VjahT9PE4qzb/nE8MPy60+oIPG7O/gbokYq9yxV2KuxV2KrZI1kjaNvsuC
rfIimKvjHWb3W/yI/PG41qK2afy9qzSGWBaKsttM4eWNK7B4ZKMntTsTir6p8p+ePJPnfT47/wAv
6pDeB1q8KOFuIz3WWE/GhHuPltiqefo6L+ZvwxV36Ni/mb8MVa/RkX87fhirv0ZF/O34Yq79Fw/z
t+GKtfoqH+dvwxV36Kh/nb8P6Yq1+iYf52/DFXfomH+dvwxV36Ig/nb8P6Yq1+h4P52/D+mKu/Q8
H87fh/TFXfoaD+dvw/pirX6Fg/nb8P6Yq79Cwf78f8P6Yq1+hLf/AH4/4f0xV36Dt/8Afj/h/TFW
v0Hb/wC/H/D+mKu/QVv/AL8f8P6Yq79BW/8Avx/w/pirX6Bt/wDfj/h/TFXfoC2/34/4f0xVJvM/
nDyJ5EsJdQ17U4bTipKRSOGuJPBYoV+NyfYfPbFXxF+YvnbXvzg/Mhbi1t2jjl42mk2RNfRtkJbl
IRtU1Z3P0dAMVfY/5PeXI9C0K2sYB+5tLdIgxFCxNPiPu3Cp+eKvQsVdirsVdirsVYn+Y35b+X/P
WhyaZqsSl6VgnpVkcdCO/wB2Kvkfzf8A84t+bdJvXSwmWWAk+mZgxXj7SRhq/SgxVjv/AEL55+8b
X/gp/wDqlirv+hfPP3ja/wDBT/8AVLFXf9C+efvG1/4Kf/qlirv+hfPP3ja/8FP/ANUsVd/0L55+
8bX/AIKf/qlirv8AoXzz942v/BT/APVLFXf9C+efvG1/4Kf/AKpYq7/oXzz942v/AAU//VLFXf8A
Qvnn7xtf+Cn/AOqWKu/6F88/eNr/AMFP/wBUsVd/0L55+8bX/gp/+qWKu/6F88/eNr/wU/8A1SxV
3/Qvnn7xtf8Agp/+qWKu/wChfPP3ja/8FP8A9UsVd/0L55+8bX/gp/8Aqlirv+hfPP3ja/8ABT/9
UsVd/wBC+efvG1/4Kf8A6pYq7/oXzz942v8AwU//AFSxV3/Qvnn7xtf+Cn/6pYq7/oXzz942v/BT
/wDVLFXf9C+efvG1/wCCn/6pYq7/AKF88/eNr/wU/wD1SxVF6Z/zjn5yuLgJdzwQRd3jEsjf8Cyx
/rxV71+Vn5J6Z5cH+iwme9kA9e6loXI60YgURP8AJHXvir3fTbCOxtVhTc9XbxY98VRWKuxV2Kux
V2KuxVbJFHKpSRA6HqrAEfjiqFOjaWT/ALzJ92Ku/Q2l/wDLMn44q79DaX/yzJ+OKu/Q2l/8syfj
irv0Npf/ACzJ+OKu/Q2l/wDLMn44q79DaX/yzJ+OKu/Q2l/8syfjirv0Npf/ACzJ+OKu/Q2l/wDL
Mn44q79DaX/yzJ+OKu/Q2l/8syfjirv0Npf/ACzJ+OKu/Q2l/wDLMn44q79DaX/yzJ+OKu/Q2l/8
syfjirv0Npf/ACzJ+OKu/Q2l/wDLMn44q79DaX/yzJ+OKu/Q2l/8syfjirv0Npf/ACzJ+OKu/Q2l
/wDLMn44q4aNpYP+8yfdiqKjijiUJGgRB0VQAPwxVdirsVdir//Z</xapGImg:image>
              </rdf:li>
            </rdf:Alt>
          </xap:Thumbnails>
        </rdf:Description>
        <rdf:Description
           rdf:about="uuid:69ded073-34e5-4230-a432-61b09c037f0d">
          <xapMM:DocumentID>
uuid:0c12e3ca-275f-4e13-a39f-0aaf264f6cf8</xapMM:DocumentID>
        </rdf:Description>
        <rdf:Description
           rdf:about="uuid:69ded073-34e5-4230-a432-61b09c037f0d">
          <dc:format>
image/svg+xml</dc:format>
          <dc:title>
            <rdf:Alt>
              <rdf:li
                 xml:lang="x-default">
mime.ai</rdf:li>
            </rdf:Alt>
          </dc:title>
        </rdf:Description>
      </rdf:RDF>
    </x:xmpmeta>
    <xpacket>end='w'    </xpacket>
  </metadata>
  <g
     id="Layer_1">
    <path
       opacity="0.2"
       d="M44,15.5c-9.374,0-17,7.626-17,17v200c0,9.374,7.626,17,17,17h176c9.375,0,17-7.626,17-17v-200     c0-9.374-7.625-17-17-17H44z"
       id="path5626" />
    <path
       opacity="0.2"
       d="M42,13.5c-9.374,0-17,7.626-17,17v200c0,9.374,7.626,17,17,17h176c9.375,0,17-7.626,17-17v-200     c0-9.374-7.625-17-17-17H42z"
       id="path5627" />
    <path
       opacity="0.2"
       d="M40,12.5c-9.374,0-17,7.626-17,17v200c0,9.374,7.626,17,17,17h176c9.375,0,17-7.626,17-17v-200     c0-9.374-7.625-17-17-17H40z"
       id="path5628" />
    <linearGradient
       id="XMLID_14_"
       gradientUnits="userSpaceOnUse"
       x1="128.9995"
       y1="11"
       x2="128.9995"
       y2="245.0005">
      <stop
         offset="0"
         style="stop-color:#494949"
         id="stop5630" />
      <stop
         offset="1"
         style="stop-color:#000000"
         id="stop5631" />
      <a:midPointStop
         offset="0"
         style="stop-color:#494949"
         id="midPointStop5632" />
      <a:midPointStop
         offset="0.5"
         style="stop-color:#494949"
         id="midPointStop5633" />
      <a:midPointStop
         offset="1"
         style="stop-color:#000000"
         id="midPointStop5634" />
    </linearGradient>
    <path
       fill="url(#XMLID_14_)"
       d="M41,11c-9.374,0-17,7.626-17,17v200c0,9.374,7.626,17,17,17h176c9.375,0,17-7.626,17-17V28     c0-9.374-7.625-17-17-17H41z"
       id="path5635" />
    <path
       fill="#FFFFFF"
       d="M28,228c0,6.627,5.373,12,12,12h176c6.627,0,12-5.373,12-12V28c0-6.627-5.373-12-12-12H40     c-6.627,0-12,5.373-12,12V228z"
       id="path5636" />
    <linearGradient
       id="XMLID_15_"
       gradientUnits="userSpaceOnUse"
       x1="29.0532"
       y1="29.0532"
       x2="226.9471"
       y2="226.9471">
      <stop
         offset="0"
         style="stop-color:#FFFFFF"
         id="stop5638" />
      <stop
         offset="1"
         style="stop-color:#DADADA"
         id="stop5639" />
      <a:midPointStop
         offset="0"
         style="stop-color:#FFFFFF"
         id="midPointStop5640" />
      <a:midPointStop
         offset="0.5"
         style="stop-color:#FFFFFF"
         id="midPointStop5641" />
      <a:midPointStop
         offset="1"
         style="stop-color:#DADADA"
         id="midPointStop5642" />
    </linearGradient>
    <path
       fill="url(#XMLID_15_)"
       d="M40,21c-3.86,0-7,3.14-7,7v200c0,3.859,3.14,7,7,7h176c3.859,0,7-3.141,7-7V28     c0-3.86-3.141-7-7-7H40z"
       id="path5643" />
    <g
       id="g5644">
      <g
         opacity="0.2"
         id="g5645">
        <path
           d="M66.773,130c0,33.815,27.511,61.326,61.326,61.326c11.124,0,21.971-3.056,31.504-8.79       c1.704,1.704,8.789,8.79,8.789,8.79h22.834v-22.838c0,0-7.605-7.604-9.275-9.273c4.873-8.971,7.471-19.028,7.471-29.215       c0-33.815-27.509-61.326-61.322-61.326C94.284,68.674,66.773,96.185,66.773,130 M72.772,130       c0-30.508,24.819-55.328,55.327-55.328c30.506,0,55.324,24.82,55.324,55.328c0,10.217-2.811,20.201-8.125,28.873l-0.824,1.344       c0,0,9.711,9.715,10.752,10.756c0,1.317,0,11.401,0,14.354c-2.953,0-13.031,0-14.349,0       c-1.036-1.036-10.421-10.421-10.421-10.421l-1.367,0.928c-9.154,6.211-19.871,9.493-30.99,9.493       C97.592,185.326,72.772,160.507,72.772,130 M90.557,130c0,20.702,16.842,37.545,37.543,37.545s37.543-16.843,37.543-37.545       c0-20.703-16.842-37.546-37.543-37.546S90.557,109.297,90.557,130 M96.555,130c0-17.395,14.15-31.545,31.545-31.545       c17.392,0,31.541,14.15,31.541,31.545c0,17.394-14.149,31.545-31.541,31.545C110.705,161.545,96.555,147.394,96.555,130z"
           id="path5646" />
      </g>
      <g
         opacity="0.2"
         id="g5647">
        <path
           d="M66.773,128c0,33.815,27.511,61.326,61.326,61.326c11.124,0,21.971-3.056,31.504-8.79       c1.704,1.704,8.789,8.79,8.789,8.79h22.834v-22.838c0,0-7.605-7.604-9.275-9.273c4.873-8.971,7.471-19.028,7.471-29.215       c0-33.815-27.509-61.326-61.322-61.326C94.284,66.674,66.773,94.185,66.773,128 M72.772,128       c0-30.508,24.819-55.328,55.327-55.328c30.506,0,55.324,24.82,55.324,55.328c0,10.217-2.811,20.201-8.125,28.873l-0.824,1.344       c0,0,9.711,9.715,10.752,10.756c0,1.317,0,11.401,0,14.354c-2.953,0-13.031,0-14.349,0       c-1.036-1.036-10.421-10.421-10.421-10.421l-1.367,0.928c-9.154,6.211-19.871,9.493-30.99,9.493       C97.592,183.326,72.772,158.507,72.772,128 M90.557,128c0,20.702,16.842,37.545,37.543,37.545s37.543-16.843,37.543-37.545       c0-20.703-16.842-37.546-37.543-37.546S90.557,107.297,90.557,128 M96.555,128c0-17.395,14.15-31.545,31.545-31.545       c17.392,0,31.541,14.15,31.541,31.545c0,17.394-14.149,31.545-31.541,31.545C110.705,159.545,96.555,145.394,96.555,128z"
           id="path5648" />
      </g>
      <radialGradient
         id="XMLID_16_"
         cx="-42.2314"
         cy="516.6719"
         r="39.6221"
         fx="-42.2314"
         fy="516.6719"
         gradientUnits="userSpaceOnUse">
        <stop
           offset="0"
           style="stop-color:#0053BD"
           id="stop5650" />
        <stop
           offset="1"
           style="stop-color:#0032A4"
           id="stop5651" />
        <a:midPointStop
           offset="0"
           style="stop-color:#0053BD"
           id="midPointStop5652" />
        <a:midPointStop
           offset="0.5"
           style="stop-color:#0053BD"
           id="midPointStop5653" />
        <a:midPointStop
           offset="1"
           style="stop-color:#0032A4"
           id="midPointStop5654" />
      </radialGradient>
      <path
         fill="url(#XMLID_16_)"
         d="M64.773,126c0,33.815,27.511,61.326,61.326,61.326c11.124,0,21.971-3.056,31.504-8.79      c1.704,1.704,8.789,8.79,8.789,8.79h22.834v-22.838c0,0-7.605-7.604-9.275-9.273c4.873-8.971,7.471-19.028,7.471-29.215      c0-33.815-27.509-61.326-61.322-61.326C92.284,64.674,64.773,92.185,64.773,126 M70.772,126      c0-30.508,24.819-55.328,55.327-55.328c30.506,0,55.324,24.82,55.324,55.328c0,10.217-2.811,20.201-8.125,28.873l-0.824,1.344      c0,0,9.711,9.715,10.752,10.756c0,1.317,0,11.401,0,14.354c-2.953,0-13.031,0-14.349,0      c-1.036-1.036-10.421-10.421-10.421-10.421l-1.367,0.928c-9.154,6.211-19.871,9.493-30.99,9.493      C95.592,181.326,70.772,156.507,70.772,126 M88.557,126c0,20.702,16.842,37.545,37.543,37.545s37.543-16.843,37.543-37.545      c0-20.703-16.842-37.546-37.543-37.546S88.557,105.297,88.557,126 M94.555,126c0-17.395,14.15-31.545,31.545-31.545      c17.392,0,31.541,14.15,31.541,31.545c0,17.394-14.149,31.545-31.541,31.545C108.705,157.545,94.555,143.394,94.555,126z"
         id="path5655" />
      <path
         fill="#FFFFFF"
         d="M175.004,155.918c5.338-8.709,8.42-18.953,8.42-29.918c0-31.66-25.664-57.328-57.324-57.328      c-31.661,0-57.327,25.668-57.327,57.328c0,31.658,25.666,57.326,57.327,57.326c11.898,0,22.955-3.625,32.113-9.838l9.836,9.838      h17.178v-17.182L175.004,155.918 M126.1,161.545c-19.631,0-35.543-15.914-35.543-35.545s15.912-35.546,35.543-35.546      c19.629,0,35.543,15.915,35.543,35.546S145.729,161.545,126.1,161.545z"
         id="path5656" />
      <radialGradient
         id="XMLID_17_"
         cx="-109.9609"
         cy="3859.791"
         r="121.9289"
         fx="-109.9609"
         fy="3859.791"
         gradientTransform="matrix(1 0 0 -1 235.9126 4048.7813)"
         gradientUnits="userSpaceOnUse">
        <stop
           offset="0"
           style="stop-color:#FFFFFF"
           id="stop5658" />
        <stop
           offset="0.1854"
           style="stop-color:#B1E1FF"
           id="stop5659" />
        <stop
           offset="1"
           style="stop-color:#428AFF"
           id="stop5660" />
        <a:midPointStop
           offset="0"
           style="stop-color:#FFFFFF"
           id="midPointStop5661" />
        <a:midPointStop
           offset="0.5"
           style="stop-color:#FFFFFF"
           id="midPointStop5662" />
        <a:midPointStop
           offset="0.1854"
           style="stop-color:#B1E1FF"
           id="midPointStop5663" />
        <a:midPointStop
           offset="0.5"
           style="stop-color:#B1E1FF"
           id="midPointStop5664" />
        <a:midPointStop
           offset="1"
           style="stop-color:#428AFF"
           id="midPointStop5665" />
      </radialGradient>
      <path
         fill="url(#XMLID_17_)"
         d="M175.004,155.918c5.338-8.709,8.42-18.953,8.42-29.918c0-31.66-25.664-57.328-57.324-57.328      c-31.661,0-57.327,25.668-57.327,57.328c0,31.658,25.666,57.326,57.327,57.326c11.898,0,22.955-3.625,32.113-9.838l9.836,9.838      h17.178v-17.182L175.004,155.918 M126.1,161.545c-19.631,0-35.543-15.914-35.543-35.545s15.912-35.546,35.543-35.546      c19.629,0,35.543,15.915,35.543,35.546S145.729,161.545,126.1,161.545z"
         id="path5666" />
      <radialGradient
         id="XMLID_18_"
         cx="127"
         cy="126"
         r="59.7781"
         fx="127"
         fy="126"
         gradientUnits="userSpaceOnUse">
        <stop
           offset="0"
           style="stop-color:#0053BD"
           id="stop5668" />
        <stop
           offset="1"
           style="stop-color:#0032A4"
           id="stop5669" />
        <a:midPointStop
           offset="0"
           style="stop-color:#0053BD"
           id="midPointStop5670" />
        <a:midPointStop
           offset="0.5"
           style="stop-color:#0053BD"
           id="midPointStop5671" />
        <a:midPointStop
           offset="1"
           style="stop-color:#0032A4"
           id="midPointStop5672" />
      </radialGradient>
      <path
         fill="url(#XMLID_18_)"
         d="M126.1,90.454c-19.631,0-35.543,15.915-35.543,35.546s15.912,35.545,35.543,35.545      c19.629,0,35.543-15.914,35.543-35.545S145.729,90.454,126.1,90.454 M126.1,159.545c-18.496,0-33.545-15.049-33.545-33.545      c0-18.497,15.049-33.545,33.545-33.545s33.541,15.048,33.541,33.545C159.641,144.496,144.596,159.545,126.1,159.545       M177.488,155.582c5.18-8.98,7.934-19.164,7.934-29.582c0-32.713-26.613-59.326-59.322-59.326      c-32.711,0-59.326,26.613-59.326,59.326s26.615,59.326,59.326,59.326c11.361,0,22.314-3.232,31.824-9.299      c1.764,1.766,9.297,9.299,9.297,9.299h20.006v-20.01C187.227,165.316,179.213,157.303,177.488,155.582 M185.227,183.326h-17.178      l-9.836-9.838c-9.158,6.213-20.215,9.838-32.113,9.838c-31.661,0-57.327-25.668-57.327-57.326      c0-31.66,25.666-57.328,57.327-57.328c31.66,0,57.324,25.668,57.324,57.328c0,10.965-3.082,21.209-8.42,29.918l10.223,10.227      V183.326z"
         id="path5673" />
      <linearGradient
         id="XMLID_19_"
         gradientUnits="userSpaceOnUse"
         x1="-57.8521"
         y1="3982.3467"
         x2="-146.0485"
         y2="3894.1501"
         gradientTransform="matrix(1 0 0 -1 235.9126 4048.7813)">
        <stop
           offset="0"
           style="stop-color:#FFFFFF"
           id="stop5675" />
        <stop
           offset="0.7696"
           style="stop-color:#94CAFF"
           id="stop5676" />
        <a:midPointStop
           offset="0"
           style="stop-color:#FFFFFF"
           id="midPointStop5677" />
        <a:midPointStop
           offset="0.5"
           style="stop-color:#FFFFFF"
           id="midPointStop5678" />
        <a:midPointStop
           offset="0.7696"
           style="stop-color:#94CAFF"
           id="midPointStop5679" />
      </linearGradient>
      <path
         fill="url(#XMLID_19_)"
         d="M86.673,126c0-21.74,17.688-39.427,39.427-39.427c21.74,0,39.426,17.687,39.426,39.427      c0,5.688-1.221,11.094-3.396,15.984c6.162-2.299,11.85-5.188,16.898-8.576c0.344-2.445,0.518-4.92,0.518-7.408      c0-29.472-23.977-53.443-53.443-53.443c-29.469,0-53.445,23.972-53.445,53.443c0,1.596,0.082,3.168,0.221,4.73      c4.857,3.732,10.407,6.973,16.508,9.611C87.643,135.891,86.673,131.059,86.673,126z"
         id="path5680" />
      <path
         opacity="0.9"
         fill="#FFFFFF"
         d="M158.213,168.313c-9.158,6.209-20.215,9.836-32.111,9.836      c-30.794,0-55.906-24.279-57.263-54.736c-0.038,0.857-0.065,1.721-0.065,2.59c0,31.656,25.666,57.326,57.328,57.326      c11.898,0,22.953-3.627,32.111-9.838l9.838,9.838h17.178v-5.18h-17.178L158.213,168.313z"
         id="path5681" />
      <linearGradient
         id="XMLID_20_"
         gradientUnits="userSpaceOnUse"
         x1="-108.9116"
         y1="3980.5957"
         x2="-108.9116"
         y2="3864.9688"
         gradientTransform="matrix(1 0 0 -1 235.9126 4048.7813)">
        <stop
           offset="0"
           style="stop-color:#B0D9FF"
           id="stop5683" />
        <stop
           offset="1"
           style="stop-color:#0D56AC"
           id="stop5684" />
        <a:midPointStop
           offset="0"
           style="stop-color:#B0D9FF"
           id="midPointStop5685" />
        <a:midPointStop
           offset="0.5"
           style="stop-color:#B0D9FF"
           id="midPointStop5686" />
        <a:midPointStop
           offset="1"
           style="stop-color:#0D56AC"
           id="midPointStop5687" />
      </linearGradient>
      <path
         fill="url(#XMLID_20_)"
         d="M68.287,126c0,31.879,25.937,57.813,57.813,57.813c11.471,0,22.543-3.359,32.043-9.707      c0.516,0.52,9.564,9.563,9.564,9.563c0.09,0.094,0.213,0.145,0.342,0.145h17.178c0.273,0,0.488-0.219,0.488-0.486v-17.182      c0-0.127-0.051-0.25-0.145-0.344c0,0-9.469-9.469-9.963-9.963c5.426-8.988,8.303-19.293,8.303-29.838      c0-31.877-25.934-57.814-57.811-57.814S68.287,94.123,68.287,126 M69.256,126c0-31.344,25.501-56.844,56.844-56.844      c31.342,0,56.842,25.5,56.842,56.844c0,10.494-2.889,20.754-8.352,29.666c-0.047,0.078-0.07,0.166-0.07,0.252      c0,0.129,0.045,0.252,0.139,0.344c0,0,9.811,9.807,10.086,10.084c0,0.383,0,15.592,0,16.494c-0.908,0-16.111,0-16.492,0      c-0.277-0.273-9.693-9.693-9.693-9.693c-0.164-0.162-0.428-0.184-0.615-0.057c-9.414,6.379-20.428,9.75-31.842,9.75      C94.757,182.84,69.256,157.344,69.256,126z"
         id="path5688" />
      <radialGradient
         id="XMLID_21_"
         cx="-99.126"
         cy="3832.8184"
         r="96.101"
         fx="-99.126"
         fy="3832.8184"
         gradientTransform="matrix(1 0 0 -1 235.9126 4048.7813)"
         gradientUnits="userSpaceOnUse">
        <stop
           offset="0"
           style="stop-color:#8BBBFF"
           id="stop5690" />
        <stop
           offset="1"
           style="stop-color:#0D56AC"
           id="stop5691" />
        <a:midPointStop
           offset="0"
           style="stop-color:#8BBBFF"
           id="midPointStop5692" />
        <a:midPointStop
           offset="0.5"
           style="stop-color:#8BBBFF"
           id="midPointStop5693" />
        <a:midPointStop
           offset="1"
           style="stop-color:#0D56AC"
           id="midPointStop5694" />
      </radialGradient>
      <path
         fill="url(#XMLID_21_)"
         d="M90.072,126c0,19.867,16.161,36.027,36.027,36.027c19.867,0,36.029-16.16,36.029-36.027      S145.965,89.969,126.1,89.969C106.233,89.969,90.072,106.133,90.072,126 M91.043,126c0-19.332,15.725-35.057,35.057-35.057      c19.33,0,35.059,15.725,35.059,35.057c0,19.33-15.729,35.057-35.059,35.057C106.768,161.057,91.043,145.33,91.043,126z"
         id="path5695" />
      <g
         opacity="0.15"
         id="g5696">
        <path
           d="M165.109,96.52c0-0.128-0.051-0.249-0.143-0.342l-7.209-7.205c-0.189-0.191-0.498-0.191-0.684,0       c0,0-28.179,28.172-28.496,28.49c-0.6-0.109-1.205-0.192-1.799-0.192c-5.452,0-9.889,4.437-9.889,9.888       s4.437,9.889,9.889,9.889c5.45,0,9.885-4.438,9.885-9.889c0-0.598-0.08-1.203-0.189-1.801       c0.316-0.32,28.494-28.494,28.494-28.494C165.059,96.774,165.109,96.65,165.109,96.52 M126.779,130.248       c-1.705,0-3.089-1.389-3.089-3.09c0-1.703,1.384-3.092,3.089-3.092c1.703,0,3.088,1.389,3.088,3.092       S128.482,130.248,126.779,130.248z"
           id="path5697" />
      </g>
      <linearGradient
         id="XMLID_22_"
         gradientUnits="userSpaceOnUse"
         x1="-95.564"
         y1="3938.9531"
         x2="-95.564"
         y2="3964.7874"
         gradientTransform="matrix(1 0 0 -1 235.9126 4048.7813)">
        <stop
           offset="0"
           style="stop-color:#FFFFFF"
           id="stop5699" />
        <stop
           offset="1"
           style="stop-color:#B2B2B2"
           id="stop5700" />
        <a:midPointStop
           offset="0"
           style="stop-color:#FFFFFF"
           id="midPointStop5701" />
        <a:midPointStop
           offset="0.5"
           style="stop-color:#FFFFFF"
           id="midPointStop5702" />
        <a:midPointStop
           offset="1"
           style="stop-color:#B2B2B2"
           id="midPointStop5703" />
      </linearGradient>
      <path
         fill="url(#XMLID_22_)"
         d="M163.971,95.264l-7.207-7.207l-9.385,9.387l-19.271,19.268c-0.639-0.136-1.299-0.214-1.98-0.214      c-5.193,0-9.398,4.211-9.4,9.405c0,5.191,4.207,9.4,9.4,9.4s9.404-4.209,9.404-9.402c0-0.678-0.076-1.344-0.213-1.984      l19.268-19.268L163.971,95.264 M126.127,129.477c-1.973,0-3.576-1.602-3.576-3.572c0-1.977,1.604-3.578,3.576-3.578      c1.975,0,3.578,1.602,3.578,3.578C129.705,127.875,128.104,129.477,126.127,129.477z"
         id="path5704" />
      <linearGradient
         id="XMLID_23_"
         gradientUnits="userSpaceOnUse"
         x1="-91.2456"
         y1="3920.5371"
         x2="-109.3242"
         y2="3943.2573"
         gradientTransform="matrix(1 0 0 -1 235.9126 4048.7813)">
        <stop
           offset="0"
           style="stop-color:#FFFFFF"
           id="stop5706" />
        <stop
           offset="0.0626"
           style="stop-color:#E6F9FF"
           id="stop5707" />
        <stop
           offset="0.1386"
           style="stop-color:#CEF2FF"
           id="stop5708" />
        <stop
           offset="0.1854"
           style="stop-color:#C5F0FF"
           id="stop5709" />
        <stop
           offset="1"
           style="stop-color:#1D74D9"
           id="stop5710" />
        <a:midPointStop
           offset="0"
           style="stop-color:#FFFFFF"
           id="midPointStop5711" />
        <a:midPointStop
           offset="0.5"
           style="stop-color:#FFFFFF"
           id="midPointStop5712" />
        <a:midPointStop
           offset="0.0626"
           style="stop-color:#E6F9FF"
           id="midPointStop5713" />
        <a:midPointStop
           offset="0.5"
           style="stop-color:#E6F9FF"
           id="midPointStop5714" />
        <a:midPointStop
           offset="0.1386"
           style="stop-color:#CEF2FF"
           id="midPointStop5715" />
        <a:midPointStop
           offset="0.5"
           style="stop-color:#CEF2FF"
           id="midPointStop5716" />
        <a:midPointStop
           offset="0.1854"
           style="stop-color:#C5F0FF"
           id="midPointStop5717" />
        <a:midPointStop
           offset="0.5"
           style="stop-color:#C5F0FF"
           id="midPointStop5718" />
        <a:midPointStop
           offset="1"
           style="stop-color:#1D74D9"
           id="midPointStop5719" />
      </linearGradient>
      <path
         fill="url(#XMLID_23_)"
         d="M126.127,116.5c-5.193,0-9.398,4.208-9.4,9.404c0,5.189,4.207,9.4,9.4,9.4      s9.404-4.211,9.404-9.404c0-0.678-0.076-1.344-0.213-1.982l19.268-19.27l-7.207-7.205l-19.271,19.268      C127.469,116.576,126.809,116.5,126.127,116.5 M129.705,125.904c0,1.971-1.602,3.572-3.578,3.572      c-1.973,0-3.576-1.602-3.576-3.572c0-1.977,1.604-3.578,3.576-3.578C128.102,122.326,129.705,123.928,129.705,125.904z"
         id="path5720" />
      <path
         fill="#FFFFFF"
         d="M163.971,95.264l-1.473-1.473l-9.389,9.385l-19.268,19.27c0.135,0.641,0.213,1.301,0.213,1.986      c0,5.188-4.206,9.4-9.4,9.4c-2.224,0-4.258-0.777-5.865-2.061c1.723,2.148,4.369,3.533,7.338,3.533      c5.193,0,9.404-4.211,9.404-9.404c0-0.678-0.076-1.344-0.213-1.982l19.268-19.27L163.971,95.264z"
         id="path5721" />
      <radialGradient
         id="XMLID_24_"
         cx="-111.1211"
         cy="3917.9873"
         r="6.2947"
         fx="-111.1211"
         fy="3917.9873"
         gradientTransform="matrix(1 0 0 -1 235.9126 4048.7813)"
         gradientUnits="userSpaceOnUse">
        <stop
           offset="0"
           style="stop-color:#8BBBFF"
           id="stop5723" />
        <stop
           offset="1"
           style="stop-color:#0D56AC"
           id="stop5724" />
        <a:midPointStop
           offset="0"
           style="stop-color:#8BBBFF"
           id="midPointStop5725" />
        <a:midPointStop
           offset="0.5"
           style="stop-color:#8BBBFF"
           id="midPointStop5726" />
        <a:midPointStop
           offset="1"
           style="stop-color:#0D56AC"
           id="midPointStop5727" />
      </radialGradient>
      <path
         fill="url(#XMLID_24_)"
         d="M122.068,125.904c0,2.238,1.821,4.057,4.059,4.057c2.241,0,4.063-1.818,4.063-4.057      c0-2.242-1.822-4.063-4.063-4.063C123.89,121.841,122.068,123.662,122.068,125.904 M123.038,125.904      c0-1.703,1.386-3.092,3.089-3.092c1.705,0,3.093,1.389,3.093,3.092s-1.388,3.084-3.093,3.084      C124.424,128.988,123.038,127.607,123.038,125.904z"
         id="path5728" />
      <radialGradient
         id="XMLID_25_"
         cx="-103.5"
         cy="3908.04"
         r="37.453"
         fx="-103.5"
         fy="3908.04"
         gradientTransform="matrix(1 0 0 -1 235.9126 4048.7813)"
         gradientUnits="userSpaceOnUse">
        <stop
           offset="0"
           style="stop-color:#8BBBFF"
           id="stop5730" />
        <stop
           offset="1"
           style="stop-color:#0D56AC"
           id="stop5731" />
        <a:midPointStop
           offset="0"
           style="stop-color:#8BBBFF"
           id="midPointStop5732" />
        <a:midPointStop
           offset="0.5"
           style="stop-color:#8BBBFF"
           id="midPointStop5733" />
        <a:midPointStop
           offset="1"
           style="stop-color:#0D56AC"
           id="midPointStop5734" />
      </radialGradient>
      <path
         fill="url(#XMLID_25_)"
         d="M156.422,87.715c0,0-28.173,28.172-28.494,28.492c-0.6-0.109-1.201-0.191-1.801-0.194      c-5.449,0.003-9.887,4.438-9.887,9.892c0,5.451,4.438,9.885,9.887,9.885c5.456,0,9.891-4.434,9.891-9.889      c0-0.596-0.084-1.201-0.193-1.799c0.318-0.318,28.49-28.492,28.49-28.492c0.094-0.092,0.145-0.214,0.145-0.346      c0-0.126-0.051-0.248-0.145-0.34l-7.205-7.209C156.918,87.525,156.607,87.525,156.422,87.715 M128.451,117.056      c0,0,27.645-27.64,28.313-28.311c0.592,0.589,5.932,5.929,6.523,6.519c-0.672,0.671-28.313,28.311-28.313,28.311      c-0.092,0.094-0.143,0.221-0.143,0.344c0,0.035,0.004,0.07,0.006,0.105c0.139,0.623,0.207,1.256,0.207,1.877      c0,4.92-3.998,8.918-8.918,8.918c-4.914,0-8.914-3.998-8.914-8.916s4-8.918,8.914-8.919c0.623,0.001,1.258,0.072,1.881,0.204      C128.166,117.221,128.333,117.172,128.451,117.056z"
         id="path5735" />
      <linearGradient
         id="XMLID_26_"
         gradientUnits="userSpaceOnUse"
         x1="-54.5146"
         y1="3893.0596"
         x2="-63.7637"
         y2="3883.8105"
         gradientTransform="matrix(1 0 0 -1 235.9126 4048.7813)">
        <stop
           offset="0"
           style="stop-color:#FFFFFF"
           id="stop5737" />
        <stop
           offset="1"
           style="stop-color:#C9E6FF"
           id="stop5738" />
        <a:midPointStop
           offset="0"
           style="stop-color:#FFFFFF"
           id="midPointStop5739" />
        <a:midPointStop
           offset="0.5"
           style="stop-color:#FFFFFF"
           id="midPointStop5740" />
        <a:midPointStop
           offset="1"
           style="stop-color:#C9E6FF"
           id="midPointStop5741" />
      </linearGradient>
      <polygon
         fill="url(#XMLID_26_)"
         points="179.955,163.891 179.865,173.412 163.711,157.256 168.514,152.449 "
         id="polygon5742" />
    </g>
    <rect
       id="_x3C_Slice_x3E_"
       fill="none"
       width="256"
       height="256" />
  </g>
</svg>
