<?xml version="1.0" encoding="UTF-8" standalone="no"?>
<!DOCTYPE svg PUBLIC "-//W3C//DTD SVG 20010904//EN"
"http://www.w3.org/TR/2001/REC-SVG-20010904/DTD/svg10.dtd">
<!-- Created with Sodipodi ("http://www.sodipodi.com/") -->
<svg
   width="48pt"
   height="48pt"
   viewBox="0 0 256 256"
   overflow="visible"
   enable-background="new 0 0 256 256"
   xml:space="preserve"
   xmlns="http://www.w3.org/2000/svg"
   xmlns:xap="http://ns.adobe.com/xap/1.0/"
   xmlns:xapGImg="http://ns.adobe.com/xap/1.0/g/img/"
   xmlns:ns="http://ns.adobe.com/SaveForWeb/1.0/"
   xmlns:rdf="http://www.w3.org/1999/02/22-rdf-syntax-ns#"
   xmlns:xml="http://www.w3.org/XML/1998/namespace"
   xmlns:xapMM="http://ns.adobe.com/xap/1.0/mm/"
   xmlns:pdf="http://ns.adobe.com/pdf/1.3/"
   xmlns:dc="http://purl.org/dc/elements/1.1/"
   xmlns:a="http://ns.adobe.com/AdobeSVGViewerExtensions/3.0/"
   xmlns:x="adobe:ns:meta/"
   xmlns:sodipodi="http://sodipodi.sourceforge.net/DTD/sodipodi-0.dtd"
   xmlns:xlink="http://www.w3.org/1999/xlink"
   id="svg5746"
   sodipodi:version="0.32"
   sodipodi:docname="/home/david/Documenti/Progetti/add2cvs/gnome-mime-video.svgz"
   sodipodi:docbase="/home/david/Documenti/Progetti/add2cvs/">
  <defs
     id="defs5848" />
  <sodipodi:namedview
     id="base" />
  <metadata
     id="metadata5747">
    <ns:sfw>
      <ns:slices>
        <ns:slice
           x="0"
           y="0"
           width="256"
           height="256"
           sliceID="124484404" />
      </ns:slices>
      <ns:sliceSourceBounds
         x="0"
         y="0"
         width="256"
         height="256"
         bottomLeftOrigin="true" />
      <ns:optimizationSettings>
        <ns:targetSettings
           fileFormat="PNG24Format"
           targetSettingsID="0">
          <ns:PNG24Format
             transparency="true"
             includeCaption="false"
             interlaced="false"
             noMatteColor="false"
             matteColor="#FFFFFF"
             filtered="false" />
        </ns:targetSettings>
      </ns:optimizationSettings>
    </ns:sfw>
    <xpacket>begin='﻿' id='W5M0MpCehiHzreSzNTczkc9d'    </xpacket>
    <x:xmpmeta
       x:xmptk="XMP toolkit 3.0-29, framework 1.6">
      <rdf:RDF>
        <rdf:Description
           rdf:about="uuid:cad153d1-c0be-42db-ac20-77de9e78edc5">
          <pdf:Producer>
Adobe PDF library 5.00</pdf:Producer>
        </rdf:Description>
        <rdf:Description
           rdf:about="uuid:cad153d1-c0be-42db-ac20-77de9e78edc5" />
        <rdf:Description
           rdf:about="uuid:cad153d1-c0be-42db-ac20-77de9e78edc5" />
        <rdf:Description
           rdf:about="uuid:cad153d1-c0be-42db-ac20-77de9e78edc5">
          <xap:CreateDate>
2004-01-26T11:58:28+02:00</xap:CreateDate>
          <xap:ModifyDate>
2004-03-28T20:46:55Z</xap:ModifyDate>
          <xap:CreatorTool>
Adobe Illustrator 10.0</xap:CreatorTool>
          <xap:MetadataDate>
2004-02-17T00:21:50+01:00</xap:MetadataDate>
          <xap:Thumbnails>
            <rdf:Alt>
              <rdf:li
                 rdf:parseType="Resource">
                <xapGImg:format>
JPEG</xapGImg:format>
                <xapGImg:width>
256</xapGImg:width>
                <xapGImg:height>
256</xapGImg:height>
                <xapGImg:image>
/9j/4AAQSkZJRgABAgEASABIAAD/7QAsUGhvdG9zaG9wIDMuMAA4QklNA+0AAAAAABAASAAAAAEA
AQBIAAAAAQAB/+4ADkFkb2JlAGTAAAAAAf/bAIQABgQEBAUEBgUFBgkGBQYJCwgGBggLDAoKCwoK
DBAMDAwMDAwQDA4PEA8ODBMTFBQTExwbGxscHx8fHx8fHx8fHwEHBwcNDA0YEBAYGhURFRofHx8f
Hx8fHx8fHx8fHx8fHx8fHx8fHx8fHx8fHx8fHx8fHx8fHx8fHx8fHx8fHx8f/8AAEQgBAAEAAwER
AAIRAQMRAf/EAaIAAAAHAQEBAQEAAAAAAAAAAAQFAwIGAQAHCAkKCwEAAgIDAQEBAQEAAAAAAAAA
AQACAwQFBgcICQoLEAACAQMDAgQCBgcDBAIGAnMBAgMRBAAFIRIxQVEGE2EicYEUMpGhBxWxQiPB
UtHhMxZi8CRygvElQzRTkqKyY3PCNUQnk6OzNhdUZHTD0uIIJoMJChgZhJRFRqS0VtNVKBry4/PE
1OT0ZXWFlaW1xdXl9WZ2hpamtsbW5vY3R1dnd4eXp7fH1+f3OEhYaHiImKi4yNjo+Ck5SVlpeYmZ
qbnJ2en5KjpKWmp6ipqqusra6voRAAICAQIDBQUEBQYECAMDbQEAAhEDBCESMUEFURNhIgZxgZEy
obHwFMHR4SNCFVJicvEzJDRDghaSUyWiY7LCB3PSNeJEgxdUkwgJChgZJjZFGidkdFU38qOzwygp
0+PzhJSktMTU5PRldYWVpbXF1eX1RlZmdoaWprbG1ub2R1dnd4eXp7fH1+f3OEhYaHiImKi4yNjo
+DlJWWl5iZmpucnZ6fkqOkpaanqKmqq6ytrq+v/aAAwDAQACEQMRAD8A9U4q7FXYq7FXYq7FXYq7
FXYq7FXYq7FXYq7FXYq7FXYq7FXYq7FXYq7FXYq7FXYq7FXYq7FXYq7FXYq7FXYq7FXYqlvmDzFo
3l7TJdT1e5W1tItuTbszHoiKN2Y+AxV4j5g/5ydvTcMnl/SYlgU0Se/LOzDxMcTIF/4M4qk//QzP
nv8A5YNL/wCRVx/2UYq7/oZnz3/ywaX/AMirj/soxV3/AEMz57/5YNL/AORVx/2UYq7/AKGZ89/8
sGl/8irj/soxV3/QzPnv/lg0v/kVcf8AZRirv+hmfPf/ACwaX/yKuP8AsoxV3/QzPnv/AJYNL/5F
XH/ZRirv+hmfPf8AywaX/wAirj/soxV3/QzPnv8A5YNL/wCRVx/2UYq7/oZnz3/ywaX/AMirj/so
xV3/AEMz57/5YNL/AORVx/2UYq7/AKGZ89/8sGl/8irj/soxV3/QzPnv/lg0v/kVcf8AZRirv+hm
fPf/ACwaX/yKuP8AsoxV3/QzPnv/AJYNL/5FXH/ZRirv+hmfPf8AywaX/wAirj/soxV3/QzPnv8A
5YNL/wCRVx/2UYq7/oZnz3/ywaX/AMirj/soxV3/AEMz57/5YNL/AORVx/2UYq7/AKGZ89/8sGl/
8irj/soxV3/QzPnv/lg0v/kVcf8AZRirv+hmfPf/ACwaX/yKuP8AsoxVFad/zk75oS4B1HSbG4t+
6W/qwP8A8E7zj/hcVeyeRfzJ8tec7Vn0yUx3kQBuLCaizJ25AAkMlf2l+mmKsqxV2KuxV2KuxV2K
vm/XDqf5ufmk+j287Q+XtJLqJF3VIY2CSzAHYvM9AvtTwOKvePLfk/y35bs0tdHsYrZVFGlCgyuf
GSQ/Ex+ZxVOK4q6oxVrkMVdyGKu5jFWvUGKu9RffFWvVX3xV3rL74q71l8DirXrp4HFXfWE8DirX
1hPA4q76yngcVd9Zj8D+GKtfWo/A/hirvrcfgfw/rirvrcfgfw/rirX1yLwb8P64q765F4N+H9cV
d9di8G/D+uKtfXovBvw/riqVa/5X8r+abR7TV7GO55CiyMoWZP8AKjkHxKR7HFXzB5n0XXfys8/R
NZXBJgIudOujsJYGJUpIB8ijj+oxV9VeWtfs/MGhWWsWf9xexLKErUoxHxI3up2OKplirsVdirsV
Q+oMy2Fyy/aWJyvzCnFXhP8AziwqvL5nmYcpQLIBz1oxuC2/uVGKvficVaxVrFWicVaJxVrFWsVa
JxVonFWsVaxVrFWicVaxVrFWicVaJxVrFWsVaJxVonFWsVaxVdCSJkp/MP14q8V/5ypRBJ5ZkCjm
wvVZu5CmAgfRyOKsn/5x3vJX8lwWzElQZmSvbjMR/wAbYq9XxV2KuxV2KofUv+Oddf8AGGT/AIic
VeE/84pn/lKP+jD/ALGcVe+nFWsVaJxVonFWsVaxVonFWicVaxVrFWsVaJxVrFWsVaJxVonFWsVa
xVonFWicVaxVrFWicVXQ/wB9H/rD9eKvFv8AnKw/8ov/ANH/AP2LYqn/APzjn/yisHyuP+T4xV6/
irsVdirsVQ+pf8c66/4wyf8AETirwf8A5xRNf8U/9GH/AGM4q9+PXFWicVaJxVrFWsVaJxVonFWs
VaxVrFWicVaxVrFWicVaJxVrFWsVaJxVonFWsVaxVonFWicVXQ/30f8ArD9eKvFf+crjT/C3/R//
ANi2Ksg/5xy/5RS3+Vx/yfGKvYMVdirsVdiqH1L/AI511/xhk/4icVeDf84nmv8Ain/ow/7GcVe/
HrirROKtYq1irROKtE4q1irWKtYq0TirWKtYq0TirROKtYq1irROKtE4qg9S1bStLtmutTvYLG1X
7U9zKkMY+bOVGKpF5f8AzO8geYtWl0jRNdtb/UYlMjQQsTVRSpRqcXpXfiTirJicVaJxVrFV0H9/
H/rD9eKvFf8AnLA0/wALf9H/AP2LYqyD/nHD/lE7f5XH/J8Yq9hxV2KuxV2KofUv+Oddf8YZP+In
FXgn/OJh/wCUq/6MP+xnFXv7Hc4q1irWKtE4q0TirWKtYq1irROKtYq1irROKtE4q1iqnLNFFG0s
rrHGgq7uQqgDuScVYF5l/Pn8p/L3NLzzDbz3CbfV7Im7ev8AL+5Dqp/1mGKvNtQ/5y0k1KSS38j+
UL7VpE+1PcVVUrsGaK3E3w/N1xVjmp+bv+cjPMYZbzVrLypZlhzgtCgkKnqyPH9ZlBUdjKuGlTzy
L/zjN5Y83RNrfmjzbqWvXKSNHcR1ETBhuA8krXMjAgg1BGBUg/OTyN5f/KT8wvI+v+UoG0/THZob
oiWSVvUjekrs8jO1XhuKU6fD0xV9Q6fdrd2MFyu/qoGPzI3/ABxVXxVrFV0B/fx/6y/rxV4p/wA5
Zn/lFf8Ao/8A+xbFWQ/843/8olb/ACuP+T+KvYsVdirsVdiqH1L/AI511/xhk/4icVeBf84lH/lK
v+jD/sZxV9AN1OKtYq0TirROKtYq1irWKtE4q1irWKtE4qxXzL+aP5eeWea635gsrSaP7dt6olnH
/PCLnL/wuKvLtc/5y88nJP8AU/K+j6h5gvWNIgFFvE5/yaiWY/8AIrFUg1T8xf8AnJ3XLUXVto0H
kzSZTwjvbuErJVgSAfrIlc1ANCsIxVhl95G1TW2Wbzx5xv8AWHIq1pE7emj9f3bzF14/KFcNK9o/
KX8l/wAkJdBg1VNDj1C+jZorptRdroCROxhc+jQqQR8HfFXp+taVo0/lu60OzgisreSIpbpCixxx
uN0YIgAHFgOmGlfKup6jdW11Na3JKzwO0cqE9GQ0YfeMirJvyl8//ojzJ9Rml42eqAQtU7CYH903
0klfpyUearf+cnfNHk/WvJX1BdXtJtasbuK4trOKVZZd6xSKQnLj8EnL4qdMlKkPVfyR1+XWfy60
m5nJNwIIxLXueIqfpIJytLPMVaJxVfB/fx/6y/rxV4l/zlqf+UV/6P8A/sWxVkX/ADjb/wAojbfK
5/5P4q9jxV2KuxV2KofUv+Oddf8AGGT/AIicVeA/84kGv+K/+3f/ANjOKvoFvtH54qtJxVonFWsV
axVrFWicVSnXvNfljy/D62uaraaZHTkpupo4iw/yQ5Bb6MVeV+Zf+cs/yq0nnHp8l1rk67AWkJSK
vvJOYtvdVbFWND85v+cg/OR4+R/IZ0+zl/u7++V2BHZlmn+q2/0UbFUk84flr+eE9hFe/mJ50lhs
rqTgdP09yYztUpKkX1aBWKg8aK/fCFY3p/kH8udKIYWT6lMrcklvpC9NqU9OMRRMP9ZDjsr6d/Ky
78n/AOE7a50PS7PTJOPo3sVnDHD+9T7XLgBXls2/jjSpl5xjttc8v3ulOQpnT90/8si/EjfQwFfb
Dwq+Tb7UZbeeWCcFJoWaOVG6qymjA/I5FWSflr+Z9j5Y1WaPV7tbTSr+MlppSQqyRAlWA3Jruvwj
wyUSqd+YP+cqPJFqxh0iC81qcmiGNPQhY/60v7z/AJJ5LiCHlms3X5keedbuNT03yv8Ao1bsDl6x
ZQCBx5qZPS5E03ohyBNpTjSP+cefPWsH/czqxjjkoJba0VipH+UKRKD/ALA4Fei+W/8AnFryrZcJ
Ly3N1Iu/O7k5/wDCLRD9KYq9k8u+XbTQ7T6vbUCUACqAqqF6AAYqmpOKtE4qvg/v4/8AXX9eKvEv
+ctzT/Cn/bw/7FsVZH/zjX/yh9t8rn/k/ir2PFXYq7FXYqh9S/4511/xhk/4icVfP/8AziMa/wCK
/wDt3/8AYzir6Cb7R+eKrScVaxVDX+o6fp9s91qF1FZ2qfbnndYo1+bOQBirzTzN/wA5L/k/oPNP
0z+lbhP90aYhua/KX4YP+SmKsBuf+cofO/mF0g8geRp7lZ39O3vr7m8bNWnHhF6cYNf+LsVXjyB/
zlf50PLXvMkPlWxfc2trII5VVuwFmCzfJ5sVSHzZ/wA44+WfJv1W/wBdvrrzLLe81muJi1vH6q0O
6xu0lSOlZT3whUJYXuj6KQdF0+3091AUTQRqkpA6cpAObfScbV9J+T/PUGveWrTUQQJ2X07pR+zM
mz/f9oexwgWqD88RxeYPLt5pbU9SVOVux/ZmTeM/fsfbJcKHyffao9uZRP8AuvRYpMX+EIwNCGJ2
G+VpTXyN+eOj+T57+O9lkvLSdARbWgEjestOLKxKxceJIb4q9MlE0qa3P/OQX5j6+eHlDykUhfZL
y75zAg9CGHoRKfmzYTNFJEn5Tfm55r1F9Q1vUIrCW5f1JDbookqRQ7QiJTt/lnI2lmnlz/nFDSEY
Taq097ITV/WcxIT/AKqcH/E4Fep+Xfya8p6Kqi1tIICBRjDGqsfm9AW+nFWW2ugaRarSO3U+7Cv4
dPwxVHqqotFAUDoBsMVdirROKtE4q1iq+3/3oi/11/XirxH/AJy5NP8ACn/bw/7FsVZJ/wA41f8A
KHW3yuf+ojFXsmKuxV2KuxVD6l/xzrr/AIwyf8ROKvn3/nEM/wDKWf8Abv8A+xnFX0G5+I/PFVuK
pZ5lOrDy5qp0chdXFncHTmK8wLn0m9E8T1+Om2KvlL8kvyg0z84tOvfM3nPzNqd5d2d41vLZCQF6
FEkDmab1vhfkRxVR9nFWaee/yv8AJf5ez2Umg6PB9VnFUu51+sTpcR9aSy8mSq0I4kd8KsUn8133
qrKsxWRGDIwO4INQcbV9F+V/PsWveXbPUkYCWVONwi/szJs4p89x7ZIRtUo/MJYdb8rX1pPIsXFP
VgnkYKqSx7oSzbAH7JPgcJih8l3vmzTYNpbuME1FFPqEEdiI+RH05WlNvI/5y+Z9Jju7Tyzos2sG
6KsVkRykUi7cuMRaoYHepXoMkJUrIWf/AJyR827y3sfl+zff07akLAH+VovVlHyaQYmRVMNG/wCc
WLi/nF35g1K81K4Y1dyfTDV3PJnMjN9DjIq9Q8t/84++S9H4PHYW6yr0kK+tIP8AZyVYfQ2Ks8s/
Kmi2lCsPNh+039lMVTSKCGIUijWMeCgD9WKricVaJxVrFWsVaJxVonFWsVaxVfbn/SIv9df14q8Q
/wCcvD/yif8A28P+xbFWS/8AONH/AChtr8rn/qIxV7LirsVdirsVQ+pf8c66/wCMMn/ETir58/5x
BP8Ayln/AG7/APsZxV9Bv9o/M4qtxVrFXzH+U88nkj89/PXkz+7tNQY3llEPsgK3rwqv/PC6Nf8A
VyUVZX+bvnzyJL5cvNN1LXbOK+QerawrJ60qzJ9mscXN15brWnfJEBD5kvvPlgnIQCS5YEcSBwRh
3+JviH/AZWlN/LP5gfmGtlNZaHrOm6DYXMnqNJdXVoJASAv+7S7rsNysYwg0qcQeQtL8wTJP5x/M
yyvXrX0zqUDBfHjJNK/H/gBgtXoPlr8tv+cfdN4vN5i0CaRdy9zqVrO1f9VpGT7gMVek6Zq/5I2E
aRx+adDKxiiouoWaqPkBJt9+Kp5B+Y35S24/c+adCSn7Q1C0r9/qVxVW/wCVp/lj/wBTfon/AHEb
T/qpirX/ACtP8sf+pv0T/uI2n/VTFWv+Vp/lj/1N+i/9xG0/6qYq0fzT/LL/AKm7Rf8AuI2n/VTF
Xf8AK0vyy/6m7Rf+4jaf9VMVa/5Wl+WX/U3aL/3EbT/qpirX/K0vyy/6m7Rf+4jaf9VMVaP5pfln
/wBTdov/AHEbT/qpirX/ACtH8s/+pu0X/uI2n/VTFUbpHnXybrN0bXR9e07UroKXNvaXcE8nEdW4
RuxpiqcYq0Tiq+3/AN6Iv9df14q8Q/5y+P8Ayif/AG8P+xbFWS/84z/8oZa/K5/6iMVezYq7FXYq
7FUPqX/HOuv+MMn/ABE4q+ev+cPzX/Fv/bv/AOxrFX0I/wBtvmcVW4q0Tir5Z/NryppXmX/nKXQd
B1D1IrHVbCJb1rd/SkYLHcH7dD19NQfbFWS+bv8AnHH8o/Lq28g0yea2nqvqS3U9Q43p8DINx028
cIpWN/8AKpfyc/6tLj3F3c/9VMOys+03/nFL8ktQsIL23gvmhuEDofrbd+3Tt0yKoTzH/wA4uflH
o+lSahDp9zcLCV9ZZbqU0QmnIcCnQkYQrDP+VS/k5/1aX/6S7n/qph2Vl/lb/nGf8ktf0365HbXi
SK5jmiS7eisNxSvI0KkdTgKpndf84kflDFbSyW9ldzTojNHE93JxZgNgePE7/PArz4/lL+ToNDpL
1/5irn/qpktlT/yj/wA4+fkn5hnnt2s7mC4hUOscV3LRkrQn4y52JHfvgKsn/wChRPya/wCWa+/6
S2/pgVgeqfkp+Umm6jcWNxpDrNbuUb/SrkVHZv7zow3GS2VW8v8A5Ifknquqw2E9hPbieqxvFdzV
50qoPNn69PngNKzb/oUP8mv+Wa+/6S2/pgViXmr8gPyj8v6itq+lSvFIgkhle6uOTDoa8XUVBHhk
hSpRD+Uf5LPNGs+mSpCzASPHd3HILXcjk7D8Mdlehp/ziN+TDqHWC9ZWAKsLtiCD36ZFXkPm7yHo
P5bf85C+U9N8qme3t5bFbtzLKZX9WRrqJviP7JSICmKvqW1laW1hkb7UiKzU8SAcVVMVX23+9EX+
uv68VeH/APOYBp/hL/t4f9iuKsm/5xl/5Qu0+Vz/ANRGKvZ8VdirsVdiqH1L/jnXX/GGT/iJxV88
f84emv8Ai3/t3f8AY1ir6Ff7bfM4qtJxVrFXzR+YuoWen/8AOWvla8vLiO1tobGMyTzOscagx3Q+
JmIA3OEK9U87eafJWueWryxj8w6Wbnh6tofrtvtNHuo+3+19n6cNK+dv8V/5f45FXrv5MfmppUdh
d6Pq+oQWS27etZy3MqRIVc0dAzlRUN8VPc4Qr0S78++Q7u1mtZ/MOlvDOjRyL9dt91cUI+3hV81a
xrsdhql1ZR3cd1FBKyR3MLrJHIgPwurKSDUZFWXflF+Z1rpXmM2l/dJBp2oJwkmlcJHHIlWjdmOw
HVfpwhXtn/Kx/JX/AFMemf8ASbb/APNeFXgf5lazpNl5quX0nULa9sbz/SY3tZkmVGcnmjFC1DyB
NPAjAVSzyn+Y7aH5hstR5kxRSAXCjflE/wAMgp48Tt74FfR4/MjySQD/AIj0zf8A5fLcf8b5JXk3
50a/5emurPWNI1ayvJJR9XvIba4ilcFRyjkKozNSlVJ9hgKvNYfOMsE0c0UpSWJg8bg7hlNQR8jg
V9J6B+bHlHUtFs7251qws7meJWntprmGN0kGzqVdlYfEDTbcb5JWM/m15l8p6t5aNxY67p0+o6e3
qwxRXcDSOjUWRFUOSTSjfRiQrw//ABX/AJf45FXu35W/mxoNz5WittX1W1srywb0ALqeOEvEBWNl
9RhWg+H6MkFeU/m3rel6x/zkZ5SudNvYL6BNNjjaa2lSZA4lvGKlkLCtGBpgKvpHT/8AeC2/4xJ/
xEYFV8VX23+9MX+uv68VeHf85hGn+Ev+3j/2K4qyj/nGP/lCrT5XP/URir2fFXYq7FXYqh9S/wCO
ddf8YZP+InFXzv8A84dH/lLv+3d/2NYq+hZD8bfM4qtxVrFXnH5o/kf5Q/MC5g1HUY3j1a2iEEdz
G7KHiDFgjgbfCWah98VfPmmflP5e0X/nJLR/Jk9ut9pMtvLNLbz/AL1WJsZ5RUN1oyA4Qr6EP5H/
AJXA0/wzYf8AIhP6ZKla/wCVH/ld/wBSzYf8iE/pjSu/5Uf+V3/Us2H/ACIT+mNK7/lR/wCV3/Us
2H/IhP6Y0rv+VH/ld/1LNh/yIT+mNK7/AJUf+V3/AFLNh/yIT+mNK7/lR/5Xf9SzYf8AIhP6Y0rv
+VH/AJXf9SzYf8iE/pjSu/5Uf+V3/Us2H/IhP6Y0rv8AlR/5Xf8AUs2H/IhP6Y0rv+VH/ld/1LNh
/wAiE/pjSu/5Uf8Ald/1LNh/yIT+mNK7/lR/5Xf9SzYf8iE/pjSu/wCVH/ld/wBSzYf8iE/pjSrl
/I78rydvLNgf+jdP6YKV8/flH5L0W/8Azb83COBYzo2pzR6Wi/DHEjT3CUCjbZEAHhkVfV9vF6Nv
FFWvpoqV8eIpiq/FV9sf9Ji/11/Xirw7/nMU/wDKI/8Abx/7FcVZR/zjF/yhNp8rr/qIxV7RirsV
dirsVQ+pf8c66/4wyf8AETir51/5w4P/ACl//bu/7GsVfQ0n22+ZxVbirROKtE4q+ctV/wDW0dC/
5gn/AO6bc4hX0TL/AHhyarMVdirsVdirsVdirsVdirsVdirsVdirsVVYPtH5YFfLn5Ef+Te8/f8A
bVf/AKibnIq+k8VaJxVUtv8AemL/AF1/Xirwz/nMc/8AKIf9vH/sVxVlP/OMH/KD2fyuv+onFXtO
KuxV2KuxVD6l/wAc66/4wyf8ROKvnP8A5w2Nf8X/APbu/wCxrFX0RJ/eN8ziqwnFWicVaxV856p/
62joX/ME/wD3TbnEK+iZf7w5JVmFXYq7FXYq7FXYq7FXYq7FXYq7FXYq7FVWD7R+WBXy3+RP/k3v
Pv8A21X/AOom5yKvpMnFWsVVLX/emL/XX9eKvC/+cyTT/CH/AG8f+xXFWVf84v8A/KDWfyuv+onF
XtWKuxV2KuxVD6l/xzrr/jDJ/wAROKvnL/nDQ1/xh/27v+xrFX0RJ/eN8z+vFVhOKtYq1ir5z1X/
ANbQ0P8A5gn/AO6bc4hX0NM37xsmqzlih3LFXcsVdyxV3LFXcsVdyxV3LFXcsVdyxV3LFXcsVdyx
VWtm+M/LEpfLv5E/+Td8+/8AbVf/AKibnIK+k8VaxVUtf96of9df14q8L/5zLNP8H/8Abx/7FcVZ
V/zi7/ygtn8rr/qJxV7XirsVdirsVQ+pf8c66/4wyf8AETir5w/5wxNf8Yf9u3/saxV9Eyn943zP
68VWYq1irROKvnPVv/Wz9D/5gn/7ptziFfQU7fvWyYQs5YVdyxV3LFXcsVdyxV3LFXcsVdyxV3LF
XcsVdyxV3LFXcsVVrRvjPywFL5i/In/ybnn3/tqP/wBRNzkFfSWKtYqqWp/0qH/XX9YxV4V/zmca
f4P/AO3l/wBiuKsr/wCcXP8AlBLL5XX/AFE4q9sxV2KuxV2KofUv+Oddf8YZP+InFXzf/wA4Xmv+
Mf8At2/9jWKvomX+8f5n9eKrMVaJxVonFXznq3/rZ2h/8wT/APdNucIV79cN++bJhCnywq7liruW
Ku5Yq7liruWKu5Yq7liruWKu5Yq7liruWKu5YqiLJv3jfL+OAq+ZfyJ/8m559/7aj/8AUTc5Wl9J
Yq0Tiqpa/wC9UP8Arr+sYq8K/wCc0DT/AAd/28v+xXFWWf8AOLX/ACgdl8rr/qJOKvbMVdirsVdi
qH1L/jnXX/GGT/iJxV82/wDOFpr/AIx/7dv/AGNYq+ipf71/9Y/rxVYTirROKtYq+c9X/wDWzND/
AOYJ/wDunXOEK96uW/fv/n2ywIUuWKu5Yq7liruWKu5Yq7liruWKu5Yq7liruWKu5Yq7liruWKom
xb943y/jgKvmr8if/Jt+fP8AtqP/ANRNzlaX0iTirWKqlr/vVD/rr+sYq8J/5zSNP8Hf9vL/ALFc
VZb/AM4sf8oFY/K6/wCok4q9txV2KuxV2KofUv8AjnXX/GGT/iJxV81/84Vn/lMv+3b/ANjeKvou
U/vX/wBY/rxVYTirWKtYq+c9Y/8AWy9E/wCYJ/8AunXOEK92uz/pD/P+GWBClXCrq4q6uKurirq4
q6uKurirq4q6uKurirq4q6uKuriqK08/vW/1f45Eq+bfyK/8m358/wC2o/8A1E3OVpfSOKtYqqWn
+9cP/GRf1jFXhH/Oah/5Q3/t5f8AYpirLv8AnFf/AJQGx+V1/wBRRxV7dirsVdirsVQ+pf8AHOuv
+MMn/ETir5p/5woNf8Zf9u3/ALG8VfRkx/ev/rH9eKrMVaxVonFXznrH/rZWif8AME//AHTrnCFe
53jD6y/z/hloQo8xiruYxV3MYq7mMVdzGKu5jFXcxiruYxV3MYq7mMVdzGKu5jFXcxiqM00kyOe1
KV+nAVfN/wCRX/k2vPZ/7Wj/APURc5Ul9I4q1iqpaH/S4f8AjIv6xirwf/nNc0/wb/28v+xTFWX/
APOKv/kv7H5Xf/UUcVe34q7FXYq7FUPqX/HOuv8AjDJ/xE4q+aP+cJjX/Gf/AG7f+xvFX0bN/ev/
AKx/XiqnirROKtE4q+bPzgs/OnlX88dO/MXTNBm1vTobT041g5EGRoJbdkcosjKQJOQ+Hf76IVED
/nJ3zvTf8s7+v/GWf/sjyXErf/Qz3nb/AMtnf/8AI6f/ALI8eJXf9DPedv8Ay2d//wAjp/8Asjx4
la/6Ge87f+Wzv/8AkdP/ANkePErv+hnvO3/ls7//AJHT/wDZHjxK7/oZ7zt/5bO//wCR0/8A2R48
Su/6Ge86/wDls7//AJHT/wDZHjxK7/oZ/wA6/wDls7//AJHT/wDZHjxK7/oZ/wA6/wDls7//AJHT
/wDZHjxK7/oZ/wA6/wDls7//AJHT/wDZHjxK7/oZ/wA6/wDls7//AJHT/wDZHjxK7/oZ/wA6/wDl
s7//AJHT/wDZHjxK7/oZ/wA6/wDltL7/AJHT/wDZHjxK7/oaDzp/5bS+/wCR0/8A2R48SoPVv+cj
fzS1OyksdD8iz6VqE4KR39yZZUj5CnIK8NunIdQWaniDjxKnf5Cfl1e+XLdrm+b1NQunM97NUt8R
+yvI7mnj3JORV7VirROKqtp/vXB/xkX/AIkMVeDf85smn+DP+3l/2KYqy/8A5xU/8l9YfK7/AOoo
4q9wxV2KuxV2KofUv+Oddf8AGGT/AIicVfM3/OEh/wCUz/7dn/Y3ir6Om/vn/wBY/rxVTJxVonFW
sVU5YopkMcqB0bqrCoxVAtoGjMam0SvyOKrT5e0X/lkT8f64q1/h7Rf+WRPx/rirX+HtF/5ZE/H+
uKtf4f0X/lkT8f64q7/D+i/8sifj/XFVv+H9F/5ZE/H+uKtf4f0X/lkT8f64q0fL+i/8sifj/XFX
f4f0X/lkT8f64q1/h/Rf+WRPx/rirX+H9G/5ZE/H+uKtHQNG/wCWRPx/rirX6A0b/lkT8f64q4aD
o4NRaoD4iv8AXFUXFDFEgSJAiD9lRQYquJxVrFVWz/3rg/4yL/xIYq8F/wCc2z/yhn/bz/7FMVZh
/wA4pf8AkvbD5Xf/AFFHFXuOKuxV2KuxVD6l/wAc66/4wyf8ROKvmX/nCI/8pp/27P8AsbxV9HTn
98/+sf14qpk4q1irWKtE4q0TirWKtYq0TirWKtYq1irROKtYq1irWKtE4q1irWKtYq0TirWKtYqq
2f8AvZB/xkX/AIkMVeC/85un/lC/+3n/ANimKsx/5xQ/8l5YfK7/AOoo4q9xxV2KuxV2KofUv+Od
df8AGGT/AIicVfMf/OD5r/jT/t2f9jeKvo+c/vpP9Y/rxVTxVrFWicVaJxVrFWsVaJxVrFWsVaxV
onFWsVaxVrFWicVaxVrFWsVaJxVrFWsVaxVVsz/pkH/GRP8AiQxV4J/znAaf4L/7ef8A2KYqzL/n
E/8A8l3p/wArv/qKOKvcsVdirsVdiqH1L/jnXX/GGT/iJxV8wf8AOEEipP50t3PGcjTmEZ2aiG6D
bexYVxV9I3FRNJX+Y/rxVTxVonFWicVaxVrFWicVaxVrFWsVaJxVrFWsVaxVonFWsVaxVrFWicVa
xVrFWsVaJxVWsQTeQACp5qfuNcVeAf8AOcM0Zl8mRBgZEXUnZO4VjahT9PE4qzb/AJxPDD8utPqC
Dxuzv4G6JGKvcsVdirsVdiq2SNZI2jb7Lgq3yIpir4x1m91v8iPzxuNaitmn8vas0hlgWirLbTOH
ljSuweGSjJ7U7E4q+qfKfnjyT530+O/8v6pDeB1q8KOFuIz3WWE/GhHuPltiqefo6L+ZvwxV36Ni
/mb8MVa/RkX87fhirv0ZF/O34Yq79Fw/zt+GKtfoqH+dvwxV36Kh/nb8P6Yq1+iYf52/DFXfomH+
dvwxV36Ig/nb8P6Yq1+h4P52/D+mKu/Q8H87fh/TFXfoaD+dvw/pirX6Fg/nb8P6Yq79Cwf78f8A
D+mKtfoS3/34/wCH9MVd+g7f/fj/AIf0xVr9B2/+/H/D+mKu/QVv/vx/w/pirv0Fb/78f8P6Yq1+
gbf/AH4/4f0xV36Atv8Afj/h/TFUm8z+cPInkSwl1DXtThtOKkpFI4a4k8FihX43J9h89sVfEX5i
+dte/OD8yFuLW3aOOXjaaTZE19G2QluUhG1TVnc/R0AxV9j/AJPeXI9C0K2sYB+5tLdIgxFCxNPi
Pu3Cp+eKvQsVdirsVdirsVYn+Y35b+X/AD1ocmmarEpelYJ6VZHHQjv92Kvkfzf/AM4t+bdJvXSw
mWWAk+mZgxXj7SRhq/SgxVjv/Qvnn7xtf+Cn/wCqWKu/6F88/eNr/wAFP/1SxV3/AEL55+8bX/gp
/wDqlirv+hfPP3ja/wDBT/8AVLFXf9C+efvG1/4Kf/qlirv+hfPP3ja/8FP/ANUsVd/0L55+8bX/
AIKf/qlirv8AoXzz942v/BT/APVLFXf9C+efvG1/4Kf/AKpYq7/oXzz942v/AAU//VLFXf8AQvnn
7xtf+Cn/AOqWKu/6F88/eNr/AMFP/wBUsVd/0L55+8bX/gp/+qWKu/6F88/eNr/wU/8A1SxV3/Qv
nn7xtf8Agp/+qWKu/wChfPP3ja/8FP8A9UsVd/0L55+8bX/gp/8Aqlirv+hfPP3ja/8ABT/9UsVd
/wBC+efvG1/4Kf8A6pYq7/oXzz942v8AwU//AFSxV3/Qvnn7xtf+Cn/6pYq7/oXzz942v/BT/wDV
LFUXpn/OOfnK4uAl3PBBF3eMSyN/wLLH+vFXvX5Wfknpnlwf6LCZ72QD17qWhcjrRiBRE/yR174q
9302wjsbVYU3PV28WPfFUVirsVdirsVdirsVWyRRyqUkQOh6qwBH44qhTo2lk/7zJ92Ku/Q2l/8A
LMn44q79DaX/AMsyfjirv0Npf/LMn44q79DaX/yzJ+OKu/Q2l/8ALMn44q79DaX/AMsyfjirv0Np
f/LMn44q79DaX/yzJ+OKu/Q2l/8ALMn44q79DaX/AMsyfjirv0Npf/LMn44q79DaX/yzJ+OKu/Q2
l/8ALMn44q79DaX/AMsyfjirv0Npf/LMn44q79DaX/yzJ+OKu/Q2l/8ALMn44q79DaX/AMsyfjir
v0Npf/LMn44q79DaX/yzJ+OKu/Q2l/8ALMn44q4aNpYP+8yfdiqKjijiUJGgRB0VQAPwxVdirsVd
ir//2Q==</xapGImg:image>
              </rdf:li>
            </rdf:Alt>
          </xap:Thumbnails>
        </rdf:Description>
        <rdf:Description
           rdf:about="uuid:cad153d1-c0be-42db-ac20-77de9e78edc5">
          <xapMM:DocumentID>
uuid:1f2d6d45-53b9-4fd9-998d-85ee23b48973</xapMM:DocumentID>
        </rdf:Description>
        <rdf:Description
           rdf:about="uuid:cad153d1-c0be-42db-ac20-77de9e78edc5">
          <dc:format>
image/svg+xml</dc:format>
          <dc:title>
            <rdf:Alt>
              <rdf:li
                 xml:lang="x-default">
mime.ai</rdf:li>
            </rdf:Alt>
          </dc:title>
        </rdf:Description>
      </rdf:RDF>
    </x:xmpmeta>
    <xpacket>end='w'    </xpacket>
  </metadata>
  <g
     id="Layer_1">
    <path
       opacity="0.2"
       d="M44,15.5c-9.374,0-17,7.626-17,17v200c0,9.374,7.626,17,17,17h176c9.375,0,17-7.626,17-17v-200     c0-9.374-7.625-17-17-17H44z"
       id="path5749" />
    <path
       opacity="0.2"
       d="M42,13.5c-9.374,0-17,7.626-17,17v200c0,9.374,7.626,17,17,17h176c9.375,0,17-7.626,17-17v-200     c0-9.374-7.625-17-17-17H42z"
       id="path5750" />
    <path
       opacity="0.2"
       d="M40,12.5c-9.374,0-17,7.626-17,17v200c0,9.374,7.626,17,17,17h176c9.375,0,17-7.626,17-17v-200     c0-9.374-7.625-17-17-17H40z"
       id="path5751" />
    <linearGradient
       id="XMLID_9_"
       gradientUnits="userSpaceOnUse"
       x1="128.9995"
       y1="11"
       x2="128.9995"
       y2="245.0005">
      <stop
         offset="0"
         style="stop-color:#494949"
         id="stop5753" />
      <stop
         offset="1"
         style="stop-color:#000000"
         id="stop5754" />
      <a:midPointStop
         offset="0"
         style="stop-color:#494949"
         id="midPointStop5755" />
      <a:midPointStop
         offset="0.5"
         style="stop-color:#494949"
         id="midPointStop5756" />
      <a:midPointStop
         offset="1"
         style="stop-color:#000000"
         id="midPointStop5757" />
    </linearGradient>
    <path
       fill="url(#XMLID_9_)"
       d="M41,11c-9.374,0-17,7.626-17,17v200c0,9.374,7.626,17,17,17h176c9.375,0,17-7.626,17-17V28     c0-9.374-7.625-17-17-17H41z"
       id="path5758" />
    <path
       fill="#FFFFFF"
       d="M28,228c0,6.627,5.373,12,12,12h176c6.627,0,12-5.373,12-12V28c0-6.627-5.373-12-12-12H40     c-6.627,0-12,5.373-12,12V228z"
       id="path5759" />
    <linearGradient
       id="XMLID_10_"
       gradientUnits="userSpaceOnUse"
       x1="29.0532"
       y1="29.0532"
       x2="226.9471"
       y2="226.9471">
      <stop
         offset="0"
         style="stop-color:#FFFFFF"
         id="stop5761" />
      <stop
         offset="1"
         style="stop-color:#DADADA"
         id="stop5762" />
      <a:midPointStop
         offset="0"
         style="stop-color:#FFFFFF"
         id="midPointStop5763" />
      <a:midPointStop
         offset="0.5"
         style="stop-color:#FFFFFF"
         id="midPointStop5764" />
      <a:midPointStop
         offset="1"
         style="stop-color:#DADADA"
         id="midPointStop5765" />
    </linearGradient>
    <path
       fill="url(#XMLID_10_)"
       d="M40,21c-3.86,0-7,3.14-7,7v200c0,3.859,3.14,7,7,7h176c3.859,0,7-3.141,7-7V28     c0-3.86-3.141-7-7-7H40z"
       id="path5766" />
    <g
       id="g5767">
      <path
         opacity="0.2"
         d="M198.322,105.797h-0.878H82.048l112.289-30.089c0.649-0.174,1.187-0.589,1.522-1.17      c0.333-0.578,0.422-1.253,0.248-1.899l-3.706-13.831c-0.165-0.634-0.595-1.192-1.169-1.522c-0.579-0.332-1.255-0.42-1.898-0.246      l-0.85,0.229c0,0,0.143,0.072,0.177,0.09c-0.928,0.119-2.551,0.546-5.708,1.393L59.695,91.775      c-0.644,0.17-1.184,0.585-1.519,1.162c-0.225,0.391-0.338,0.818-0.338,1.253c0,0.218,0.027,0.437,0.086,0.653l3.682,13.729      v14.046c0,1.38,1.122,2.5,2.503,2.5h5.228v73.606c0,1.254,0.938,2.322,2.182,2.484l0.752,0.095      c0.818,0.099,2.962,0.325,5.465,0.325h112.367c4.631,0,8.397-3.821,8.397-8.521v-68.004c1.296-0.094,2.329-1.168,2.329-2.485      v-14.317C200.829,106.921,199.704,105.797,198.322,105.797z"
         id="path5768" />
      <path
         opacity="0.2"
         d="M196.99,104.464h-0.88H80.715l112.29-30.091c0.646-0.173,1.186-0.588,1.52-1.169      c0.333-0.578,0.423-1.253,0.251-1.899l-3.707-13.83c-0.168-0.635-0.595-1.191-1.169-1.522c-0.579-0.333-1.255-0.421-1.898-0.247      l-0.852,0.229c0,0,0.144,0.072,0.179,0.09c-0.928,0.119-2.552,0.546-5.709,1.393L58.362,90.441      c-0.644,0.172-1.184,0.586-1.521,1.164c-0.224,0.389-0.337,0.818-0.337,1.251c0,0.219,0.028,0.437,0.087,0.653l3.68,13.73      v14.041c0,1.383,1.124,2.506,2.505,2.506h5.227v73.604c0,1.255,0.938,2.322,2.182,2.485l0.752,0.095      c0.818,0.1,2.963,0.325,5.465,0.325h112.366c4.632,0,8.398-3.823,8.398-8.521V123.77c1.296-0.094,2.329-1.166,2.329-2.488      v-14.314C199.495,105.587,198.37,104.464,196.99,104.464z"
         id="path5769" />
      <path
         d="M195.655,103.129h-0.878H79.38l112.292-30.088c0.646-0.174,1.186-0.59,1.521-1.168c0.333-0.58,0.422-1.254,0.248-1.9      l-3.706-13.83c-0.166-0.639-0.595-1.193-1.169-1.524c-0.579-0.333-1.254-0.421-1.898-0.247l-0.85,0.229      c0,0,0.143,0.072,0.177,0.09c-0.929,0.119-2.552,0.547-5.71,1.394L57.028,89.107c-0.644,0.171-1.184,0.586-1.521,1.164      c-0.224,0.389-0.337,0.818-0.337,1.252c0,0.217,0.028,0.438,0.087,0.653l3.681,13.729v14.044c0,1.381,1.123,2.504,2.504,2.504      h5.227v73.605c0,1.254,0.938,2.321,2.182,2.481l0.753,0.097c0.818,0.101,2.962,0.324,5.464,0.324h112.366      c4.632,0,8.397-3.821,8.397-8.521v-68.007c1.298-0.092,2.329-1.164,2.329-2.484v-14.316      C198.16,104.252,197.036,103.129,195.655,103.129z"
         id="path5770" />
      <path
         d="M75.067,109.602c-3.895,0-7.064,3.226-7.064,7.188v79.27c0,0.588,0.435,1.083,1.02,1.16l0.752,0.097      c0.835,0.101,2.881,0.313,5.293,0.313h112.366c3.896,0,7.065-3.227,7.065-7.188v-73.651c0-3.962-3.17-7.188-7.065-7.188H75.067z      "
         id="path5771" />
      <path
         fill="#FFFFFF"
         d="M70.034,195.284c0,0,2.255,0.292,5.033,0.292h112.366c2.776,0,5.031-2.3,5.031-5.136v-73.651      c0-2.839-2.255-5.14-5.031-5.14H75.067c-2.778,0-5.033,2.301-5.033,5.14V195.284z"
         id="path5772" />
      <linearGradient
         id="XMLID_11_"
         gradientUnits="userSpaceOnUse"
         x1="131.249"
         y1="214.6357"
         x2="131.249"
         y2="120.9572">
        <stop
           offset="0.0056"
           style="stop-color:#FFFFFF"
           id="stop5774" />
        <stop
           offset="0.045"
           style="stop-color:#F8F8FA"
           id="stop5775" />
        <stop
           offset="0.1027"
           style="stop-color:#E4E4EC"
           id="stop5776" />
        <stop
           offset="0.1713"
           style="stop-color:#C4C4D4"
           id="stop5777" />
        <stop
           offset="0.1854"
           style="stop-color:#BDBDCF"
           id="stop5778" />
        <stop
           offset="0.1896"
           style="stop-color:#BEBED0"
           id="stop5779" />
        <stop
           offset="0.2751"
           style="stop-color:#CACAD8"
           id="stop5780" />
        <stop
           offset="0.3595"
           style="stop-color:#CECEDB"
           id="stop5781" />
        <stop
           offset="0.7865"
           style="stop-color:#E9E9EF"
           id="stop5782" />
        <a:midPointStop
           offset="0.0056"
           style="stop-color:#FFFFFF"
           id="midPointStop5783" />
        <a:midPointStop
           offset="0.625"
           style="stop-color:#FFFFFF"
           id="midPointStop5784" />
        <a:midPointStop
           offset="0.1854"
           style="stop-color:#BDBDCF"
           id="midPointStop5785" />
        <a:midPointStop
           offset="0.2954"
           style="stop-color:#BDBDCF"
           id="midPointStop5786" />
        <a:midPointStop
           offset="0.3595"
           style="stop-color:#CECEDB"
           id="midPointStop5787" />
        <a:midPointStop
           offset="0.5"
           style="stop-color:#CECEDB"
           id="midPointStop5788" />
        <a:midPointStop
           offset="0.7865"
           style="stop-color:#E9E9EF"
           id="midPointStop5789" />
      </linearGradient>
      <path
         opacity="0.8"
         fill="url(#XMLID_11_)"
         d="M70.034,195.284c0,0,2.255,0.292,5.033,0.292h112.366      c2.776,0,5.031-2.3,5.031-5.136v-73.651c0-2.839-2.255-5.14-5.031-5.14H75.067c-2.778,0-5.033,2.301-5.033,5.14V195.284z"
         id="path5790" />
      <g
         opacity="0.5"
         id="g5791">
        <path
           fill="#FFFFFF"
           d="M187.434,111.649H75.067c-2.778,0-5.033,2.301-5.033,5.14v78.495c0,0,2.255,0.292,5.033,0.292h112.366       c2.776,0,5.031-2.3,5.031-5.136v-73.651C192.465,113.95,190.21,111.649,187.434,111.649 M188.953,190.44       c0,0.896-0.681,1.624-1.52,1.624H75.067c-0.538,0-1.039-0.014-1.521-0.033c0-5.975,0-75.242,0-75.242       c0-0.896,0.682-1.627,1.521-1.627h112.366c0.839,0,1.52,0.73,1.52,1.627V190.44z"
           id="path5792" />
      </g>
      <linearGradient
         id="XMLID_12_"
         gradientUnits="userSpaceOnUse"
         x1="131.25"
         y1="117.875"
         x2="131.25"
         y2="124.9124">
        <stop
           offset="0"
           style="stop-color:#616161"
           id="stop5794" />
        <stop
           offset="0.1569"
           style="stop-color:#88888A"
           id="stop5795" />
        <stop
           offset="0.326"
           style="stop-color:#ABABAE"
           id="stop5796" />
        <stop
           offset="0.4963"
           style="stop-color:#C6C6CA"
           id="stop5797" />
        <stop
           offset="0.6657"
           style="stop-color:#D9D9DF"
           id="stop5798" />
        <stop
           offset="0.834"
           style="stop-color:#E5E5EB"
           id="stop5799" />
        <stop
           offset="1"
           style="stop-color:#E9E9EF"
           id="stop5800" />
        <a:midPointStop
           offset="0"
           style="stop-color:#616161"
           id="midPointStop5801" />
        <a:midPointStop
           offset="0.2954"
           style="stop-color:#616161"
           id="midPointStop5802" />
        <a:midPointStop
           offset="1"
           style="stop-color:#E9E9EF"
           id="midPointStop5803" />
      </linearGradient>
      <path
         opacity="0.8"
         fill="url(#XMLID_12_)"
         d="M70.034,126.909c0,0,2.255,0.056,5.033,0.056h112.366      c2.776,0,5.031-0.422,5.031-0.941v-13.438c0-0.517-2.255-0.936-5.031-0.936H75.067c-2.778,0-5.033,0.419-5.033,0.936V126.909z"
         id="path5804" />
      <path
         d="M194.777,104.464H61.442c-0.646,0-1.171,0.524-1.171,1.169v14.316c0,0.645,0.524,1.169,1.171,1.169h134.213      c0.648,0,1.171-0.524,1.171-1.169v-14.316c0-0.645-0.522-1.169-1.171-1.169H194.777z"
         id="path5805" />
      <linearGradient
         id="XMLID_13_"
         gradientUnits="userSpaceOnUse"
         x1="128.5493"
         y1="110.397"
         x2="128.5493"
         y2="116.1141">
        <stop
           offset="0"
           style="stop-color:#FFFFFF"
           id="stop5807" />
        <stop
           offset="1"
           style="stop-color:#E9E9EF"
           id="stop5808" />
        <a:midPointStop
           offset="0"
           style="stop-color:#FFFFFF"
           id="midPointStop5809" />
        <a:midPointStop
           offset="0.5"
           style="stop-color:#FFFFFF"
           id="midPointStop5810" />
        <a:midPointStop
           offset="1"
           style="stop-color:#E9E9EF"
           id="midPointStop5811" />
      </linearGradient>
      <rect
         x="62.321"
         y="106.51"
         fill="url(#XMLID_13_)"
         width="132.456"
         height="12.56"
         id="rect5812" />
      <linearGradient
         id="XMLID_14_"
         gradientUnits="userSpaceOnUse"
         x1="591.0957"
         y1="105.5591"
         x2="591.0957"
         y2="125.3454"
         gradientTransform="matrix(1 0 0.2679 1 -494.1411 0)">
        <stop
           offset="0"
           style="stop-color:#CECEDB"
           id="stop5814" />
        <stop
           offset="0.2977"
           style="stop-color:#828282"
           id="stop5815" />
        <stop
           offset="1"
           style="stop-color:#000000"
           id="stop5816" />
        <a:midPointStop
           offset="0"
           style="stop-color:#CECEDB"
           id="midPointStop5817" />
        <a:midPointStop
           offset="0.5"
           style="stop-color:#CECEDB"
           id="midPointStop5818" />
        <a:midPointStop
           offset="0.2977"
           style="stop-color:#828282"
           id="midPointStop5819" />
        <a:midPointStop
           offset="0.5"
           style="stop-color:#828282"
           id="midPointStop5820" />
        <a:midPointStop
           offset="1"
           style="stop-color:#000000"
           id="midPointStop5821" />
      </linearGradient>
      <path
         fill="url(#XMLID_14_)"
         d="M72.298,119.069H84.86l-5.582-12.56H66.72L72.298,119.069 M130.661,106.51h-12.559l5.578,12.56      h12.561L130.661,106.51 M104.968,106.51H92.407l5.582,12.56h12.561L104.968,106.51 M182.047,106.51h-12.564l5.583,12.56h12.559      L182.047,106.51 M156.353,106.51H143.79l5.58,12.56h12.571L156.353,106.51z"
         id="path5822" />
      <path
         d="M187.012,55.66l-0.85,0.229c0.002-0.002,0.002-0.002,0.002-0.002l-128.79,34.51c-0.301,0.078-0.557,0.276-0.713,0.545      c-0.154,0.27-0.196,0.588-0.115,0.887l3.707,13.834c0.168,0.624,0.811,0.994,1.436,0.826l129.637-34.736      c0.623-0.168,0.995-0.809,0.827-1.434l-3.705-13.832c-0.08-0.3-0.276-0.555-0.546-0.711S187.312,55.579,187.012,55.66z"
         id="path5823" />
      <linearGradient
         id="XMLID_15_"
         gradientUnits="userSpaceOnUse"
         x1="123.4316"
         y1="77.6396"
         x2="125.1988"
         y2="84.2349">
        <stop
           offset="0"
           style="stop-color:#FFFFFF"
           id="stop5825" />
        <stop
           offset="1"
           style="stop-color:#CECEDB"
           id="stop5826" />
        <a:midPointStop
           offset="0"
           style="stop-color:#FFFFFF"
           id="midPointStop5827" />
        <a:midPointStop
           offset="0.5"
           style="stop-color:#FFFFFF"
           id="midPointStop5828" />
        <a:midPointStop
           offset="1"
           style="stop-color:#CECEDB"
           id="midPointStop5829" />
      </linearGradient>
      <polygon
         fill="url(#XMLID_15_)"
         points="62.005,104.28 189.949,69.998 186.697,57.868 58.757,92.147 "
         id="polygon5830" />
      <linearGradient
         id="XMLID_16_"
         gradientUnits="userSpaceOnUse"
         x1="122.3975"
         y1="72.5981"
         x2="128.8092"
         y2="96.5275">
        <stop
           offset="0"
           style="stop-color:#CECEDB"
           id="stop5832" />
        <stop
           offset="0.0054"
           style="stop-color:#CBCBD7"
           id="stop5833" />
        <stop
           offset="0.0705"
           style="stop-color:#A5A5AD"
           id="stop5834" />
        <stop
           offset="0.1338"
           style="stop-color:#87878C"
           id="stop5835" />
        <stop
           offset="0.1941"
           style="stop-color:#727274"
           id="stop5836" />
        <stop
           offset="0.2502"
           style="stop-color:#656566"
           id="stop5837" />
        <stop
           offset="0.2977"
           style="stop-color:#616161"
           id="stop5838" />
        <stop
           offset="1"
           style="stop-color:#000000"
           id="stop5839" />
        <a:midPointStop
           offset="0"
           style="stop-color:#CECEDB"
           id="midPointStop5840" />
        <a:midPointStop
           offset="0.3269"
           style="stop-color:#CECEDB"
           id="midPointStop5841" />
        <a:midPointStop
           offset="0.2977"
           style="stop-color:#616161"
           id="midPointStop5842" />
        <a:midPointStop
           offset="0.5"
           style="stop-color:#616161"
           id="midPointStop5843" />
        <a:midPointStop
           offset="1"
           style="stop-color:#000000"
           id="midPointStop5844" />
      </linearGradient>
      <path
         fill="url(#XMLID_16_)"
         d="M71.64,101.699l12.135-3.25l-5.391-11.563l-12.132,3.254L71.64,101.699 M128.015,73.592      l-12.131,3.25l5.39,11.559l12.136-3.252L128.015,73.592 M103.199,80.241l-12.134,3.251l5.393,11.562l12.131-3.254      L103.199,80.241 M177.646,60.291l-12.127,3.25l5.39,11.561l12.135-3.25L177.646,60.291 M152.833,66.943l-12.137,3.246      l5.393,11.563l12.135-3.252L152.833,66.943z"
         id="path5845" />
    </g>
    <rect
       id="_x3C_Slice_x3E_"
       fill="none"
       width="256"
       height="256" />
  </g>
</svg>
